<svg xmlns="http://www.w3.org/2000/svg" viewBox="0 0 26.98 17.22"><g id="Livello_2" data-name="Livello 2"><g id="Livello_1-2" data-name="Livello 1"><path d="M22.66,4.29a4.31,4.31,0,0,0-4.18,3.32H16.33V5.29a1,1,0,1,0-2,0V7.61H4A8.44,8.44,0,0,1,5.39,4.39a6.45,6.45,0,0,1,5-2.39,1,1,0,0,0,0-2C5.82,0,3.64,3.15,1.72,5.93,1.22,6.66.74,7.35.23,8c0,0,0,.06-.05.09a.5.5,0,0,0-.08.12l0,.09a.74.74,0,0,0,0,.14.68.68,0,0,0,0,.14s0,0,0,0,0,0,0,.05A.68.68,0,0,0,0,8.8a.57.57,0,0,0,0,.14L.1,9a.83.83,0,0,0,.08.12s0,.06.05.08c.51.63,1,1.32,1.49,2A28.48,28.48,0,0,0,3.8,14.05v0h0a8.39,8.39,0,0,0,6.61,3.15,1,1,0,1,0,0-2A6.47,6.47,0,0,1,5.36,12.8,6.65,6.65,0,0,1,3.92,9.61H14.33v2.32a1,1,0,0,0,2,0V9.61h2.15a4.31,4.31,0,1,0,4.18-5.32Zm0,6.64A2.32,2.32,0,1,1,25,8.61,2.32,2.32,0,0,1,22.66,10.93Z"/></g></g></svg>
