<svg id="Livello_1" data-name="Livello 1" xmlns="http://www.w3.org/2000/svg" viewBox="0 0 60 60"><defs><style>.cls-1{fill:#fff;}</style></defs><path class="cls-1" d="M41.47,38.51,33,30l8.52-8.51A2.09,2.09,0,0,0,40,17.92h0a2.11,2.11,0,0,0-1.48.61L30,27.05l-8.51-8.52a2.14,2.14,0,0,0-3,0,2.1,2.1,0,0,0,0,3L27.05,30l-8.52,8.51a2.09,2.09,0,0,0,3,3L30,33l8.51,8.52a2.09,2.09,0,0,0,3-3Z"/><path class="cls-1" d="M56.87,16.66h0l-.27-.52h0l-.27-.52h0A29.94,29.94,0,0,0,31.88.06V0l-.59,0-.58,0V0A30.09,30.09,0,0,0,5,13.4H5l-.31.5-.32.49h0a30.1,30.1,0,0,0-1.25,29h0l.27.52h0l.27.52h0A29.94,29.94,0,0,0,28.12,59.94v0l.59,0,.58,0h0L30,60A30.15,30.15,0,0,0,55,46.6h0l.31-.5.32-.49h0A30.1,30.1,0,0,0,56.87,16.66ZM29,53.48a23.57,23.57,0,0,1-11.61-3.66h0A23.48,23.48,0,1,1,29,53.48ZM45.48,5.67A28.86,28.86,0,0,1,55.3,16.15l-3.7,1.93a24.63,24.63,0,0,0-20-12.7l.18-4.16A28.78,28.78,0,0,1,45.48,5.67ZM4.16,42.8A28.94,28.94,0,0,1,5.36,15l3.51,2.23a24.79,24.79,0,0,0-1,23.63l-1.09.57Zm25.18,16,.18-4.16a24.73,24.73,0,0,0,21-10.93L54,46A28.94,28.94,0,0,1,29.34,58.83Z"/></svg>