<?xml version="1.0" encoding="utf-8"?>
<!-- Generator: Adobe Illustrator 25.2.1, SVG Export Plug-In . SVG Version: 6.00 Build 0)  -->
<svg version="1.1" xmlns="http://www.w3.org/2000/svg" xmlns:xlink="http://www.w3.org/1999/xlink" x="0px" y="0px"
	 viewBox="0 0 1920 1080" style="enable-background:new 0 0 1920 1080;" xml:space="preserve">
<style type="text/css">
	.st0{fill:url(#SVGID_1_);}
	.st1{fill:#FFFFFF;}
	.st2{fill:#FCC201;stroke:#FCC201;stroke-width:2;stroke-linecap:round;stroke-linejoin:round;}
	.st3{fill:none;stroke:#FCC201;stroke-width:2;stroke-linecap:round;stroke-linejoin:round;}
	.st4{fill:#FFFFFF;stroke:#FCC201;stroke-width:2;stroke-linecap:round;stroke-linejoin:round;}
	.st5{fill:#FCC201;}
</style>
<g id="Livello_2">
</g>
<g id="Livello_1">
	<g id="Livello_7">
		
			<linearGradient id="SVGID_1_" gradientUnits="userSpaceOnUse" x1="443.1743" y1="367.1907" x2="1396.1552" y2="-246.9671" gradientTransform="matrix(1 0 0 -1 0 686.0638)">
			<stop  offset="0" style="stop-color:#575756"/>
			<stop  offset="1" style="stop-color:#000000"/>
		</linearGradient>
		<path class="st0" d="M594.5,551.4c14,0,24.7-4,32.1-11.9s11.2-19.1,11.2-33.6v-95.3c0-14.5-3.7-25.7-11.1-33.6
			c-7.4-7.9-18.1-11.9-32.2-11.9c-14,0-24.7,4-32.1,11.9c-7.4,7.9-11.1,19.1-11.1,33.6v95.3c0,14.5,3.7,25.7,11.1,33.7
			C569.9,547.5,580.6,551.4,594.5,551.4z M579.8,408.8c0-11.9,4.9-17.8,14.8-17.9s14.8,5.9,14.8,17.9v98.8
			c0,11.9-4.9,17.8-14.8,17.9s-14.8-5.9-14.8-17.9V408.8z M682.2,548.8h-25.3V367.7h35.8l27.7,108.4h0.5V367.7h25.4v181.1H717
			l-34.1-132.2h-0.5L682.2,548.8z M845,548.8h-77.6V367.7h77.6v25.9h-49.1v47.9H835v25.9h-39.1v55.5h49.2L845,548.8z M931.2,475.1
			h13.4c14.1,0,24.7-3.8,31.8-11.3c7.1-7.5,10.6-18.7,10.6-33.4v-18c0-14.7-3.5-25.8-10.6-33.4c-7.1-7.6-17.7-11.3-31.8-11.3h-41.8
			v181.1h28.5L931.2,475.1z M931.2,393.6h13.4c3.9-0.3,7.7,1.1,10.5,3.9c2.3,2.6,3.5,7,3.5,13.2v21.5c0,6.3-1.2,10.7-3.5,13.2
			c-2.8,2.7-6.6,4.1-10.5,3.8h-13.5L931.2,393.6z M1002.6,367.7h28.6v181.1h-28.6L1002.6,367.7z M1129.9,548.8h-77.6V367.7h77.6
			v25.9h-49.2v47.9h39.1v25.9h-39.1v55.5h49.2L1129.9,548.8z M1155.2,539.8c-7.2-7.8-10.8-18.7-10.7-32.9v-97.3
			c0-14.2,3.6-25.1,10.7-32.9c7.2-7.8,17.5-11.6,31.2-11.6c13.6,0,24,3.9,31.2,11.6c7.2,7.8,10.8,18.7,10.7,32.9v19.1h-26.9v-20.9
			c0-11.3-4.8-16.8-14.2-16.8s-14.2,5.6-14.2,16.8V509c0,11,4.7,16.5,14.2,16.5c9.5,0,14.2-5.5,14.2-16.5v-27.7h26.9v25.6
			c0,14.2-3.6,25.1-10.7,32.9s-17.6,11.6-31.2,11.7C1172.7,551.4,1162.3,547.5,1155.2,539.8z M1245.4,367.7h77.6v25.8h-49.1v47.9
			h39.1v25.9h-39.1v55.5h49.1v25.9h-77.6L1245.4,367.7z M506.4,584.3h29.8l-22.3,220.2h-43.1L455,656h-0.6l-15.7,148.5h-45.9
			l-22.3-220.2h33.4l15.4,169.3h0.6l16.4-169.3H474l16.4,169.3h0.7L506.4,584.3z M603.9,581.2c-17,0-30,4.8-39,14.5
			c-9,9.7-13.5,23.3-13.5,40.9v115.8c0,17.6,4.5,31.3,13.5,40.9s22,14.5,39,14.5c17,0,30-4.8,39-14.5s13.5-23.3,13.5-40.9V636.5
			c0-17.6-4.5-31.2-13.5-40.9C633.9,586,620.9,581.1,603.9,581.2z M621.9,754.6c0,14.5-6,21.7-17.9,21.7c-12,0-17.9-7.2-17.9-21.7
			V634.3c0-14.5,6-21.7,17.9-21.7c12,0,17.9,7.2,17.9,21.7V754.6z M782.8,777.8v-38.7c0-13-1.7-23.4-5.2-31.2
			c-3.3-7.6-9.8-13.3-17.8-15.4v-0.6c15.1-6.1,22.6-20.6,22.6-43.4V635c0-17.2-4.1-29.9-12.3-38.2c-8.2-8.3-21.2-12.4-39-12.4h-51.3
			v220.2h34.6v-94.4h11.9c8,0,13.6,2,16.9,6c3.3,4,4.9,11,4.9,21.1v40.3c-0.1,5.7,0.1,11.3,0.6,16.9c0.5,3.4,1.3,6.8,2.5,10.1h35.3
			c-1.6-3.6-2.7-7.5-3.2-11.5C782.9,788,782.7,782.9,782.8,777.8z M747.8,655.5c0,8.4-1.7,14.3-5.2,17.9c-3.5,3.6-8.7,5.3-15.6,5.3
			h-12.6v-63h15.6c6.1,0,10.5,1.8,13.4,5.3c2.8,3.6,4.3,9.4,4.3,17.3L747.8,655.5z M841.2,773.2h57v31.5h-91.6V584.4h34.6V773.2z
			 M967.7,584.4h-52.9v220.2h52.9c17.2,0,30.1-4.6,38.7-13.8c8.6-9.2,12.9-22.8,12.9-40.6V638.7c0-17.8-4.3-31.3-12.9-40.6
			C997.8,588.9,984.9,584.3,967.7,584.4L967.7,584.4z M984.6,751.8c0,7.5-1.5,13-4.6,16.4c-3.4,3.5-8.2,5.3-13.1,5h-17.6V615.8H967
			c4.9-0.3,9.7,1.5,13.1,5c3,3.4,4.6,8.8,4.6,16.4V751.8z M1082.2,584.4h107.1v31.5h-36.3v188.7h-34.6V615.8h-36.2L1082.2,584.4z
			 M1254.7,581.2c-17,0-30,4.8-39,14.5c-9,9.6-13.5,23.3-13.5,40.9v115.8c0,17.6,4.5,31.2,13.5,40.9s22,14.5,39,14.5
			c17,0,30-4.8,39-14.5s13.5-23.3,13.5-40.9V636.5c0-17.6-4.5-31.2-13.5-40.9C1284.7,585.9,1271.7,581.1,1254.7,581.2z
			 M1272.6,754.6c0,14.5-6,21.7-17.9,21.7c-12,0-17.9-7.2-17.9-21.7V634.3c0-14.5,6-21.7,17.9-21.7c12,0,17.9,7.2,17.9,21.7V754.6z
			 M1399.2,584.3h33.4v168c0,17.8-4.4,31.5-13.2,41.1c-8.8,9.6-21.6,14.3-38.4,14.3c-16.8,0-29.6-4.8-38.4-14.3
			c-8.8-9.5-13.2-23.2-13.2-41.1V584.3h34.6v170.6c0,7.5,1.5,13,4.6,16.4c7.4,6.7,18.7,6.7,26.1,0c3-3.4,4.5-8.8,4.6-16.4
			L1399.2,584.3z M1560.6,793.1c-0.5-5.1-0.7-10.2-0.6-15.3v-38.8c0-13-1.7-23.4-5.2-31.2c-3.3-7.6-9.8-13.3-17.8-15.4v-0.6
			c15.1-6.1,22.6-20.6,22.6-43.4V635c0-17.2-4.1-29.9-12.3-38.2s-21.2-12.4-39-12.4h-51.2v220.2h34.6v-94.4h12c8,0,13.6,2,16.8,6
			c3.3,4,4.9,11,4.9,21.1v40.3c-0.1,5.7,0.1,11.3,0.6,16.9c0.5,3.4,1.3,6.8,2.5,10.1h35.2C1562.1,800.9,1561,797,1560.6,793.1
			L1560.6,793.1z M1525,655.4c0,8.4-1.7,14.4-5.2,18c-3.5,3.6-8.6,5.3-15.6,5.3h-12.6v-63h15.8c6.1,0,10.5,1.8,13.4,5.3
			c2.8,3.6,4.3,9.4,4.3,17.3L1525,655.4z"/>
	</g>
	<g id="Livello_8">
		<path class="st1" d="M1252.1,440.8c-4.8,5.5-8.6,11.8-11.3,18.6c-2.6,6.6-4.9,13.3-6.7,20.1c-2,6.7-3.2,13.7-3.6,20.7
			c-0.5,7.1,0,14.6,0,22.6c0.4,8.3,0,16.6-1.2,24.8c-1.4,8.5-4.2,16.8-8.3,24.4c-4,7.4-8.9,14.2-14.8,20.3
			c-5.7,5.9-12,11.2-18.9,15.7c-6.8,4.4-14,8.1-21.5,11.1c-7.4,2.9-15,5.4-22.8,7.2c-7.7,1.9-15.5,3.2-23.2,4.5
			c-7.7,1.3-15.5,2.6-23.2,3.8l-11.6,1.9c-3.9,0.7-7.7,1.2-11.5,1.9c-7.3,1.2-14.4,3.5-21,6.9c-6.4,3.7-12.2,8.2-17.3,13.5
			c-5.2,5.3-10.1,11.3-15.1,17.2c-4.9,5.9-9.6,12-14.2,18.1c-4.6,6.1-9.4,12-13.9,18.3c-4.4,5.8-8.2,12-11.3,18.6
			c-1.4,3.1-2.5,6.3-3.3,9.5c-0.8,3.4-1.4,6.8-1.7,10.3c-0.6,7.4-0.8,14.9-0.5,22.4c0.2,7.8,0.2,15.5,0.6,23.2
			c0.2,7.6,1,15.2,2.2,22.8c0.6,3.8,1.4,7.5,2.4,11.1c0.9,3.7,2.1,7.2,3.7,10.6c1.6,3.3,4,6.1,7,8.2c3.2,2,6.8,3.2,10.5,3.4
			c3.9,0.3,7.7,0.4,11.6,0.2c3.9-0.1,7.8-0.4,11.7-0.7c3.9-0.4,7.8-0.8,11.6-1.2c3.9-0.5,7.7-1,11.6-1.9c7.7-1.5,15.3-3.5,22.7-6.1
			c7.5-2.4,15.1-5,22.7-6.7c7.7-1.7,15.6-2.8,23.5-3.2c15.8-0.9,31.6-0.4,47.3,1.6c15.7,1.7,31.2,3.8,46.7,5
			c15.5,1.3,31.1,2.4,46.7,2.9c7.7,0.4,15.5,0.3,23.2-0.3c7.5-0.6,14.8-2.4,21.7-5.5c6.7-3.5,12.9-7.7,18.5-12.7
			c3-2.4,6.1-4.9,9.3-7.3c3.2-2.4,6.6-4.6,10.2-6.5c7.1-3.5,14.5-6.5,22-8.9c7.4-2.5,14.5-5.7,21.2-9.7c6.6-3.9,12.4-9.1,17-15.2
			l1.7-2.3c0.6-0.8,1-1.6,1.5-2.4l1.4-2.4l1.2-2.5c1.5-3.4,2.6-6.9,3.3-10.5c1.3-7.3,1.1-14.7-0.5-21.9c-1.5-7.2-4.1-14.2-7.5-20.7
			c-3.5-6.6-7.6-12.9-12.2-18.8c-4.6-6.1-9.6-12-14.9-17.5c-5.4-5.6-11.3-10.8-17.1-16c-3-2.5-6.5-4.6-9.8-6.9
			c-3.4-2.3-6.4-5.2-8.8-8.5c-4.9-6.6-8.5-14.1-10.5-22.1c-1.9-7.8-3.1-15.8-3.4-23.8c-1.2-16,2.1-32,9.4-46.2
			c3.5-7.2,7.6-13.9,11.4-20.7c3.9-6.5,7.1-13.4,9.7-20.5c2.4-6.8,3.5-13.9,3.3-21.1c-0.2-7.2-1.4-14.2-3.8-21
			c-1.2-3.4-2.6-6.7-4.2-9.9c-1.7-3.1-3.5-6.2-5.6-9.1c-4.1-6.1-8.8-11.7-13.9-16.9c-2.7-2.7-5.5-5.3-8.5-7.8
			c-2.8-2.6-5.9-4.6-9.4-6.1c-7.1-2.8-15.1-2.6-22.8-1.5c-7.6,1.2-14.9,3.8-21.5,7.8C1263,430.5,1257.2,435.3,1252.1,440.8z
			 M1245.8,434c6.5-5,13.8-9,21.5-11.7c7.6-2.5,15.4-4.2,23.4-4.9c7.8-0.7,15.7-1.2,23.6,0.6c2,0.4,4,1.1,5.9,1.9
			c1.9,0.8,3.7,1.7,5.5,2.5c3.6,1.7,7.2,3.5,10.7,5.6c3.6,2.1,7,4.4,10.2,7c3.3,2.7,6.2,5.7,8.8,9.1c2.6,3.3,4.9,6.9,6.8,10.7
			c1.9,3.8,3.5,7.7,4.8,11.7c2.6,8.1,3.7,16.5,3.4,25c-0.4,8.5-2.4,16.8-6,24.5c-3.5,7.3-7.7,14.2-12.5,20.7
			c-4.6,6.4-9.1,12.6-13.2,19.2c-4,6.5-7,13.6-8.8,21c-1.9,7.4-2.5,15.2-1.9,22.8c0.8,7.6,3,15,6.5,21.8c3.4,6.6,7.5,12.8,12.2,18.6
			c2.4,2.9,4.6,5.9,6.6,9.1c2,3.3,4.4,6.4,7.1,9.2c5.6,5.3,11.8,10.1,17.9,15.2c6.2,5,12.1,10.4,17.6,16.1
			c5.6,5.9,10.3,12.6,14,19.8c7.9,14.7,10,31.9,5.9,48.1c-1.1,4-2.6,7.8-4.6,11.4l-1.6,2.7l-1.8,2.5c-0.6,0.8-1.2,1.7-1.9,2.4
			l-2,2.3c-5.6,5.6-12.1,10.5-19.1,14.3c-6.8,3.9-13.7,7.5-20.5,11.6s-13.4,8.1-19.8,12.1c-3.2,2-6.3,4-9.4,6.2
			c-3.1,2.2-6.1,4.6-9.3,6.9c-3.1,2.4-6.4,4.7-9.8,6.9c-3.5,2.2-7.1,4.1-11,5.6c-7.7,2.8-15.8,4.1-23.9,3.9
			c-7.9-0.1-15.7-0.7-23.6-1.7c-15.5-1.7-31-3.4-46.6-4.3c-15.6-1-31.2-1-46.8,0.2c-7.8,0.5-15.5,1.3-23.2,1.9
			c-7.7,0.6-15.4,1.5-23,2.4c-7.6,0.9-15.2,1.9-22.9,2.3c-7.7,0.5-15.6,0.6-23.5,0.8c-7.9,0.1-15.7,0.6-23.5,1.5
			c-3.9,0.4-7.7,1-11.6,1.6c-3.9,0.5-7.7,1.1-11.6,1.5c-1.9,0.3-3.9,0.5-5.8,0.7c-1.9,0.2-3.9,0.4-5.8,0.6
			c-3.9,0.5-7.8,0.7-11.8,0.7c-4.1,0.1-8.2-0.8-11.9-2.7c-3.7-2.1-6.8-5-9.2-8.5c-2.3-3.4-4.2-7-5.6-10.8c-1.6-3.7-3-7.5-4.2-11.3
			c-2.4-7.7-4.3-15.5-5.6-23.4c-1.3-7.9-2.4-15.7-3.3-23.5c-1.1-8.1-1.6-16.2-1.5-24.3c0.1-4.3,0.7-8.7,1.6-12.9
			c1-4.3,2.4-8.5,4.3-12.6c3.7-7.5,8.1-14.6,13.2-21.2c4.6-6.5,9.3-12.9,14.5-18.9s10.6-11.8,16.3-17.4c5.6-5.7,11.5-11.1,17.7-16.2
			c6.3-5.4,13.4-9.8,21-13.2c3.8-1.6,7.8-2.9,11.9-3.8c4-0.8,8-1.4,12-1.8c7.9-0.7,15.6-1.2,23.4-2s15.5-1.8,23.1-3.3
			c7.6-1.5,15-3.5,22.4-6c14.5-4.5,28.2-11.4,40.4-20.6c5.9-4.5,11.2-9.7,15.9-15.5c4.6-5.6,8.3-11.8,11.1-18.5
			c2.7-6.5,4.3-13.3,4.8-20.3c0.3-7.3,0-14.7-0.8-22c-0.8-8.1-1.2-16.2-1.1-24.3c0.3-8.6,1.7-17,4.2-25.3c1.3-4.1,2.9-8.1,5-11.9
			c2.1-3.8,4.4-7.3,7.1-10.7c1.3-1.7,2.7-3.3,4.1-4.9c1.4-1.6,2.8-3,4.3-4.5l2.3-2.2c0.8-0.7,1.6-1.4,2.4-2.1
			C1242.6,436.6,1244.3,435.4,1245.8,434z"/>
		<path class="st1" d="M1260.8,731.3c1,2.2,2.1,4.2,3.5,6.1c1.5,2,3.3,3.8,5.4,5.3c2.2,1.5,4.5,2.6,7,3.3c2.5,0.9,5.1,1.5,7.7,1.9
			c5.2,0.9,10.5,0.9,15.7,0.1c5.2-0.9,10.2-2.3,15.1-4.2c4.8-1.8,9.4-4.4,13.5-7.5c3.9-3,6.9-6.8,8.9-11.3c0.9-2.1,1.4-4.3,1.5-6.5
			v-1.7l-0.1-1.7c-0.1-1-0.3-2.1-0.6-3.1c-1.2-3.9-4.6-7-9.1-9.2s-9.8-4.1-14.5-7s-9.4-5.5-14-8.4c-4.6-3-9.1-5.6-13.5-6.4
			c-4.4-0.7-8.9-0.1-12.9,1.8c-4,1.7-7.6,4.3-10.4,7.6c-2.7,3.6-4.5,7.7-5.2,12.1c-0.5,2.4-0.7,4.9-0.9,7.3c-0.1,2.5-0.2,5.2,0,7.6
			C1258.1,722.1,1259.1,726.8,1260.8,731.3z M1254.4,734.9c-3.1-5.1-4.8-11-5.1-16.9c-0.2-2.8-0.3-5.6-0.4-8.4
			c-0.1-2.9,0.1-5.8,0.4-8.6c0.5-6.3,2.7-12.2,6.5-17.3c4-5,9.4-8.6,15.5-10.4c6-2,12.6-1.8,18.5,0.5c5.8,2.5,9.8,6.6,13.7,10.3
			c3.9,3.6,7.7,7.5,12.7,9.2c4.7,2.1,9.9,2.8,15.3,4.6c2.9,0.9,5.6,2.2,7.9,4.1c2.6,2,4.5,4.7,5.6,7.8c0.6,1.5,0.9,3.1,1.1,4.7
			l0.1,2.3v2.3c-0.2,3.1-1.1,6.1-2.5,8.9c-2.9,5.2-7.1,9.4-12.2,12.4c-4.7,2.8-9.8,5.1-15.1,6.7c-5.2,1.6-10.6,2.7-16,3.1
			c-2.7,0.2-5.4,0.2-8.2,0c-2.7-0.1-5.4-0.5-8.1-0.8c-5.5-0.8-10.8-2.3-16-4.3c-2.7-1-5.3-2.2-7.7-3.8
			C1258.2,739.5,1256,737.4,1254.4,734.9L1254.4,734.9z"/>
		<path class="st1" d="M702.7,644.5c-0.7,2.4-1.3,5.2-2.4,8c-1,2.9-2.8,5.6-5.1,7.7c-2.3,2-5,3.4-7.9,4.2c-2.8,0.7-5.6,1-8.5,0.9
			c-5.5-0.2-10.9-1.1-16.1-2.7l-15.6-4.3c-20.7-5.8-41.4-11.8-62.5-14.4c-10.4-1.4-21-1.4-31.5-0.1c-2.5,0.5-5.2,0.8-7.6,1.3
			c-0.9,0.1-1.7,0.5-2.4,1c-0.5,0.5-0.9,1.1-1.2,1.7c-0.4,1-0.7,2.1-0.9,3.2c-0.3,1.2-0.5,2.4-0.6,3.6c-0.3,2.4-0.3,4.8,0,7.2
			c0.4,4.8,1.9,9.5,4.1,13.7c1.2,2.1,2.5,4.1,4.1,5.9c1.6,1.9,3.4,3.9,5.3,6c2,2.2,3.7,4.6,5.2,7.2c1.4,2.6,2.6,5.3,3.5,8.1
			c1.9,5.5,2.8,10.9,4,15.9c1,4.8,2.8,9.4,5.3,13.6c2.6,3.9,6.3,6.9,10.5,8.9c4.4,2.3,9.4,4.1,14.5,6.2c5.1,2.1,10,4.7,14.7,7.2
			c4.7,2.5,9.4,5,14.2,7.2c4.8,2.1,9.7,3.8,14.7,5c10.3,2.4,20.8,3.4,31.4,3c5.3-0.1,10.6-0.4,16-0.8s10.6-1.2,15.9-2
			c5.3-0.8,10.7-1.4,16-1.9c5.4-0.5,10.7-0.6,16.1-0.9c5.4-0.3,10.7-0.6,16.1-1.1l16.1-1.4c5.4-0.5,10.7-0.9,16.1-1.3
			c2.7-0.2,5.3-0.5,8.1-0.5c2.9-0.1,5.8,0.3,8.5,1.3c2.7,1.1,5.1,2.9,7,5.1c1.9,2.1,3.5,4.2,5.3,6c3.6,3.9,7.6,7.2,12,10.1
			c9,6,19.7,8.6,30.5,7.4c10.4-1.5,20-6.4,27.3-14c3.5-3.5,6.5-7.5,9-11.7c2.5-4,4.4-8.3,5.6-12.9c1.2-4.2,1.5-8.5,0.7-12.8
			c-0.4-2-1.1-4-2.1-5.8c-1.1-2-2.5-3.9-4-5.6c-3.4-3.9-7.1-7.6-11-11c-3.9-3.5-8.1-6.7-12.6-9.7c-9-5.7-18.5-10.4-28.6-14
			c-10.1-3.5-20.4-6.4-30.9-8.8c-20.9-4.8-42.2-8.6-62.1-17.4c-2.6-1-5.1-2.3-7.5-3.8c-1.3-0.9-2.5-1.9-3.5-3.2
			c-1-1.3-1.8-2.8-2.3-4.4c-0.4-1.6-0.6-3.2-0.6-4.8c0.1-1.6,0.3-3.2,0.8-4.7c0.9-3,2.3-5.8,4.3-8.2c4-5,9-7.9,13.4-10.9
			c2.2-1.5,4.3-2.8,6.1-4.3c1.8-1.5,3.4-3.1,4.8-5c2.8-3.7,4.9-7.9,6.1-12.3c0.3-1.1,0.7-2.2,1-3.3l0.6-1.9c0.2-0.6,0.4-1.2,0.7-1.7
			c0.4-1,0.7-2,0.9-3c0-0.2,0-0.5,0.2-0.2c0.1,0.1,0.3,0.3,0.5,0.3c0.2,0,0.2,0,0.2,0c-0.5-0.3-1-0.6-1.5-0.8
			c-1.2-0.5-2.5-0.9-3.8-1.1c-1.3-0.3-2.6-0.3-4-0.3c-2.6,0.2-5.1,0.7-7.5,1.5c-4.8,1.8-9.5,4.2-13.7,7.2c-2.2,1.4-4.4,2.9-6.5,4.4
			c-2.1,1.5-3.9,3-5.7,4.6c-1.8,1.6-3.9,2.9-5.8,4.4c-2,1.5-3.9,3.1-5.6,4.8C711.1,626.3,705.7,634.9,702.7,644.5z M696.2,643.2
			c1.7-11.5,6.3-22.4,13.4-31.6c1.8-2.3,3.8-4.5,5.9-6.6c2-2.2,4.3-4.1,6.8-5.6c2.6-1.5,5.2-2.7,8-3.8c2.7-1,5.3-1.9,8-2.7
			c5.4-1.7,11-2.9,16.6-3.5c2.8-0.2,5.7-0.1,8.5,0.3c1.4,0.2,2.7,0.2,4.1,0.2c1.4,0,2.8,0,4.3,0c0.8-0.1,1.6,0,2.4,0.1
			c0.4,0.1,0.7,0.2,1.1,0.4c0.5,0.3,0.8,0.6,1.2,1.1c0.4,0.5,0.7,1.1,0.9,1.6c0.7,1.6,1.2,3.3,1.4,5c0.1,0.8,0.2,1.5,0.3,2.3
			c0,0.7,0,1.4,0,2.2c0,1.5-0.2,3.1-0.6,4.6c-2.3,9-7.7,16.9-15.3,22.2c-2.4,1.6-4.8,3.1-7.3,4.4c-2.4,1.3-4.7,2.4-6.9,3.8
			c-2,1.2-3.9,2.6-5.6,4.2c-3.1,3.2-5.5,7.8-4.8,11.9c0.4,2.1,1.5,4.1,3.3,5.4c2,1.6,4.2,3,6.5,4.2c1.2,0.6,2.3,1.3,3.5,1.9l3.6,1.8
			c2.4,1.2,4.9,2.2,7.3,3.2c5,1.9,10,3.7,15.2,5.1c10.3,3,20.8,5.3,31.3,7.5s21,4.5,31.4,7.6c10.4,3.1,20.5,7.2,30.1,12.3
			c2.4,1.3,4.8,2.6,7.2,3.9c2.4,1.3,4.7,2.7,7.1,4.2c4.8,2.9,9.4,6.1,13.7,9.5c2.4,1.9,4.5,4.1,6.4,6.6c2,2.7,3.5,5.6,4.5,8.8
			c1.7,6.2,1.6,12.8-0.3,19c-3.6,11.5-11.4,21.2-21.8,27.3c-4.9,2.9-10.1,5.2-15.6,6.6c-5.3,1.5-10.8,2.2-16.3,2.4
			c-5.4,0.1-10.8-0.4-16.1-1.6c-5.3-1.1-10.5-2.8-15.4-5.2c-5-2.4-9.5-5.6-13.4-9.5c-2-1.9-3.6-4.2-5.4-6c-1.6-1.9-3.5-3.4-5.8-4.4
			c-4.5-1.8-9.9-1.4-15.3-1.2l-16.1,0.6c-5.3,0.3-10.7,0.6-16.1,1.1s-10.7,0.9-16,1.8c-10.6,1.6-21.2,3.3-31.9,4.3
			c-5.3,0.5-10.7,1-16.1,1.6c-5.3,0.6-10.7,1.1-16.1,1.4c-5.4,0.3-10.9,0.4-16.3,0.2c-5.5-0.2-11-0.8-16.4-1.8
			c-5.5-1-10.8-2.5-16-4.5c-5.2-2-10.1-4.3-14.9-6.6c-4.8-2.3-9.6-4.6-14.4-6.5s-10.1-3.5-15.3-6.1c-2.7-1.3-5.2-2.9-7.5-4.7
			c-1.2-1-2.3-2-3.4-3.1c-0.5-0.6-1-1.2-1.5-1.8c-0.5-0.6-1-1.2-1.4-1.9c-3.2-5-5.4-10.4-6.6-16.2c-1.3-5.4-2.4-10.6-3.9-15.3
			c-0.7-2.3-1.6-4.5-2.8-6.6c-1.2-2.1-2.6-4.1-4.2-5.9c-1.6-1.9-3.5-4-5.3-6.2c-1.9-2.3-3.5-4.8-4.9-7.4c-4.1-7.9-5.6-17-4.3-25.8
			c0.2-1.5,0.5-2.9,0.9-4.3c0.4-1.5,0.9-3,1.6-4.5c0.8-1.8,2.1-3.3,3.8-4.4c1.5-1,3.3-1.6,5-1.9c2.8-0.4,5.5-0.6,8.3-0.9
			c11-0.7,22-0.1,32.8,1.9c21.5,3.8,41.7,11.3,62.3,17.2c5.2,1.5,10.3,2.9,15.5,4.1c5.1,1.3,10.4,1.7,15.7,1.4
			c5.1-0.4,10.2-2.1,13.2-5.5c1.5-1.7,2.5-3.7,3.1-5.8C695.6,648.5,695.8,645.9,696.2,643.2L696.2,643.2z"/>
		<path class="st1" d="M398.7,540c21.5,5.8,41,17.4,56.3,33.5c3.9,4,7.5,8.3,10.8,12.8c3.4,4.6,6.4,9.4,8.9,14.5
			c1.3,2.8,2.2,5.7,2.8,8.7c0.5,3.1,0.6,6.2,0.3,9.3c-0.8,5.8-2.6,11.5-5.3,16.7c-2.5,4.9-5.4,9.7-8.5,14.2
			c-3.1,4.5-6.4,8.9-9.9,13.1c-3.4,4.3-7.1,8.3-11.2,12c-2,1.8-4.3,3.4-6.7,4.8c-2.4,1.3-5,2.3-7.6,3c-2.6,0.7-5.3,1.3-7.9,1.8
			c-2.6,0.5-5.2,1.2-7.7,2.2c-4.7,1.9-8.4,5.6-10.3,10.2c-0.9,2.1-1.6,4.2-2,6.4c-0.6,2.3-1,4.6-1.1,6.9c-0.2,2.5-0.2,5,0,7.4
			c0.2,2.5,0.4,5.1,0.7,7.6c0.3,2.6,0.8,5.2,1.2,7.9l1.1,8c0.8,5.3,1.4,10.7,2.1,16l1.1,8c0.3,2.8,0.6,5,1.7,5.9
			c1.9,1.1,4.1,1.6,6.3,1.3c2.6,0,5.3-0.1,7.9-0.4c2.6-0.3,5.3-0.6,7.9-1c2.7-0.4,5.3-0.9,7.9-1.4c5.3-1,10.6-2,15.9-3
			c10.7-1.9,22.1-2.6,33.2,0.8c2.8,0.9,5.5,2.1,8.1,3.5c2.6,1.5,5,3.4,7.2,5.5c4.3,4.4,7.2,10,8.4,16.1c1.1,5.6,1.5,11.4,1.1,17.1
			c-0.3,5.5-0.7,10.8-1,16.2c-0.7,10.7-1.5,21.5-2.4,32.2l-1.4,16.1c-0.4,2.1-0.2,4.4,0.5,6.4c0.4,0.7,1.1,1.3,1.9,1.6
			c0.6,0.3,1.3,0.3,1.9,0l0.1-0.1c0.9-0.6,2-0.3,2.6,0.5c0.5,0.7,0.4,1.7-0.2,2.4c-0.8,0.7-1.7,1.2-2.8,1.4c-1,0.2-2,0.1-2.9-0.2
			c-1.8-0.5-3.4-1.6-4.5-3.1c-1-1.4-1.6-3.1-1.9-4.8c-0.2-1.5-0.3-3-0.2-4.5c0-5.4,0.1-10.8,0.3-16.1c0.2-10.7,0.6-21.5,1-32.2
			l0.7-16c0.3-5,0-10.1-1-15.1c-0.9-4.6-3-8.8-6.1-12.3c-3.2-3.6-7.1-6.5-11.6-8.5c-4.7-2.1-9.6-3.5-14.7-4.2
			c-5.2-0.6-10.5-0.6-15.7,0.1c-5.3,0.6-10.5,1.8-15.8,2.9c-2.6,0.6-5.3,1.1-7.9,1.7c-2.7,0.5-5.3,1.1-8,1.5c-2.7,0.4-5.4,0.7-8.2,1
			c-1.5,0.1-2.9,0.1-4.4,0c-1.7-0.1-3.4-0.7-4.9-1.6c-1.5-1.1-2.6-2.7-3.2-4.5c-0.4-1.4-0.8-2.8-1.1-4.2l-1.9-7.8
			c-1.2-5.3-2.5-10.5-3.7-15.7c-1.2-5.3-2.4-10.4-3.4-15.9c-1.1-5.6-1.5-11.3-1.2-17.1c0.1-3,0.7-6,1.6-8.9c1-3,2.6-5.8,4.8-8.1
			c2.2-2.2,4.8-4,7.7-5.1c2.7-1,5.4-1.7,8.3-2.2c2.7-0.5,5.3-1,8-1.6c2.6-0.6,5.3-1.1,7.8-1.9c2.5-0.7,5-1.8,7.2-3.2
			c2.2-1.4,4.3-3.1,6.1-5c3.6-3.9,6.8-8.2,9.5-12.7c5.7-8.9,10.4-18.4,14.3-28.2c1.8-4.6,3-9.4,3.3-14.3c0.2-4.6-0.7-9.2-2.8-13.3
			c-2.2-4.5-4.9-8.8-8-12.9c-3.1-4.2-6.3-8.2-9.8-12.1c-14.2-15.5-31.6-27.9-50.8-36.3c-1-0.4-1.5-1.5-1.1-2.4
			c0.4-0.9,1.4-1.4,2.3-1.1L398.7,540z"/>
		<path class="st1" d="M1030.5,601.5c-3.3-0.1-6.5,0.9-9.3,2.8c-1.2,0.9-2.3,2-3.2,3.2c-0.9,1.3-1.8,2.7-2.6,4.1
			c-1.7,2.9-3.2,5.9-4.9,9l-5.4,9.4c-3.8,6.6-8.1,12.9-12.9,18.8c-4.9,6.1-10.5,11.5-16.7,16.1c-6.2,4.7-13.2,8.2-20.6,10.4
			c-7.3,1.9-14.9,2.9-22.4,2.9c-7.5,0.2-15,0.5-22.6,0.5c-7.7,0.1-15.3-0.5-22.9-1.7c-7.6-1.3-15-3.5-22-6.6
			c-6.9-3.4-13.5-7.3-19.7-11.9c-3.2-2.1-6.2-4.3-9.4-6.3c-3.6-2.2-6.8-5-9.3-8.4c-1.3-1.9-2.3-4-2.8-6.2c-0.5-2.1-0.8-4.4-0.8-6.6
			c0.1-4.2,0.7-8.3,1.9-12.3c2.1-7.4,4.8-14.7,8.1-21.7c1.5-3.4,3.1-6.7,4.6-10c1.4-3.2,3-6.4,4.7-9.4c1.7-2.9,3.1-6.6,5.7-10.5
			c1.3-2,2.9-3.7,4.6-5.3c1.6-1.4,3.3-2.7,5.1-3.9c13-8.3,27.5-14,42.6-16.7c1.9-0.3,3.8-0.6,5.6-0.9s3.8-0.4,5.6-0.6
			c1.9-0.2,3.8-0.1,5.6-0.4c1.9-0.3,3.8-0.5,5.6-0.8c7.5-0.9,15-1.2,22.6-0.8c3.4,0.3,6.9,0.3,10.3-0.2c2.9-0.7,5.5-2.1,7.5-4.3
			c2.3-2.5,4.3-5.1,6-7.9c2-3.3,4.2-6.4,6.6-9.4c2.7-3.4,6.1-6.3,9.9-8.5c3.6-2.1,7.6-3.6,11.6-4.6c7.4-1.6,15-2.5,22.6-2.8
			c7.4-0.5,14.9-0.8,22.3-1.5c7.4-0.7,14.6-1.9,22.1-3.2c2-0.3,3.9-0.5,5.9-0.5c2.1,0.1,4.1,0.4,6.1,1.1c3.9,1.4,7.4,3.7,10.4,6.6
			c2.9,2.8,5.4,5.9,7.3,9.4c1.9,3.5,3.4,7.3,4.5,11.1c2.1,7.8,2.2,15.9,0.5,23.7c-1.8,7.7-5.4,14.9-10.3,21c-2.4,3-5.1,5.8-8,8.3
			c-3,2.4-6.1,4.7-9.4,6.7c-3.2,2-6.6,3.6-9.8,5.3c-1.6,0.9-3.2,1.7-4.7,2.7c-1.5,1-2.8,1.9-4.5,3.1c-3.2,2.2-6.7,3.9-10.4,5.2
			c-1.8,0.7-3.7,1.2-5.6,1.6C1034.5,601.4,1032.5,601.6,1030.5,601.5z M1030.8,597.2c3.4,0.3,6.9-0.1,10.1-1.3
			c3.3-1.2,6.5-2.9,9.3-5c1.3-1,2.9-2.4,4.5-3.4s3.2-2.1,4.9-3c3.3-1.9,6.7-3.4,9.9-5c6.4-3.2,11.8-8.1,15.6-14.2
			c3.8-5.9,6.3-12.5,7.2-19.5c0.8-6.8,0.2-13.7-1.7-20.3c-0.9-3.3-2.2-6.4-3.8-9.4c-1.5-3-3.3-6-5.3-8.7c-1.9-2.7-4.3-5.1-7.1-6.9
			c-3-1.6-6.4-2.3-9.7-1.9c-3.7,0.3-7.3,0.9-10.9,1.7c-3.6,0.7-7.2,1.5-10.8,2.4c-7.2,1.9-14.3,4-21.5,6c-3.6,1.1-7.2,1.9-10.7,2.9
			s-7,1.8-10.2,2.7c-3.1,0.9-6.1,2.1-9,3.5c-2.7,1.5-5.1,3.4-7.2,5.6c-2.3,2.4-4.4,5.2-6.9,8.2c-2.5,3.2-5.4,6.1-8.7,8.6
			c-3.6,2.7-7.9,4.3-12.5,4.5c-4-0.1-7.9-0.6-11.8-1.7c-7.1-1.6-14.4-2.4-21.8-2.4c-1.9,0-3.7,0-5.5,0.2c-1.8,0.2-3.6,0.7-5.4,1.1
			c-1.8,0.4-3.6,0.9-5.3,1.4c-1.8,0.5-3.5,1.1-5.2,1.7c-6.8,2.4-13.4,5.4-19.7,9.1c-6.1,3.6-11.9,7.8-17.2,12.5
			c-2.3,1.9-4.1,4.2-5.4,6.8c-1.1,2.5-1.9,5.9-3.2,9.8c-1.2,3.7-2.8,7.3-4.8,10.6c-1.9,3.3-3.8,6.5-5.9,9.6
			c-4,5.9-7.6,12.1-10.7,18.5c-3,6.1-4.5,12.9-1.7,17.8c2.9,4.9,10.1,8.6,16.6,11.5c6.5,2.9,13.7,4.8,20.5,7
			c6.8,2.2,13.4,4.8,20.2,7.2s13.6,4.7,20.7,6.6c7.1,1.8,14.4,2.9,21.8,3.1c7.3,0.3,14.5-0.8,21.4-3.2c1.7-0.7,3.3-1.4,4.9-2.2
			l2.3-1.3l2.2-1.5c1.5-0.9,2.8-2.2,4.2-3.2c1.4-1.1,2.6-2.4,3.8-3.8c4.8-5.2,9-11,12.5-17.2c3.6-6.2,6.9-12.6,10.2-19
			c1.7-3.2,3.4-6.7,5.4-10c3.2-5.3,7.6-9.8,12.8-13.2c1.9-1.2,4-2.2,6.2-2.8C1022.4,596.8,1026.6,596.6,1030.8,597.2z"/>
		<path class="st1" d="M1074.4,304c-2.9,8-5.6,16.1-7.9,24.2c-2.3,8.1-4.2,16.3-5.6,24.5c-1.5,8.3-2.6,16.6-3.3,25
			c-0.2,2.1-0.3,4.2-0.5,6.3c-0.2,1.7-0.2,3.5,0,5.2c0.1,0.4,0.1,0.8,0.3,1.1c0.2,0.4,0.4,0.7,0.7,1c1.3,1,2.8,1.8,4.4,2.3
			c1,0.3,2,0.7,3,1l3.3,1l3.2,1.2c1,0.4,2.1,0.8,3.1,1.2c4.1,1.6,8.1,3.4,11.9,5.5c3.9,2.1,7.6,4.7,11.1,7.5c3.6,3,6.6,6.6,9.1,10.6
			c2.3,3.9,4,8.1,5.3,12.4c1.3,4.1,2.3,8.1,3.4,11.9c1.1,3.8,2.7,7.4,4.9,10.6c2.1,3.3,5.2,5.9,8.9,7.3c3.8,1.2,8,0.9,11.5-1
			c3.7-1.8,7.1-4.2,10.1-7.1c6.2-5.7,12-11.9,17.3-18.6c5.3-6.6,10.2-13.6,14.9-20.7c4.7-7.1,9.4-14.2,13.7-21.3
			c4.3-7,8.2-14.2,11.7-21.7c3.4-7.5,6.2-15.1,8.5-23c4.8-15.8,7.8-32.6,12.5-49.4c0.1-1,1-1.8,2.1-1.7c1,0.1,1.8,1,1.7,2.1
			c1.1,17.5-0.1,35-3.6,52.2c-1.9,8.8-4.7,17.4-8.4,25.6c-3.8,8.1-8.3,15.9-13.6,23.1c-5.2,7-10.7,13.8-16.6,20.3
			c-5.8,6.5-11.8,12.8-18.1,18.8c-6.3,6-12.9,11.7-19.8,17.1c-3.4,2.8-7.2,5.2-11.3,7c-4.3,1.9-9,2.3-13.6,1.4
			c-4.6-1.1-8.8-3.4-12.3-6.5c-3.6-3.1-6.5-6.9-8.7-11.1c-2-4-3.7-8.1-4.9-12.3c-1.3-4.1-2.3-8-3.6-11.7c-1.3-3.8-3-7.4-5.1-10.8
			c-2.3-3.5-5.1-6.6-8.4-9.1c-3.4-2.5-7.2-4.4-11.3-5.4c-1-0.2-2.1-0.3-3.1-0.5c-1-0.2-2.1,0-3.1,0c-2.1,0-4.1,0.4-6.5,0.6
			c-2.7,0.3-5.4-0.1-7.9-1.1c-1.6-0.7-3-1.8-4.1-3.2c-1.1-1.4-1.9-3.1-2.2-4.8c-0.4-2.5-0.5-5.1-0.2-7.6c0.1-2.2,0.2-4.4,0.4-6.6
			c0.8-8.7,2.1-17.4,4.1-26c3.9-17.1,10.4-33.4,19.3-48.5c0.4-0.9,1.6-1.3,2.5-0.9C1074.4,301.9,1074.8,303.1,1074.4,304L1074.4,304
			z"/>
		<path class="st1" d="M1474.3,509.3c-2.9,8-5.6,16.1-7.9,24.2c-2.3,8.1-4.2,16.3-5.6,24.6c-1.6,8.3-2.7,16.6-3.4,25
			c-0.2,2.1-0.3,4.2-0.4,6.2c-0.2,1.7-0.2,3.5,0,5.2c0.1,0.4,0.2,0.8,0.3,1.1c0.2,0.4,0.4,0.7,0.7,1c1.3,1,2.8,1.8,4.4,2.3l3,1
			l3.3,1l3.2,1.2c1,0.4,2.1,0.8,3.1,1.2c4.1,1.6,8.1,3.4,11.9,5.5c3.9,2.1,7.7,4.7,11.1,7.5c3.6,3,6.6,6.6,9.1,10.6
			c2.2,3.9,4,8.1,5.3,12.4c1.3,4.1,2.3,8.1,3.4,12c1.1,3.8,2.7,7.3,4.8,10.6c2.1,3.3,5.3,5.9,9,7.3c3.8,1.2,8,0.8,11.5-1
			c3.7-1.8,7.1-4.2,10.1-7.1c6.3-5.7,12.1-12,17.3-18.6c5.3-6.6,10.2-13.6,14.9-20.7s9.4-14.2,13.7-21.3c4.3-7,8.2-14.2,11.7-21.7
			c3.4-7.5,6.2-15.1,8.5-23c4.8-15.9,7.8-32.6,12.5-49.4c0.1-1,1-1.8,2.1-1.7s1.8,1,1.7,2.1l0,0c1.1,17.5-0.1,35-3.6,52.2
			c-1.9,8.8-4.7,17.4-8.4,25.6c-3.8,8.1-8.3,15.9-13.6,23.1c-5.2,7-10.7,13.8-16.6,20.3c-5.8,6.5-11.8,12.8-18.1,18.8
			c-6.3,6-12.9,11.8-19.8,17.1c-3.4,2.8-7.2,5.2-11.3,7c-4.3,1.9-9,2.3-13.6,1.4c-4.6-1.1-8.8-3.4-12.3-6.5
			c-3.6-3.1-6.5-6.9-8.7-11.1c-2-4-3.7-8.1-5-12.4c-1.3-4.1-2.3-8-3.6-11.7c-1.3-3.8-3-7.4-5.1-10.8c-2.3-3.5-5.1-6.6-8.4-9.1
			c-3.3-2.6-7.2-4.4-11.3-5.4c-1-0.2-2.1-0.4-3.1-0.5c-1,0-2.1-0.1-3.1,0c-2.1,0-4.1,0.4-6.5,0.6c-2.7,0.3-5.4-0.1-7.9-1.1
			c-1.6-0.7-3-1.8-4.1-3.2c-1.1-1.4-1.8-3-2.2-4.7c-0.4-2.5-0.5-5.1-0.2-7.6c0.1-2.2,0.2-4.4,0.4-6.6c0.8-8.7,2.1-17.4,4.1-26
			c3.9-17.1,10.4-33.4,19.4-48.5c0.5-0.9,1.7-1.2,2.6-0.7c0.8,0.5,1.2,1.5,0.8,2.3L1474.3,509.3z"/>
		<path class="st1" d="M597.4,446.5c-0.5,2.4-1.2,4.7-2.2,7c-1.1,2.5-2.6,4.8-4.5,6.8c-2,2-4.6,3.4-7.3,4c-2.4,0.4-4.9,0.5-7.4,0.2
			c-9.1-1.2-18.3,1.4-25.4,7.2c-3.4,2.9-6.4,6.2-8.7,10c-2.3,3.7-4.1,7.7-5.3,11.9c-0.6,2.1-1,4.2-1.4,6.2l-0.3,3.2
			c-0.2,1.1,0,2.1-0.1,3.2c0,4.2,0.7,8.4,1.9,12.5c1.3,4.1,3.1,8,5.4,11.6c2.4,3.6,5.2,6.9,8.5,9.8c3.2,2.9,6.8,5.5,10.7,7.5
			c3.9,2.2,8,3.8,12.3,4.8c8.6,2.1,17.8,1.6,26.7,0.4c9-1.6,18.1-2.8,27.2-3.4c9.2-0.4,18.4,0.8,26.6-1.8
			c8.3-2.7,15.9-7.2,22.2-13.2c6.6-6,12.6-12.5,18.1-19.5c5.4-7,10.5-14.3,15.1-21.9c4.6-7.5,8.4-15.6,12.7-23.8
			c4.3-8.2,9.4-16.4,16.9-22.6c3.7-3.1,7.9-5.7,12.4-7.5c4.4-1.7,8.9-3.1,13.4-4c9-2,17.9-3.2,26.2-6.3c8.4-2.8,15.6-8.5,20-16.2
			c4.2-7.9,6.7-16.7,7.2-25.7c0.4-4.5,0.5-9.1,0.4-13.6c-0.1-4.5-0.4-9.1-0.9-13.6c-0.5-4.5-1.1-9-2-13.5c-0.9-4.5-2.3-8.8-4.2-13
			c-1.9-4.2-3.9-8.2-6-12c-2-3.7-4.2-7.3-6.8-10.7c-2.6-3.2-5.6-6.1-9.1-8.4c-3.6-2.3-7.6-4.2-11.7-5.6c-8.6-2.8-17.5-4.7-26.5-5.5
			c-9-1.2-18.1-1.4-27.1-0.4c-9,1.4-17.7,4.2-25.8,8.3c-4.1,1.9-8.2,3.9-12.3,5.8l-12.4,5.6c-4.1,1.9-8.2,3.9-12.1,6.2
			c-4,2.2-7.8,4.7-11.3,7.7c-3.3,3-6.1,6.6-8.3,10.5c-1.1,2-2,4-2.8,6l-2.6,6.3c-1.7,4.2-3.5,8.4-5.6,12.6c-1,2.1-2.1,4.2-3.3,6.2
			l-3.3,5.9c-4.3,7.8-8.3,15.9-11.8,24.1C606.2,412.2,601,429.1,597.4,446.5z M586.8,444.4c3.4-18.3,9.5-36,18.3-52.5
			c4.4-8.1,9.3-16,14.5-23.5l3.9-5.6c1.3-1.9,2.5-3.6,3.7-5.6c2.3-3.8,4.3-7.8,6.4-11.9c1.1-2,2.1-4,3.2-6c1.1-2.1,2.4-4,3.8-5.9
			c2.8-3.7,6.1-6.9,9.9-9.6c7.4-5.2,15.4-9.7,23.6-13.5l12.4-5.6c4.1-1.9,8.2-3.9,12.3-5.8c8.2-3.8,16.7-7.4,25.8-8.7
			c9.1-1.1,18.2-1.1,27.3-0.1c9,0.9,18.1,1,27.4,2.6c4.7,0.8,9.3,2.2,13.6,4.3c4.5,2.2,8.4,5.3,11.6,9.1c3.1,3.7,5.5,8.1,7.1,12.7
			c1.4,4.5,2.2,9.2,2.6,13.9c0.5,4.6,1,9.1,1.7,13.6c0.8,4.5,1.5,9,2,13.5c1.1,9,1.6,18.1,1.3,27.2c-0.2,9.2-2.3,18.3-6.3,26.7
			c-2.1,4.2-5,7.9-8.6,11c-3.6,3.1-7.6,5.6-12,7.3c-8.6,3.7-17.7,5.3-26.4,7.7c-4.3,1.1-8.4,2.6-12.4,4.4c-3.9,1.8-7.4,4.2-10.5,7.1
			c-6.3,5.6-10.6,13.5-14.5,21.4c-3.9,8-7.5,16.5-12.2,24.6c-4.6,8.1-10.1,15.6-16.2,22.6c-6.1,7-12.7,13.5-20,19.4
			c-7.2,6.2-15.8,10.6-25.1,12.9c-4.6,0.9-9.4,1.3-14.1,1c-4.6-0.2-9.1-0.6-13.6-0.7c-9,0-17.9,1.5-27,2.5c-9.1,1-18.3,1.9-27.5,0.2
			c-4.6-0.8-9.1-2.3-13.3-4.2c-4.3-2-8.3-4.5-11.9-7.5c-7.5-6-13.2-13.9-16.5-22.9c-3.3-9.2-3-19.4,0.8-28.4
			c3.6-8.7,9.8-16.2,17.8-21.3c3.9-2.5,8.1-4.3,12.6-5.5c1.1-0.3,2.2-0.5,3.3-0.7l3.4-0.4c2.3-0.1,4.5-0.3,6.8-0.7
			c2.1-0.3,4.2-1.2,5.9-2.5c1.4-1.2,2.5-2.8,3-4.6C585.9,452.8,586,448.9,586.8,444.4z"/>
		<path class="st1" d="M963.8,409.4c-3.7,6.3-7.9,12.4-12.3,18.2c-4.5,5.8-9.1,11.3-13.9,16.9c-2.6,2.9-5.7,5.2-9.1,6.8
			c-3.5,1.6-7.3,2.3-11.1,1.9c-3.8-0.6-7.4-2.1-10.4-4.4c-3-2.2-5.7-4.8-8.2-7.6c-2.5-2.8-4.8-5.6-7-8.6l-6.6-8.6
			c-2.2-2.9-4.4-5.9-6.5-9c-2.1-3.1-4-6.3-5.9-9.6c-3.7-6.8-6.4-14-8.2-21.5c-1.7-7.5-2.5-15.2-2.4-22.9c0.2-7.5,1.1-15,2.8-22.4
			c0.4-1.9,0.8-3.6,1.3-5.4l0.7-2.7c0.3-1.1,0.6-2.1,1-3.2c0.9-2.4,2.5-4.4,4.6-5.9c1-0.7,2.1-1.2,3.3-1.6l2.6-0.8
			c1.8-0.6,3.6-1.1,5.5-1.5c1.1-0.3,2.2-0.4,3.3-0.5c1.3,0.1,2.5,0.4,3.7,0.9c1.8,1,3.4,2.2,4.8,3.6c1.3,1.1,2.7,2.2,4.1,3.4
			l16.9,13.4c11.3,9,22.7,17.9,33.7,27.4l4.1,3.6l2,1.9l1,0.9l1.1,1.1c3,3.1,5.3,6.8,6.9,10.9c1.5,4.1,2.2,8.5,1.9,12.9
			C967.1,401.4,965.9,405.6,963.8,409.4z M953.8,404.3c2.3-5.2,2.7-11.1,1.2-16.6c-0.8-2.7-2.1-5.3-4-7.5l-0.7-0.8l-0.9-1l-1.9-2
			l-3.5-4.1c-9.5-10.7-19.6-20.9-30.3-30.4c-2.7-2.4-5.4-4.7-8.2-7l-8.5-6.6c-1.4-1.1-2.8-2.1-4.3-3.3c-1.2-1.1-2.5-1.9-4-2.6
			c-1.3-0.5-1.7-0.3-3.5,0.3c-1.6,0.6-3.2,1.3-4.7,2.1l-2.4,1.2c-0.5,0.3-1,0.6-1.4,1c-0.7,0.8-1.2,1.8-1.3,2.9
			c-0.1,0.7-0.2,1.4-0.2,2.1l-0.1,2.6c-0.1,1.8,0,3.5-0.1,5.3c0,6.9,0.3,13.8,1,20.7c0.6,6.7,1.6,13.4,2.9,20
			c1.4,6.6,3.2,13.1,5.4,19.5c1.1,3.3,2.3,6.5,3.8,9.7c1.4,3.2,2.7,6.5,4.2,9.8c1.5,3.2,3,6.5,4.6,9.8c1.5,3.2,3.2,6.3,5.1,9.3
			c1.8,2.9,4.1,5.6,6.6,7.9c2.5,2.3,5.6,3.9,8.9,4.5c3.4,0.4,6.8-0.2,9.8-1.8c3-1.6,5.6-3.9,7.4-6.8c3.8-6.1,7.2-12.4,10.2-18.8
			C948,417.2,951,410.8,953.8,404.3z"/>
		<path class="st1" d="M815.6,548.3c2.9,0.4,5.8,0.5,8.7,0.4c2.9-0.1,5.7-1.1,8-2.9c2.3-2,4-4.6,4.8-7.5c0.9-2.9,1.2-5.9,1.1-8.9
			c-0.1-3-0.8-5.9-1.9-8.7c-1.1-2.7-2.8-5-5.1-6.8c-1.1-0.8-2.3-1.5-3.7-1.9c-1.3-0.5-2.6-0.8-4-0.9c-2.8-0.2-5.5,0.2-8.1,1.2
			c-2.7,1-5.2,2.3-7.5,3.9c-2.3,1.7-4.5,3.5-6.4,5.6c-2,2-3.7,4.2-5.2,6.6c-1.4,2.3-2.6,4.8-3.3,7.4c-0.8,2.1-1,4.4-0.5,6.5
			c0.3,0.7,0.8,1.2,1.5,1.4c0.6,0.3,1.2,0.5,1.9,0.7l2.1,0.6C803.8,546.6,809.6,547.7,815.6,548.3z M815.3,553
			c-6.3,0-12.6-0.6-18.8-1.9l-2.4-0.5c-0.9-0.2-1.7-0.4-2.5-0.8c-2.2-0.8-4.1-2.4-5.2-4.6c-0.9-1.9-1.3-4.1-1.1-6.2
			c0.1-1.8,0.4-3.5,0.9-5.3c0.9-3.3,2.4-6.4,4.3-9.2c1.9-2.7,4-5.3,6.4-7.5c2.4-2.2,5.1-4.2,7.9-5.9c2.9-1.6,6-2.9,9.2-3.7
			c3.3-0.7,6.7-0.8,10-0.2c1.7,0.4,3.3,0.9,4.8,1.7c1.5,0.7,2.9,1.7,4.2,2.8c2.4,2.3,4.1,5.2,4.9,8.3c0.9,3,1.4,6.2,1.3,9.3
			c0.1,6.3-2.1,12.4-6.2,17.2c-2.2,2.4-5.1,4.2-8.2,5.1C821.7,552.7,818.5,553.1,815.3,553z"/>
		<path class="st1" d="M615,616c0,0.6,0.1,1.1,0.2,1.7c0.1,0.4,0,0.4,0.1,0.6c0.1,0.2,1.9,0.8,3.8,1c3.4,0.6,6.9,0.7,10.3,0.2
			c1.6-0.3,3.2-0.8,4.6-1.6c1.4-0.8,2.7-1.9,3.8-3.1c1.1-1.3,1.9-2.8,2.3-4.4c0.2-0.8,0.3-1.7,0.2-2.6v-0.2c0,0,0,0.2,0.2,0.3
			c0.2,0.1,0.2,0.1,0.2,0.1l0,0l-0.3-0.1l-0.7-0.2l-1.4-0.4c-3.7-0.9-7.3-2.2-10.7-3.9c-1.7-0.8-3.5-1.6-5.3-2.3
			c-0.8-0.3-1.7-0.6-2.6-0.8c-0.7-0.2-1.3,0-1.3,0.2c0,0.2,0.2,0.2,0.3,0.3c0.1,0.1,0,0.2,0,0.3c0,0.1-0.3,0.8-0.5,1.4l-1.4,4.4
			C615.7,609.9,615,613,615,616z M606.9,617c-0.9-4.4-0.8-8.9,0.4-13.2c0.7-2.1,1.7-4.1,3-5.9c0.8-1.2,1.8-2.2,3-3
			c0.7-0.5,1.5-0.9,2.4-1.2c1-0.3,2-0.4,3-0.2c1.5,0.3,2.8,1,3.9,2.1c0.8,0.8,1.5,1.6,2.1,2.4c1.1,1.5,2.4,2.9,3.8,4.2
			c1.4,1.2,3,2.2,4.7,2.9c1.7,0.8,3.5,1.2,5.3,1.4l1.4,0.2l0.7,0.1h0.4h0.1c0.1,0,0.2,0.1,0.3,0.2c0.1,0.1,0.2,0.2,0.2,0.4v0.2
			c0.3,1,0.4,2,0.4,3c-0.1,2.1-0.7,4.1-1.7,5.9c-1,1.8-2.5,3.4-4.1,4.7c-1.7,1.2-3.6,2.2-5.6,2.9c-3.9,1.1-7.9,1.7-12,1.5
			c-1,0-1.9,0-3.1,0c-1.4-0.1-2.8-0.5-4-1.1c-1.5-0.9-2.7-2.2-3.4-3.8C607.5,619.5,607.1,618.3,606.9,617L606.9,617z"/>
	</g>
	<g id="Livello_4">
		<polygon class="st2" points="1630.4,630.7 1596.8,811.2 1570.9,773.4 		"/>
		<polygon class="st3" points="1634.7,785.2 1630.4,630.7 1596.8,811.2 		"/>
		<polygon class="st2" points="1777.4,844.8 1596.8,811.2 1634.7,785.2 		"/>
		<polygon class="st3" points="1622.8,849.1 1777.4,844.8 1596.8,811.2 		"/>
		<polygon class="st2" points="1563.3,991.7 1596.8,811.2 1622.8,849.1 		"/>
		<polygon class="st3" points="1559,837.2 1563.3,991.7 1596.8,811.2 		"/>
		<polygon class="st2" points="1416.3,777.7 1596.8,811.2 1559,837.2 		"/>
		<polygon class="st4" points="1570.9,773.4 1416.3,777.7 1596.8,811.2 		"/>
		<polygon class="st2" points="1537.8,725.2 1542.8,774.2 1570.9,773.4 		"/>
		<polygon class="st4" points="1581.7,747.4 1570.9,773.4 1537.8,725.2 		"/>
		<polyline class="st2" points="1634.7,785.3 1682.9,752.2 1633.9,757.2 		"/>
		<polyline class="st3" points="1634.7,785.3 1682.9,752.2 1660.6,796.1 		"/>
		<polygon class="st2" points="1655.9,897.2 1650.9,848.3 1622.8,849.1 		"/>
		<polygon class="st3" points="1612,875 1622.8,849.1 1655.9,897.2 		"/>
		<polyline class="st2" points="1559,837.2 1510.8,870.2 1559.8,865.3 		"/>
		<polyline class="st3" points="1559,837.2 1510.8,870.2 1533.1,826.4 		"/>
		<g>
			<path class="st5" d="M1699.2,589.1L1634,721.4c-0.2,0.5-0.8,0.7-1.3,0.5s-0.7-0.8-0.5-1.3c0,0,0,0,0,0L1699.2,589.1z"/>
		</g>
		<g>
			<path class="st5" d="M984.7,295.8l557.7,467.2c0.4,0.4,0.5,1,0.1,1.4c-0.4,0.4-1,0.5-1.4,0.1l0,0L984.7,295.8z"/>
		</g>
		<g>
			<path class="st5" d="M170.4,654.8l1273.6,133.3c0.5,0.1,0.9,0.5,0.9,1.1c-0.1,0.5-0.5,0.9-1.1,0.9l0,0L170.4,654.8z"/>
		</g>
		<g>
			<path class="st5" d="M1371.3,962.6l145.7-106.4c0.4-0.3,1.1-0.2,1.4,0.2s0.2,1.1-0.2,1.4c0,0,0,0,0,0L1371.3,962.6z"/>
		</g>
	</g>
</g>
</svg>
