<svg xmlns="http://www.w3.org/2000/svg" viewBox="0 0 5000 2000"><defs><style>.cls-1{fill:#f4d9a4;}.cls-2{fill:#1d1d1b;}.cls-3{fill:#fcc201;}</style></defs><g id="Livello_2" data-name="Livello 2"><path class="cls-1" d="M3725.38,188.21c.35,1.86-.67,3.71-1.94,5.11a40.71,40.71,0,0,0-3.88,4.12,3.55,3.55,0,0,0-.74,2.16,3.32,3.32,0,0,0,.81,1.82c2.49,3.11,7.06,3.38,11,3.12s8.33-.71,11.58,1.59c1.05.74,2,1.77,3.23,2.07,2,.49,4.7-.79,5.81.94.79,1.23-.16,2.94.37,4.31a4,4,0,0,0,1.71,1.76,42.89,42.89,0,0,0,9.21,4.61,5.25,5.25,0,0,0,2.43.44,5.79,5.79,0,0,0,2.18-.94l14.56-8.95c1.29-.79,2.77-2,2.34-3.49-.27-.94-1.28-1.5-1.65-2.4a2.77,2.77,0,0,1,1.31-3.16,8.74,8.74,0,0,1,3.54-1,64.23,64.23,0,0,0,16.91-4.8c1.41-.62,3.07-2.1,2.21-3.39a2.9,2.9,0,0,0-1.69-1,20.21,20.21,0,0,1-9.5-6.38c-1-1.24-1.94-2.92-1.3-4.4,1.06-2.41,4.64-1.67,7.13-2.53s3.86-3.33,5.05-5.62a2.66,2.66,0,0,0,.39-1.18c0-.93-.9-1.56-1.39-2.35-1-1.61-.05-3.81,1.45-4.95s3.39-1.58,5.16-2.22a21.26,21.26,0,0,0,11.85-10.74,1.91,1.91,0,0,0,.27-1.24c-.17-.78-1.11-1.07-1.9-1.16-4.59-.54-9.21.88-13.4,2.83s-8.14,4.43-12.39,6.25c-2.66,1.13-5.56,2.09-7.44,4.28-.63.75-1.12,1.6-1.77,2.32-2.25,2.48-5.91,2.9-9.22,3.36a87.4,87.4,0,0,0-13.17,2.88,3.39,3.39,0,0,0-1.55.77,5,5,0,0,0-.88,1.72,4.77,4.77,0,0,1-3.84,3,3.22,3.22,0,0,1-3.46-3,5.32,5.32,0,0,0,0-1.54A2.25,2.25,0,0,0,3753,170c-3-.69-5.95.49-8.59,1.83-2.94,1.49-5.72,3.13-8.95,3.92-2.18.54-4.39.56-6.58,1a10,10,0,0,0-5.5,3.34c-2.14,2.47.76,5,1.69,7.25A4.82,4.82,0,0,1,3725.38,188.21Z"/><path class="cls-2" d="M3725.58,188.17a7.6,7.6,0,0,1,0,2.65,6.49,6.49,0,0,1-1.09,2.44c-1,1.47-2.26,2.64-3.22,3.82a8.07,8.07,0,0,0-1.12,1.75,1.37,1.37,0,0,0,.07,1.33,5.56,5.56,0,0,0,1.3,1.48,7.24,7.24,0,0,0,1.83,1.08,14.19,14.19,0,0,0,4.48.94,46.83,46.83,0,0,0,4.88,0,27,27,0,0,1,5.07.21,10.51,10.51,0,0,1,4.83,1.88c.7.53,1.29,1.1,1.92,1.52a3.5,3.5,0,0,0,2.08.57c.78,0,1.59-.12,2.48-.15a4.11,4.11,0,0,1,1.4.19,2.52,2.52,0,0,1,1.26.95,3.08,3.08,0,0,1,.46,1.48,10.41,10.41,0,0,0,.22,1.34,7.5,7.5,0,0,0,.34,1c.11.25.12.35.22.53a6,6,0,0,0,1.46,1.28l2,1.4a42.78,42.78,0,0,0,4.15,2.56c.72.4,1.47.72,2.21,1.06a4.65,4.65,0,0,0,2.24.46,6,6,0,0,0,2.14-.95l2.11-1.29c1.39-.89,2.79-1.75,4.17-2.67l4.14-2.73c1.36-.91,2.8-1.79,4.07-2.77A4.86,4.86,0,0,0,3783,208a1.09,1.09,0,0,0-.12-1.27c-.18-.26-.46-.55-.74-.94a3.32,3.32,0,0,1-.66-1.51,3.41,3.41,0,0,1,1.12-2.85,5.17,5.17,0,0,1,2.47-1.28,24.3,24.3,0,0,1,2.51-.38c1.62-.22,3.23-.53,4.83-.87a44.31,44.31,0,0,0,9.36-3c.73-.34,1.48-.73,2.17-1.12a4.17,4.17,0,0,0,1.46-1.39c.15-.24.19-.46.14-.52a.6.6,0,0,0-.21-.22,3.68,3.68,0,0,0-.77-.32c-.37-.14-.81-.28-1.21-.45a21.33,21.33,0,0,1-8.39-6,11.12,11.12,0,0,1-1.52-2.2,4.6,4.6,0,0,1-.51-2.92,3.46,3.46,0,0,1,1.9-2.39,7.88,7.88,0,0,1,2.64-.64c1.67-.17,3.27-.18,4.5-1a9.09,9.09,0,0,0,2.79-3.68l.52-1.1a2.87,2.87,0,0,0,.29-.85,1.19,1.19,0,0,0-.21-.59c-.16-.27-.41-.59-.68-1a3.54,3.54,0,0,1-.58-1.41,3.3,3.3,0,0,1,.07-1.47,5,5,0,0,1,1.38-2.28,12.07,12.07,0,0,1,4.4-2.3,19.73,19.73,0,0,0,4.5-2,20.93,20.93,0,0,0,6.76-6.84,23.47,23.47,0,0,0,1.16-2.08c.16-.34.37-.74.47-1s.06-.39,0-.43a.94.94,0,0,0-.48-.27,4.55,4.55,0,0,0-1-.16,18.33,18.33,0,0,0-2.35-.08,25.94,25.94,0,0,0-9.32,2.15,29.43,29.43,0,0,0-4.36,2.24l-4.25,2.57c-1.42.87-2.89,1.7-4.42,2.44s-3,1.33-4.36,2.06a10.38,10.38,0,0,0-1.81,1.21,8.8,8.8,0,0,0-1.45,1.57,12.35,12.35,0,0,1-1.81,2.07,8.87,8.87,0,0,1-2.43,1.47,19.36,19.36,0,0,1-5.12,1.16c-1.67.18-3.28.32-4.91.55a79.81,79.81,0,0,0-9.65,1.88,4.07,4.07,0,0,0-2,.87,22.83,22.83,0,0,0-1.11,2.13,4.9,4.9,0,0,1-4.29,2.56,4.08,4.08,0,0,1-2.46-1.06,3.41,3.41,0,0,1-.83-1.16,3.2,3.2,0,0,1-.23-1.46c.07-1,0-1.12-.55-1.43a5.38,5.38,0,0,0-2-.45c-3-.2-6.13,1.18-9,2.72-1.46.78-2.94,1.56-4.5,2.21a20.69,20.69,0,0,1-4.9,1.41,43.25,43.25,0,0,0-4.74.86,9.4,9.4,0,0,0-3.71,2.36,6.63,6.63,0,0,0-.7.79,2.58,2.58,0,0,0-.39.7,3,3,0,0,0,.18,1.84A27.09,27.09,0,0,1,3725.58,188.17Zm-.41.08a4.29,4.29,0,0,0-.46-1.08,6.81,6.81,0,0,0-.75-.95,11.76,11.76,0,0,1-1.56-2.05,4.49,4.49,0,0,1-.7-2.94,3.59,3.59,0,0,1,.65-1.52,6.68,6.68,0,0,1,.93-1.07A10.67,10.67,0,0,1,3728,176a43.13,43.13,0,0,1,5.06-.53,18.31,18.31,0,0,0,4.68-1,35.52,35.52,0,0,0,4.47-2c1.47-.73,2.89-1.6,4.45-2.29a11.23,11.23,0,0,1,5.09-1.12,5.76,5.76,0,0,1,2.73.71,2.34,2.34,0,0,1,1.06,1.37,3.33,3.33,0,0,1-.07,1.49c-.39,1.29.84,2.81,2.36,3a4,4,0,0,0,3.75-2.28,17.89,17.89,0,0,1,1.05-2.3,2.75,2.75,0,0,1,1.15-.82c.41-.18.81-.29,1.2-.42a96.2,96.2,0,0,1,9.62-2.62c3.24-.75,6.69-.94,9.31-2.29a7.19,7.19,0,0,0,1.71-1.21,9.62,9.62,0,0,0,1.33-1.75,10.37,10.37,0,0,1,1.84-2.12,12.94,12.94,0,0,1,2.29-1.54,37.65,37.65,0,0,1,4.68-2c1.51-.56,3-1.2,4.5-1.86s3-1.39,4.5-2.08,3-1.38,4.54-2.11a28.35,28.35,0,0,1,9.73-2.79,15.05,15.05,0,0,1,2.6,0,5.75,5.75,0,0,1,1.42.25,2.63,2.63,0,0,1,1.49,1.13,1.9,1.9,0,0,1,.24,1.08,2.64,2.64,0,0,1-.22.88,13.12,13.12,0,0,1-.61,1.19,18,18,0,0,1-1.42,2.14,21.85,21.85,0,0,1-7.83,6.29,31.81,31.81,0,0,1-4.65,1.74,7.1,7.1,0,0,0-4.1,2.52,4.17,4.17,0,0,0-.67,2.16,2.53,2.53,0,0,0,.73,1.77,11.36,11.36,0,0,1,.87,1,2.42,2.42,0,0,1,.51,1.73,3.67,3.67,0,0,1-.59,1.44l-.65,1.08a13.17,13.17,0,0,1-3.45,3.9,7.31,7.31,0,0,1-2.49,1c-.86.18-1.69.27-2.49.4a6.71,6.71,0,0,0-2.14.58,1.92,1.92,0,0,0-1,1.38A3,3,0,0,0,3795,183a9,9,0,0,0,1.37,1.8,19.35,19.35,0,0,0,7.81,5.08c.38.13.73.23,1.14.35a4.4,4.4,0,0,1,1.46.71,2.49,2.49,0,0,1,.94,1.89,2.79,2.79,0,0,1-.67,1.76,5.82,5.82,0,0,1-2.4,1.62l-2.4.8c-3.16,1.06-6.31,2.11-9.54,2.89-1.62.39-3.26.69-4.9.95a22.19,22.19,0,0,0-2.37.45,3.51,3.51,0,0,0-1.83,1,1.84,1.84,0,0,0-.45,1.66c.11.44.67.82,1.32,1.61a2.86,2.86,0,0,1,.66,1.63,2.78,2.78,0,0,1-.46,1.72,6,6,0,0,1-2.16,1.85c-1.52.78-2.9,1.61-4.35,2.43l-4.3,2.46c-1.44.81-2.84,1.68-4.27,2.51l-2.1,1.3a6.65,6.65,0,0,1-2.34,1.1,5.52,5.52,0,0,1-2.6-.32c-.8-.22-1.59-.5-2.4-.74a43.81,43.81,0,0,1-4.73-1.81c-.77-.35-1.53-.73-2.27-1.15a6.83,6.83,0,0,1-2.33-1.85,2.94,2.94,0,0,1-.6-1.78,3.7,3.7,0,0,1,.42-1.45,3.53,3.53,0,0,0,.36-1.12,1.65,1.65,0,0,0-.2-.89,1.86,1.86,0,0,0-1.68-.73c-.77,0-1.6.1-2.47.1a5.76,5.76,0,0,1-1.35-.15,4.71,4.71,0,0,1-1.27-.56c-.76-.47-1.38-1-2-1.48a9.54,9.54,0,0,0-4.36-1.52,25,25,0,0,0-4.81.06c-3.22.31-6.74.83-10.25-.36a8.58,8.58,0,0,1-2.48-1.31,7.45,7.45,0,0,1-2-2.18,3.9,3.9,0,0,1-.51-1.7,4,4,0,0,1,.33-1.73,8,8,0,0,1,1.68-2.32c1.24-1.27,2.64-2.16,3.68-3.27a12.29,12.29,0,0,0,1.37-1.83A3.06,3.06,0,0,0,3725.17,188.25Z"/></g><g id="Livello_3" data-name="Livello 3"><path class="cls-3" d="M3780.58,219.45a.16.16,0,0,1,.14.05l.05.05s0,.09-.05.09l-.14.14a1.24,1.24,0,0,0-.18.14.41.41,0,0,1-.19.09c-.05,0-.14,0-.18.09a.17.17,0,0,0-.1.05c.05-.05.05-.05.05-.1s0,0-.05,0a.14.14,0,0,0-.09,0h-.37a.83.83,0,0,0-.32,0,1.17,1.17,0,0,0-.37,0l-.05,1.62c.05.05.1.05.19.09s.14,0,.23,0h.23c.09,0,.14,0,.18,0s.14-.05.19-.05-.19.14-.28.23a1.08,1.08,0,0,1-.32.19c-.14,0-.23.09-.37.14a1.5,1.5,0,0,1-.42,0h-.14a.19.19,0,0,1-.09,0l-.09-.1s-.05-.09-.05-.18v-1.9h-.09l.09,0,.05-2.13h-.6l.88-.46h1.2a1.79,1.79,0,0,0,.46,0,1.21,1.21,0,0,0,.42,0h.46s0,0,0,0,0,0,0,.09l-.14.14a.84.84,0,0,1-.19.14s-.13.09-.18.13-.14.05-.19.1,0-.14-.27-.14a2.64,2.64,0,0,0-.56,0c-.18,0-.37.05-.6.05l0,1.76a8.15,8.15,0,0,1,.92-.1,3.05,3.05,0,0,1,.55,0A2.36,2.36,0,0,1,3780.58,219.45Z"/><path class="cls-3" d="M3787.88,219.64a1.72,1.72,0,0,0-.32-.46,1.8,1.8,0,0,0-.47-.33,2.61,2.61,0,0,0-.6-.09,2.05,2.05,0,0,0-.55.05,2.43,2.43,0,0,0-.56.18,1.89,1.89,0,0,0-.5.33l-.18.17a1.43,1.43,0,0,0-.24-.31,1.92,1.92,0,0,0-.46-.33,2.7,2.7,0,0,0-.6-.09,2.12,2.12,0,0,0-.56.05,2.36,2.36,0,0,0-.55.18,1.94,1.94,0,0,0-.51.33l-.41.41c-.1.19-.19.32-.28.51a1.86,1.86,0,0,0-.09.55,1.29,1.29,0,0,0,.13.6,1.89,1.89,0,0,0,.37.42,1.17,1.17,0,0,0,.51.28,3.63,3.63,0,0,0,.65.09c.18,0,.32-.05.46-.05a1.69,1.69,0,0,0,.42-.13c.14-.1.27-.14.41-.24s.23-.17.35-.26a1.27,1.27,0,0,0,.3.31,1.12,1.12,0,0,0,.51.28,3.52,3.52,0,0,0,.64.09c.19,0,.33-.05.47-.05a1.62,1.62,0,0,0,.41-.13c.14-.1.28-.14.42-.24s.23-.18.37-.27a.25.25,0,0,0,.18-.14.93.93,0,0,1,.19-.28.86.86,0,0,0,.18-.37,1.3,1.3,0,0,0,.09-.46A1,1,0,0,0,3787.88,219.64Zm-4.07,1.89a.55.55,0,0,1-.27.23.68.68,0,0,1-.33.05,1.08,1.08,0,0,1-.55-.09,1,1,0,0,1-.46-.28,4.64,4.64,0,0,1-.28-.46,2.18,2.18,0,0,1-.09-.56c0-.09,0-.18,0-.27s.05-.19.1-.28l.14-.28a.88.88,0,0,1,.18-.23l.23-.14a.68.68,0,0,1,.28,0,1,1,0,0,1,.51.09,1.42,1.42,0,0,1,.41.32,1.77,1.77,0,0,1,.28.46,2.18,2.18,0,0,1,.09.56,1.61,1.61,0,0,1-.09.55A.87.87,0,0,1,3783.81,221.53Zm3.28-.37a.86.86,0,0,1-.18.37.65.65,0,0,1-.6.28,1.14,1.14,0,0,1-.56-.09,1,1,0,0,1-.46-.28,4.68,4.68,0,0,1-.27-.46,2.6,2.6,0,0,1-.09-.47,1.1,1.1,0,0,0,0-.27.2.2,0,0,0,0-.07v0c.05-.1.05-.19.09-.28l.14-.28a1.68,1.68,0,0,1,.18-.23,1.53,1.53,0,0,1,.24-.14.63.63,0,0,1,.27,0,.93.93,0,0,1,.51.09,1.46,1.46,0,0,1,.42.32,1.51,1.51,0,0,1,.27.46,2.2,2.2,0,0,1,.1.56A1.59,1.59,0,0,1,3787.09,221.16Z"/><path class="cls-3" d="M3791.58,220.79a1.29,1.29,0,0,1-.1.42,1,1,0,0,1-.32.32l-.42.28a2,2,0,0,1-.46.19l-.46.13a1.21,1.21,0,0,1-.42.05.83.83,0,0,1-.32-.05c-.09,0-.18,0-.28-.09a.45.45,0,0,1-.18-.14s0-.09,0-.14l.14-.13.14-.14a.61.61,0,0,1,.23-.14,2,2,0,0,1,.32-.14.16.16,0,0,0,0,.14s0,.09.1.14.09,0,.18.09.14,0,.23,0,.14,0,.19,0h.37a1,1,0,0,0,.18,0s.09,0,.14-.1.05-.14.05-.18a.63.63,0,0,0-.1-.28.39.39,0,0,0-.23-.18,1.39,1.39,0,0,0-.32-.14c-.14-.05-.23-.05-.32-.09s-.24,0-.33,0a2.14,2.14,0,0,1-.23-.05c-.09,0-.18,0-.28-.09a.7.7,0,0,1-.18-.14.21.21,0,0,1-.09-.18c0-.1-.05-.14-.05-.19a1,1,0,0,1,.09-.37,2,2,0,0,1,.28-.32,3.06,3.06,0,0,1,.42-.28,1.63,1.63,0,0,1,.46-.18,1.5,1.5,0,0,1,.46-.09c.14,0,.28-.05.37-.05h.32a1.4,1.4,0,0,1,.23.05.1.1,0,0,1,.1.09v.09s-.05.09-.1.14l-.13.14c-.05,0-.1.09-.14.09s-.1,0-.14.09-.14,0-.19.09a.12.12,0,0,0,.05-.09s-.05,0-.05-.09-.09-.05-.13-.05-.14,0-.19,0a.39.39,0,0,1-.23-.05h-.46c-.1,0-.14,0-.19.05a.25.25,0,0,0-.14.09s0,.09,0,.18a.33.33,0,0,0,0,.19.75.75,0,0,0,.14.18,1.16,1.16,0,0,0,.23.19.83.83,0,0,0,.28.09c.09,0,.19.05.28.05a.88.88,0,0,1,.32,0,.72.72,0,0,0,.32.05.71.71,0,0,1,.28.09.39.39,0,0,1,.19.19C3791.48,220.61,3791.58,220.7,3791.58,220.79Z"/><path class="cls-3" d="M3793.15,221.72l-.74.55c0-.55,0-1,0-1.48a8.75,8.75,0,0,0,0-1.15v-2.4a1.67,1.67,0,0,0-.09-.6.4.4,0,0,0-.37-.23h-.18a.33.33,0,0,0-.19.09c.09-.05.19-.14.28-.19s.18-.14.28-.18l.27-.14a.58.58,0,0,1,.28-.05.39.39,0,0,1,.23.05c.09,0,.09.09.14.14s.05.09.09.18,0,.14,0,.19v3a1.14,1.14,0,0,1,.37-.32l.41-.28a1.82,1.82,0,0,1,.47-.18,1.13,1.13,0,0,1,.41-.05.76.76,0,0,1,.28.09,1.07,1.07,0,0,1,.28.19.77.77,0,0,1,.18.32,1.55,1.55,0,0,1,.09.51,3.18,3.18,0,0,1,0,.64v.79a.44.44,0,0,0,.09.23l.14.14s.14,0,.23,0a.58.58,0,0,0,.28,0l.27-.14a2.29,2.29,0,0,1-.41.32,1.55,1.55,0,0,1-.37.24l-.33.13a.52.52,0,0,1-.27.05c-.1,0-.19,0-.23-.05L3795,222c0-.05,0-.14-.1-.28v-.42a1.61,1.61,0,0,1,.05-.46v-.51a1.19,1.19,0,0,0-.05-.46,2.1,2.1,0,0,0-.13-.32c0-.1-.14-.14-.28-.19a1.64,1.64,0,0,0-.46,0,.66.66,0,0,0-.28,0c-.09,0-.14,0-.18.09a.59.59,0,0,0-.14.19,1.6,1.6,0,0,0-.14.41,2.71,2.71,0,0,0-.09.7A7.76,7.76,0,0,1,3793.15,221.72Z"/><path class="cls-3" d="M3801.46,221.58a1.18,1.18,0,0,1-.28.23.78.78,0,0,1-.32.19,1.87,1.87,0,0,0-.28.13.52.52,0,0,1-.27.05h-.19c-.09,0-.14-.05-.18-.05l-.19-.13a.58.58,0,0,1-.09-.28v-.37c-.14.09-.23.23-.37.32l-.42.28a1.35,1.35,0,0,1-.41.18,1,1,0,0,1-.88,0,1.81,1.81,0,0,1-.32-.27,1.15,1.15,0,0,1-.19-.42,1.79,1.79,0,0,1,0-.46.88.88,0,0,1,0-.32c0-.1,0-.24,0-.33s0-.18.09-.28.09-.13.09-.18a2.46,2.46,0,0,1,.28-.28,1.87,1.87,0,0,1,.37-.23c.14-.09.28-.14.42-.23a1.35,1.35,0,0,1,.41-.18,1.29,1.29,0,0,1,.42-.1c.14,0,.27,0,.37,0h.41a3,3,0,0,1,.56.09v2.26a.57.57,0,0,0,0,.28c.05.05.05.14.14.23a.39.39,0,0,0,.28.09.47.47,0,0,0,.23,0A1.16,1.16,0,0,1,3801.46,221.58Zm-1.75-2.26c-.14,0-.28,0-.42-.1h-.79a.15.15,0,0,0-.13.05s-.1,0-.1,0-.09,0-.14.13l-.13.28a1.92,1.92,0,0,0-.14.37,1.21,1.21,0,0,0-.05.42,1.15,1.15,0,0,0,.05.41.86.86,0,0,0,.18.37l.28.28a.81.81,0,0,0,.37.09,1,1,0,0,0,.37,0,1.39,1.39,0,0,0,.28-.19,1,1,0,0,0,.18-.28c.05-.09.09-.23.14-.32v-1A1.7,1.7,0,0,0,3799.71,219.32Z"/><path class="cls-3" d="M3807.93,217.56a.62.62,0,0,1,0,.28.83.83,0,0,0,0,.32,2,2,0,0,1-.14.42c0,.14-.13.27-.18.41a4.38,4.38,0,0,1-.28.46,3.06,3.06,0,0,1-.32.42c-.19.23-.33.42-.46.6a3.27,3.27,0,0,0-.37.51,1.56,1.56,0,0,0-.23.41c-.05.14-.1.24-.14.33a1.17,1.17,0,0,1-.19.14s-.14.09-.18.18-.19.14-.23.28c0-.32-.1-.69-.19-1.06s-.18-.7-.28-1.07-.23-.64-.32-1-.23-.6-.37-.87-.14-.28-.23-.33a.71.71,0,0,0-.28-.09.52.52,0,0,0-.27,0s.14-.1.23-.19a.73.73,0,0,1,.23-.18c.09-.05.18-.14.28-.14a.45.45,0,0,1,.23-.05.47.47,0,0,1,.23.05.3.3,0,0,1,.18.23.75.75,0,0,0,.14.28,3.58,3.58,0,0,1,.19.46c.09.18.13.37.23.6a4.65,4.65,0,0,1,.23.69,4.2,4.2,0,0,0,.23.74,6.29,6.29,0,0,1,.14.74,1.87,1.87,0,0,0,.23-.37.79.79,0,0,0,.18-.28c0-.09.14-.18.19-.27a3.2,3.2,0,0,0,.32-.56,3.57,3.57,0,0,0,.23-.51,1.62,1.62,0,0,0,.14-.46,1.18,1.18,0,0,0,0-.41v-.14a.16.16,0,0,0,0-.14c-.05,0-.05-.09-.09-.09a.22.22,0,0,0-.28,0s-.09,0-.18.09l.23-.23c.09-.09.18-.14.23-.23s.18-.1.28-.14a.52.52,0,0,1,.27-.05.27.27,0,0,1,.19.05C3807.88,217.42,3807.93,217.47,3807.93,217.56Z"/><path class="cls-3" d="M3810.79,221.58l-.6.37c-.18.09-.32.14-.41.18a.84.84,0,0,1-.33.1h-.23s-.14,0-.18,0-.1-.05-.14-.09a.34.34,0,0,1-.09-.23c0-.1,0-.23,0-.42V221a1.57,1.57,0,0,1,0-.46v-.83a.64.64,0,0,0-.1-.33.35.35,0,0,0-.23-.09h-.14a.15.15,0,0,0-.13,0,1.76,1.76,0,0,1,.23-.14c.09-.05.14-.1.23-.14a.62.62,0,0,1,.23-.09.45.45,0,0,1,.23,0,.33.33,0,0,1,.23,0,.56.56,0,0,1,.14.18v2.13a.4.4,0,0,0,.05.23c0,.09,0,.14.13.18s.14.09.19.14a.54.54,0,0,0,.28.05.52.52,0,0,0,.27-.05C3810.52,221.76,3810.7,221.63,3810.79,221.58Zm-1.11-5.41v.37a.81.81,0,0,1,0,.33l-.14.23a.84.84,0,0,1-.19.14,5.27,5.27,0,0,0-.55.37.33.33,0,0,0,0-.23.66.66,0,0,1,0-.28v-.32a1.3,1.3,0,0,1,.37-.19l.28-.14A.57.57,0,0,1,3809.68,216.17Z"/><path class="cls-3" d="M3813.29,221.49c-.23.14-.37.27-.51.37l-.37.23a.76.76,0,0,1-.28.09c-.09,0-.18,0-.27,0a.42.42,0,0,1-.24,0,.34.34,0,0,1-.18-.23,2,2,0,0,1-.14-.42,2.77,2.77,0,0,1-.05-.69v-3.56a1.09,1.09,0,0,0-.13-.6.42.42,0,0,0-.37-.23h-.14a.41.41,0,0,0-.19.09,2.68,2.68,0,0,0,.28-.18c.09-.05.19-.14.28-.19l.27-.13a.58.58,0,0,1,.28,0,.44.44,0,0,1,.28.09c.05,0,.14.14.14.23a.7.7,0,0,1,0,.28v4a2.12,2.12,0,0,0,.05.56,3.67,3.67,0,0,0,.14.37.57.57,0,0,0,.23.23.71.71,0,0,0,.28.09C3812.87,221.67,3813.1,221.63,3813.29,221.49Z"/><path class="cls-3" d="M3815.78,221.49c-.23.14-.37.27-.51.37a3.47,3.47,0,0,1-.37.23.72.72,0,0,1-.27.09c-.1,0-.19,0-.28,0a.39.39,0,0,1-.23,0,.35.35,0,0,1-.19-.23,2.13,2.13,0,0,1-.13-.42,2.77,2.77,0,0,1-.05-.69v-3.56a1.08,1.08,0,0,0-.14-.6.4.4,0,0,0-.37-.23h-.14a.38.38,0,0,0-.18.09c.09,0,.18-.13.27-.18s.19-.14.28-.19l.28-.13a.54.54,0,0,1,.28,0,.41.41,0,0,1,.27.09s.14.14.14.23a.58.58,0,0,1,0,.28v4a2.64,2.64,0,0,0,0,.56l.14.37a.63.63,0,0,0,.23.23.83.83,0,0,0,.28.09C3815.37,221.67,3815.55,221.63,3815.78,221.49Z"/><path class="cls-3" d="M3820.4,221.58a1.18,1.18,0,0,1-.28.23.78.78,0,0,1-.32.19,1.87,1.87,0,0,0-.28.13.52.52,0,0,1-.27.05h-.19c-.09,0-.14-.05-.18-.05l-.19-.13a.58.58,0,0,1-.09-.28v-.37c-.14.09-.23.23-.37.32l-.42.28a1.35,1.35,0,0,1-.41.18,1,1,0,0,1-.88,0,1.81,1.81,0,0,1-.32-.27,1.35,1.35,0,0,1-.19-.42,1.79,1.79,0,0,1,0-.46.88.88,0,0,1,0-.32c0-.1,0-.24,0-.33a2.29,2.29,0,0,0,.09-.28c0-.09.09-.13.09-.18a2.46,2.46,0,0,1,.28-.28,1.87,1.87,0,0,1,.37-.23c.14-.09.28-.14.42-.23a1.35,1.35,0,0,1,.41-.18,1.29,1.29,0,0,1,.42-.1c.14,0,.27,0,.37,0h.41a3,3,0,0,1,.56.09v2.26a.57.57,0,0,0,0,.28c.05.05.05.14.14.23a.39.39,0,0,0,.28.09.47.47,0,0,0,.23,0A1.16,1.16,0,0,1,3820.4,221.58Zm-1.75-2.26c-.14,0-.28,0-.42-.1h-.79a.15.15,0,0,0-.13.05s-.1,0-.1,0-.09,0-.13.13l-.14.28a1.92,1.92,0,0,0-.14.37,1.21,1.21,0,0,0-.05.42,1.15,1.15,0,0,0,.05.41.86.86,0,0,0,.18.37l.28.28a.81.81,0,0,0,.37.09,1,1,0,0,0,.37,0,1.39,1.39,0,0,0,.28-.19,1,1,0,0,0,.18-.28c.05-.09.09-.23.14-.32v-1A1.7,1.7,0,0,0,3818.65,219.32Z"/><path class="cls-3" d="M3824.24,218.9V222a1.44,1.44,0,0,1,0,.46,1,1,0,0,1-.09.37,1.18,1.18,0,0,1-.23.28c-.19.14-.33.32-.51.46l-.56.42a2.29,2.29,0,0,1-.6.32,1.46,1.46,0,0,1-.64.09,1.5,1.5,0,0,1-.42,0,2,2,0,0,1-.42-.19,2.26,2.26,0,0,1-.32-.27.61.61,0,0,1-.14-.42,1,1,0,0,1,.1-.37,1.93,1.93,0,0,1,.32-.32c.09-.05.18-.14.28-.19s.18-.14.32-.23l.41-.28a.76.76,0,0,1-.41-.13,2.36,2.36,0,0,1-.32-.28,1.08,1.08,0,0,1-.19-.42,1.15,1.15,0,0,1-.05-.41.76.76,0,0,1,.05-.33.72.72,0,0,0,.05-.32c0-.09,0-.19.09-.28s.09-.14.09-.18l.28-.28a1.06,1.06,0,0,1,.37-.23,2.12,2.12,0,0,1,.41-.19l.42-.13a1.29,1.29,0,0,1,.42-.1c.13,0,.23,0,.37,0h.41C3823.82,218.85,3824,218.85,3824.24,218.9Zm-3.1,3.93a.58.58,0,0,0-.18.32.34.34,0,0,0,.09.23.37.37,0,0,0,.18.19l.28.13c.09.05.18.05.28.1s.18,0,.27,0h.24a1,1,0,0,0,.36,0c.1-.05.24-.05.28-.1s.14-.13.19-.32a1.9,1.9,0,0,0,.09-.55,3.3,3.3,0,0,0,.05-.7,5.84,5.84,0,0,1,0-.83,2,2,0,0,0-.32.33c-.14.09-.23.18-.37.27a1.3,1.3,0,0,1-.37.19,1.77,1.77,0,0,1-.37.09c-.14.09-.23.18-.32.23s-.19.14-.23.19A.58.58,0,0,1,3821.14,222.83Zm2.22-3.47a1.5,1.5,0,0,0-.42,0h-.41a1.68,1.68,0,0,0-.47,0,.74.74,0,0,0-.32.19.86.86,0,0,0-.18.37,2.22,2.22,0,0,0,0,.64,1.21,1.21,0,0,0,0,.42.86.86,0,0,0,.18.37l.28.28a1,1,0,0,0,.37.09.78.78,0,0,0,.64-.23,1.07,1.07,0,0,0,.19-.28c.05-.09.09-.23.14-.32v-1.53Z"/><path class="cls-3" d="M3829.13,219.08a4.33,4.33,0,0,1-.69.33,3.59,3.59,0,0,1-.55.23,3.18,3.18,0,0,1-.51.18,1.72,1.72,0,0,1-.33.14,2.93,2.93,0,0,1-.37.14l-.37.14a1.17,1.17,0,0,1-.37.09v0a2.21,2.21,0,0,0,.1.6,1.51,1.51,0,0,0,.27.46,1,1,0,0,0,.47.28,2.63,2.63,0,0,0,.55.09.72.72,0,0,0,.32-.05c.1,0,.19,0,.33,0s.18-.05.27-.09.14-.1.24-.14a2.38,2.38,0,0,1-.51.37,3.23,3.23,0,0,1-.51.23c-.19,0-.32.09-.51.14a2,2,0,0,1-.46,0,.85.85,0,0,1-.46-.09,2.18,2.18,0,0,1-.42-.23.94.94,0,0,1-.32-.42,1.68,1.68,0,0,1-.19-.55v-.42c-.09.05-.14.05-.18.1s-.09,0-.14.09.14-.09.18-.14a.33.33,0,0,1,.19-.09,1.54,1.54,0,0,1,.18-.47,3.71,3.71,0,0,1,.33-.41c.14-.14.27-.23.41-.37l.47-.28a2,2,0,0,1,.5-.18,1.8,1.8,0,0,1,.51-.05.56.56,0,0,1,.28.05c.09,0,.14.09.14.18a.35.35,0,0,1-.09.28l-.14.14-.23.14a1.88,1.88,0,0,0-.33.18,1.38,1.38,0,0,0-.41.19Zm-2.49.74a1.17,1.17,0,0,0,.23-.13.75.75,0,0,0,.18-.14.17.17,0,0,0,0-.14.35.35,0,0,0,0-.19s-.09-.09-.14-.09-.09,0-.18,0h-.14s-.09,0-.14,0,0,.05-.09.09a.78.78,0,0,0-.14.19l-.14.28a1,1,0,0,0-.09.32l.37-.14C3826.5,219.82,3826.55,219.87,3826.64,219.82Z"/><path class="cls-3" d="M3739.4,181.51a2.91,2.91,0,0,0-1.07-.64,5,5,0,0,0-1.43-.2h-.48c-.08,0-.2,0-.28,0s-.16,0-.24,0-.2,0-.31,0a2.11,2.11,0,0,1-.52,0h-.8l-1.19.64h.88l-.24,6.43c.4.08.75.08,1.07.12a6.22,6.22,0,0,0,.8,0,3.35,3.35,0,0,0,1.07-.16c.35-.12.71-.24,1.07-.4a5.74,5.74,0,0,0,1-.59,4,4,0,0,0,.84-.8,3.57,3.57,0,0,0,.55-1,3.65,3.65,0,0,0,.2-1.15,3.82,3.82,0,0,0-.24-1.43A2.56,2.56,0,0,0,3739.4,181.51Zm-.36,4.05a3.61,3.61,0,0,1-.32.79,4.06,4.06,0,0,1-.43.56,1.53,1.53,0,0,1-.44.32.58.58,0,0,1-.28.08c-.08,0-.2,0-.36,0a2.37,2.37,0,0,1-.55,0,5.62,5.62,0,0,1-.72-.08l-1-.12.2-5.8a1.83,1.83,0,0,0,.47,0,2.46,2.46,0,0,1,.56,0,3.07,3.07,0,0,1,1.23.24,2.48,2.48,0,0,1,.91.67,2.46,2.46,0,0,1,.6,1,4.45,4.45,0,0,1,.2,1.31A3.78,3.78,0,0,1,3739,185.56Z"/><path class="cls-3" d="M3746.59,183.33a2.43,2.43,0,0,0-.72-.47,2.33,2.33,0,0,0-.91-.16,3,3,0,0,0-.84.12,3.53,3.53,0,0,0-.83.28,3.92,3.92,0,0,0-.76.47,5.45,5.45,0,0,0-.63.64,2.84,2.84,0,0,0-.44.75,2.15,2.15,0,0,0-.16.88,2.21,2.21,0,0,0,.2.91,2.16,2.16,0,0,0,.56.64,2.25,2.25,0,0,0,.79.39,3.5,3.5,0,0,0,1,.12,1.84,1.84,0,0,0,.67-.08,1.77,1.77,0,0,0,.64-.24l.59-.35c.2-.12.36-.28.56-.4l.24-.24a2.06,2.06,0,0,0,.31-.4,2.19,2.19,0,0,0,.28-.55,1.94,1.94,0,0,0,.12-.72,2.14,2.14,0,0,0-.16-.87A2.43,2.43,0,0,0,3746.59,183.33Zm-.76,3a2.55,2.55,0,0,1-.32.56,1.18,1.18,0,0,1-.43.32,1.23,1.23,0,0,1-.52.12,1.72,1.72,0,0,1-.79-.16,1.54,1.54,0,0,1-.68-.44,2.48,2.48,0,0,1-.44-.68,2,2,0,0,1-.16-.83,1.64,1.64,0,0,1,0-.44c0-.15.08-.27.12-.43s.12-.28.2-.4a1.25,1.25,0,0,1,.28-.36.94.94,0,0,1,.36-.24,1.43,1.43,0,0,1,.43-.07,1.65,1.65,0,0,1,.76.19,2,2,0,0,1,.67.48,2.18,2.18,0,0,1,.44.72,2,2,0,0,1,.16.83A2.59,2.59,0,0,1,3745.83,186.35Z"/><path class="cls-3" d="M3755.24,185.56c.16-.28.36-.52.56-.84a2.79,2.79,0,0,0,.32-.47,3.42,3.42,0,0,0,.19-.4,1.88,1.88,0,0,0,.12-.36.63.63,0,0,0,0-.27,1.11,1.11,0,0,0,0-.36c0-.12-.08-.28-.12-.4a1.28,1.28,0,0,1-.23.24c-.08.08-.2.16-.32.28a3.34,3.34,0,0,0-.48.32.65.65,0,0,1,.08.27.68.68,0,0,1,0,.28,1.55,1.55,0,0,1-.08.6l-.24.59a5.71,5.71,0,0,1-.31.6c-.12.2-.24.36-.36.55a4.09,4.09,0,0,0-.2-.47c-.08-.2-.16-.36-.24-.56s-.2-.36-.28-.55a4.64,4.64,0,0,1-.27-.56,4.69,4.69,0,0,0-.2-.44,1.1,1.1,0,0,0-.12-.31c0-.08,0-.2-.08-.28s0-.2,0-.28v-.28l-1.07.87a4.41,4.41,0,0,1-.08.72,2.38,2.38,0,0,1-.24.71c-.12.24-.24.44-.36.68a6.87,6.87,0,0,1-.44.63,9.75,9.75,0,0,0-.19-1c-.12-.32-.2-.63-.32-.91a7.27,7.27,0,0,0-.32-.76,2.9,2.9,0,0,0-.24-.47.68.68,0,0,0-.24-.24.54.54,0,0,0-.27-.08,1.07,1.07,0,0,0-.48.12,1.2,1.2,0,0,0-.44.24,1.72,1.72,0,0,0-.43.32c-.12.11-.24.19-.36.31l.24-.12a.51.51,0,0,1,.24,0,.85.85,0,0,1,.39.16,1.8,1.8,0,0,1,.36.4,2.12,2.12,0,0,1,.32.6,3.89,3.89,0,0,1,.28.75c.07.28.15.56.23.83a4.32,4.32,0,0,1,.2.84c0,.32.08.59.12.91a4.81,4.81,0,0,1,.4-.44c.12-.11.24-.19.32-.27a1.17,1.17,0,0,1,.27-.2,1.57,1.57,0,0,1,.12-.56,4.28,4.28,0,0,1,.32-.59,5.6,5.6,0,0,1,.4-.64c.12-.2.28-.4.4-.59.07.19.15.35.23.55a4,4,0,0,0,.28.6,4.28,4.28,0,0,1,.32.59l.24.6a4.45,4.45,0,0,1,.16.55,1,1,0,0,1,0,.48,3.57,3.57,0,0,1,.35-.4c.12-.12.24-.19.32-.27a2.23,2.23,0,0,1,.32-.2,2.76,2.76,0,0,1,.16-.4c.08-.16.2-.32.32-.52S3755.08,185.8,3755.24,185.56Z"/><path class="cls-3" d="M3758.14,195.33h-.63c-.16,0-.32,0-.48-.08V189a.15.15,0,0,0,0-.12s-.08-.08-.12-.08a1.16,1.16,0,0,0-.16,0h-.2a2.91,2.91,0,0,0-.51,0,2.26,2.26,0,0,0-.48.16l-.48.24c-.16.12-.31.2-.47.32.12,0,.24,0,.35-.08a1.11,1.11,0,0,1,.36,0,1,1,0,0,1,.36.08.22.22,0,0,1,.16.24v5.84a.86.86,0,0,0,0,.35.4.4,0,0,0,.16.2.58.58,0,0,0,.23.08h.32a1.76,1.76,0,0,0,.4-.08,2.45,2.45,0,0,0,.48-.2l.51-.27.56-.36s-.08,0-.16,0Z"/><path class="cls-3" d="M3763.26,190.8a2.35,2.35,0,0,0-.35-.08,2.11,2.11,0,0,0-.52,0,3.45,3.45,0,0,0-.6,0,4.8,4.8,0,0,0-.71.16,5.34,5.34,0,0,0-.72.28,4.44,4.44,0,0,0-.63.39,1.71,1.71,0,0,0-.44.48,1.13,1.13,0,0,0-.16.6.68.68,0,0,0,0,.28.67.67,0,0,0,.16.27.68.68,0,0,0,.24.24,1.2,1.2,0,0,0,.4.16c.12,0,.24,0,.39.08s.32,0,.48.08l.52.12c.16.08.32.12.47.2a1,1,0,0,1,.36.27.68.68,0,0,1,.12.4.62.62,0,0,1-.08.32.4.4,0,0,1-.2.16,1,1,0,0,1-.31.08h-.56a.88.88,0,0,1-.32,0,1.24,1.24,0,0,1-.32-.08,1.78,1.78,0,0,1-.27-.12.7.7,0,0,1-.16-.2.26.26,0,0,1,0-.24,2.66,2.66,0,0,0-.48.24,2.23,2.23,0,0,0-.32.2c-.08.08-.16.12-.24.2s-.15.12-.19.2-.08.12,0,.2a.52.52,0,0,0,.27.19,1.43,1.43,0,0,0,.44.16,2,2,0,0,0,.48.08,3.35,3.35,0,0,0,.59,0,4.84,4.84,0,0,0,.72-.2,5.46,5.46,0,0,0,.71-.31,3.62,3.62,0,0,0,.64-.44,2.38,2.38,0,0,0,.43-.52.93.93,0,0,0,.16-.59c0-.16,0-.32,0-.44a.93.93,0,0,0-.28-.28,1.07,1.07,0,0,0-.39-.16,2,2,0,0,0-.48-.08c-.16,0-.32,0-.48,0a1.46,1.46,0,0,1-.43,0,1.21,1.21,0,0,1-.44-.15,2.22,2.22,0,0,1-.32-.24,1.4,1.4,0,0,1-.2-.32,1.71,1.71,0,0,1-.07-.32.72.72,0,0,1,.07-.28.38.38,0,0,1,.2-.15.58.58,0,0,1,.28-.08h.68c.12,0,.2,0,.31,0s.2,0,.28.08a.3.3,0,0,1,.2.07s.08.08.08.12,0,.08-.08.16l.28-.12.24-.12c.08,0,.16-.11.24-.15s.15-.12.23-.2a.87.87,0,0,1,.12-.2c0-.08,0-.12,0-.16S3763.34,190.84,3763.26,190.8Z"/><path class="cls-3" d="M3766.68,195.21a.71.71,0,0,1-.36-.32,1.19,1.19,0,0,1-.24-.56,2.26,2.26,0,0,1-.08-.79v-5.92a1.37,1.37,0,0,0-.08-.43.6.6,0,0,0-.23-.32.72.72,0,0,0-.44-.12,1.7,1.7,0,0,0-.44.08,1.86,1.86,0,0,0-.43.2.51.51,0,0,0-.17.07l.4-.35a1.09,1.09,0,0,1-.43.24,1.42,1.42,0,0,1-.4.08.8.8,0,0,1-.36-.08.41.41,0,0,1-.24-.2,1.69,1.69,0,0,1-.11-.32,1.36,1.36,0,0,1,0-.4,5.85,5.85,0,0,1,0-.79c0-.32,0-.63,0-1a2,2,0,0,0-.11-.76,1.39,1.39,0,0,0-.32-.47,2.69,2.69,0,0,0-.44-.28.91.91,0,0,0-.44-.12,1.74,1.74,0,0,0-.63,0,2.31,2.31,0,0,0-.68.24,4.44,4.44,0,0,0-.63.39,7,7,0,0,0-.56.48,1.5,1.5,0,0,0,0-.44l-.12-.35a.44.44,0,0,0-.23-.28,1.17,1.17,0,0,0-.36-.08,1.7,1.7,0,0,0-.44.08,2.14,2.14,0,0,0-.44.2,1.64,1.64,0,0,0-.43.24,3.46,3.46,0,0,0-.4.27c.08-.08.2-.08.28-.12a.66.66,0,0,1,.24,0,.61.61,0,0,1,.55.31,2,2,0,0,1,.16.92v.79c0,.28,0,.64,0,1.07s0,1-.08,1.59l1.15-.83a.84.84,0,0,1,.16-.44,2.64,2.64,0,0,0,0-.56,2.88,2.88,0,0,0,0-.59,3,3,0,0,1,0-.6c0-.2.08-.39.12-.55a1.33,1.33,0,0,1,.2-.48,1.38,1.38,0,0,1,.36-.32,1.07,1.07,0,0,1,.51-.12,1.67,1.67,0,0,1,.68.08.91.91,0,0,1,.4.28,2,2,0,0,1,.19.52,3.78,3.78,0,0,1,0,.71c0,.24,0,.52,0,.76s0,.51,0,.71a2.65,2.65,0,0,0,0,.6,1.05,1.05,0,0,0,.12.39.68.68,0,0,0,.24.24,1.17,1.17,0,0,0,.36.08,1.5,1.5,0,0,0,.4,0,1.6,1.6,0,0,0,.47-.2l.27-.15.13,0a.51.51,0,0,1,.24,0,.55.55,0,0,1,.55.31,2,2,0,0,1,.16.92v1.27c0,.43,0,.91,0,1.39s0,.95,0,1.43v1.35a7.45,7.45,0,0,0,.08,1.07,1.86,1.86,0,0,0,.2.63.62.62,0,0,0,.32.32,1.17,1.17,0,0,0,.36.08,1.29,1.29,0,0,0,.39,0,1.19,1.19,0,0,0,.44-.16c.16-.12.36-.2.56-.35s.47-.32.79-.56a1.83,1.83,0,0,1-.71.28A.81.81,0,0,1,3766.68,195.21Z"/><path class="cls-3" d="M3770.85,191a3.75,3.75,0,0,0-.64.16l-.63.24a4.28,4.28,0,0,0-.6.31l-.51.4a1.9,1.9,0,0,0-.4.4,1.74,1.74,0,0,0-.16.28c0,.12-.08.23-.12.39s0,.32-.08.48a2.46,2.46,0,0,0,0,.52,2.21,2.21,0,0,0,.12.67,1.61,1.61,0,0,0,.32.64,3,3,0,0,0,.51.43,1.23,1.23,0,0,0,.68.16,1.81,1.81,0,0,0,.64-.12,1.87,1.87,0,0,0,.63-.28,4.47,4.47,0,0,0,.6-.43c.19-.16.39-.32.55-.48v.56a.67.67,0,0,0,.12.43.47.47,0,0,0,.24.24.94.94,0,0,0,.32.08h.24a1.8,1.8,0,0,0,.39-.08,3.9,3.9,0,0,0,.44-.2,2.9,2.9,0,0,0,.48-.27,5.44,5.44,0,0,0,.43-.36.89.89,0,0,1-.51.12,1.5,1.5,0,0,1-.4,0,.64.64,0,0,1-.44-.12.55.55,0,0,1-.2-.32,1.5,1.5,0,0,1,0-.44v-1.62a4.59,4.59,0,0,0,0-.76c0-.28,0-.59,0-.95a3.39,3.39,0,0,0-.83-.12,3.89,3.89,0,0,0-.64,0A2.79,2.79,0,0,0,3770.85,191Zm.83,1.39v1.55a1.81,1.81,0,0,1-.2.51,1.41,1.41,0,0,1-.27.4,1,1,0,0,1-.4.28,1.28,1.28,0,0,1-.56.12.93.93,0,0,1-.59-.16,1.38,1.38,0,0,1-.44-.4,2.59,2.59,0,0,1-.28-.55,4,4,0,0,1-.08-.64,2.92,2.92,0,0,1,.08-.63c.08-.2.12-.4.2-.56a3.52,3.52,0,0,1,.24-.4.9.9,0,0,1,.2-.2.18.18,0,0,1,.12,0,1.73,1.73,0,0,1,.2,0,.63.63,0,0,1,.27,0h.32a3.44,3.44,0,0,1,.64,0l.59.12A2.66,2.66,0,0,1,3771.68,192.39Z"/><path class="cls-3" d="M3774.74,191.52a.63.63,0,0,1,.56.31,2,2,0,0,1,.16.92v.79c0,.28,0,.64,0,1.07s0,1-.08,1.59l1.15-.83a1.5,1.5,0,0,1,.16-.44,2.64,2.64,0,0,0,0-.56,2.88,2.88,0,0,0,0-.59,3,3,0,0,1,0-.6c0-.2.07-.39.11-.55a.88.88,0,0,1,.2-.48,1.38,1.38,0,0,1,.36-.32,1.11,1.11,0,0,1,.52-.12,1.64,1.64,0,0,1,.67.08.91.91,0,0,1,.4.28,2,2,0,0,1,.2.52,3.78,3.78,0,0,1,0,.71c0,.24,0,.52,0,.76s0,.51,0,.71a2.65,2.65,0,0,0,0,.6,3.75,3.75,0,0,0,.12.39.68.68,0,0,0,.24.24,1.05,1.05,0,0,0,.35.08,1.5,1.5,0,0,0,.4,0,1.54,1.54,0,0,0,.48-.2,5,5,0,0,0,.55-.35,6.12,6.12,0,0,0,.64-.52,1.2,1.2,0,0,1-.44.24,1.42,1.42,0,0,1-.4.08.75.75,0,0,1-.35-.08.41.41,0,0,1-.24-.2,2.76,2.76,0,0,1-.12-.32,1.33,1.33,0,0,1,0-.39,5.92,5.92,0,0,1,0-.8c0-.32,0-.63,0-1a2,2,0,0,0-.12-.76,1.5,1.5,0,0,0-.32-.47,2.69,2.69,0,0,0-.44-.28.85.85,0,0,0-.43-.12,1.78,1.78,0,0,0-.64,0,2.25,2.25,0,0,0-.67.24,3.45,3.45,0,0,0-.64.4,4.36,4.36,0,0,0-.55.47,1.5,1.5,0,0,0,0-.44l-.12-.35a.42.42,0,0,0-.24-.28,1.17,1.17,0,0,0-.36-.08,1.7,1.7,0,0,0-.44.08c-.15,0-.27.16-.43.2a1.55,1.55,0,0,0-.44.24,3.46,3.46,0,0,0-.4.27c.08-.08.2-.08.28-.11A.51.51,0,0,1,3774.74,191.52Z"/><path class="cls-3" d="M3782.6,195.45a1.67,1.67,0,0,0,.64.51,1.82,1.82,0,0,0,.83.2,3.09,3.09,0,0,0,.6-.08,3.16,3.16,0,0,0,.59-.2c.2-.12.4-.2.6-.31a5.85,5.85,0,0,0,.52-.36,1.32,1.32,0,0,0,.15.44,2.18,2.18,0,0,0,.24.27,2,2,0,0,1,.28.12.78.78,0,0,0,.28,0,2.27,2.27,0,0,0,.75-.2,6.76,6.76,0,0,0,1.12-.63.18.18,0,0,1-.28-.08.51.51,0,0,1-.24,0,1,1,0,0,1-.52-.12.65.65,0,0,1-.31-.36,2,2,0,0,1-.16-.51,2.46,2.46,0,0,1,0-.56v-1.79a8.45,8.45,0,0,0,0-1,8.87,8.87,0,0,0,0-1V187a.36.36,0,0,0-.12-.28.75.75,0,0,0-.32-.08,1.17,1.17,0,0,0-.36.08,1.67,1.67,0,0,0-.4.16c-.15.08-.27.12-.43.2a3.7,3.7,0,0,1-.4.2.78.78,0,0,1,.28,0,.3.3,0,0,1,.2,0,.55.55,0,0,1,.16.12s0,.11.08.15a1.45,1.45,0,0,1,.07.44l-.11,3a1.17,1.17,0,0,0-.36-.08h-.6l-.75.24a5.83,5.83,0,0,0-.76.28,3.76,3.76,0,0,0-.71.39,2.56,2.56,0,0,0-.6.52,2.39,2.39,0,0,0-.39.67,1.86,1.86,0,0,0-.16.84,3,3,0,0,0,.16.83A2.08,2.08,0,0,0,3782.6,195.45Zm.8-2.82a1.83,1.83,0,0,1,.28-.56,1,1,0,0,1,.47-.36,1.94,1.94,0,0,1,.72-.12c.12,0,.27,0,.39,0a1.42,1.42,0,0,1,.4.08,1.67,1.67,0,0,1,.4.16l.36.24a4.11,4.11,0,0,0,0,.68v1.62a1.52,1.52,0,0,1-.12.4,2.22,2.22,0,0,1-.24.32,1,1,0,0,1-.36.2,2,2,0,0,1-.52.08,1.61,1.61,0,0,1-.75-.16,1.31,1.31,0,0,1-.6-.44,2.52,2.52,0,0,1-.35-.67,2.58,2.58,0,0,1-.12-.8A2,2,0,0,1,3783.4,192.63Z"/><path d="M0,0V2000H5000V0ZM3918.89,167.47c-1,13.27-23.33,17.52-22.94,30.83.1,3.45,1.88,6.82,1.3,10.22-1.58,9.16-16.78,8.61-20.87,17-2.54,5.18.37,11.58-1.36,17.08-2,6.4-9.44,9.3-16.1,10.1s-13.78.47-19.58,3.85c-5.09,3-8.69,8.58-14.42,9.95a3.77,3.77,0,0,1-2.08,0c-2.29-.79-1.82-4.07-1.83-6.5a9.19,9.19,0,1,0-18.33,1c.53,4.92,4.94,9,4.62,14-.34,5.43-6.05,8.72-11.14,10.65-10.65,4-22.15,6.55-33.45,5.07s-22.38-7.37-28.24-17.15c-1.27-2.11-2.35-4.45-4.31-5.93a16.71,16.71,0,0,0-5-2.16c-12.09-3.87-22.82-11-33.37-18.08,7.22-4.48,5-17-2.61-20.83s-17.13-.7-23.43,5c-1.24,1.13-2.86,2.44-4.38,1.75a3.74,3.74,0,0,1-1.7-2.37,19.3,19.3,0,0,1,.88-14.3c1.68-3.5,4.38-6.41,6.25-9.82s2.77-7.78.71-11.07c-1.48-2.34-4.21-3.7-5.62-6.09-2.4-4-.17-9.11.95-13.7s-.48-11.08-5.19-11.09c10.1-2.22,13.82-16.72,7.58-25a19,19,0,0,0-7.32-5.76,23.87,23.87,0,0,0-8.14-2,41.48,41.48,0,0,0-8.47.71,4.38,4.38,0,0,1-3.21-.52c-1.12-.86-.75-2.12-.85-3.33a4.14,4.14,0,0,0-2-3.16,3.34,3.34,0,0,0-1.64-.52c-.15,0-1.62.3-1.5.47-2.85-4.16,2.72-9.11,7.63-10.27a35.49,35.49,0,0,1,24.17,2.95c8.3,4.27,15.5,12,24.83,12.1,3,0,6.29-1.08,7.47-3.8,2.36-5.4-5.47-11-3.89-16.65.87-3.1,4.2-4.76,7.28-5.71a47.42,47.42,0,0,1,42.15,7.56c7.44,5.71,13.3,13.75,21.93,17.4,10.48,4.44,23.8.68,30.42-8.58,2.05-2.88,3.61-6.3,6.6-8.18,7.74-4.89,17,3.75,26.1,4.7,8.49.87,15.94-5.08,23-9.94s16.47-8.93,23.73-4.45a5.15,5.15,0,0,1,2.75,3.7,7.68,7.68,0,0,1-1.08,3.58,21.22,21.22,0,0,0,5.55,24.39,22.59,22.59,0,0,0-17.19,17.66c-.54,3,.23,7,3.22,7.54a5.8,5.8,0,0,0,3.59-.79c9.27-4.64,15-16.12,25.26-17.33,10-1.18,18.09,8.31,21.67,17.72A18.77,18.77,0,0,1,3918.89,167.47Z"/></g></svg>