<svg id="Livello_1" data-name="Livello 1" xmlns="http://www.w3.org/2000/svg" viewBox="0 0 12.38 22.17"><defs><style>.cls-1{fill:#ffc201;}</style></defs><path class="cls-1" d="M11,8.77a1,1,0,0,0,1-1V1.14a1,1,0,0,0-2,0V2.29A8.92,8.92,0,0,0,5.44,4.17l-.88-.89a1,1,0,0,0-1.41,0,1,1,0,0,0,0,1.42L4,5.58a8.79,8.79,0,0,0-1.87,4.51H1a1,1,0,0,0,0,2H2.16A8.7,8.7,0,0,0,4,16.52l-.83.83a1,1,0,0,0,.7,1.71,1,1,0,0,0,.71-.29L5.37,18A8.89,8.89,0,0,0,10,19.88V21a1,1,0,0,0,2,0V14.4a1,1,0,0,0-1-1,2.32,2.32,0,1,1,0-4.63ZM10,4.32V6.9a4.19,4.19,0,0,0-1.25.52L6.87,5.59A6.7,6.7,0,0,1,10,4.32ZM5.45,7,7.28,8.83a4.65,4.65,0,0,0-.52,1.26H4.18A6.76,6.76,0,0,1,5.45,7ZM4.18,12.09H6.76a4.44,4.44,0,0,0,.48,1.17L5.4,15.09A6.75,6.75,0,0,1,4.18,12.09ZM6.8,16.53l1.82-1.82a4.13,4.13,0,0,0,1.33.56v2.59A7,7,0,0,1,6.8,16.53Z"/></svg>