<?xml version="1.0" encoding="utf-8"?>
<!-- Generator: Adobe Illustrator 25.2.1, SVG Export Plug-In . SVG Version: 6.00 Build 0)  -->
<svg version="1.1" id="Livello_1" xmlns="http://www.w3.org/2000/svg" xmlns:xlink="http://www.w3.org/1999/xlink" x="0px" y="0px"
	 viewBox="0 0 4000 2000" style="enable-background:new 0 0 4000 2000;" xml:space="preserve">
<style type="text/css">
	.st0{opacity:9.000000e-02;fill:#FCC201;enable-background:new    ;}
	.st1{opacity:0.32;fill:#FCC201;enable-background:new    ;}
	.st2{fill:none;stroke:#FCC201;stroke-width:4;}
	.st3{fill:none;}
	.st4{fill:#FCC201;}
	
		.st5{opacity:9.000000e-02;fill:none;stroke:#FCC201;stroke-width:3;stroke-linecap:round;stroke-linejoin:round;stroke-miterlimit:10;}
	.st6{opacity:9.000000e-02;}
	.st7{fill:none;stroke:#FCC201;stroke-width:3;stroke-miterlimit:10;}
	.st8{opacity:9.000000e-02;fill:none;stroke:#FCC201;stroke-width:3;stroke-miterlimit:10;}
</style>
<path class="st0" d="M4584.5-3926.5h-699.9c-0.2-84.8-0.4-169.5-0.5-254.3l182.9-0.2l517.6-1v-3.7l-517.6-1l-182.9-0.2l0,0
	l-0.2-254.3h700.7v-3.7h-700.7l0-21.4l0.1-235.1l183.1,0.2l517.6,0.8v-3.7l-517.6,0.8l-183.1,0.2v-41.4l0.2-214.1l182.9-0.2
	l517.6-0.9v-3.7l-517.6-0.9l-182.9-0.2l0.2-254.7l700.2,0.2v-3.7l-700.2,0.2l0.1-78.7c0.1-59,0.2-118.1,0.3-177.1h699.9v-3.7h-699.8
	c0.2-125.3,0.6-250.5,1-375.8h-3.7c0.4,125.3,0.7,250.5,1,375.8h-281v-375.8h-3.7v375.8h-278.7l-0.3-97.5l-1-278.3h-3.7l-1,278.3
	l-0.3,97.5h-278.7v-375.8h-3.7v375.8h-271.5c-4.2,0-7.6-3.4-7.6-7.6c-0.1-122.7-0.3-245.4-0.9-368.1h-3.7
	c-0.6,122.7-0.8,245.4-0.9,368.1c0,4.2-3.4,7.6-7.6,7.6h-269.2c-1.3,0-2.3-1-2.3-2.3v-373.5h-3.7v373.5c0,1.3-1,2.3-2.3,2.3h-273.7
	c-2.2,0-4.1-1.8-4.1-4.1v-371.7h-3.7v371.7c0,2.2-1.8,4.1-4.1,4.1h-274.2c-1,0-1.7-0.8-1.7-1.7v-374.1h-3.7v374.1
	c0,1-0.8,1.7-1.7,1.7h-277.9c-0.6,0-1-0.5-1-1l-0.1-96.5l0.2-139.1l0.2-69.6l0.3-69.6h-3.7l0.3,69.6l0.2,69.6l0.2,139.1l-0.1,96.5
	c0,0.6-0.5,1-1,1h-276c-2,0-3.6-1.6-3.6-3.6v-372.1h-3.7v372.1c0,2-1.6,3.6-3.6,3.6h-276.5c-0.3,0-0.6-0.3-0.6-0.6l0.1-96.9
	l0.6-278.3h-3.7l0.6,278.3l0.1,96.9c0,0.3-0.3,0.6-0.6,0.6H767.7c-1,0-1.7-0.8-1.7-1.7l-0.1-95.8l-0.6-278.3h-3.7l-0.6,278.3
	l-0.1,95.8c0,1-0.8,1.7-1.7,1.7H444v3.7h315.1c1,0,1.7,0.8,1.7,1.7l-0.2,175.3v75.5c0,1.2-1,2.2-2.1,2.2
	c-104.8,0.2-209.7,0.5-314.5,0.8v3.7c104.8,0.3,209.7,0.6,314.5,0.8c1.2,0,2.1,1,2.1,2.2l0,248.7c0,2-1.6,3.6-3.6,3.6l-313.1,0.3
	v3.7l313.1,0.3c2,0,3.6,1.6,3.6,3.6l0,211.2l0,38.5c0,0.7-0.6,1.4-1.4,1.4l-56.6-0.1c-43.1,0-86.3,0-129.4,0.1l-64.7,0.2l-64.7,0.4
	v3.7l64.7,0.4l64.7,0.2c43.1,0.1,86.2,0.1,129.4,0.1l56.6-0.1c0.7,0,1.4,0.6,1.4,1.4l0.1,252.4c0,0.7-0.6,1.2-1.2,1.2H444v3.7h315.6
	c0.7,0,1.2,0.6,1.2,1.2l0.1,245.8c0,2.7-2.1,4.8-4.8,4.8c-17.8,0-35.6,0.1-53.4,0.2c-86.2,0.4-172.5,1.3-258.8,3.6v3.7
	c86.2,2.3,172.5,3.2,258.8,3.6c17.8,0.1,35.6,0.1,53.4,0.2c2.6,0,4.8,2.1,4.8,4.8l0.2,246.2c0,0.5-0.4,0.8-0.8,0.8H444v3.7h316.4
	c0.5,0,0.8,0.4,0.8,0.8l0.3,290.4h3.7l0.3-290.4c0-0.5,0.4-0.8,0.8-0.8h277.1c0.8,0,1.4,0.6,1.4,1.4c0.1,96.6,0.2,193.2,0.4,289.8
	h3.7c0.2-96.6,0.3-193.2,0.4-289.8c0-0.8,0.6-1.4,1.4-1.4h276.7c0.8,0,1.4,0.6,1.4,1.4v289.8h3.7v-289.8c0-0.8,0.6-1.4,1.4-1.4
	h275.7c1.5,0,2.6,1.2,2.6,2.6l0.2,288.6h3.7l0.2-288.6c0-1.5,1.2-2.6,2.6-2.6h273.8c1.9,0,3.4,1.5,3.4,3.4v287.9h3.7v-287.9
	c0-1.9,1.5-3.4,3.4-3.4h275.1c0.9,0,1.6,0.7,1.6,1.6v289.6h3.7v-289.6c0-0.9,0.7-1.6,1.6-1.6h275c1.9,0,3.4,1.5,3.4,3.4v287.8h3.7
	v-287.8c0-1.9,1.5-3.4,3.4-3.4h272.9c1.9,0,3.4,1.5,3.4,3.4l0.3,287.8h3.7l0.3-287.8c0-1.9,1.5-3.4,3.4-3.4h276.4v291.2h3.7v-291.2
	h277.7c0,4.3,0,8.6,0.1,13c0.4,92.8,1,185.5,2.2,278.3h3.7c1.2-92.8,1.7-185.5,2.2-278.3c0-4.3,0-8.6,0.1-13h277.7v291.2h3.7v-291.2
	H3883c-0.2,97.1-0.6,194.2-1,291.2h3.7c-0.5-97.1-0.8-194.2-1-291.2h699.9L4584.5-3926.5L4584.5-3926.5z M769.7-4959.5l274.1,0.3
	c1.1,0,2.1,0.9,2.1,2.1c-0.2,70.8-0.3,141.6-0.6,212.4l-0.1,35.2c0,2.9-2.3,5.2-5.2,5.1l-78.5-0.2l-194.2-0.3
	c-0.7,0-1.4-0.6-1.4-1.4l0-38.5l0-211.2C766.1-4957.9,767.7-4959.5,769.7-4959.5z M3883.2-5301.2l0.1,78.7l-281.3,0.1v-255.9h281
	C3883-5419.3,3883.1-5360.3,3883.2-5301.2z M3883.6-4744.7v41.4l-281.7,0.3v-255.4l281.5-0.3L3883.6-4744.7z M3883.7-4466.5l0,21.4
	h-281.8v-256.8l281.7,0.3L3883.7-4466.5z M3883.5-4187l-281.6-0.3v-254h281.8l-0.2,253.2C3883.5-4187.8,3883.5-4187.4,3883.5-4187z
	 M1049.4-4191.8l-0.1-247.6c0-1.1,0.9-2,2-2h276.4c0.6,0,1.1,0.5,1.1,1.1v247.1c0,2.2-1.8,4-4,4l-104.6-0.2l-168.7-0.1
	C1050.4-4189.5,1049.4-4190.5,1049.4-4191.8z M1049.4-4466.5l-0.5-228.9c0-2.9,2.3-5.2,5.1-5.2l273.3-0.6c0.9,0,1.5,0.7,1.5,1.5
	v253.4c0,0.6-0.5,1.1-1.1,1.1h-276.4c-1.1,0-2-0.9-2-2L1049.4-4466.5z M1048.8-4744.7c-0.2-70.8-0.4-141.6-0.6-212.4
	c0-1.1,0.9-2.1,2.1-2.1l275.6,0.3c1.7,0,3,1.4,3,3v250.5c0,0.9-0.7,1.5-1.5,1.5l-273.3-0.6c-2.8,0-5.1-2.3-5.1-5.1L1048.8-4744.7z
	 M3312-4702.9l-277.4,0.1v-255.6l277.8,0l-0.3,213.7L3312-4702.9z M3030.9-4702.8l-273.9,0.1c-2.9,0-5.3-2.4-5.3-5.3v-36.7
	l0.1-210.5c0-1.7,1.4-3.1,3.1-3.1l276.1,0V-4702.8z M2746.5-4744.7v36.7c0,2.9-2.4,5.3-5.3,5.3l-226.9,0.1h-41.7
	c-2.9,0-5.3-2.4-5.3-5.3v-243c0-4.1,3.3-7.4,7.4-7.4l39.6,0l229.1,0c1.7,0,3.1,1.4,3.1,3.1L2746.5-4744.7z M2458.2-4702.5l-272.9,0
	c-1,0-1.7-0.8-1.7-1.7v-251.4c0-1.5,1.2-2.7,2.7-2.7l269.9,0.1c4.1,0,7.4,3.3,7.4,7.4v243
	C2463.6-4704.9,2461.2-4702.5,2458.2-4702.5z M2179.9-4704.3c0,1-0.8,1.7-1.7,1.7l-181.5,0l-94.8-0.2c-1.1,0-1.9-0.9-1.9-1.9V-4956
	c0-1.4,1.1-2.5,2.5-2.5l274.7,0.1c1.5,0,2.7,1.2,2.7,2.7L2179.9-4704.3L2179.9-4704.3z M1894.3-4702.8l-275.7-0.5
	c-1,0-1.7-0.8-1.7-1.7l0-39.7l0.2-208.4c0-3.1,2.5-5.5,5.5-5.5l271.1,0.1c1.4,0,2.5,1.1,2.5,2.5v251.2
	C1896.2-4703.6,1895.3-4702.8,1894.3-4702.8z M1611.9-4744.7l0,39.7c0,1-0.8,1.7-1.7,1.7l-131.1-0.2l-145-0.3
	c-0.9,0-1.5-0.7-1.5-1.5v-250.5c0-1.7,1.4-3,3-3l143.6,0.2l127.1,0.1c3,0,5.5,2.5,5.5,5.5L1611.9-4744.7z M1479.1-4701.4l131.1-0.2
	c1,0,1.7,0.8,1.7,1.7l0.2,254.9h-278.4c-0.6,0-1.1-0.5-1.1-1.1v-253.4c0-0.9,0.7-1.5,1.5-1.5L1479.1-4701.4z M1618.6-4701.7
	l275.7-0.5c1.1,0,1.9,0.9,1.9,1.9v252.7c0,1.4-1.1,2.4-2.4,2.4h-277.1l0.2-254.9C1616.9-4700.9,1617.6-4701.7,1618.6-4701.7z
	 M1899.9-4700.2c0-1.1,0.9-1.9,1.9-1.9l94.8-0.2l181.5,0c1,0,1.7,0.8,1.7,1.7v251.8c0,2.1-1.7,3.7-3.7,3.7h-273.8
	c-1.4,0-2.4-1.1-2.4-2.4V-4700.2z M2185.3-4702.3l272.9,0c2.9,0,5.3,2.4,5.3,5.3v248.9c0,1.7-1.4,3-3,3h-273.2
	c-2.1,0-3.7-1.7-3.7-3.7v-251.8C2183.6-4701.5,2184.4-4702.3,2185.3-4702.3z M2467.2-4697c0-2.9,2.4-5.3,5.3-5.3h41.7l226.9,0.1
	c2.9,0,5.3,2.4,5.3,5.3l0.1,248.9c0,1.7-1.4,3-3,3h-273.3c-1.7,0-3-1.4-3-3V-4697z M2757-4702.3l273.9,0.1v257.1h-276.3
	c-1.7,0-3-1.4-3-3l0.1-248.9C2751.6-4699.9,2754-4702.3,2757-4702.3z M3034.6-4702.1l277.4,0.1l-0.1,257h-277.3V-4702.1z M3321-4445
	l-0.1-257l228.5,0.1l48.9,0.1v256.8H3321z M3549.4-4703l-228.5,0.1l0-41.8l-0.3-213.7l228.9,0l48.9-0.1v255.5L3549.4-4703z
	 M3549.4-4965l-228.9,0l-0.4-254.4l229.3-0.1h48.9v254.5L3549.4-4965z M3312.4-4965l-277.8,0v-254.2l278.2-0.1L3312.4-4965z
	 M3030.9-4965.1l-276.1,0c-1.7,0-3.1-1.4-3.1-3.1l0.1-248.2c0-1.6,1.3-2.9,2.9-2.9l276.2-0.1L3030.9-4965.1L3030.9-4965.1z
	 M2746.4-4968.2c0,1.7-1.4,3.1-3.1,3.1l-229.1,0l-39.6,0c-4.1,0-7.4-3.3-7.4-7.4v-243.8c0-1.6,1.3-2.8,2.8-2.8l44.2,0l229.2-0.1
	c1.6,0,2.9,1.3,2.9,2.9L2746.4-4968.2z M2456.2-4965.1l-269.9,0.1c-1.5,0-2.7-1.2-2.7-2.7V-5212c0-3.8,3.1-6.8,6.8-6.8l65.1-0.1
	l205.3-0.1c1.6,0,2.8,1.3,2.8,2.8v243.8C2463.6-4968.4,2460.2-4965.1,2456.2-4965.1z M2177.2-4965l-274.7,0.1
	c-1.4,0-2.5-1.1-2.5-2.5v-247.2c0-1.9,1.5-3.4,3.3-3.4l93.4-0.3l129.4-0.4l47-0.1c3.8,0,6.8,3.1,6.8,6.8v244.3
	C2179.9-4966.2,2178.7-4965,2177.2-4965z M1893.7-4964.9l-271.1,0.1c-3.1,0-5.5-2.5-5.5-5.5l0-52.7l0.1-139.1
	c0-11.6,0-23.2,0.2-34.8c0.1-4.8,0.2-9.7,0.3-14.5c0.1-3.4,2.9-6.1,6.3-6.1h114l154.9-0.4c1.9,0,3.4,1.5,3.4,3.4v247.2
	C1896.2-4966,1895.1-4964.9,1893.7-4964.9z M1611.4-5196.9c0.2,11.6,0.1,23.2,0.2,34.8l0.1,139.1l0,52.7c0,3.1-2.5,5.5-5.5,5.5
	l-127.1,0.1l-143.6,0.2c-1.7,0-3-1.3-3-3v-248.4c0-1,0.8-1.7,1.7-1.7l144.8,0.1h125.7c3.4,0,6.2,2.7,6.3,6.1
	C1611.2-5206.6,1611.3-5201.7,1611.4-5196.9z M1325.9-4964.5l-275.6,0.3c-1.1,0-2.1-0.9-2.1-2.1c-0.2-83.6-0.3-167.2-0.2-250.8
	c0-0.5,0.4-0.9,0.9-0.9l278.3,0.2c1,0,1.7,0.8,1.7,1.7v248.4C1328.9-4965.9,1327.6-4964.5,1325.9-4964.5z M1333.7-4441.3h278.4
	l0.2,248.2c0,2.6-2.1,4.7-4.7,4.7l-128.4-0.3l-142.6-0.3c-2.2,0-4-1.8-4-4v-247.2C1332.6-4440.9,1333-4441.3,1333.7-4441.3z
	 M1616.7-4441.3h277.1c1.4,0,2.4,1.1,2.4,2.4v247.2c0,2.2-1.8,3.9-3.9,3.9l-271-0.7c-2.6,0-4.7-2.1-4.7-4.7L1616.7-4441.3z
	 M1902.3-4441.3h273.8c2.1,0,3.7,1.7,3.7,3.7v248.1c0,1.3-1,2.4-2.4,2.4l-180.8-0.4l-92.9-0.2c-2.2,0-3.9-1.7-3.9-3.9v-247.2
	C1899.9-4440.3,1901-4441.3,1902.3-4441.3z M2187.3-4441.3h273.2c1.7,0,3,1.4,3,3v248.2c0,1.8-1.5,3.3-3.3,3.3l-204.8-0.2l-69.5-0.2
	c-1.3,0-2.3-1-2.3-2.4v-248.1C2183.6-4439.7,2185.3-4441.3,2187.3-4441.3z M2470.3-4441.3h273.3c1.7,0,3,1.4,3,3l0.1,248.8
	c0,1.4-1.1,2.5-2.5,2.5c-76.7,0.2-153.3,0.3-230,0.2l-43.7-0.1c-1.8,0-3.3-1.5-3.3-3.3v-248.2
	C2467.2-4440,2468.6-4441.3,2470.3-4441.3z M2754.6-4441.3h276.3v253.7l-257.9,0.6c-6.4,0-12.7,0-19.1,0c-1.4,0-2.5-1.1-2.5-2.5
	l0.1-248.8C2751.5-4440,2752.9-4441.3,2754.6-4441.3z M3034.6-4441.3h277.3l-0.1,253.2c0,0.2,0,0.4,0,0.6l-21.1,0
	c-85.3-0.1-170.7-0.2-256,0L3034.6-4441.3L3034.6-4441.3z M3321-4441.3h277.3v254l-48.9-0.1l-228.3-0.2c0-0.2,0-0.4,0-0.6
	L3321-4441.3z M3601.9-4964.9v-254.5l281.3,0.1l0.2,254.7L3601.9-4964.9z M3598.2-5222.5h-48.9l-229.3-0.1l-0.1-78.7l-0.3-139.1
	l-0.1-38h278.7L3598.2-5222.5L3598.2-5222.5z M3313.2-5440.4l-0.3,139.1l-0.1,78.7l-278.2-0.1v-255.7h278.7L3313.2-5440.4z
	 M3030.9-5222.6l-276.2-0.1c-1.6,0-2.9-1.3-2.9-2.9l0-75.7c0-56.5,0-113-0.1-169.5c0-4.2,3.4-7.6,7.6-7.6h271.5V-5222.6z
	 M2746.3-5225.5c0,1.6-1.3,2.9-2.9,2.9l-229.2-0.1l-44.2,0c-1.6,0-2.8-1.3-2.8-2.8v-250.5c0-1.3,1-2.3,2.3-2.3h269.2
	c4.2,0,7.6,3.4,7.6,7.6c0,56.5-0.1,113-0.1,169.5L2746.3-5225.5z M2463.6-5225.6c0,1.6-1.3,2.8-2.8,2.8l-205.3-0.1l-65.1-0.1
	c-3.8,0-6.8-3.1-6.8-6.8v-244.4c0-2.2,1.8-4.1,4.1-4.1h273.7c1.3,0,2.3,1,2.3,2.3L2463.6-5225.6L2463.6-5225.6z M2179.9-5229.9
	c0,3.8-3.1,6.8-6.8,6.8l-47-0.1l-129.4-0.4l-93.4-0.2c-1.9,0-3.3-1.5-3.3-3.4v-249.4c0-1,0.8-1.7,1.7-1.7h274.2
	c2.2,0,4.1,1.8,4.1,4.1L2179.9-5229.9L2179.9-5229.9z M1896.2-5227.3c0,1.9-1.5,3.4-3.4,3.4l-154.9-0.4h-113.7
	c-3.5,0-6.3-2.8-6.3-6.3c0-0.3,0-0.7,0-1c0-23.2-0.6-46.4-1.3-69.6c-0.3-11.6-0.6-23.2-0.7-34.8c-0.2-11.6-0.1-23.2-0.2-34.8
	l-0.2-69.6l0-37c0-0.6,0.5-1,1-1h277.9c1,0,1.7,0.8,1.7,1.7V-5227.3z M1613.2-5440.4l-0.2,69.6c0,11.6,0,23.2-0.2,34.8
	c-0.2,11.6-0.4,23.2-0.7,34.8c-0.7,23.2-1.3,46.4-1.3,69.6c0,0.3,0,0.7,0,1c0,3.5-2.8,6.3-6.3,6.3h-125.5l-144.8,0.1
	c-1,0-1.7-0.8-1.7-1.7v-248.8c0-2,1.6-3.6,3.6-3.6h276c0.6,0,1,0.5,1,1L1613.2-5440.4z M1327.1-5224.2l-278.3,0.2
	c-0.5,0-0.9-0.4-0.9-0.9c0-25.5,0-51,0-76.4l0.1-176.5c0-0.3,0.3-0.6,0.6-0.6h276.5c2,0,3.6,1.6,3.6,3.6v248.8
	C1328.9-5225,1328.1-5224.2,1327.1-5224.2z M1046.1-5301.2c0,25.5,0,50.9,0,76.4c0,0.5-0.4,0.9-0.9,0.9l-83.7,0.1
	c-64.4,0.1-128.9,0.2-193.3,0.3c-1.2,0-2.2-1-2.2-2.2v-75.5l-0.2-175.3c0-1,0.8-1.7,1.7-1.7h277.6c0.3,0,0.6,0.3,0.6,0.6
	L1046.1-5301.2z M961.6-5218l83.7,0.1c0.5,0,0.9,0.4,0.9,0.9c0,83.6-0.1,167.2-0.2,250.8c0,1.1-0.9,2-2.1,2.1l-274.2,0.3
	c-2,0-3.6-1.6-3.6-3.6l0-248.7c0-1.2,1-2.2,2.2-2.2C832.7-5218.2,897.2-5218.1,961.6-5218z M961.6-4700.3l78.5-0.2
	c2.9,0,5.2,2.3,5.2,5.2l-0.5,228.9v19.4c0,1.1-0.9,2-2,2H767.1c-0.7,0-1.2-0.6-1.2-1.2l0.1-252.4c0-0.7,0.6-1.4,1.4-1.4
	L961.6-4700.3z M1044.7-4439.3l-0.1,247.6c0,1.2-1,2.2-2.2,2.2l-80.8-0.1H832.2c-20.5,0-41,0-61.6,0c-2.7,0-4.8-2.1-4.8-4.8
	l0.1-245.8c0-0.7,0.6-1.2,1.2-1.2h275.6C1043.8-4441.3,1044.7-4440.5,1044.7-4439.3z M832.2-4178.3h129.4l80.8-0.1
	c1.2,0,2.2,1,2.2,2.2c0,82.7,0,165.5,0.1,248.2c0,0.8-0.6,1.4-1.4,1.4H766.3c-0.5,0-0.8-0.4-0.8-0.8l0.2-246.2
	c0-2.7,2.1-4.8,4.8-4.8C791.1-4178.3,811.6-4178.3,832.2-4178.3z M1049.4-4176.1c0-1.2,1-2.2,2.2-2.2l168.7-0.1l104.6-0.2
	c2.2,0,4,1.8,4,4v246.8c0,0.8-0.6,1.4-1.4,1.4h-276.7c-0.8,0-1.4-0.6-1.4-1.4C1049.4-4010.7,1049.4-4093.4,1049.4-4176.1z
	 M1332.6-4174.8c0-2.2,1.8-4,4-4l142.6-0.3l128.4-0.3c2.6,0,4.7,2.1,4.7,4.7l0.2,245.5c0,1.5-1.2,2.7-2.6,2.7h-275.7
	c-0.8,0-1.4-0.6-1.4-1.4L1332.6-4174.8L1332.6-4174.8z M1621.2-4179.4l271.1-0.7c2.2,0,3.9,1.7,3.9,3.9v246.2c0,1.9-1.5,3.4-3.4,3.4
	H1619c-1.5,0-2.6-1.2-2.6-2.7l0.2-245.5C1616.6-4177.3,1618.6-4179.4,1621.2-4179.4z M1899.9-4176.2c0-2.2,1.7-3.9,3.9-3.9l92.9-0.2
	l180.8-0.4c1.3,0,2.4,1,2.4,2.4v250.2c0,0.9-0.7,1.6-1.6,1.6h-275.1c-1.9,0-3.4-1.5-3.4-3.4L1899.9-4176.2L1899.9-4176.2z
	 M2183.6-4178.3c0-1.3,1-2.4,2.3-2.4l69.5-0.2l204.8-0.2c1.8,0,3.3,1.5,3.3,3.3v247.8c0,1.9-1.5,3.4-3.4,3.4h-275
	c-0.9,0-1.6-0.7-1.6-1.6V-4178.3z M2467.2-4177.8c0-1.8,1.5-3.3,3.3-3.3l43.7-0.1c76.8-0.1,153.6,0.1,230.5,0.2c1.1,0,2,0.9,2,2
	l0.2,248.9c0,1.9-1.5,3.4-3.4,3.4h-272.9c-1.9,0-3.4-1.5-3.4-3.4L2467.2-4177.8L2467.2-4177.8z M2751.5-4178.9c0-1.1,0.9-2,2-2
	c6.5,0,13,0,19.6,0l257.9,0.6v253.8h-276.3c-1.9,0-3.4-1.5-3.4-3.4L2751.5-4178.9z M3034.6-4180.3c85.3,0.2,170.7,0.1,256,0l21.1,0
	c0.1,84.6,0.2,169.2,0.6,253.7h-277.7V-4180.3z M3321.1-4180.3l228.3-0.2l48.9-0.1v254h-277.7
	C3320.9-4011.1,3321-4095.7,3321.1-4180.3z M3601.9-4180.5l281.6-0.3c-0.1,84.8-0.3,169.5-0.5,254.3h-281.1V-4180.5z"/>
<path class="st1" d="M-1601.1-120.7h-761c-0.2-92.2-0.4-184.3-0.6-276.5l198.9-0.2l562.7-1.1v-4l-562.7-1.1l-198.9-0.2l0,0
	l-0.2-276.5h761.8v-4h-761.8v-23.3l0.1-255.7l199,0.2l562.7,0.9v-4l-562.7,0.9l-199,0.2v-45l0.2-232.7l198.8-0.2l562.7-1v-4
	l-562.7-1l-198.8-0.2l0.2-276.9l761.3,0.2v-4l-761.3,0.2l0.1-85.5c0.1-64.2,0.2-128.4,0.3-192.6h760.9v-4H-2362
	c0.3-136.2,0.6-272.4,1-408.6h-4c0.5,136.2,0.8,272.4,1,408.6h-305.5v-408.6h-4v408.6h-303l-0.3-106l-1.1-302.6h-4l-1.1,302.6
	l-0.3,106h-303v-408.6h-4v408.6h-295.2c-4.6,0-8.3-3.7-8.3-8.3c-0.1-133.4-0.3-266.8-0.9-400.3h-4c-0.6,133.4-0.8,266.8-0.9,400.3
	c0,4.6-3.7,8.3-8.3,8.3h-292.7c-1.4,0-2.5-1.1-2.5-2.5v-406.1h-4v406.1c0,1.4-1.1,2.5-2.5,2.5h-297.5c-2.4,0-4.4-2-4.4-4.4v-404.1
	h-4v404.1c0,2.4-2,4.4-4.4,4.4H-4518c-1,0-1.9-0.8-1.9-1.9v-406.7h-4v406.7c0,1-0.8,1.9-1.9,1.9h-302.1c-0.6,0-1.1-0.5-1.1-1.1
	l-0.1-104.9l0.2-151.3l0.3-75.6l0.4-75.6h-4l0.4,75.6l0.3,75.6l0.2,151.3l-0.1,104.9c0,0.6-0.5,1.1-1.1,1.1h-300.1
	c-2.2,0-3.9-1.8-3.9-3.9v-404.6h-4v404.6c0,2.2-1.8,3.9-3.9,3.9H-5445c-0.4,0-0.7-0.3-0.7-0.7l0.1-105.3l0.7-302.6h-4l0.7,302.6
	l0.1,105.3c0,0.4-0.3,0.7-0.7,0.7H-5751c-1,0-1.9-0.8-1.9-1.9l-0.1-104.1l-0.7-302.6h-4l-0.7,302.6l-0.1,104.1c0,1-0.8,1.9-1.9,1.9
	H-6103v4h342.6c1,0,1.9,0.8,1.9,1.9l-0.2,190.7v82.1c0,1.3-1.1,2.4-2.4,2.4c-114,0.2-228,0.5-341.9,0.8v4c114,0.4,228,0.6,341.9,0.8
	c1.3,0,2.4,1.1,2.4,2.4v270.4c0,2.1-1.7,3.9-3.9,3.9l-340.4,0.4v4l340.4,0.4c2.1,0,3.9,1.7,3.9,3.9v229.7v41.9
	c0,0.8-0.7,1.5-1.5,1.5l-61.5-0.1c-46.9,0-93.8,0-140.7,0.1l-70.3,0.2l-70.3,0.4v4l70.3,0.4l70.3,0.2c46.9,0.1,93.8,0.1,140.7,0.1
	l61.5-0.1c0.8,0,1.5,0.7,1.5,1.5l0.1,274.5c0,0.7-0.6,1.3-1.3,1.3h-343.2v4h343.2c0.7,0,1.3,0.6,1.3,1.3l0.1,267.2
	c0,2.9-2.3,5.2-5.2,5.2c-19.3,0-38.7,0.1-58,0.2c-93.8,0.4-187.6,1.4-281.4,3.9v4c93.8,2.5,187.6,3.5,281.4,3.9
	c19.3,0.1,38.7,0.1,58,0.2c2.9,0,5.2,2.3,5.2,5.2l0.3,267.6c0,0.5-0.4,0.9-0.9,0.9h-344v4h344c0.5,0,0.9,0.4,0.9,0.9l0.3,315.7h4
	l0.3-315.7c0-0.5,0.4-0.9,0.9-0.9h301.2c0.8,0,1.5,0.7,1.5,1.5c0.1,105,0.3,210.1,0.5,315.1h4c0.2-105,0.4-210.1,0.5-315.1
	c0-0.8,0.7-1.5,1.5-1.5h300.9c0.9,0,1.6,0.7,1.6,1.6V200h4v-315.1c0-0.9,0.7-1.6,1.6-1.6h299.8c1.6,0,2.9,1.3,2.9,2.9l0.2,313.8h4
	l0.2-313.8c0-1.6,1.3-2.9,2.9-2.9h297.7c2,0,3.7,1.6,3.7,3.7v313h4v-313c0-2,1.6-3.7,3.7-3.7h299.1c0.9,0,1.7,0.8,1.7,1.7v315h4
	v-315c0-0.9,0.8-1.7,1.7-1.7h299c2.1,0,3.7,1.7,3.7,3.7v313h4v-313c0-2.1,1.7-3.7,3.7-3.7h296.7c2.1,0,3.7,1.7,3.7,3.7l0.3,312.9h4
	l0.3-312.9c0-2.1,1.7-3.7,3.7-3.7h300.4V200h4v-316.6h302c0,4.7,0,9.4,0.1,14.1c0.5,100.9,1.1,201.7,2.4,302.6h4
	c1.3-100.9,1.9-201.7,2.4-302.6c0-4.7,0-9.4,0.1-14.1h302V200h4v-316.6h305.6c-0.3,105.5-0.6,211.1-1.1,316.6h4
	c-0.5-105.5-0.9-211.1-1.1-316.6h761v-4.1H-1601.1z M-5748.8-1243.8l298.1,0.3c1.2,0,2.2,1,2.2,2.2c-0.2,77-0.4,154-0.6,231
	l-0.1,38.2c0,3.1-2.5,5.6-5.6,5.6l-85.3-0.2l-211.2-0.3c-0.8,0-1.5-0.7-1.5-1.5v-41.9V-1240C-5752.7-1242-5751-1243.8-5748.8-1243.8
	z M-2363.6-1615.4l0.1,85.5l-305.9,0.1V-1808h305.5C-2363.8-1743.7-2363.7-1679.5-2363.6-1615.4z M-2363.1-1010.3v45l-306.3,0.3
	v-277.7l306.1-0.3L-2363.1-1010.3z M-2363-707.7v23.3h-306.4v-279.2l306.3,0.3L-2363-707.7z M-2363.2-403.9l-306.1-0.4v-276.2h306.4
	l-0.2,275.3C-2363.2-404.7-2363.2-404.3-2363.2-403.9z M-5444.6-409l-0.1-269.2c0-1.2,1-2.2,2.2-2.2h300.5c0.7,0,1.2,0.5,1.2,1.2
	v268.7c0,2.4-1.9,4.3-4.3,4.3l-113.7-0.2l-183.4-0.1C-5443.5-406.6-5444.6-407.7-5444.6-409z M-5444.7-707.7l-0.5-248.9
	c0-3.1,2.5-5.6,5.6-5.6l297.1-0.6c0.9,0,1.7,0.7,1.7,1.7v275.5c0,0.7-0.5,1.2-1.2,1.2h-300.5c-1.2,0-2.2-1-2.2-2.2V-707.7z
	 M-5445.3-1010.3c-0.2-77-0.4-154-0.6-230.9c0-1.2,1-2.2,2.2-2.2l299.6,0.3c1.8,0,3.2,1.5,3.2,3.2v272.4c0,0.9-0.8,1.7-1.7,1.7
	l-297.2-0.6c-3.1,0-5.6-2.5-5.6-5.6L-5445.3-1010.3z M-2984.6-964.8l-301.6,0.1v-277.9h302l-0.4,232.3V-964.8z M-3290.2-964.6
	l-297.8,0.1c-3.2,0-5.8-2.6-5.8-5.8v-40l0.1-228.8c0-1.9,1.5-3.4,3.4-3.4h300.1V-964.6z M-3599.5-1010.3v40c0,3.2-2.6,5.8-5.8,5.8
	l-246.7,0.1h-45.3c-3.2,0-5.8-2.6-5.8-5.8v-264.2c0-4.5,3.6-8.1,8.1-8.1h43h249c1.9,0,3.4,1.5,3.4,3.4L-3599.5-1010.3z
	 M-3912.9-964.4h-296.7c-1.1,0-1.9-0.9-1.9-1.9v-273.3c0-1.6,1.3-2.9,2.9-2.9l293.4,0.1c4.5,0,8.1,3.6,8.1,8.1v264.2
	C-3907.1-967-3909.7-964.4-3912.9-964.4z M-4215.5-966.3c0,1.1-0.9,1.9-1.9,1.9h-197.3l-103.1-0.2c-1.2,0-2.1-0.9-2.1-2.1V-1240
	c0-1.5,1.2-2.8,2.8-2.8l298.7,0.1c1.6,0,2.9,1.3,2.9,2.9V-966.3z M-4526-964.6l-299.8-0.5c-1,0-1.9-0.8-1.9-1.9v-43.2l0.2-226.6
	c0-3.3,2.7-6,6-6l294.8,0.1c1.5,0,2.8,1.2,2.8,2.8v273.2C-4523.9-965.6-4524.9-964.6-4526-964.6z M-4833-1010.3v43.2
	c0,1-0.8,1.9-1.9,1.9l-142.5-0.2l-157.7-0.3c-0.9,0-1.7-0.7-1.7-1.7v-272.4c0-1.8,1.5-3.2,3.2-3.2l156.1,0.2l138.2,0.1
	c3.3,0,6,2.7,6,6L-4833-1010.3z M-4977.4-963.2l142.5-0.2c1,0,1.9,0.8,1.9,1.9l0.2,277.1h-302.7c-0.7,0-1.2-0.5-1.2-1.2v-275.6
	c0-0.9,0.7-1.7,1.7-1.7L-4977.4-963.2z M-4825.8-963.4l299.8-0.5c1.2,0,2.1,0.9,2.1,2.1V-687c0,1.5-1.2,2.6-2.6,2.6h-301.3
	l0.2-277.1C-4827.7-962.6-4826.8-963.4-4825.8-963.4z M-4519.9-961.9c0-1.2,0.9-2.1,2.1-2.1l103.1-0.2h197.3c1.1,0,1.9,0.9,1.9,1.9
	v273.8c0,2.3-1.8,4.1-4.1,4.1h-297.7c-1.5,0-2.6-1.2-2.6-2.6L-4519.9-961.9L-4519.9-961.9z M-4209.6-964.2h296.7
	c3.2,0,5.8,2.6,5.8,5.8v270.7c0,1.8-1.5,3.3-3.3,3.3h-297c-2.3,0-4.1-1.8-4.1-4.1v-273.8C-4211.5-963.3-4210.6-964.2-4209.6-964.2z
	 M-3903.1-958.4c0-3.2,2.6-5.8,5.8-5.8h45.3l246.7,0.1c3.2,0,5.8,2.6,5.8,5.8l0.1,270.6c0,1.8-1.5,3.3-3.3,3.3h-297.1
	c-1.8,0-3.3-1.5-3.3-3.3V-958.4z M-3588-964.1l297.8,0.1v279.5h-300.4c-1.8,0-3.3-1.5-3.3-3.3l0.1-270.6
	C-3593.8-961.5-3591.2-964.1-3588-964.1z M-3286.2-964l301.6,0.1l-0.1,279.4h-301.5V-964z M-2974.8-684.4l-0.1-279.4l248.5,0.1
	l53.1,0.1v279.2L-2974.8-684.4L-2974.8-684.4z M-2726.5-964.9l-248.5,0.1v-45.5l-0.4-232.3h248.8l53.1-0.1V-965L-2726.5-964.9z
	 M-2726.5-1249.7h-248.9l-0.4-276.5l249.3-0.1h53.1v276.7L-2726.5-1249.7z M-2984.2-1249.8h-302v-276.4l302.5-0.1L-2984.2-1249.8z
	 M-3290.2-1249.8h-300.1c-1.9,0-3.4-1.5-3.4-3.4l0.1-269.8c0-1.7,1.4-3.1,3.1-3.1l300.3-0.1L-3290.2-1249.8L-3290.2-1249.8z
	 M-3599.5-1253.2c0,1.9-1.5,3.4-3.4,3.4h-249h-43c-4.5,0-8.1-3.6-8.1-8.1v-265c0-1.7,1.4-3.1,3.1-3.1h48l249.2-0.1
	c1.7,0,3.1,1.4,3.1,3.1L-3599.5-1253.2z M-3915.1-1249.9l-293.4,0.1c-1.6,0-2.9-1.3-2.9-2.9v-265.6c0-4.1,3.3-7.4,7.4-7.4l70.7-0.1
	l223.2-0.1c1.7,0,3.1,1.4,3.1,3.1v265C-3907.1-1253.5-3910.7-1249.9-3915.1-1249.9z M-4218.4-1249.8l-298.7,0.1
	c-1.5,0-2.8-1.2-2.8-2.8v-268.8c0-2,1.6-3.7,3.7-3.7l101.6-0.3l140.7-0.5l51.1-0.1c4.1,0,7.5,3.3,7.5,7.4v265.6
	C-4215.5-1251.1-4216.8-1249.8-4218.4-1249.8z M-4526.7-1249.6l-294.8,0.1c-3.3,0-6-2.7-6-6v-57.3l0.1-151.3c0-12.6,0-25.2,0.2-37.8
	c0.1-5.3,0.2-10.5,0.3-15.8c0.1-3.7,3.1-6.7,6.8-6.7h124l168.5-0.5c2,0,3.7,1.6,3.7,3.7v268.8
	C-4523.9-1250.9-4525.1-1249.6-4526.7-1249.6z M-4833.6-1501.9c0.2,12.6,0.1,25.2,0.2,37.8l0.1,151.3v57.3c0,3.3-2.7,6-6,6
	l-138.2,0.1l-156.1,0.2c-1.8,0-3.2-1.4-3.2-3.2v-270.1c0-1.1,0.9-1.9,1.9-1.9l157.4,0.1h136.7c3.7,0,6.7,3,6.8,6.7
	C-4833.8-1512.4-4833.6-1507.2-4833.6-1501.9z M-5144-1249.2l-299.7,0.3c-1.2,0-2.2-1-2.2-2.2c-0.2-90.9-0.3-181.8-0.3-272.7
	c0-0.5,0.4-1,1-1l302.5,0.2c1.1,0,1.9,0.9,1.9,1.9v270.1C-5140.8-1250.7-5142.2-1249.3-5144-1249.2z M-5135.6-680.4h302.7l0.2,269.8
	c0,2.8-2.3,5.1-5.1,5.1l-139.6-0.3l-155.1-0.3c-2.4,0-4.3-1.9-4.3-4.3v-268.7C-5136.8-679.9-5136.2-680.4-5135.6-680.4z
	 M-4827.8-680.4h301.3c1.5,0,2.6,1.2,2.6,2.6V-409c0,2.4-1.9,4.3-4.3,4.3l-294.7-0.7c-2.8,0-5.1-2.3-5.1-5.1L-4827.8-680.4z
	 M-4517.3-680.4h297.7c2.3,0,4.1,1.8,4.1,4.1v269.7c0,1.4-1.1,2.6-2.6,2.6l-196.6-0.4l-101-0.2c-2.4,0-4.3-1.9-4.3-4.3v-268.8
	C-4519.9-679.2-4518.7-680.4-4517.3-680.4z M-4207.4-680.4h297c1.8,0,3.3,1.5,3.3,3.3v269.9c0,2-1.6,3.6-3.6,3.6l-222.7-0.2
	l-75.6-0.2c-1.4,0-2.6-1.1-2.6-2.6v-269.7C-4211.5-678.6-4209.7-680.4-4207.4-680.4z M-3899.8-680.4h297.1c1.8,0,3.3,1.5,3.3,3.3
	l0.1,270.6c0,1.5-1.2,2.7-2.7,2.7c-83.3,0.2-166.7,0.3-250,0.2l-47.5-0.1c-2,0-3.6-1.6-3.6-3.6v-269.9
	C-3903.1-678.9-3901.6-680.4-3899.8-680.4z M-3590.6-680.4h300.4v275.9l-280.4,0.6c-6.9,0-13.8,0-20.8,0c-1.5,0-2.7-1.2-2.7-2.7
	l0.1-270.5C-3593.9-678.9-3592.5-680.4-3590.6-680.4z M-3286.2-680.4h301.5l-0.1,275.3c0,0.2,0,0.4,0,0.6h-23
	c-92.8-0.1-185.6-0.2-278.3,0L-3286.2-680.4L-3286.2-680.4z M-2974.8-680.4h301.5v276.2l-53.1-0.1l-248.2-0.2c0-0.2,0-0.4,0-0.6
	L-2974.8-680.4z M-2669.4-1249.7v-276.7l305.9,0.1l0.2,276.9L-2669.4-1249.7z M-2673.4-1529.7h-53.1l-249.3-0.1l-0.1-85.6
	l-0.3-151.3l-0.1-41.3h303L-2673.4-1529.7L-2673.4-1529.7z M-2983.3-1766.6l-0.3,151.3l-0.1,85.6l-302.5-0.1v-278.1h303
	L-2983.3-1766.6z M-3290.2-1529.9l-300.3-0.1c-1.7,0-3.1-1.4-3.1-3.1v-82.3c0-61.4,0-122.8-0.1-184.3c0-4.6,3.7-8.3,8.3-8.3h295.2
	L-3290.2-1529.9L-3290.2-1529.9z M-3599.7-1533.1c0,1.7-1.4,3.1-3.1,3.1l-249.2-0.1h-48c-1.7,0-3.1-1.4-3.1-3.1v-272.3
	c0-1.4,1.1-2.5,2.5-2.5h292.7c4.6,0,8.3,3.7,8.3,8.3c0,61.4-0.1,122.8-0.1,184.3L-3599.7-1533.1z M-3907.1-1533.1
	c0,1.7-1.4,3.1-3.1,3.1l-223.2-0.1l-70.7-0.1c-4.1,0-7.4-3.3-7.4-7.4v-265.7c0-2.4,2-4.4,4.4-4.4h297.5c1.4,0,2.5,1.1,2.5,2.5
	L-3907.1-1533.1L-3907.1-1533.1z M-4215.5-1537.8c0,4.1-3.3,7.4-7.5,7.4l-51.1-0.1l-140.7-0.5l-101.6-0.3c-2,0-3.7-1.6-3.7-3.7v-271
	c0-1,0.8-1.9,1.9-1.9h298.1c2.4,0,4.4,2,4.4,4.4v265.7H-4215.5z M-4523.9-1534.9c0,2-1.6,3.7-3.7,3.7l-168.5-0.5h-123.6
	c-3.8,0-6.8-3.1-6.8-6.9c0-0.4,0-0.8,0-1.1c0-25.2-0.6-50.4-1.4-75.6c-0.4-12.6-0.6-25.2-0.8-37.8c-0.2-12.6-0.1-25.2-0.2-37.8
	l-0.2-75.6v-40.2c0-0.6,0.5-1.1,1.1-1.1h302.1c1,0,1.9,0.8,1.9,1.9v271H-4523.9z M-4831.7-1766.6l-0.2,75.6c0,12.6,0,25.2-0.2,37.8
	c-0.2,12.6-0.4,25.2-0.8,37.8c-0.7,25.2-1.4,50.4-1.4,75.6c0,0.4,0,0.8,0,1.1c0,3.8-3,6.9-6.8,6.9h-136.4l-157.4,0.1
	c-1.1,0-1.9-0.9-1.9-1.9V-1804c0-2.2,1.8-3.9,3.9-3.9h300.1c0.6,0,1.1,0.5,1.1,1.1L-4831.7-1766.6z M-5142.7-1531.6l-302.5,0.2
	c-0.5,0-1-0.4-1-1c0-27.7,0-55.4,0-83.1l0.1-191.9c0-0.4,0.3-0.7,0.7-0.7h300.6c2.2,0,3.9,1.8,3.9,3.9v270.5
	C-5140.8-1532.4-5141.6-1531.6-5142.7-1531.6z M-5448.3-1615.4c0,27.7,0,55.4,0,83.1c0,0.5-0.4,1-1,1l-91,0.1
	c-70.1,0.1-140.1,0.2-210.2,0.3c-1.3,0-2.4-1.1-2.4-2.4v-82.1l-0.2-190.7c0-1,0.8-1.9,1.9-1.9h301.9c0.4,0,0.7,0.3,0.7,0.7
	L-5448.3-1615.4z M-5540.1-1524.8l91,0.1c0.5,0,1,0.4,1,1c0,90.9-0.1,181.8-0.3,272.7c0,1.2-1,2.2-2.2,2.2l-298.1,0.3
	c-2.1,0-3.9-1.7-3.9-3.9v-270.4c0-1.3,1.1-2.4,2.4-2.4C-5680.2-1525-5610.2-1524.9-5540.1-1524.8z M-5540.1-962l85.3-0.2
	c3.1,0,5.6,2.5,5.6,5.6l-0.5,248.9v21.1c0,1.2-1,2.2-2.2,2.2h-299.6c-0.7,0-1.3-0.6-1.3-1.3l0.1-274.5c0-0.8,0.7-1.5,1.5-1.5
	L-5540.1-962z M-5449.7-678.2l-0.1,269.2c0,1.4-1.1,2.4-2.4,2.4l-87.9-0.1h-140.7c-22.3,0-44.6,0-66.9,0c-2.9,0-5.2-2.3-5.2-5.2
	l0.1-267.2c0-0.7,0.6-1.3,1.3-1.3h299.6C-5450.7-680.4-5449.7-679.4-5449.7-678.2z M-5680.8-394.4h140.7l87.9-0.1
	c1.4,0,2.4,1.1,2.4,2.4c0,90,0,179.9,0.1,269.9c0,0.8-0.7,1.5-1.5,1.5h-301.2c-0.5,0-0.9-0.4-0.9-0.9l0.3-267.6
	c0-2.9,2.3-5.2,5.2-5.2C-5725.5-394.4-5703.1-394.4-5680.8-394.4z M-5444.6-392.1c0-1.3,1.1-2.4,2.4-2.4l183.4-0.1l113.7-0.2
	c2.4,0,4.3,1.9,4.3,4.3v268.3c0,0.9-0.7,1.6-1.6,1.6h-300.9c-0.8,0-1.5-0.7-1.5-1.5C-5444.6-212.1-5444.6-302.1-5444.6-392.1z
	 M-5136.8-390.6c0-2.4,1.9-4.3,4.3-4.3l155.1-0.3l139.6-0.3c2.8,0,5.1,2.3,5.1,5.1l0.2,266.9c0,1.6-1.3,2.9-2.9,2.9h-299.8
	c-0.9,0-1.6-0.7-1.6-1.6L-5136.8-390.6L-5136.8-390.6z M-4822.9-395.6l294.7-0.7c2.4,0,4.3,1.9,4.3,4.3v267.7c0,2-1.6,3.7-3.7,3.7
	h-297.7c-1.6,0-2.9-1.3-2.9-2.9l0.2-267C-4828-393.3-4825.7-395.6-4822.9-395.6z M-4519.9-392.1c0-2.4,1.9-4.3,4.3-4.3l101-0.2
	l196.6-0.4c1.4,0,2.6,1.1,2.6,2.6v272.1c0,0.9-0.8,1.7-1.7,1.7h-299.1c-2,0-3.7-1.6-3.7-3.7L-4519.9-392.1L-4519.9-392.1z
	 M-4211.5-394.5c0-1.4,1.1-2.6,2.6-2.6l75.6-0.2l222.7-0.2c2,0,3.6,1.6,3.6,3.6v269.5c0,2.1-1.7,3.7-3.7,3.7h-299
	c-0.9,0-1.7-0.8-1.7-1.7v-272.1H-4211.5z M-3903.1-393.9c0-2,1.6-3.6,3.6-3.6l47.5-0.1c83.5-0.1,167.1,0.1,250.6,0.2
	c1.2,0,2.2,1,2.2,2.2l0.3,270.7c0,2.1-1.7,3.7-3.7,3.7h-296.7c-2.1,0-3.7-1.7-3.7-3.7v-269.4H-3903.1z M-3594.1-395.1
	c0-1.2,1-2.2,2.2-2.2c7.1,0,14.2,0,21.3,0l280.4,0.6v275.9h-300.4c-2.1,0-3.7-1.7-3.7-3.7L-3594.1-395.1z M-3286.2-396.6
	c92.8,0.2,185.6,0.1,278.3,0h23c0.1,92,0.2,183.9,0.6,275.9h-302L-3286.2-396.6L-3286.2-396.6z M-2974.7-396.6l248.2-0.2l53.1-0.1
	v276.2h-302C-2974.9-212.6-2974.8-304.6-2974.7-396.6z M-2669.4-396.8l306.1-0.4c-0.1,92.2-0.3,184.3-0.6,276.5h-305.6v-276.1
	H-2669.4z"/>
<line class="st2" x1="-2429.9" y1="5375.5" x2="2071.9" y2="5375.5"/>
<g>
	<line class="st3" x1="-2429.9" y1="5657.4" x2="2071.9" y2="5657.4"/>
	<path class="st4" d="M-2429.9,5655.4c187.6-0.6,375.1-1,562.7-1.2l562.7-0.5h281.4l281.4,0.8l140.7,0.5l140.7,0.3l281.4,0.2
		l1125.4,0.3l1125.4-0.3v4l-1125.4-0.3l-1125.4,0.3l-281.4,0.2L-601,5660l-140.7,0.5l-281.4,0.8h-281.4l-562.7-0.5
		c-187.6-0.2-375.1-0.6-562.7-1.2V5655.4z"/>
</g>
<g>
	<line class="st3" x1="-2429.9" y1="5939.3" x2="2071.9" y2="5939.3"/>
	<polygon class="st4" points="-2429.9,5937.3 -1304.4,5936 -179,5935.5 946.5,5935.7 1509.2,5936.3 2071.9,5937.3 2071.9,5941.3 
		1509.2,5942.3 946.5,5942.8 -179,5943 -1304.4,5942.5 -2429.9,5941.3 	"/>
</g>
<g>
	<line class="st3" x1="-2429.9" y1="6221.1" x2="2071.9" y2="6221.1"/>
	<path class="st4" d="M-2429.9,6219.1l70.3-0.4l70.3-0.2c46.9-0.1,93.8-0.1,140.7-0.1l281.4,0.4l562.7,1.2l562.7,1l562.7,0.1
		l1125.4-0.5l562.7-0.5l562.7-0.9v4l-562.7-0.9l-562.7-0.5l-1125.4-0.5l-562.7,0.1l-562.7,1l-562.7,1.2l-281.4,0.4
		c-46.9,0-93.8,0-140.7-0.1l-70.3-0.2l-70.3-0.4L-2429.9,6219.1L-2429.9,6219.1z"/>
</g>
<line class="st2" x1="-2429.9" y1="6503" x2="2071.9" y2="6503"/>
<g>
	<line class="st3" x1="-2429.9" y1="6784.9" x2="2071.9" y2="6784.9"/>
	<path class="st4" d="M-2429.9,6782.9c93.8-2.5,187.6-3.5,281.4-3.9c46.9-0.2,93.8-0.2,140.7-0.2h140.7l281.4,0.2l281.4,0.6
		l562.7,1.4l281.4,0.6l281.4,0.3c93.8,0.1,187.6-0.1,281.4-0.3L384,6781c93.8-0.2,187.6-0.1,281.4,0l281.4,0.2l562.7,0.6l562.7,1.1
		v4l-562.7,1.1l-562.7,0.6l-281.4,0.2c-93.8,0.1-187.6,0.2-281.4,0l-281.4-0.6c-93.8-0.2-187.6-0.4-281.4-0.3l-281.4,0.3l-281.4,0.6
		l-562.7,1.4l-281.4,0.6l-281.4,0.2h-140.7c-46.9,0-93.8,0-140.7-0.2c-93.8-0.4-187.6-1.4-281.4-3.9V6782.9z"/>
</g>
<line class="st2" x1="-2429.9" y1="7066.7" x2="2071.9" y2="7066.7"/>
<g>
	<line class="st3" x1="-2082.6" y1="4965" x2="-2082.6" y2="7385.4"/>
	<polygon class="st4" points="-2080.6,4965 -2080,5267.5 -2079.7,5570.1 -2079.7,6175.2 -2080,6780.3 -2080.6,7385.4 
		-2084.6,7385.4 -2085.3,6780.3 -2085.5,6175.2 -2085.6,5570.1 -2085.3,5267.5 -2084.6,4965 	"/>
</g>
<g>
	<line class="st3" x1="-1774.2" y1="4965" x2="-1774.2" y2="7385.4"/>
	<path class="st4" d="M-1772.2,4965l-0.7,302.6l-0.2,302.6c-0.2,201.7,0.2,403.4,0.9,605.1l0.6,302.6l0.1,302.6
		c0,201.7-0.2,403.4-0.6,605.1h-4c-0.4-201.7-0.6-403.4-0.6-605.1l0.1-302.6l0.6-302.6c0.6-201.7,1-403.4,0.9-605.1l-0.2-302.6
		l-0.7-302.6H-1772.2z"/>
</g>
<line class="st2" x1="-1465.8" y1="4965" x2="-1465.8" y2="7385.4"/>
<g>
	<line class="st3" x1="-1157.4" y1="4965" x2="-1157.4" y2="7385.4"/>
	<path class="st4" d="M-1155.4,4965l-0.4,75.6l-0.3,75.6l-0.2,151.3l0.1,151.3l0.2,75.6c0,12.6,0,25.2,0.2,37.8
		c0.2,12.6,0.4,25.2,0.8,37.8c0.7,25.2,1.4,50.4,1.4,75.6c-0.1,12.6-0.4,25.2-0.6,37.8c-0.2,12.6-0.1,25.2-0.2,37.8l-0.1,151.3
		l-0.2,302.6l-0.7,1210.2h-4l-0.7-1210.2l-0.2-302.6l-0.1-151.3c0-12.6,0-25.2-0.2-37.8c-0.2-12.6-0.6-25.2-0.6-37.8
		c0-25.2,0.6-50.4,1.4-75.6c0.4-12.6,0.6-25.2,0.8-37.8c0.2-12.6,0.1-25.2,0.2-37.8l0.2-75.6l0.1-151.3l-0.2-151.3l-0.3-75.6
		l-0.4-75.6L-1155.4,4965L-1155.4,4965z"/>
</g>
<line class="st2" x1="-848.9" y1="4965" x2="-848.9" y2="7385.4"/>
<line class="st2" x1="-540.5" y1="4965" x2="-540.5" y2="7385.4"/>
<line class="st2" x1="-232.1" y1="4965" x2="-232.1" y2="7385.4"/>
<g>
	<line class="st3" x1="76.3" y1="4965" x2="76.3" y2="7385.4"/>
	<path class="st4" d="M78.3,4965c0.9,201.7,1,403.4,1.1,605.1l-0.2,605.1L79,6780.3l-0.6,605.1h-4l-0.6-605.1l-0.2-605.1l-0.2-605.1
		c0.1-201.7,0.1-403.4,1.1-605.1H78.3z"/>
</g>
<line class="st2" x1="384.8" y1="4965" x2="384.8" y2="7385.4"/>
<g>
	<line class="st3" x1="693.2" y1="4965" x2="693.2" y2="7385.4"/>
	<path class="st4" d="M695.2,4965l1.1,302.6l0.5,151.3l0.3,151.3l1,605.1l0.3,605.1c-0.1,100.9-0.2,201.7-0.7,302.6
		s-1.1,201.7-2.4,302.6h-4c-1.3-100.9-1.9-201.7-2.4-302.6s-0.6-201.7-0.7-302.6l0.3-605.1l1-605.1l0.3-151.3l0.5-151.3l1.1-302.6
		H695.2z"/>
</g>
<line class="st2" x1="1001.6" y1="4965" x2="1001.6" y2="7385.4"/>
<g>
	<line class="st3" x1="1310" y1="4965" x2="1310" y2="7385.4"/>
	<path class="st4" d="M1312,4965c-0.7,201.7-1.1,403.4-1.4,605.1l-0.5,605.1l-0.1,302.6l0.2,302.6c0.3,201.7,0.7,403.4,1.7,605.1h-4
		c1-201.7,1.4-403.4,1.7-605.1l0.2-302.6l-0.1-302.6l-0.5-605.1c-0.3-201.7-0.7-403.4-1.4-605.1H1312z"/>
</g>
<ellipse transform="matrix(0.7071 -0.7071 0.7071 0.7071 400.6121 2153.4753)" class="st5" cx="2799.8" cy="593.2" rx="3526" ry="3537.3"/>
<ellipse transform="matrix(0.7071 -0.7071 0.7071 0.7071 396.8282 2144.3401)" class="st5" cx="2786.9" cy="593.2" rx="972.9" ry="979.4"/>
<ellipse transform="matrix(0.7071 -0.7071 0.7071 0.7071 400.6121 2153.4753)" class="st5" cx="2799.8" cy="593.2" rx="258" ry="261.3"/>
<ellipse transform="matrix(0.7071 -0.7071 0.7071 0.7071 400.6121 2153.4753)" class="st5" cx="2799.8" cy="593.2" rx="111.3" ry="113"/>
<ellipse transform="matrix(0.7071 -0.7071 0.7071 0.7071 400.6121 2153.4753)" class="st5" cx="2799.8" cy="593.2" rx="31.7" ry="31.7"/>
<ellipse transform="matrix(0.7071 -0.7071 0.7071 0.7071 400.6121 2153.4753)" class="st5" cx="2799.8" cy="593.2" rx="125.6" ry="127.3"/>
<polygon class="st5" points="2799.8,396.6 2822,467.3 2867,408.4 2863.7,482.5 2926.1,442.6 2897.7,511 2970,494.9 2919.9,549.5 
	2993.4,559 2927.6,593.2 2993.4,627.3 2919.9,636.9 2970,691.4 2897.7,675.3 2926.1,743.7 2863.7,703.8 2867,777.9 2822,719 
	2799.8,789.7 2777.6,719 2732.5,777.9 2735.9,703.8 2673.4,743.7 2701.9,675.3 2629.5,691.4 2679.7,636.9 2606.2,627.3 2672,593.2 
	2606.2,559 2679.7,549.5 2629.5,494.9 2701.9,511 2673.4,442.6 2735.9,482.5 2732.5,408.4 2777.6,467.3 "/>
<g class="st6">
	<path class="st7" d="M2799.8,4125.4"/>
	<path class="st7" d="M2799.8,593.2"/>
	<polyline class="st7" points="2909.2,656.3 2916.9,660.8 3042.3,733.2 5858.8,2359.3 	"/>
	<polyline class="st7" points="2827.2,609 2886.9,643.4 2897.1,649.4 	"/>
	<polyline class="st7" points="2909.5,529.8 2991.1,482.7 5858.8,-1173 	"/>
	<line class="st7" x1="2827.2" y1="577.3" x2="2897.1" y2="536.9"/>
	<path class="st7" d="M2799.8-2939.1"/>
	<polyline class="st7" points="2689,529.2 2591.9,473.2 -259.2,-1173 	"/>
	<line class="st7" x1="2772.3" y1="577.3" x2="2702.5" y2="537"/>
	<polyline class="st7" points="2690,656.5 2661.8,672.8 2608.5,703.6 -259.2,2359.3 	"/>
	<polyline class="st7" points="2772.3,609 2714.4,642.4 2702.4,649.4 	"/>
</g>
<g class="st6">
	<rect x="-169" y="-2375.7" class="st7" width="5937.6" height="5937.6"/>
	<line class="st7" x1="-169" y1="2572.4" x2="5768.6" y2="2572.4"/>
	<line class="st7" x1="-169" y1="1582.8" x2="5768.6" y2="1582.8"/>
	<polyline class="st7" points="2927.6,593.2 3059.9,593.2 5768.6,593.2 	"/>
	<polyline class="st7" points="-169,593.2 2539.7,593.2 2672,593.2 	"/>
	<line class="st7" x1="-169" y1="-396.4" x2="5768.6" y2="-396.4"/>
	<line class="st7" x1="-169" y1="-1386" x2="5768.6" y2="-1386"/>
	<line class="st7" x1="4779" y1="-2375.7" x2="4779" y2="3562"/>
	<line class="st7" x1="3789.4" y1="-2375.7" x2="3789.4" y2="3562"/>
	<polyline class="st7" points="2799.8,719.8 2799.8,853.2 2799.8,3562 	"/>
	<line class="st7" x1="2799.8" y1="624.9" x2="2799.8" y2="705.5"/>
	<polyline class="st7" points="2799.8,481.5 2799.8,496.1 2799.8,561.5 	"/>
	<polyline class="st7" points="2799.8,-2375.7 2799.8,367 2799.8,465.5 	"/>
	<line class="st7" x1="1810.2" y1="-2375.7" x2="1810.2" y2="3562"/>
	<line class="st7" x1="820.6" y1="-2375.7" x2="820.6" y2="3562"/>
</g>
<line class="st8" x1="-32.2" y1="-254.5" x2="654.1" y2="2482.5"/>
<line class="st8" x1="163.9" y1="-193.2" x2="2226.9" y2="2421.3"/>
<line class="st8" x1="2756.3" y1="473.8" x2="2733.4" y2="410.6"/>
<line class="st8" x1="2789.2" y1="564.2" x2="2761.2" y2="487.3"/>
<line class="st8" x1="2727.2" y1="506.7" x2="2780" y2="569.6"/>
<line class="st8" x1="2674.9" y1="444.4" x2="2717.7" y2="495.4"/>
<line class="st8" x1="2839.4" y1="488" x2="2813" y2="564.2"/>
<line class="st8" x1="2866.2" y1="410.6" x2="2844.1" y2="474.4"/>
<line class="st8" x1="2872.6" y1="507.6" x2="2821.6" y2="569.6"/>
<line class="st8" x1="2924.6" y1="444.4" x2="2881.7" y2="496.5"/>
<line class="st8" x1="2689" y1="573.6" x2="2769.5" y2="587.8"/>
<line class="st8" x1="2608.5" y1="559.4" x2="2675" y2="571.1"/>
<line class="st8" x1="2910.5" y1="573.6" x2="2830.1" y2="587.8"/>
<line class="st8" x1="2991.1" y1="559.4" x2="2924.6" y2="571.2"/>
<line class="st8" x1="2689" y1="613.6" x2="2769" y2="600.4"/>
<line class="st8" x1="2608.5" y1="626.9" x2="2675.1" y2="615.9"/>
<line class="st8" x1="2727.5" y1="679.3" x2="2780" y2="616.7"/>
<line class="st8" x1="2674.9" y1="741.9" x2="2718.3" y2="690.2"/>
<line class="st8" x1="2761.3" y1="698.8" x2="2789.2" y2="622.1"/>
<line class="st8" x1="2733.4" y1="775.7" x2="2756.4" y2="712.2"/>
<line class="st8" x1="2839.9" y1="698.5" x2="2813" y2="619.6"/>
<line class="st8" x1="2866.2" y1="775.7" x2="2844.5" y2="712"/>
<line class="st8" x1="2873.4" y1="678.7" x2="2821.6" y2="614.8"/>
<line class="st8" x1="2924.6" y1="741.9" x2="2882.1" y2="689.5"/>
<line class="st8" x1="2991.1" y1="626.9" x2="2830.1" y2="600.4"/>
</svg>
