<?xml version="1.0" encoding="utf-8"?>
<!-- Generator: Adobe Illustrator 25.2.1, SVG Export Plug-In . SVG Version: 6.00 Build 0)  -->
<svg version="1.1" id="Livello_1" xmlns="http://www.w3.org/2000/svg" xmlns:xlink="http://www.w3.org/1999/xlink" x="0px" y="0px"
	 viewBox="0 0 4000 2000" style="enable-background:new 0 0 4000 2000;" xml:space="preserve">
<style type="text/css">
	.st0{opacity:9.000000e-02;fill:#FCC201;}
	.st1{opacity:0.32;fill:#FCC201;}
	.st2{fill:#FCC201;stroke:#FCC201;stroke-width:4;}
	.st3{fill:#FCC201;}
</style>
<path class="st0" d="M12998.7,2545h-2280.5c-0.7-276.2-1.2-552.4-1.7-828.6l595.9-0.7l1686.3-3.4v-12l-1686.3-3.4l-595.9-0.7
	c0,0,0,0,0,0l-0.6-828.6h2282.8v-12h-2282.8l-0.1-69.8l0.2-766.1l596.5,0.6l1686.3,2.6V11l-1686.3,2.6l-596.4,0.6l0-134.9l0.6-697.4
	l595.8-0.6l1686.3-3v-12l-1686.3-3l-595.8-0.6l0.7-829.7l2281.3,0.7v-12l-2281.3,0.7l0.2-256.3c0.2-192.3,0.6-384.7,0.9-577h2280.2
	v-12h-2280.1c0.8-408.1,1.8-816.2,3.1-1224.3h-12c1.4,408.1,2.4,816.2,3.1,1224.3h-915.4v-1224.3h-12v1224.3h-908.1l-1-317.6
	l-3.2-906.6h-12l-3.2,906.6l-1,317.6H7949v-1224.3h-12v1224.3h-884.6c-13.7,0-24.8-11.1-24.8-24.8c-0.3-399.8-1-799.6-2.8-1199.4
	h-12c-1.8,399.8-2.5,799.6-2.8,1199.4c0,13.7-11.1,24.8-24.8,24.8h-877.2c-4.1,0-7.4-3.3-7.4-7.4v-1216.9h-12v1216.9
	c0,4.1-3.3,7.4-7.4,7.4h-891.6c-7.3,0-13.3-5.9-13.3-13.3v-1211h-12v1211c0,7.3-5.9,13.3-13.3,13.3h-893.4c-3.1,0-5.6-2.5-5.6-5.6
	v-1218.7h-12v1218.7c0,3.1-2.5,5.6-5.6,5.6h-905.4c-1.8,0-3.3-1.5-3.3-3.3l-0.3-314.3l0.5-453.3l0.8-226.7l1.1-226.7h-12l1.1,226.7
	l0.8,226.7l0.5,453.3l-0.3,314.3c0,1.8-1.5,3.3-3.3,3.3h-899.3c-6.5,0-11.7-5.2-11.7-11.7v-1212.5h-12v1212.5
	c0,6.5-5.2,11.7-11.7,11.7H1479c-1.1,0-2-0.9-2-2l0.2-315.6l2.1-906.6h-12l2.1,906.6l0.2,315.6c0,1.1-0.9,2-2,2H563.1
	c-3.1,0-5.7-2.5-5.7-5.7l-0.3-312l-2-906.6h-12l-2,906.6l-0.3,312c0,3.1-2.5,5.7-5.7,5.7H-491.4v12H535.2c3.1,0,5.7,2.5,5.7,5.7
	l-0.6,571.3l0,246.1c0,3.9-3.2,7.1-7,7.1c-341.5,0.6-683.1,1.5-1024.6,2.5v12c341.5,1.1,683.1,1.9,1024.6,2.5c3.9,0,7,3.2,7,7.1
	l0.1,810.3c0,6.4-5.2,11.6-11.6,11.6l-1020.2,1.1v12l1020.2,1.1c6.4,0,11.6,5.2,11.6,11.6l0.1,688.2l0.1,125.4c0,2.4-2,4.4-4.4,4.4
	L351.8,8.9C211.3,8.8,70.7,8.8-69.8,9.2l-210.8,0.6L-491.4,11v12l210.8,1.2l210.8,0.6c140.5,0.4,281,0.4,421.6,0.3l184.4-0.3
	c2.4,0,4.4,2,4.4,4.4l0.4,822.4c0,2.2-1.8,4-4,4H-491.4v12H537c2.2,0,4,1.8,4,4l0.4,800.7c0,8.7-7,15.7-15.7,15.7
	c-58,0.1-115.9,0.2-173.9,0.5c-281,1.3-562.1,4.2-843.1,11.8v12c281,7.6,562.1,10.5,843.1,11.8c58,0.3,116,0.4,173.9,0.5
	c8.6,0,15.6,7,15.7,15.7l0.8,802c0,1.5-1.2,2.7-2.7,2.7H-491.4v12H539.5c1.5,0,2.7,1.2,2.7,2.7l1,946.2h12l1-946.2
	c0-1.5,1.2-2.7,2.7-2.7h902.7c2.5,0,4.5,2,4.5,4.5c0.3,314.8,0.8,629.6,1.4,944.3h12c0.6-314.8,1.1-629.6,1.4-944.3
	c0-2.5,2-4.5,4.5-4.5h901.6c2.6,0,4.7,2.1,4.7,4.7v944.1h12v-944.1c0-2.6,2.1-4.7,4.7-4.7h898.3c4.8,0,8.6,3.9,8.6,8.6l0.5,940.2h12
	l0.5-940.2c0-4.8,3.9-8.6,8.6-8.6h892.1c6.1,0,11,4.9,11,11v937.9h12V2568c0-6.1,4.9-11,11-11h896.2c2.8,0,5.1,2.3,5.1,5.1v943.7h12
	v-943.7c0-2.8,2.3-5.1,5.1-5.1h896c6.2,0,11.1,5,11.1,11.1v937.7h12v-937.7c0-6.2,5-11.1,11.1-11.1h889c6.2,0,11.1,5,11.1,11.1
	l0.9,937.7h12l0.9-937.7c0-6.2,5-11.1,11.1-11.1H7937v948.8h12V2557h904.9c0.1,14.1,0.1,28.1,0.2,42.2
	c1.4,302.2,3.4,604.4,7.1,906.6h12c3.8-302.2,5.7-604.4,7.1-906.6c0.1-14.1,0.1-28.1,0.2-42.2h904.9v948.8h12V2557h915.7
	c-0.8,316.3-1.9,632.6-3.4,948.8h12c-1.5-316.3-2.6-632.6-3.4-948.8h2280.5V2545z M569.6-820.4l893.2,1c3.7,0,6.7,3,6.7,6.7
	c-0.5,230.7-1.1,461.4-1.8,692.1l-0.2,114.6c0,9.3-7.5,16.8-16.8,16.7l-255.7-0.5l-632.7-1c-2.4,0-4.4-2-4.4-4.4l0.1-125.5
	l0.1-688.1C557.9-815.2,563.1-820.4,569.6-820.4z M10713.7-1933.9l0.2,256.3l-916.5,0.3v-833.6h915.4
	C10713.2-2318.6,10713.5-2126.3,10713.7-1933.9z M10715.3-120.7l0,134.9l-917.9,0.9v-832.2l917.3-0.9L10715.3-120.7z M10715.5,785.9
	l-0.1,69.8h-918V18.9l917.9,0.9L10715.5,785.9z M10714.8,1696.3l-917.4-1.1V867.7h918l-0.6,824.9
	C10714.8,1693.8,10714.8,1695.1,10714.8,1696.3z M1481.2,1680.9l-0.2-806.6c0-3.6,3-6.6,6.6-6.6h900.5c2,0,3.6,1.6,3.6,3.6v805.2
	c0,7.1-5.8,12.9-12.9,12.9l-340.7-0.7l-549.5-0.4C1484.4,1688.2,1481.2,1685,1481.2,1680.9z M1480.9,785.9l-1.5-745.8
	c0-9.3,7.5-16.8,16.7-16.8l890.4-1.8c2.8,0,5,2.2,5,5v825.7c0,2-1.6,3.6-3.6,3.6h-900.5c-3.6,0-6.6-3-6.6-6.6L1480.9,785.9z
	 M1479.1-120.7c-0.7-230.7-1.3-461.4-1.8-692c0-3.7,3-6.7,6.7-6.7l897.9,1c5.4,0,9.7,4.4,9.7,9.7V7.6c0,2.8-2.2,5-5,5l-890.5-1.8
	c-9.2,0-16.7-7.5-16.7-16.7L1479.1-120.7z M8852.8,15.6L7949,16v-832.7l905-0.1l-1.1,696.1L8852.8,15.6z M7937,16l-892.4,0.4
	c-9.6,0-17.4-7.8-17.4-17.4l0-119.7l0.3-685.8c0-5.6,4.5-10.1,10.1-10.1l899.4-0.1V16z M7010.3-120.7l0,119.7
	c0,9.6-7.8,17.4-17.4,17.4l-739.3,0.3l-135.7,0c-9.6,0-17.4-7.8-17.4-17.4v-791.7c0-13.4,10.8-24.2,24.2-24.2l128.9,0.1l746.3-0.1
	c5.6,0,10.1,4.5,10.1,10.1L7010.3-120.7z M6071.1,16.8L5182,16.7c-3.2,0-5.7-2.6-5.7-5.7v-819c0-4.9,4-8.8,8.8-8.8l879.2,0.4
	c13.4,0,24.2,10.8,24.2,24.2V-0.6C6088.5,9,6080.7,16.8,6071.1,16.8z M5164.3,10.9c0,3.2-2.6,5.7-5.7,5.7l-591.2-0.1l-309-0.5
	c-3.5,0-6.3-2.8-6.3-6.3V-809c0-4.6,3.7-8.3,8.3-8.3l895.1,0.4c4.9,0,8.8,4,8.8,8.8V10.9z M4233.8,16l-898.3-1.6
	c-3.1,0-5.6-2.5-5.6-5.6l0.1-129.5l0.5-678.9c0-10,8.1-18,18-18l883.3,0.4c4.6,0,8.3,3.7,8.3,8.3V9.7
	C4240.1,13.2,4237.2,16,4233.8,16z M3313.8-120.7l0.1,129.5c0,3.1-2.5,5.6-5.6,5.6l-427.1-0.7l-472.5-1c-2.8,0-5-2.2-5-5v-816.3
	c0-5.4,4.4-9.7,9.7-9.7l467.8,0.5l414.1,0.2c9.9,0,18,8.1,18,18L3313.8-120.7z M2881.2,20.4l427.1-0.7c3.1,0,5.6,2.5,5.6,5.6
	l0.5,830.4h-907.1c-2,0-3.6-1.6-3.6-3.6V26.4c0-2.8,2.2-5,5-5L2881.2,20.4z M3335.4,19.6l898.3-1.6c3.5,0,6.3,2.8,6.3,6.3v823.4
	c0,4.4-3.5,7.9-7.9,7.9h-902.8l0.5-830.5C3329.9,22.1,3332.4,19.6,3335.4,19.6z M4252.1,24.3c0-3.5,2.8-6.3,6.3-6.3l309-0.5
	l591.2-0.1c3.2,0,5.7,2.6,5.7,5.7v820.3c0,6.8-5.5,12.2-12.2,12.2H4260c-4.4,0-7.9-3.5-7.9-7.9V24.3z M5182,17.4l889.1-0.1
	c9.6,0,17.4,7.8,17.4,17.4v811.1c0,5.5-4.4,9.9-9.9,9.9h-890.1c-6.8,0-12.2-5.5-12.2-12.2V23.1C5176.3,20,5178.9,17.4,5182,17.4z
	 M6100.5,34.7c0-9.6,7.8-17.4,17.4-17.4l135.7,0l739.3,0.3c9.6,0,17.4,7.8,17.4,17.4l0.3,810.8c0,5.5-4.4,9.9-9.9,9.9h-890.3
	c-5.5,0-9.9-4.4-9.9-9.9V34.7z M7044.5,17.6L7937,18v837.7h-900.2c-5.5,0-9.9-4.4-9.9-9.9l0.3-810.8
	C7027.1,25.4,7034.9,17.6,7044.5,17.6z M7949,18l903.8,0.4l-0.4,837.3H7949V18z M8882.1,855.7l-0.4-837.3l744.5,0.3l159.3,0.2v836.8
	H8882.1z M9626.2,15.3l-744.5,0.3l-0.1-136.3l-1.1-696.2l745.7-0.1l159.3-0.2V15.1L9626.2,15.3z M9626.2-838.3l-745.7-0.1
	l-1.3-828.7l747.1-0.2l159.3,0v829.1L9626.2-838.3z M8854-838.4l-905-0.1v-828.3l906.3-0.2L8854-838.4z M7937-838.6l-899.4-0.1
	c-5.6,0-10.1-4.5-10.1-10.1l0.3-808.5c0-5.1,4.2-9.3,9.3-9.3l899.9-0.2V-838.6z M7010-848.8c0,5.6-4.5,10.1-10.1,10.1l-746.3-0.1
	l-128.9,0.1c-13.4,0-24.2-10.8-24.2-24.2v-794.2c0-5.1,4.1-9.2,9.2-9.2l144-0.1l746.7-0.2c5.2,0,9.3,4.2,9.3,9.3L7010-848.8z
	 M6064.4-838.7l-879.2,0.4c-4.9,0-8.8-4-8.8-8.8v-796c0-12.3,10-22.3,22.2-22.3l212-0.4l668.8-0.4c5.1,0,9.2,4.1,9.2,9.2v794.2
	C6088.5-849.6,6077.7-838.8,6064.4-838.7z M5155.5-838.4l-895.1,0.4c-4.6,0-8.3-3.7-8.3-8.3v-805.5c0-6.1,4.9-11,10.9-11l304.4-0.9
	l421.6-1.4l153-0.3c12.3,0,22.3,10,22.3,22.3v795.9C5164.3-842.3,5160.4-838.4,5155.5-838.4z M4231.8-838l-883.3,0.4
	c-10,0-18-8.1-18-18l0.1-171.7l0.3-453.3c0.1-37.8-0.1-75.6,0.5-113.3c0.3-15.8,0.6-31.5,0.9-47.3c0.2-11.1,9.3-20,20.4-20l371.4,0
	l504.8-1.4c6.1,0,11,4.9,11,11v805.4C4240.1-841.7,4236.4-838,4231.8-838z M3312.2-1594c0.6,37.8,0.4,75.6,0.5,113.3l0.3,453.3
	l0.1,171.7c0,10-8.1,18-18,18l-414,0.2l-467.8,0.5c-5.4,0-9.7-4.3-9.7-9.7V-1656c0-3.2,2.6-5.7,5.7-5.7l471.8,0.4l409.7,0
	c11.1,0,20.2,8.9,20.4,20C3311.6-1625.5,3311.9-1609.7,3312.2-1594z M2381.9-836.8l-898,1c-3.7,0-6.7-3-6.7-6.7
	c-0.5-272.4-0.9-544.7-0.8-817.1c0-1.6,1.3-2.9,2.9-2.9l906.6,0.7c3.2,0,5.7,2.6,5.7,5.7v809.4
	C2391.6-841.2,2387.3-836.9,2381.9-836.8z M2407.2,867.7h907.2l0.5,808.5c0,8.4-6.8,15.3-15.3,15.2l-418.4-1l-464.7-1
	c-7.1,0-12.9-5.8-12.9-12.9V871.2C2403.6,869.3,2405.2,867.7,2407.2,867.7z M3329.4,867.7h902.8c4.4,0,7.9,3.5,7.9,7.9v805.4
	c0,7.1-5.8,12.8-12.8,12.8l-883.1-2.2c-8.4,0-15.2-6.8-15.2-15.2L3329.4,867.7z M4260,867.7h892.1c6.8,0,12.2,5.5,12.2,12.2v808.2
	c0,4.2-3.4,7.7-7.7,7.7l-589.2-1.2l-302.6-0.7c-7.1,0-12.8-5.7-12.8-12.8V875.6C4252.1,871.2,4255.6,867.7,4260,867.7z
	 M5188.5,867.7h890.1c5.5,0,9.9,4.4,9.9,9.9v808.7c0,5.9-4.8,10.7-10.7,10.7l-667.3-0.7l-226.6-0.5c-4.2,0-7.6-3.4-7.6-7.7V879.9
	C5176.3,873.2,5181.8,867.7,5188.5,867.7z M6110.4,867.7h890.3c5.5,0,9.9,4.4,9.9,9.9l0.3,810.7c0,4.5-3.6,8.1-8.1,8.1
	c-249.8,0.6-499.5,0.9-749.3,0.7l-142.5-0.2c-5.9,0-10.7-4.8-10.7-10.7V877.6C6100.5,872.1,6105,867.7,6110.4,867.7z M7036.7,867.7
	H7937v826.7l-840.2,1.8c-20.7,0.1-41.5,0.1-62.2,0.1c-4.5,0-8.1-3.6-8.1-8.1l0.3-810.7C7026.8,872.1,7031.3,867.7,7036.7,867.7z
	 M7949,867.7h903.4l-0.4,824.9c0,0.6,0,1.2,0,1.8l-68.9-0.1c-278-0.2-556-0.5-834.1,0V867.7z M8882.1,867.7h903.4v827.5l-159.3-0.2
	l-743.7-0.6c0-0.6,0-1.2,0-1.9L8882.1,867.7z M9797.4-838.1v-829.1l916.5,0.3l0.7,829.7L9797.4-838.1z M9785.4-1677.4l-159.3,0
	l-747.1-0.2l-0.4-256.4l-0.9-453.3l-0.4-123.7h908V-1677.4z M8856.6-2387.3l-0.9,453.3l-0.4,256.4l-906.4-0.2v-833.2h908
	L8856.6-2387.3z M7937-1677.7l-899.9-0.2c-5.2,0-9.3-4.2-9.3-9.3l0.1-246.6c-0.1-184-0.1-368.1-0.3-552.1
	c0-13.7,11.1-24.9,24.8-24.9H7937V-1677.7z M7009.7-1687.3c0,5.2-4.2,9.3-9.3,9.3l-746.7-0.2l-144-0.1c-5.1,0-9.2-4.1-9.2-9.2
	v-816.1c0-4.1,3.3-7.4,7.4-7.4H6985c13.7,0,24.9,11.1,24.8,24.9c-0.1,184-0.2,368.1-0.3,552.1L7009.7-1687.3z M6088.5-1687.5
	c0,5.1-4.1,9.2-9.2,9.2l-668.8-0.4l-212-0.4c-12.3,0-22.2-10-22.2-22.3v-796.3c0-7.3,5.9-13.3,13.3-13.3h891.6
	c4.1,0,7.4,3.3,7.4,7.4V-1687.5z M5164.3-1701.5c0,12.3-10,22.3-22.3,22.3l-153-0.3l-421.6-1.4l-304.4-0.8c-6.1,0-10.9-4.9-10.9-11
	v-812.6c0-3.1,2.5-5.6,5.6-5.6h893.4c7.3,0,13.3,5.9,13.3,13.3V-1701.5z M4240.1-1692.9c0,6.1-4.9,11-11,11l-504.8-1.4l-370.5,0
	c-11.3,0-20.5-9.2-20.4-20.6c0-1.1,0-2.3,0-3.4c0.1-75.6-1.9-151.1-4.1-226.7c-1.1-37.8-1.9-75.6-2.4-113.3
	c-0.5-37.8-0.4-75.6-0.5-113.3l-0.5-226.7l-0.1-120.4c0-1.8,1.5-3.3,3.3-3.3h905.4c3.1,0,5.6,2.5,5.6,5.6V-1692.9z M3317.9-2387.3
	l-0.5,226.7c-0.1,37.8,0,75.6-0.5,113.3c-0.5,37.8-1.3,75.6-2.4,113.3c-2.2,75.6-4.2,151.1-4.1,226.7c0,1.1,0,2.3,0,3.4
	c0.1,11.3-9.1,20.6-20.4,20.6l-408.8,0l-471.8,0.4c-3.2,0-5.7-2.6-5.7-5.7v-810.6c0-6.5,5.2-11.7,11.7-11.7h899.3
	c1.8,0,3.3,1.5,3.3,3.3L3317.9-2387.3z M2385.9-1682.8l-906.6,0.7c-1.6,0-2.9-1.3-2.9-2.9c0-83,0-166,0.1-249l0.4-575
	c0-1.1,0.9-2,2-2h900.9c6.5,0,11.7,5.2,11.7,11.7v810.7C2391.6-1685.4,2389.1-1682.8,2385.9-1682.8z M1470.2-1933.9
	c0.1,83,0.1,166,0.1,249c0,1.6-1.3,2.9-2.9,2.9l-272.6,0.2c-209.9,0.3-419.9,0.6-629.8,1c-3.9,0-7.1-3.2-7.1-7.1l0-246l-0.6-571.3
	c0-3.1,2.5-5.7,5.7-5.7h904.6c1.1,0,2,0.9,2,2L1470.2-1933.9z M1194.9-1662.7l272.6,0.2c1.6,0,2.9,1.3,2.9,2.9
	c0,272.4-0.3,544.8-0.8,817.1c0,3.7-3,6.6-6.7,6.7l-893.3,1c-6.4,0-11.6-5.2-11.6-11.6l0.1-810.2c0-3.9,3.2-7.1,7.1-7.1
	C775-1663.3,985-1663,1194.9-1662.7z M1194.9,23.9l255.6-0.5c9.3,0,16.8,7.5,16.8,16.8l-1.5,745.7l0,63.2c0,3.6-3,6.6-6.6,6.6H561.4
	c-2.2,0-4-1.8-4-4l0.4-822.5c0-2.4,2-4.4,4.4-4.4L1194.9,23.9z M1465.8,874.3l-0.2,806.6c0,4-3.3,7.3-7.3,7.3l-263.4-0.2l-421.6,0
	c-66.9,0-133.7,0-200.6,0c-8.7,0-15.7-7-15.7-15.7l0.4-800.7c0-2.2,1.8-4,4-4h897.9C1462.9,867.7,1465.8,870.6,1465.8,874.3z
	 M773.3,1724.7l421.6,0l263.4-0.2c4,0,7.3,3.3,7.3,7.3c0,269.6,0.1,539.1,0.4,808.7c0,2.5-2,4.5-4.5,4.5H558.8
	c-1.5,0-2.7-1.2-2.7-2.7l0.8-802c0-8.7,7-15.7,15.7-15.7C639.6,1724.7,706.4,1724.7,773.3,1724.7z M1481.2,1731.8
	c0-4,3.3-7.3,7.3-7.3l549.5-0.4l340.7-0.7c7.1,0,12.9,5.8,12.9,12.9v804.1c0,2.6-2.1,4.7-4.7,4.7h-901.6c-2.5,0-4.5-2-4.5-4.5
	C1481.1,2270.9,1481.2,2001.4,1481.2,1731.8z M2403.6,1736.1c0-7.1,5.8-12.9,12.9-12.9l464.7-1l418.4-1c8.4,0,15.3,6.8,15.3,15.2
	l0.5,799.9c0,4.8-3.9,8.7-8.6,8.7h-898.3c-2.6,0-4.7-2.1-4.7-4.7V1736.1z M3344.1,1721.1l883.2-2.2c7.1,0,12.8,5.7,12.8,12.8v802.3
	c0,6.1-4.9,11-11,11h-892.1c-4.8,0-8.6-3.9-8.6-8.7l0.5-800C3328.9,1727.9,3335.7,1721.1,3344.1,1721.1z M4252.1,1731.7
	c0-7.1,5.7-12.8,12.8-12.8l302.6-0.7l589.2-1.2c4.2,0,7.7,3.4,7.7,7.7v815.3c0,2.8-2.3,5.1-5.1,5.1H4263c-6.1,0-11-4.9-11-11V1731.7
	z M5176.3,1724.6c0-4.2,3.4-7.7,7.6-7.7l226.6-0.5l667.3-0.7c5.9,0,10.7,4.8,10.7,10.7v807.5c0,6.2-5,11.1-11.1,11.1h-896
	c-2.8,0-5.1-2.3-5.1-5.1V1724.6z M6100.5,1726.4c0-5.9,4.8-10.7,10.7-10.7l142.5-0.2c250.3-0.2,500.6,0.2,750.9,0.7
	c3.6,0,6.5,2.9,6.5,6.5l0.8,811.1c0,6.2-5,11.2-11.1,11.2h-889c-6.2,0-11.1-5-11.1-11.1V1726.4z M7026.5,1722.8
	c0-3.6,2.9-6.5,6.5-6.5c21.3,0,42.5,0.1,63.8,0.1l840.2,1.8V2545h-900.2c-6.2,0-11.2-5-11.1-11.2L7026.5,1722.8z M7949,1718.3
	c278,0.5,556,0.2,834.1,0l68.9-0.1c0.2,275.6,0.6,551.2,1.9,826.7H7949V1718.3z M8882.4,1718.2l743.7-0.6l159.3-0.2V2545h-904.9
	C8881.8,2269.4,8882.3,1993.8,8882.4,1718.2z M9797.4,1717.5l917.4-1.1c-0.4,276.2-1,552.4-1.7,828.6h-915.7V1717.5z"/>
<path class="st1" d="M-1601.1-120.7h-761c-0.2-92.2-0.4-184.3-0.6-276.5l198.9-0.2l562.7-1.1v-4l-562.7-1.1l-198.9-0.2c0,0,0,0,0,0
	l-0.2-276.5h761.8v-4h-761.8l0-23.3l0.1-255.7l199,0.2l562.7,0.9v-4l-562.7,0.9l-199,0.2l0-45l0.2-232.7l198.8-0.2l562.7-1v-4
	l-562.7-1l-198.8-0.2l0.2-276.9l761.3,0.2v-4l-761.3,0.2l0.1-85.5c0.1-64.2,0.2-128.4,0.3-192.6h760.9v-4H-2362
	c0.3-136.2,0.6-272.4,1-408.6h-4c0.5,136.2,0.8,272.4,1,408.6h-305.5v-408.6h-4v408.6h-303l-0.3-106l-1.1-302.6h-4l-1.1,302.6
	l-0.3,106h-303v-408.6h-4v408.6h-295.2c-4.6,0-8.3-3.7-8.3-8.3c-0.1-133.4-0.3-266.8-0.9-400.3h-4c-0.6,133.4-0.8,266.8-0.9,400.3
	c0,4.6-3.7,8.3-8.3,8.3h-292.7c-1.4,0-2.5-1.1-2.5-2.5v-406.1h-4v406.1c0,1.4-1.1,2.5-2.5,2.5h-297.5c-2.4,0-4.4-2-4.4-4.4v-404.1
	h-4v404.1c0,2.4-2,4.4-4.4,4.4H-4518c-1,0-1.9-0.8-1.9-1.9v-406.7h-4v406.7c0,1-0.8,1.9-1.9,1.9h-302.1c-0.6,0-1.1-0.5-1.1-1.1
	l-0.1-104.9l0.2-151.3l0.3-75.6l0.4-75.6h-4l0.4,75.6l0.3,75.6l0.2,151.3l-0.1,104.9c0,0.6-0.5,1.1-1.1,1.1h-300.1
	c-2.2,0-3.9-1.8-3.9-3.9v-404.6h-4v404.6c0,2.2-1.8,3.9-3.9,3.9h-300.6c-0.4,0-0.7-0.3-0.7-0.7l0.1-105.3l0.7-302.6h-4l0.7,302.6
	l0.1,105.3c0,0.4-0.3,0.7-0.7,0.7H-5751c-1,0-1.9-0.8-1.9-1.9l-0.1-104.1l-0.7-302.6h-4l-0.7,302.6l-0.1,104.1c0,1-0.8,1.9-1.9,1.9
	h-342.6v4h342.6c1,0,1.9,0.8,1.9,1.9l-0.2,190.7l0,82.1c0,1.3-1.1,2.4-2.4,2.4c-114,0.2-228,0.5-341.9,0.8v4
	c114,0.4,228,0.6,341.9,0.8c1.3,0,2.4,1.1,2.4,2.4l0,270.4c0,2.1-1.7,3.9-3.9,3.9l-340.4,0.4v4l340.4,0.4c2.1,0,3.9,1.7,3.9,3.9
	l0,229.7l0,41.9c0,0.8-0.7,1.5-1.5,1.5l-61.5-0.1c-46.9,0-93.8,0-140.7,0.1l-70.3,0.2l-70.3,0.4v4l70.3,0.4l70.3,0.2
	c46.9,0.1,93.8,0.1,140.7,0.1l61.5-0.1c0.8,0,1.5,0.7,1.5,1.5l0.1,274.5c0,0.7-0.6,1.3-1.3,1.3h-343.2v4h343.2
	c0.7,0,1.3,0.6,1.3,1.3l0.1,267.2c0,2.9-2.3,5.2-5.2,5.2c-19.3,0-38.7,0.1-58,0.2c-93.8,0.4-187.6,1.4-281.4,3.9v4
	c93.8,2.5,187.6,3.5,281.4,3.9c19.3,0.1,38.7,0.1,58,0.2c2.9,0,5.2,2.3,5.2,5.2l0.3,267.6c0,0.5-0.4,0.9-0.9,0.9h-344v4h344
	c0.5,0,0.9,0.4,0.9,0.9l0.3,315.7h4l0.3-315.7c0-0.5,0.4-0.9,0.9-0.9h301.2c0.8,0,1.5,0.7,1.5,1.5c0.1,105,0.3,210.1,0.5,315.1h4
	c0.2-105,0.4-210.1,0.5-315.1c0-0.8,0.7-1.5,1.5-1.5h300.9c0.9,0,1.6,0.7,1.6,1.6V200h4v-315.1c0-0.9,0.7-1.6,1.6-1.6h299.8
	c1.6,0,2.9,1.3,2.9,2.9l0.2,313.8h4l0.2-313.8c0-1.6,1.3-2.9,2.9-2.9h297.7c2,0,3.7,1.6,3.7,3.7v313h4v-313c0-2,1.6-3.7,3.7-3.7
	h299.1c0.9,0,1.7,0.8,1.7,1.7V200h4V-115c0-0.9,0.8-1.7,1.7-1.7h299c2.1,0,3.7,1.7,3.7,3.7V200h4V-113c0-2.1,1.7-3.7,3.7-3.7h296.7
	c2.1,0,3.7,1.7,3.7,3.7l0.3,312.9h4l0.3-312.9c0-2.1,1.7-3.7,3.7-3.7h300.4V200h4v-316.6h302c0,4.7,0,9.4,0.1,14.1
	c0.5,100.9,1.1,201.7,2.4,302.6h4c1.3-100.9,1.9-201.7,2.4-302.6c0-4.7,0-9.4,0.1-14.1h302V200h4v-316.6h305.6
	c-0.3,105.5-0.6,211.1-1.1,316.6h4c-0.5-105.5-0.9-211.1-1.1-316.6h761V-120.7z M-5748.8-1243.8l298.1,0.3c1.2,0,2.2,1,2.2,2.2
	c-0.2,77-0.4,154-0.6,231l-0.1,38.2c0,3.1-2.5,5.6-5.6,5.6l-85.3-0.2l-211.2-0.3c-0.8,0-1.5-0.7-1.5-1.5l0-41.9l0-229.6
	C-5752.7-1242-5751-1243.8-5748.8-1243.8z M-2363.6-1615.4l0.1,85.5l-305.9,0.1v-278.2h305.5
	C-2363.8-1743.7-2363.7-1679.5-2363.6-1615.4z M-2363.1-1010.3l0,45l-306.3,0.3v-277.7l306.1-0.3L-2363.1-1010.3z M-2363-707.7
	l0,23.3h-306.4v-279.2l306.3,0.3L-2363-707.7z M-2363.2-403.9l-306.1-0.4v-276.2h306.4l-0.2,275.3
	C-2363.2-404.7-2363.2-404.3-2363.2-403.9z M-5444.6-409l-0.1-269.2c0-1.2,1-2.2,2.2-2.2h300.5c0.7,0,1.2,0.5,1.2,1.2v268.7
	c0,2.4-1.9,4.3-4.3,4.3l-113.7-0.2l-183.4-0.1C-5443.5-406.6-5444.6-407.7-5444.6-409z M-5444.7-707.7l-0.5-248.9
	c0-3.1,2.5-5.6,5.6-5.6l297.1-0.6c0.9,0,1.7,0.7,1.7,1.7v275.5c0,0.7-0.5,1.2-1.2,1.2h-300.5c-1.2,0-2.2-1-2.2-2.2L-5444.7-707.7z
	 M-5445.3-1010.3c-0.2-77-0.4-154-0.6-230.9c0-1.2,1-2.2,2.2-2.2l299.6,0.3c1.8,0,3.2,1.5,3.2,3.2v272.4c0,0.9-0.8,1.7-1.7,1.7
	l-297.2-0.6c-3.1,0-5.6-2.5-5.6-5.6L-5445.3-1010.3z M-2984.6-964.8l-301.6,0.1v-277.9l302,0l-0.4,232.3L-2984.6-964.8z
	 M-3290.2-964.6l-297.8,0.1c-3.2,0-5.8-2.6-5.8-5.8l0-40l0.1-228.8c0-1.9,1.5-3.4,3.4-3.4l300.1,0V-964.6z M-3599.5-1010.3l0,40
	c0,3.2-2.6,5.8-5.8,5.8l-246.7,0.1l-45.3,0c-3.2,0-5.8-2.6-5.8-5.8v-264.2c0-4.5,3.6-8.1,8.1-8.1l43,0l249,0c1.9,0,3.4,1.5,3.4,3.4
	L-3599.5-1010.3z M-3912.9-964.4l-296.7,0c-1.1,0-1.9-0.9-1.9-1.9v-273.3c0-1.6,1.3-2.9,2.9-2.9l293.4,0.1c4.5,0,8.1,3.6,8.1,8.1
	v264.2C-3907.1-967-3909.7-964.4-3912.9-964.4z M-4215.5-966.3c0,1.1-0.9,1.9-1.9,1.9l-197.3,0l-103.1-0.2c-1.2,0-2.1-0.9-2.1-2.1
	V-1240c0-1.5,1.2-2.8,2.8-2.8l298.7,0.1c1.6,0,2.9,1.3,2.9,2.9V-966.3z M-4526-964.6l-299.8-0.5c-1,0-1.9-0.8-1.9-1.9l0-43.2
	l0.2-226.6c0-3.3,2.7-6,6-6l294.8,0.1c1.5,0,2.8,1.2,2.8,2.8v273.2C-4523.9-965.6-4524.9-964.6-4526-964.6z M-4833-1010.3l0,43.2
	c0,1-0.8,1.9-1.9,1.9l-142.5-0.2l-157.7-0.3c-0.9,0-1.7-0.7-1.7-1.7v-272.4c0-1.8,1.5-3.2,3.2-3.2l156.1,0.2l138.2,0.1
	c3.3,0,6,2.7,6,6L-4833-1010.3z M-4977.4-963.2l142.5-0.2c1,0,1.9,0.8,1.9,1.9l0.2,277.1h-302.7c-0.7,0-1.2-0.5-1.2-1.2v-275.6
	c0-0.9,0.7-1.7,1.7-1.7L-4977.4-963.2z M-4825.8-963.4l299.8-0.5c1.2,0,2.1,0.9,2.1,2.1v274.8c0,1.5-1.2,2.6-2.6,2.6h-301.3
	l0.2-277.1C-4827.7-962.6-4826.8-963.4-4825.8-963.4z M-4519.9-961.9c0-1.2,0.9-2.1,2.1-2.1l103.1-0.2l197.3,0
	c1.1,0,1.9,0.9,1.9,1.9v273.8c0,2.3-1.8,4.1-4.1,4.1h-297.7c-1.5,0-2.6-1.2-2.6-2.6V-961.9z M-4209.6-964.2l296.7,0
	c3.2,0,5.8,2.6,5.8,5.8v270.7c0,1.8-1.5,3.3-3.3,3.3h-297c-2.3,0-4.1-1.8-4.1-4.1v-273.8C-4211.5-963.3-4210.6-964.2-4209.6-964.2z
	 M-3903.1-958.4c0-3.2,2.6-5.8,5.8-5.8l45.3,0l246.7,0.1c3.2,0,5.8,2.6,5.8,5.8l0.1,270.6c0,1.8-1.5,3.3-3.3,3.3h-297.1
	c-1.8,0-3.3-1.5-3.3-3.3V-958.4z M-3588-964.1l297.8,0.1v279.5h-300.4c-1.8,0-3.3-1.5-3.3-3.3l0.1-270.6
	C-3593.8-961.5-3591.2-964.1-3588-964.1z M-3286.2-964l301.6,0.1l-0.1,279.4h-301.5V-964z M-2974.8-684.4l-0.1-279.4l248.5,0.1
	l53.1,0.1v279.2H-2974.8z M-2726.5-964.9l-248.5,0.1l0-45.5l-0.4-232.3l248.8,0l53.1-0.1v277.7L-2726.5-964.9z M-2726.5-1249.7
	l-248.9,0l-0.4-276.5l249.3-0.1l53.1,0v276.7L-2726.5-1249.7z M-2984.2-1249.8l-302,0v-276.4l302.5-0.1L-2984.2-1249.8z
	 M-3290.2-1249.8l-300.1,0c-1.9,0-3.4-1.5-3.4-3.4l0.1-269.8c0-1.7,1.4-3.1,3.1-3.1l300.3-0.1V-1249.8z M-3599.5-1253.2
	c0,1.9-1.5,3.4-3.4,3.4l-249,0l-43,0c-4.5,0-8.1-3.6-8.1-8.1v-265c0-1.7,1.4-3.1,3.1-3.1l48,0l249.2-0.1c1.7,0,3.1,1.4,3.1,3.1
	L-3599.5-1253.2z M-3915.1-1249.9l-293.4,0.1c-1.6,0-2.9-1.3-2.9-2.9v-265.6c0-4.1,3.3-7.4,7.4-7.4l70.7-0.1l223.2-0.1
	c1.7,0,3.1,1.4,3.1,3.1v265C-3907.1-1253.5-3910.7-1249.9-3915.1-1249.9z M-4218.4-1249.8l-298.7,0.1c-1.5,0-2.8-1.2-2.8-2.8v-268.8
	c0-2,1.6-3.7,3.7-3.7l101.6-0.3l140.7-0.5l51.1-0.1c4.1,0,7.5,3.3,7.5,7.4v265.6C-4215.5-1251.1-4216.8-1249.8-4218.4-1249.8z
	 M-4526.7-1249.6l-294.8,0.1c-3.3,0-6-2.7-6-6l0-57.3l0.1-151.3c0-12.6,0-25.2,0.2-37.8c0.1-5.3,0.2-10.5,0.3-15.8
	c0.1-3.7,3.1-6.7,6.8-6.7l124,0l168.5-0.5c2,0,3.7,1.6,3.7,3.7v268.8C-4523.9-1250.9-4525.1-1249.6-4526.7-1249.6z M-4833.6-1501.9
	c0.2,12.6,0.1,25.2,0.2,37.8l0.1,151.3l0,57.3c0,3.3-2.7,6-6,6l-138.2,0.1l-156.1,0.2c-1.8,0-3.2-1.4-3.2-3.2v-270.1
	c0-1.1,0.9-1.9,1.9-1.9l157.4,0.1l136.7,0c3.7,0,6.7,3,6.8,6.7C-4833.8-1512.4-4833.6-1507.2-4833.6-1501.9z M-5144-1249.2
	l-299.7,0.3c-1.2,0-2.2-1-2.2-2.2c-0.2-90.9-0.3-181.8-0.3-272.7c0-0.5,0.4-1,1-1l302.5,0.2c1.1,0,1.9,0.9,1.9,1.9v270.1
	C-5140.8-1250.7-5142.2-1249.3-5144-1249.2z M-5135.6-680.4h302.7l0.2,269.8c0,2.8-2.3,5.1-5.1,5.1l-139.6-0.3l-155.1-0.3
	c-2.4,0-4.3-1.9-4.3-4.3v-268.7C-5136.8-679.9-5136.2-680.4-5135.6-680.4z M-4827.8-680.4h301.3c1.5,0,2.6,1.2,2.6,2.6V-409
	c0,2.4-1.9,4.3-4.3,4.3l-294.7-0.7c-2.8,0-5.1-2.3-5.1-5.1L-4827.8-680.4z M-4517.3-680.4h297.7c2.3,0,4.1,1.8,4.1,4.1v269.7
	c0,1.4-1.1,2.6-2.6,2.6l-196.6-0.4l-101-0.2c-2.4,0-4.3-1.9-4.3-4.3v-268.8C-4519.9-679.2-4518.7-680.4-4517.3-680.4z
	 M-4207.4-680.4h297c1.8,0,3.3,1.5,3.3,3.3v269.9c0,2-1.6,3.6-3.6,3.6l-222.7-0.2l-75.6-0.2c-1.4,0-2.6-1.1-2.6-2.6v-269.7
	C-4211.5-678.6-4209.7-680.4-4207.4-680.4z M-3899.8-680.4h297.1c1.8,0,3.3,1.5,3.3,3.3l0.1,270.6c0,1.5-1.2,2.7-2.7,2.7
	c-83.3,0.2-166.7,0.3-250,0.2l-47.5-0.1c-2,0-3.6-1.6-3.6-3.6v-269.9C-3903.1-678.9-3901.6-680.4-3899.8-680.4z M-3590.6-680.4
	h300.4v275.9l-280.4,0.6c-6.9,0-13.8,0-20.8,0c-1.5,0-2.7-1.2-2.7-2.7l0.1-270.5C-3593.9-678.9-3592.5-680.4-3590.6-680.4z
	 M-3286.2-680.4h301.5l-0.1,275.3c0,0.2,0,0.4,0,0.6l-23,0c-92.8-0.1-185.6-0.2-278.3,0V-680.4z M-2974.8-680.4h301.5v276.2
	l-53.1-0.1l-248.2-0.2c0-0.2,0-0.4,0-0.6L-2974.8-680.4z M-2669.4-1249.7v-276.7l305.9,0.1l0.2,276.9L-2669.4-1249.7z
	 M-2673.4-1529.7l-53.1,0l-249.3-0.1l-0.1-85.6l-0.3-151.3l-0.1-41.3h303V-1529.7z M-2983.3-1766.6l-0.3,151.3l-0.1,85.6l-302.5-0.1
	v-278.1h303L-2983.3-1766.6z M-3290.2-1529.9l-300.3-0.1c-1.7,0-3.1-1.4-3.1-3.1l0-82.3c0-61.4,0-122.8-0.1-184.3
	c0-4.6,3.7-8.3,8.3-8.3h295.2V-1529.9z M-3599.7-1533.1c0,1.7-1.4,3.1-3.1,3.1l-249.2-0.1l-48,0c-1.7,0-3.1-1.4-3.1-3.1v-272.3
	c0-1.4,1.1-2.5,2.5-2.5h292.7c4.6,0,8.3,3.7,8.3,8.3c0,61.4-0.1,122.8-0.1,184.3L-3599.7-1533.1z M-3907.1-1533.1
	c0,1.7-1.4,3.1-3.1,3.1l-223.2-0.1l-70.7-0.1c-4.1,0-7.4-3.3-7.4-7.4v-265.7c0-2.4,2-4.4,4.4-4.4h297.5c1.4,0,2.5,1.1,2.5,2.5
	V-1533.1z M-4215.5-1537.8c0,4.1-3.3,7.4-7.5,7.4l-51.1-0.1l-140.7-0.5l-101.6-0.3c-2,0-3.7-1.6-3.7-3.7V-1806c0-1,0.8-1.9,1.9-1.9
	h298.1c2.4,0,4.4,2,4.4,4.4V-1537.8z M-4523.9-1534.9c0,2-1.6,3.7-3.7,3.7l-168.5-0.5l-123.6,0c-3.8,0-6.8-3.1-6.8-6.9
	c0-0.4,0-0.8,0-1.1c0-25.2-0.6-50.4-1.4-75.6c-0.4-12.6-0.6-25.2-0.8-37.8c-0.2-12.6-0.1-25.2-0.2-37.8l-0.2-75.6l0-40.2
	c0-0.6,0.5-1.1,1.1-1.1h302.1c1,0,1.9,0.8,1.9,1.9V-1534.9z M-4831.7-1766.6l-0.2,75.6c0,12.6,0,25.2-0.2,37.8
	c-0.2,12.6-0.4,25.2-0.8,37.8c-0.7,25.2-1.4,50.4-1.4,75.6c0,0.4,0,0.8,0,1.1c0,3.8-3,6.9-6.8,6.9l-136.4,0l-157.4,0.1
	c-1.1,0-1.9-0.9-1.9-1.9V-1804c0-2.2,1.8-3.9,3.9-3.9h300.1c0.6,0,1.1,0.5,1.1,1.1L-4831.7-1766.6z M-5142.7-1531.6l-302.5,0.2
	c-0.5,0-1-0.4-1-1c0-27.7,0-55.4,0-83.1l0.1-191.9c0-0.4,0.3-0.7,0.7-0.7h300.6c2.2,0,3.9,1.8,3.9,3.9v270.5
	C-5140.8-1532.4-5141.6-1531.6-5142.7-1531.6z M-5448.3-1615.4c0,27.7,0,55.4,0,83.1c0,0.5-0.4,1-1,1l-91,0.1
	c-70.1,0.1-140.1,0.2-210.2,0.3c-1.3,0-2.4-1.1-2.4-2.4l0-82.1l-0.2-190.7c0-1,0.8-1.9,1.9-1.9h301.9c0.4,0,0.7,0.3,0.7,0.7
	L-5448.3-1615.4z M-5540.1-1524.8l91,0.1c0.5,0,1,0.4,1,1c0,90.9-0.1,181.8-0.3,272.7c0,1.2-1,2.2-2.2,2.2l-298.1,0.3
	c-2.1,0-3.9-1.7-3.9-3.9l0-270.4c0-1.3,1.1-2.4,2.4-2.4C-5680.2-1525-5610.2-1524.9-5540.1-1524.8z M-5540.1-962l85.3-0.2
	c3.1,0,5.6,2.5,5.6,5.6l-0.5,248.9l0,21.1c0,1.2-1,2.2-2.2,2.2h-299.6c-0.7,0-1.3-0.6-1.3-1.3l0.1-274.5c0-0.8,0.7-1.5,1.5-1.5
	L-5540.1-962z M-5449.7-678.2l-0.1,269.2c0,1.4-1.1,2.4-2.4,2.4l-87.9-0.1l-140.7,0c-22.3,0-44.6,0-66.9,0c-2.9,0-5.2-2.3-5.2-5.2
	l0.1-267.2c0-0.7,0.6-1.3,1.3-1.3h299.6C-5450.7-680.4-5449.7-679.4-5449.7-678.2z M-5680.8-394.4l140.7,0l87.9-0.1
	c1.4,0,2.4,1.1,2.4,2.4c0,90,0,179.9,0.1,269.9c0,0.8-0.7,1.5-1.5,1.5h-301.2c-0.5,0-0.9-0.4-0.9-0.9l0.3-267.6
	c0-2.9,2.3-5.2,5.2-5.2C-5725.5-394.4-5703.1-394.4-5680.8-394.4z M-5444.6-392.1c0-1.3,1.1-2.4,2.4-2.4l183.4-0.1l113.7-0.2
	c2.4,0,4.3,1.9,4.3,4.3v268.3c0,0.9-0.7,1.6-1.6,1.6h-300.9c-0.8,0-1.5-0.7-1.5-1.5C-5444.6-212.1-5444.6-302.1-5444.6-392.1z
	 M-5136.8-390.6c0-2.4,1.9-4.3,4.3-4.3l155.1-0.3l139.6-0.3c2.8,0,5.1,2.3,5.1,5.1l0.2,266.9c0,1.6-1.3,2.9-2.9,2.9h-299.8
	c-0.9,0-1.6-0.7-1.6-1.6V-390.6z M-4822.9-395.6l294.7-0.7c2.4,0,4.3,1.9,4.3,4.3v267.7c0,2-1.6,3.7-3.7,3.7h-297.7
	c-1.6,0-2.9-1.3-2.9-2.9l0.2-267C-4828-393.3-4825.7-395.6-4822.9-395.6z M-4519.9-392.1c0-2.4,1.9-4.3,4.3-4.3l101-0.2l196.6-0.4
	c1.4,0,2.6,1.1,2.6,2.6v272.1c0,0.9-0.8,1.7-1.7,1.7h-299.1c-2,0-3.7-1.6-3.7-3.7V-392.1z M-4211.5-394.5c0-1.4,1.1-2.6,2.6-2.6
	l75.6-0.2l222.7-0.2c2,0,3.6,1.6,3.6,3.6v269.5c0,2.1-1.7,3.7-3.7,3.7h-299c-0.9,0-1.7-0.8-1.7-1.7V-394.5z M-3903.1-393.9
	c0-2,1.6-3.6,3.6-3.6l47.5-0.1c83.5-0.1,167.1,0.1,250.6,0.2c1.2,0,2.2,1,2.2,2.2l0.3,270.7c0,2.1-1.7,3.7-3.7,3.7h-296.7
	c-2.1,0-3.7-1.7-3.7-3.7V-393.9z M-3594.1-395.1c0-1.2,1-2.2,2.2-2.2c7.1,0,14.2,0,21.3,0l280.4,0.6v275.9h-300.4
	c-2.1,0-3.7-1.7-3.7-3.7L-3594.1-395.1z M-3286.2-396.6c92.8,0.2,185.6,0.1,278.3,0l23,0c0.1,92,0.2,183.9,0.6,275.9h-302V-396.6z
	 M-2974.7-396.6l248.2-0.2l53.1-0.1v276.2h-302C-2974.9-212.6-2974.8-304.6-2974.7-396.6z M-2669.4-396.8l306.1-0.4
	c-0.1,92.2-0.3,184.3-0.6,276.5h-305.6V-396.8z"/>
<line class="st2" x1="-2429.9" y1="5375.5" x2="2071.9" y2="5375.5"/>
<g>
	<line class="st3" x1="-2429.9" y1="5657.4" x2="2071.9" y2="5657.4"/>
	<path class="st3" d="M-2429.9,5655.4c187.6-0.6,375.1-1,562.7-1.2l562.7-0.5l281.4,0l281.4,0.8l140.7,0.5l140.7,0.3l281.4,0.2
		l1125.4,0.3l1125.4-0.3v4l-1125.4-0.3l-1125.4,0.3l-281.4,0.2l-140.7,0.3l-140.7,0.5l-281.4,0.8l-281.4,0l-562.7-0.5
		c-187.6-0.2-375.1-0.6-562.7-1.2V5655.4z"/>
</g>
<g>
	<line class="st3" x1="-2429.9" y1="5939.3" x2="2071.9" y2="5939.3"/>
	<polygon class="st3" points="-2429.9,5937.3 -1304.4,5936 -179,5935.5 946.5,5935.7 1509.2,5936.3 2071.9,5937.3 2071.9,5941.3 
		1509.2,5942.3 946.5,5942.8 -179,5943 -1304.4,5942.5 -2429.9,5941.3 	"/>
</g>
<g>
	<line class="st3" x1="-2429.9" y1="6221.1" x2="2071.9" y2="6221.1"/>
	<path class="st3" d="M-2429.9,6219.1l70.3-0.4l70.3-0.2c46.9-0.1,93.8-0.1,140.7-0.1l281.4,0.4l562.7,1.2l562.7,1l562.7,0.1
		l1125.4-0.5l562.7-0.5l562.7-0.9v4l-562.7-0.9l-562.7-0.5l-1125.4-0.5l-562.7,0.1l-562.7,1l-562.7,1.2l-281.4,0.4
		c-46.9,0-93.8,0-140.7-0.1l-70.3-0.2l-70.3-0.4V6219.1z"/>
</g>
<line class="st2" x1="-2429.9" y1="6503" x2="2071.9" y2="6503"/>
<g>
	<line class="st3" x1="-2429.9" y1="6784.9" x2="2071.9" y2="6784.9"/>
	<path class="st3" d="M-2429.9,6782.9c93.8-2.5,187.6-3.5,281.4-3.9c46.9-0.2,93.8-0.2,140.7-0.2l140.7,0l281.4,0.2l281.4,0.6
		l562.7,1.4l281.4,0.6l281.4,0.3c93.8,0.1,187.6-0.1,281.4-0.3l281.4-0.6c93.8-0.2,187.6-0.1,281.4,0l281.4,0.2l562.7,0.6l562.7,1.1
		v4l-562.7,1.1l-562.7,0.6l-281.4,0.2c-93.8,0.1-187.6,0.2-281.4,0l-281.4-0.6c-93.8-0.2-187.6-0.4-281.4-0.3l-281.4,0.3l-281.4,0.6
		l-562.7,1.4l-281.4,0.6l-281.4,0.2l-140.7,0c-46.9,0-93.8,0-140.7-0.2c-93.8-0.4-187.6-1.4-281.4-3.9V6782.9z"/>
</g>
<line class="st2" x1="-2429.9" y1="7066.7" x2="2071.9" y2="7066.7"/>
<g>
	<line class="st3" x1="-2082.6" y1="4965" x2="-2082.6" y2="7385.4"/>
	<polygon class="st3" points="-2080.6,4965 -2080,5267.5 -2079.7,5570.1 -2079.7,6175.2 -2080,6780.3 -2080.6,7385.4 
		-2084.6,7385.4 -2085.3,6780.3 -2085.5,6175.2 -2085.6,5570.1 -2085.3,5267.5 -2084.6,4965 	"/>
</g>
<g>
	<line class="st3" x1="-1774.2" y1="4965" x2="-1774.2" y2="7385.4"/>
	<path class="st3" d="M-1772.2,4965l-0.7,302.6l-0.2,302.6c-0.2,201.7,0.2,403.4,0.9,605.1l0.6,302.6l0.1,302.6
		c0,201.7-0.2,403.4-0.6,605.1h-4c-0.4-201.7-0.6-403.4-0.6-605.1l0.1-302.6l0.6-302.6c0.6-201.7,1-403.4,0.9-605.1l-0.2-302.6
		l-0.7-302.6H-1772.2z"/>
</g>
<line class="st2" x1="-1465.8" y1="4965" x2="-1465.8" y2="7385.4"/>
<g>
	<line class="st3" x1="-1157.4" y1="4965" x2="-1157.4" y2="7385.4"/>
	<path class="st3" d="M-1155.4,4965l-0.4,75.6l-0.3,75.6l-0.2,151.3l0.1,151.3l0.2,75.6c0,12.6,0,25.2,0.2,37.8
		c0.2,12.6,0.4,25.2,0.8,37.8c0.7,25.2,1.4,50.4,1.4,75.6c-0.1,12.6-0.4,25.2-0.6,37.8c-0.2,12.6-0.1,25.2-0.2,37.8l-0.1,151.3
		l-0.2,302.6l-0.7,1210.2h-4l-0.7-1210.2l-0.2-302.6l-0.1-151.3c0-12.6,0-25.2-0.2-37.8c-0.2-12.6-0.6-25.2-0.6-37.8
		c0-25.2,0.6-50.4,1.4-75.6c0.4-12.6,0.6-25.2,0.8-37.8c0.2-12.6,0.1-25.2,0.2-37.8l0.2-75.6l0.1-151.3l-0.2-151.3l-0.3-75.6
		l-0.4-75.6H-1155.4z"/>
</g>
<line class="st2" x1="-848.9" y1="4965" x2="-848.9" y2="7385.4"/>
<line class="st2" x1="-540.5" y1="4965" x2="-540.5" y2="7385.4"/>
<line class="st2" x1="-232.1" y1="4965" x2="-232.1" y2="7385.4"/>
<g>
	<line class="st3" x1="76.3" y1="4965" x2="76.3" y2="7385.4"/>
	<path class="st3" d="M78.3,4965c0.9,201.7,1,403.4,1.1,605.1l-0.2,605.1l-0.2,605.1l-0.6,605.1h-4l-0.6-605.1l-0.2-605.1
		l-0.2-605.1c0.1-201.7,0.1-403.4,1.1-605.1H78.3z"/>
</g>
<line class="st2" x1="384.8" y1="4965" x2="384.8" y2="7385.4"/>
<g>
	<line class="st3" x1="693.2" y1="4965" x2="693.2" y2="7385.4"/>
	<path class="st3" d="M695.2,4965l1.1,302.6l0.5,151.3l0.3,151.3l1,605.1l0.3,605.1c-0.1,100.9-0.2,201.7-0.7,302.6
		c-0.5,100.9-1.1,201.7-2.4,302.6h-4c-1.3-100.9-1.9-201.7-2.4-302.6c-0.5-100.9-0.6-201.7-0.7-302.6l0.3-605.1l1-605.1l0.3-151.3
		l0.5-151.3l1.1-302.6H695.2z"/>
</g>
<line class="st2" x1="1001.6" y1="4965" x2="1001.6" y2="7385.4"/>
<g>
	<line class="st3" x1="1310" y1="4965" x2="1310" y2="7385.4"/>
	<path class="st3" d="M1312,4965c-0.7,201.7-1.1,403.4-1.4,605.1l-0.5,605.1l-0.1,302.6l0.2,302.6c0.3,201.7,0.7,403.4,1.7,605.1h-4
		c1-201.7,1.4-403.4,1.7-605.1l0.2-302.6l-0.1-302.6l-0.5-605.1c-0.3-201.7-0.7-403.4-1.4-605.1H1312z"/>
</g>
</svg>
