<svg id="Livello_2" data-name="Livello 2" xmlns="http://www.w3.org/2000/svg" viewBox="0 0 2000 2000"><defs><style>.cls-1{fill:#e6e6e6;}.cls-2{fill:#fcc201;}</style></defs><path class="cls-1" d="M1333.83,1538.32v-11.19h.28a192,192,0,0,0,73-14.31l4.28,10.34a203,203,0,0,1-77.31,15.16Z"/><path class="cls-2" d="M1406.87,1513.47l3.9,9.42a202.57,202.57,0,0,1-76.44,14.93v-10.19a192.41,192.41,0,0,0,72.54-14.16m.54-1.3a192,192,0,0,1-73.3,14.46h-.78v12.19h.78a204.27,204.27,0,0,0,78-15.38l-4.67-11.27Z"/><path class="cls-2" d="M1407.41,1512.17l4.67,11.27a204.92,204.92,0,0,0,66.78-44.58l-8.62-8.62A192.82,192.82,0,0,1,1407.41,1512.17Z"/><path class="cls-1" d="M1471,1470.24a192.35,192.35,0,0,0,41.49-62.18l10.34,4.29a203.43,203.43,0,0,1-43.92,65.81Z"/><path class="cls-2" d="M1512.71,1408.72l9.42,3.9a202.92,202.92,0,0,1-43.27,64.83l-7.21-7.21a192.75,192.75,0,0,0,41.06-61.52m-.54-1.31a192.82,192.82,0,0,1-41.93,62.83l8.62,8.62a204.92,204.92,0,0,0,44.58-66.78l-11.27-4.67Z"/><path class="cls-2" d="M1334.11,1141.58a192,192,0,0,1,72.75,14.24l4.67-11.27a204.22,204.22,0,0,0-77.42-15.16h-.78v12.19Z"/><path class="cls-2" d="M1259.48,1511.63l-4.67,11.27a204,204,0,0,0,78.52,15.91v-12.19A191.92,191.92,0,0,1,1259.48,1511.63Z"/><path class="cls-1" d="M1527.12,1332.83a192,192,0,0,0-14.84-73.08l10.35-4.28a202.9,202.9,0,0,1,15.68,77.36Z"/><path class="cls-2" d="M1522.36,1256.12a202.52,202.52,0,0,1,15.45,76.21h-10.2a192.32,192.32,0,0,0-14.67-72.31l9.42-3.9m.54-1.31-11.27,4.67a191.92,191.92,0,0,1,15,73.85h12.19a204,204,0,0,0-15.91-78.52Z"/><path class="cls-2" d="M1526.63,1334.11a192,192,0,0,1-14.46,73.3l11.27,4.67a204.27,204.27,0,0,0,15.38-78c0-.26,0-.52,0-.78h-12.19C1526.62,1333.59,1526.63,1333.85,1526.63,1334.11Z"/><path class="cls-2" d="M1155.82,1406.86l-11.27,4.67a205,205,0,0,0,44,66.55l8.62-8.62A192.86,192.86,0,0,1,1155.82,1406.86Z"/><path class="cls-1" d="M1256,1145.36a202.83,202.83,0,0,1,76.81-15.46v11.2a191.67,191.67,0,0,0-72.53,14.61Z"/><path class="cls-2" d="M1332.33,1130.41v10.19a192.28,192.28,0,0,0-71.76,14.45l-3.9-9.42a202.47,202.47,0,0,1,75.66-15.22m1-1a204.16,204.16,0,0,0-78,15.69l4.67,11.27a192,192,0,0,1,73.3-14.77V1129.4Z"/><path class="cls-2" d="M1511.63,1259.48l11.27-4.67a205.15,205.15,0,0,0-44.82-66.22l-8.62,8.62A192.84,192.84,0,0,1,1511.63,1259.48Z"/><path class="cls-2" d="M1260,1156.36l-4.67-11.27a205.22,205.22,0,0,0-66,44.26L1198,1198A192.86,192.86,0,0,1,1260,1156.36Z"/><path class="cls-1" d="M1469.46,1196.5a192.27,192.27,0,0,0-61.94-41l4.28-10.34a203.4,203.4,0,0,1,65.57,43.38Z"/><path class="cls-2" d="M1412.07,1145.86a202.65,202.65,0,0,1,64.59,42.73l-7.21,7.21a192.65,192.65,0,0,0-61.28-40.52l3.9-9.42m-.54-1.31-4.67,11.27a192.86,192.86,0,0,1,62.6,41.39l8.62-8.62a205,205,0,0,0-66.55-44Z"/><path class="cls-1" d="M1254.54,1522.24a203.31,203.31,0,0,1-65.25-44.16l7.92-7.91a192.23,192.23,0,0,0,61.62,41.73Z"/><path class="cls-2" d="M1197.21,1470.87a192.45,192.45,0,0,0,61,41.29l-3.9,9.42a202.83,202.83,0,0,1-64.28-43.5l7.21-7.21m0-1.41-8.62,8.62a205.15,205.15,0,0,0,66.22,44.82l4.67-11.27a192.84,192.84,0,0,1-62.27-42.17Z"/><path class="cls-1" d="M1145.75,1255.09a203.47,203.47,0,0,1,43.6-65l7.92,7.91a192.3,192.3,0,0,0-41.18,61.41Z"/><path class="cls-2" d="M1189.35,1190.77l7.21,7.2a192.9,192.9,0,0,0-40.74,60.75l-9.42-3.9a203,203,0,0,1,42.95-64m0-1.42a205.22,205.22,0,0,0-44.26,66l11.27,4.67A192.86,192.86,0,0,1,1198,1198l-8.62-8.62Z"/><path class="cls-1" d="M1144.83,1410.87a203.08,203.08,0,0,1-14.94-76.76v-.28h11.2v.28a191.89,191.89,0,0,0,14.09,72.48Z"/><path class="cls-2" d="M1140.58,1334.33a192.53,192.53,0,0,0,13.94,72l-9.42,3.9a202.68,202.68,0,0,1-14.71-75.89h10.19m1-1H1129.4c0,.26,0,.52,0,.78a204.22,204.22,0,0,0,15.16,77.42l11.27-4.67a192,192,0,0,1-14.24-72.75c0-.26,0-.52,0-.78Z"/><path class="cls-2" d="M1156.36,1260l-11.27-4.67a204.16,204.16,0,0,0-15.69,78h12.19A192,192,0,0,1,1156.36,1260Z"/><polygon class="cls-2" points="1509.98 1156.68 1333.33 1333.33 1333.33 1235.51 1509.98 1156.68"/><polygon class="cls-1" points="1334.54 1332.83 1508.42 1158.95 1430.83 1332.83 1334.54 1332.83"/><path class="cls-2" d="M1506.86,1161.22l-76.35,171.11h-94.76l171.11-171.11m3.12-4.54-176.65,176.65h97.83L1510,1156.68Z"/><polygon class="cls-2" points="1156.68 1156.68 1333.33 1333.33 1235.51 1333.33 1156.68 1156.68"/><polygon class="cls-1" points="1158.95 1158.24 1332.83 1235.84 1332.83 1332.13 1158.95 1158.24"/><path class="cls-2" d="M1161.22,1159.8l171.11,76.36v94.76L1161.22,1159.8m-4.54-3.12,176.65,176.65v-97.82l-176.65-78.83Z"/><polygon class="cls-2" points="1156.68 1509.98 1333.33 1333.33 1333.33 1431.15 1156.68 1509.98"/><polygon class="cls-1" points="1235.84 1333.83 1332.13 1333.83 1158.24 1507.72 1235.84 1333.83"/><path class="cls-2" d="M1330.92,1334.33,1159.8,1505.45l76.36-171.12h94.76m2.41-1h-97.82L1156.68,1510l176.65-176.65Z"/><polygon class="cls-2" points="1509.98 1509.98 1333.33 1333.33 1431.15 1333.33 1509.98 1509.98"/><polygon class="cls-1" points="1333.83 1430.83 1333.83 1334.54 1507.72 1508.42 1333.83 1430.83"/><path class="cls-2" d="M1334.33,1335.75l171.12,171.11-171.12-76.35v-94.76m-1-2.42v97.83L1510,1510l-176.65-176.65Z"/><polygon class="cls-2" points="1333.33 1035.37 1333.33 1333.33 1250.83 1250.83 1333.33 1035.37"/><polygon class="cls-1" points="1333.83 1038.07 1415.25 1250.71 1333.83 1332.13 1333.83 1038.07"/><path class="cls-2" d="M1334.33,1040.78l80.34,209.8-80.34,80.34V1040.78m-1-5.41v298l82.5-82.5-82.5-215.46Z"/><polygon class="cls-2" points="1035.37 1333.33 1333.33 1333.33 1250.83 1415.84 1035.37 1333.33"/><polygon class="cls-1" points="1038.07 1332.83 1250.71 1251.41 1332.13 1332.83 1038.07 1332.83"/><path class="cls-2" d="M1250.58,1252l80.34,80.33H1040.78l209.8-80.33m.25-1.17-215.46,82.5h298l-82.5-82.5Z"/><polygon class="cls-2" points="1333.33 1631.3 1333.33 1333.33 1415.84 1415.84 1333.33 1631.3"/><polygon class="cls-1" points="1251.41 1415.96 1332.83 1334.54 1332.83 1628.59 1251.41 1415.96"/><path class="cls-2" d="M1332.33,1335.75v290.14L1252,1416.08l80.33-80.33m1-2.42-82.5,82.5,82.5,215.47v-298Z"/><polygon class="cls-2" points="1631.3 1333.33 1333.33 1333.33 1415.84 1250.83 1631.3 1333.33"/><polygon class="cls-1" points="1334.54 1333.83 1628.59 1333.83 1415.96 1415.25 1334.54 1333.83"/><path class="cls-2" d="M1625.89,1334.33l-209.81,80.34-80.33-80.34h290.14m5.41-1h-298l82.5,82.5,215.47-82.5Z"/><path class="cls-2" d="M1307.2,1739.85a1.22,1.22,0,0,1-.86-1.17,3.91,3.91,0,0,1,.66-1.81,12.83,12.83,0,0,1,1.79-2.17c.76-.76,1.6-1.54,2.51-2.32.75-.62,1.61-1.28,2.59-2s1.88-1.39,3.1-2.22,2.61-1.73,4.17-2.71a9.26,9.26,0,0,0-1.85,2.2,3.76,3.76,0,0,0-.54,1.8,2.61,2.61,0,0,0,.88,2,7.49,7.49,0,0,0,2.25,1.39,17.41,17.41,0,0,0,3,.9q1.68.35,3.27.51c1.06.12,2,.19,2.9.22s1.54,0,2,0a27.47,27.47,0,0,0,5.22-.51,15.35,15.35,0,0,0,4.74-1.71,10,10,0,0,0,3.42-3.17,8.67,8.67,0,0,0,1.32-4.91,8.94,8.94,0,0,0-1.86-5.69,16.78,16.78,0,0,0-4.88-4.12,38.45,38.45,0,0,0-6.86-3.08q-3.84-1.32-7.77-2.52c-2.62-.79-5.16-1.6-7.61-2.41a35.46,35.46,0,0,1-6.43-2.79,13.86,13.86,0,0,1-5.2-5,12.32,12.32,0,0,1-1.58-6,15.08,15.08,0,0,1,2.17-7.79,29.86,29.86,0,0,1,5.66-6.86,44.59,44.59,0,0,1,7.94-5.71,71.12,71.12,0,0,1,9-4.35,61.08,61.08,0,0,1,8.79-2.78,33.65,33.65,0,0,1,7.38-1,28.07,28.07,0,0,1,7.12.81,22.73,22.73,0,0,1,5.13,1.93,10.4,10.4,0,0,1,3,2.32c.67.79,1,1.44.86,1.92a4,4,0,0,1-.91,1.93,12.5,12.5,0,0,1-2.41,2.27,46.1,46.1,0,0,1-4.06,2.69q-2.43,1.47-5.9,3.22a3.21,3.21,0,0,0,1.27-2.54,3.16,3.16,0,0,0-1.4-2.1,12.14,12.14,0,0,0-3.27-1.63,32,32,0,0,0-4.29-1.17c-1.52-.31-3-.55-4.57-.71a37.06,37.06,0,0,0-4.05-.25,27.68,27.68,0,0,0-5.93.64,18,18,0,0,0-5.33,2,11.46,11.46,0,0,0-3.85,3.67,9.72,9.72,0,0,0-1.49,5.49,10.9,10.9,0,0,0,.78,3.93,11.65,11.65,0,0,0,2.66,3.93,20.63,20.63,0,0,0,5,3.59,37.06,37.06,0,0,0,7.91,2.91,99,99,0,0,1,12.19,3.93,34.52,34.52,0,0,1,8,4.34,11.87,11.87,0,0,1,5.06,11.26,15.18,15.18,0,0,1-2.39,7.2,24.22,24.22,0,0,1-5.35,5.81,37.7,37.7,0,0,1-7.28,4.47,57.68,57.68,0,0,1-8.2,3.15,61.27,61.27,0,0,1-8.13,1.85,46.3,46.3,0,0,1-7,.61c-1.56,0-3-.06-4.42-.19s-2.62-.28-3.71-.44a24.59,24.59,0,0,1-2.76-.56C1308.06,1740.15,1307.53,1740,1307.2,1739.85Z"/><path class="cls-2" d="M928.79,1279.3a35.5,35.5,0,0,1,5.28.47,42.92,42.92,0,0,1,6.74,1.68,67,67,0,0,1,8,3.27,78,78,0,0,1,9.09,5.18c2.28,1.5,4.56,3.09,6.86,4.78s4.64,3.37,7,5,4.89,3.26,7.45,4.79a58.33,58.33,0,0,0,8,4l10.11,9.82-1.56-.18c-.53,0-1.05-.07-1.57-.07a31.28,31.28,0,0,0-5.66.51c-1.86.35-3.53.71-5,1.1q-2.64.73-5,1.61-3.12,1.28-6.71,3.08l-7.47,3.76q-3.88,1.95-7.94,3.86t-8,3.42q2.25,1.26,4.2,2.51t3.42,2.22c1.14.78,2.21,1.53,3.22,2.25a102.27,102.27,0,0,0,10.5,6.54c1.47.78,3,1.54,4.61,2.27a48.16,48.16,0,0,0,4.81,1.88,31.69,31.69,0,0,0,4.69,1.15,13.87,13.87,0,0,0,4.25.07l9.23,9.57a90.16,90.16,0,0,0-9.72.86q-5.07.7-10.33,1.83t-10.49,2.56q-5.25,1.44-10.31,3.05t-9.69,3.3q-4.64,1.68-8.69,3.25a21.6,21.6,0,0,0-4.44,2.53,21,21,0,0,0-1.64,1.4,9.16,9.16,0,0,0-1.42,1.68,10.56,10.56,0,0,0-1,2,6.17,6.17,0,0,0-.39,2.2,8.43,8.43,0,0,0,.49,2.69,9,9,0,0,0,1.71,2.83l-3.32-3.54q-1.9-2-3.61-4.25a29.76,29.76,0,0,1-2.88-4.49,9.36,9.36,0,0,1-1.18-4.32,7.37,7.37,0,0,1,.71-3.1,8.28,8.28,0,0,1,2.37-2.91,25,25,0,0,1,3.86-2.22c1.82-.89,4-1.86,6.61-2.91s5.49-2.11,8.7-3.22,6.55-2.16,10-3.17,7-1.93,10.67-2.76,7.15-1.51,10.57-2q-4.83-2.62-9.16-5.08t-8.32-4.61c-2.67-1.45-5.28-2.81-7.84-4.1s-5.12-2.48-7.69-3.59c-1.2.26-2.36.46-3.46.59a28.91,28.91,0,0,1-3.37.19,18.67,18.67,0,0,1-5.77-.88l-9.81-12.2a30.92,30.92,0,0,0,4.81,1,32.76,32.76,0,0,0,4.17.29,26.15,26.15,0,0,0,7.38-1.19,81.05,81.05,0,0,0,8.52-3.08q4.47-1.87,9.18-4.1T962,1314q4.66-2.07,9.06-3.68a45.19,45.19,0,0,1,8.2-2.25l-3.66-2.27c-1.17-.73-2.23-1.38-3.17-1.93s-2.1-1.28-3.08-1.9c-2.64-1.57-5.37-3.06-8.2-4.5s-5.64-2.71-8.42-3.83a64.72,64.72,0,0,0-8-2.68,28,28,0,0,0-7-1,11.61,11.61,0,0,0-2.95.39,10,10,0,0,0-2.71,1.14,6.19,6.19,0,0,0-2,1.93,5,5,0,0,0-.76,2.74,6.19,6.19,0,0,0,.32,1.83,8.88,8.88,0,0,0,1,2.07c-1-1-2-2.13-3.15-3.27a41.61,41.61,0,0,1-3.12-3.56,22.37,22.37,0,0,1-2.4-3.81,9.19,9.19,0,0,1-.95-4,5.67,5.67,0,0,1,.69-2.93,5.36,5.36,0,0,1,1.78-1.88,7.25,7.25,0,0,1,2.49-1A14.2,14.2,0,0,1,928.79,1279.3Z"/><path class="cls-2" d="M1376.17,929.41a2.52,2.52,0,0,0-1.05.93,5.25,5.25,0,0,0-.57,1.17,10.63,10.63,0,0,0-.29,1.47c0,.35-.07,1.2-.12,2.54s-.12,3-.2,5.05-.16,4.31-.24,6.83-.17,5.14-.27,7.84-.19,5.41-.27,8.11-.16,5.24-.24,7.61-.15,4.5-.2,6.38-.09,3.33-.12,4.37c-.06,2.08-.16,3.78-.29,5.1a21.43,21.43,0,0,1-.54,3.29,10.42,10.42,0,0,1-.83,2.25c-.33.62-.68,1.27-1.07,1.95s-.74,1.49-1.32,2.59-1.23,2.21-2.13,3.79-2,3.55-3.44,5.93a19.08,19.08,0,0,0-2.32-4.49c-1.06-1.57-2.14-3-3.24-4.4-1.31-1.56-2.69-3.11-4.16-4.64q-2.58-2.58-8-8l-5.52-5.39-7.37-7.2-9.48-9.28-11.76-11.57c-.07,4-.12,7.55-.17,10.74s-.09,6.05-.13,8.57-.06,4.72-.09,6.59,0,3.49,0,4.86c0,3.19-.05,5.47-.05,6.83a10,10,0,0,0,.29,2.86,6.36,6.36,0,0,0,1.08,2.25,5,5,0,0,0,1.9,1.49,6.71,6.71,0,0,0,2.83.53,15,15,0,0,0,3.81-.56,28.86,28.86,0,0,0,4.88-1.83c-1.59,1.56-3.1,2.91-4.51,4a47.7,47.7,0,0,1-4,2.93,33.49,33.49,0,0,1-3.46,2,26.76,26.76,0,0,1-2.86,1.22,12.87,12.87,0,0,1-5.27.88,3.3,3.3,0,0,1-2.42-1.47,6.82,6.82,0,0,1-.56-3.12q0-15.39.54-30.52t.53-30.18V936a16.19,16.19,0,0,0-.1-2.19,9.54,9.54,0,0,1,1.62-2.88,29,29,0,0,1,2.95-3.37,47.72,47.72,0,0,1,5.25-4.45,10,10,0,0,0-.54,2,12.28,12.28,0,0,0-.14,1.86,10.58,10.58,0,0,0,.26,2.51,8.91,8.91,0,0,0,.66,1.88,11.6,11.6,0,0,0,1,1.62c1.11,1.36,2.54,3,4.3,4.78s3.8,3.88,6.12,6.18l7.7,7.59q4.18,4.15,9,9.08,3.42,3.23,7.23,7,3.27,3.21,7.42,7.54t8.54,9.25q.11-9,.15-15.53t0-11.37q0-4.44,0-7.35c0-1.94,0-3.49-.07-4.66,0-1.34-.07-2.4-.1-3.18a6.92,6.92,0,0,0-.49-2.78,4.34,4.34,0,0,0-3-2.66,7.41,7.41,0,0,0-2-.27,9.45,9.45,0,0,0-2.15.24,4.61,4.61,0,0,0-1.56.64q2.05-1.76,4-3.3a31.92,31.92,0,0,1,4.08-2.66,21.73,21.73,0,0,1,4.35-1.78,17.3,17.3,0,0,1,4.86-.66A16.61,16.61,0,0,1,1376.17,929.41Z"/><path class="cls-2" d="M1060.09,1081.8a1.43,1.43,0,0,0,0,.84,3.13,3.13,0,0,0,.25.73,6.51,6.51,0,0,0,.5.75c.14.16.48.54,1,1.13l2.06,2.22,2.79,3q1.56,1.65,3.22,3.44t3.32,3.55c1.11,1.18,2.16,2.29,3.13,3.34s1.85,2,2.62,2.78l1.8,1.91c.86.91,1.54,1.67,2,2.29a11.74,11.74,0,0,1,1.17,1.62,5.94,5.94,0,0,1,.6,1.31c.13.4.25.83.38,1.28s.31.94.54,1.66.41,1.46.7,2.51.64,2.37,1.06,4a11.83,11.83,0,0,0-2.89-.92c-1.12-.21-2.2-.37-3.25-.48-1.21-.12-2.45-.18-3.72-.21-1.47,0-3.73,0-6.8,0l-4.63,0-6.18.07-8,.09-9.9.08,4.48,4.63,3.59,3.69,2.75,2.84c.78.8,1.46,1.5,2,2.08l2.88,2.92a6.29,6.29,0,0,0,1.34,1.09,3.83,3.83,0,0,0,1.41.49,2.89,2.89,0,0,0,1.44-.17,4.12,4.12,0,0,0,1.43-1,9.07,9.07,0,0,0,1.38-1.85,18.49,18.49,0,0,0,1.29-2.85,35.79,35.79,0,0,1-.2,3.64,29.6,29.6,0,0,1-.45,2.94,23.78,23.78,0,0,1-.62,2.32,15.07,15.07,0,0,1-.7,1.73,7.62,7.62,0,0,1-1.86,2.61,2,2,0,0,1-1.65.4,4.11,4.11,0,0,1-1.56-1.09q-6.53-6.52-12.72-13.17t-12.58-13l-1.61-1.62a12.87,12.87,0,0,0-1-.89,5.76,5.76,0,0,1-.54-1.9,17.66,17.66,0,0,1-.17-2.69,27.56,27.56,0,0,1,.34-4.11,6.22,6.22,0,0,0,.62,1.08,7.87,7.87,0,0,0,.73.85,6.07,6.07,0,0,0,1.18,1,5,5,0,0,0,1.07.52,8,8,0,0,0,1.1.27c1.05.11,2.34.18,3.86.21s3.25,0,5.22,0l6.48,0c2.36,0,4.92,0,7.66,0,1.88-.06,3.89-.09,6-.11q2.76,0,6.35,0t7.55.3l-6.52-6.65c-1.84-1.86-3.44-3.48-4.81-4.84s-2.3-2.3-3.13-3.11-1.49-1.46-2-2-1-1-1.38-1.3a4.29,4.29,0,0,0-1.39-1,2.74,2.74,0,0,0-1.28-.21,2.63,2.63,0,0,0-1.11.35,4.53,4.53,0,0,0-.95.71,5.88,5.88,0,0,0-.8,1,2.52,2.52,0,0,0-.4.93c.08-1.08.19-2.12.32-3.12a18.33,18.33,0,0,1,.6-2.86,13.76,13.76,0,0,1,1.09-2.6,10.74,10.74,0,0,1,1.78-2.34A10.17,10.17,0,0,1,1060.09,1081.8Z"/><path class="cls-2" d="M1115.07,1034.44a22.7,22.7,0,0,1,2,2.44,24.72,24.72,0,0,1,2.14,3.57,39.12,39.12,0,0,1,2,4.78,47.2,47.2,0,0,1,1.66,6c.33,1.61.62,3.25.88,4.94s.54,3.41.86,5.13.69,3.46,1.13,5.19a34.06,34.06,0,0,0,1.71,5.11l.12,8.45c-.19-.25-.39-.49-.59-.74s-.41-.47-.63-.69a20.14,20.14,0,0,0-2.62-2.19c-.93-.64-1.8-1.19-2.6-1.66-1-.54-1.89-1-2.8-1.43-1.24-.53-2.63-1-4.15-1.55l-4.77-1.57c-1.65-.55-3.31-1.12-5-1.73s-3.3-1.26-4.85-2q.42,1.5.72,2.85c.2.91.37,1.7.51,2.39s.29,1.59.41,2.32a60,60,0,0,0,1.68,7.23c.29,1,.62,1.93,1,2.93a28.1,28.1,0,0,0,1.25,2.83,17.18,17.18,0,0,0,1.5,2.48,8.14,8.14,0,0,0,1.77,1.83l-.15,8a52.54,52.54,0,0,0-4.48-3.76q-2.46-1.86-5.16-3.61c-1.8-1.16-3.65-2.29-5.54-3.36s-3.78-2.11-5.67-3.08-3.72-1.88-5.51-2.71-3.47-1.61-5.06-2.31a13.18,13.18,0,0,0-3-.81,10.54,10.54,0,0,0-1.28-.1,5.36,5.36,0,0,0-1.32.11,6.07,6.07,0,0,0-1.25.4,3.85,3.85,0,0,0-1.1.77,4.88,4.88,0,0,0-.93,1.35,5.21,5.21,0,0,0-.47,1.92q0-1.24.09-2.91a31.13,31.13,0,0,1,.27-3.33,17.49,17.49,0,0,1,.68-3.13,5.68,5.68,0,0,1,1.34-2.33,4.52,4.52,0,0,1,1.61-1,5,5,0,0,1,2.24-.22,14.47,14.47,0,0,1,2.58.69c1.15.39,2.5.92,4,1.57s3.22,1.43,5,2.32,3.7,1.87,5.61,2.91,3.8,2.17,5.69,3.36,3.68,2.4,5.35,3.63q-.93-3.18-1.73-6c-.53-1.92-1.06-3.75-1.57-5.49s-1-3.44-1.59-5.07-1.12-3.22-1.74-4.78c-.62-.4-1.19-.81-1.72-1.23a17.23,17.23,0,0,1-1.51-1.34,11.13,11.13,0,0,1-2.07-2.82l1-9.34a17.55,17.55,0,0,0,1.61,2.47,21.08,21.08,0,0,0,1.64,1.9,16,16,0,0,0,3.64,2.62A48.22,48.22,0,0,0,1103,1059c1.8.73,3.67,1.45,5.63,2.15s3.9,1.43,5.81,2.16,3.7,1.49,5.4,2.28a27.76,27.76,0,0,1,4.44,2.52c-.21-.87-.41-1.7-.59-2.51s-.37-1.53-.53-2.17-.35-1.43-.5-2.11q-.69-2.67-1.57-5.39t-1.95-5.2a40,40,0,0,0-2.27-4.54,16.84,16.84,0,0,0-2.56-3.41,6.69,6.69,0,0,0-1.42-1.09,5.94,5.94,0,0,0-1.63-.66,3.72,3.72,0,0,0-1.66,0,2.89,2.89,0,0,0-1.48.84,3.67,3.67,0,0,0-.65.91,5.5,5.5,0,0,0-.45,1.3c0-.85,0-1.76,0-2.72a24.18,24.18,0,0,1,.19-2.84,12.16,12.16,0,0,1,.6-2.63,5.45,5.45,0,0,1,1.31-2.12,3.46,3.46,0,0,1,1.54-1,3.39,3.39,0,0,1,1.55,0,4.44,4.44,0,0,1,1.48.63A8.64,8.64,0,0,1,1115.07,1034.44Z"/><path class="cls-2" d="M1601.42,1066.18a1.62,1.62,0,0,0-.84,0,3.23,3.23,0,0,0-.74.26,5.66,5.66,0,0,0-.74.5c-.17.14-.55.48-1.13,1l-2.23,2.07c-.9.82-1.9,1.76-3,2.79l-3.44,3.21-3.56,3.33-3.33,3.13-2.79,2.62-1.9,1.8c-.91.85-1.68,1.54-2.29,2a14.59,14.59,0,0,1-1.63,1.17,5.89,5.89,0,0,1-1.3.6c-.4.12-.83.25-1.29.37s-.94.32-1.66.54l-2.5.71c-1,.29-2.38.64-4,1a11.29,11.29,0,0,0,.92-2.89c.22-1.11.38-2.19.49-3.24.11-1.21.18-2.46.21-3.73,0-1.46,0-3.73,0-6.79,0-1.31,0-2.86-.05-4.63s0-3.84-.07-6.19,0-5-.08-7.95-.06-6.26-.09-9.9l-4.63,4.48-3.68,3.59-2.84,2.75c-.81.78-1.5,1.46-2.08,2-1.37,1.34-2.34,2.3-2.92,2.88a5.78,5.78,0,0,0-1.09,1.34,3.68,3.68,0,0,0-.5,1.41,3,3,0,0,0,.18,1.43,4,4,0,0,0,1,1.43,9.16,9.16,0,0,0,1.86,1.38,17.86,17.86,0,0,0,2.84,1.3c-1.34,0-2.55-.08-3.63-.2a28.55,28.55,0,0,1-2.94-.46,18.7,18.7,0,0,1-2.32-.62,16.36,16.36,0,0,1-1.73-.69,7.63,7.63,0,0,1-2.61-1.87,2,2,0,0,1-.41-1.64,4.18,4.18,0,0,1,1.09-1.57q6.52-6.52,13.18-12.72t13-12.57l1.61-1.62a8.76,8.76,0,0,0,.89-1,5.83,5.83,0,0,1,1.91-.54,18.69,18.69,0,0,1,2.68-.18,29.07,29.07,0,0,1,4.11.35,5.27,5.27,0,0,0-1.07.62,6.84,6.84,0,0,0-.85.72,6.92,6.92,0,0,0-1,1.18,5.81,5.81,0,0,0-.78,2.18c-.11,1-.18,2.33-.21,3.85s0,3.26,0,5.22,0,4.13,0,6.49,0,4.91,0,7.66c0,1.88.09,3.89.1,6,0,1.84,0,4,0,6.35s-.15,4.91-.3,7.55l6.65-6.52q2.79-2.76,4.85-4.81c1.25-1.26,2.29-2.3,3.1-3.13s1.47-1.5,2-2,1-1,1.31-1.39a4.22,4.22,0,0,0,1-1.38,2.91,2.91,0,0,0,.22-1.28,2.82,2.82,0,0,0-.35-1.12,4.43,4.43,0,0,0-.72-.94,5.44,5.44,0,0,0-1-.81,2.61,2.61,0,0,0-.94-.39c1.08.08,2.12.19,3.12.32a18.09,18.09,0,0,1,2.86.6,12.89,12.89,0,0,1,2.6,1.09,10.22,10.22,0,0,1,2.34,1.78A10.77,10.77,0,0,1,1601.42,1066.18Z"/><path class="cls-2" d="M1626.19,1101.82c.6.07,1,0,1.2-.29a1.6,1.6,0,0,0,.34-.92,4.11,4.11,0,0,0-.25-1.4,12.29,12.29,0,0,0-1.89-3.26,35.64,35.64,0,0,0-3.13-3.54,33.26,33.26,0,0,0-5.19-4.28,14.83,14.83,0,0,0-5.62-2.29,13.1,13.1,0,0,0-6.18.49,20.17,20.17,0,0,0-6.85,4c.83.88,1.66,1.74,2.5,2.58l2.47,2.47c1,1,2.1,2.06,3.36,3.22s2.55,2.34,3.87,3.54l3.92,3.52,3.47,3.12c1,.93,1.87,1.72,2.52,2.38a6.68,6.68,0,0,1,1.11,1.27c.08.25,0,.42-.31.5a3.42,3.42,0,0,1-1.24,0,15.1,15.1,0,0,1-1.88-.32c-.71-.16-1.43-.35-2.17-.58s-1.46-.48-2.17-.76a18.41,18.41,0,0,1-1.84-.82c.86-.22,1.3-.55,1.33-1s-.41-1.09-1.31-2c-.4-.4-.77-.76-1.12-1.07s-.75-.68-1.21-1.07l-1.72-1.47-2.65-2.28q-1.63-1.4-4-3.48t-5.79-5.11a21,21,0,0,0-4.53,6.87,14.92,14.92,0,0,0-.94,6.76,18.35,18.35,0,0,0,2.09,6.72,37.61,37.61,0,0,0,4.6,6.69,26,26,0,0,0,3.69,3.35c.57.43,1.18.86,1.85,1.28a19.63,19.63,0,0,0,2.13,1.15,17.1,17.1,0,0,0,2.34.87,11.68,11.68,0,0,0,2.5.43,41.09,41.09,0,0,1-5.57-.83,35.8,35.8,0,0,1-5.28-1.59,29,29,0,0,1-4.8-2.39,23.21,23.21,0,0,1-4-3.2,31.74,31.74,0,0,1-3.06-3.59,25.06,25.06,0,0,1-2.59-4.33,22,22,0,0,1-1.64-4.87,14.75,14.75,0,0,1-.16-5.18,15.79,15.79,0,0,1,1.79-5.29,19.17,19.17,0,0,1,4.21-5.17,25.11,25.11,0,0,1,6.87-4.52,25.75,25.75,0,0,1,7.4-2,28,28,0,0,1,7.54.12,33.79,33.79,0,0,1,7.33,2,36.58,36.58,0,0,1,6.77,3.52,37.36,37.36,0,0,1,5.86,4.76,28.34,28.34,0,0,1,2,2.23c.58.72,1.08,1.39,1.5,2a16.13,16.13,0,0,1,1,1.66,10,10,0,0,1,.55,1.19c.35.9.33,1.53,0,1.91a1.52,1.52,0,0,1-1,.36,7.33,7.33,0,0,1-1.62-.13,16.3,16.3,0,0,1-1.88-.44c-.64-.19-1.26-.39-1.85-.59s-1.11-.39-1.56-.57S1626.4,1101.88,1626.19,1101.82Z"/><path class="cls-2" d="M1591.7,1567.33a.72.72,0,0,1-.86-.13,2.34,2.34,0,0,1-.49-1,7.45,7.45,0,0,1-.16-1.67c0-.65,0-1.34.08-2.06s.14-1.22.25-1.94.21-1.39.37-2.26.37-1.84.62-2.92a5.64,5.64,0,0,0,.15,1.72,2.13,2.13,0,0,0,.54,1,1.55,1.55,0,0,0,1.2.46,4.63,4.63,0,0,0,1.54-.36,10,10,0,0,0,1.68-.92c.57-.38,1.11-.77,1.61-1.17s.93-.78,1.32-1.14.67-.62.85-.8a17,17,0,0,0,2-2.44,9.13,9.13,0,0,0,1.28-2.73,6,6,0,0,0,.11-2.8,5.24,5.24,0,0,0-1.53-2.64,5.35,5.35,0,0,0-3.2-1.63,10.4,10.4,0,0,0-3.82.32,23.28,23.28,0,0,0-4.21,1.61q-2.19,1.07-4.36,2.23c-1.45.77-2.87,1.51-4.26,2.2a21,21,0,0,1-3.91,1.55,8.3,8.3,0,0,1-4.33.08,7.38,7.38,0,0,1-3.23-1.89,9,9,0,0,1-2.38-4.22,17.74,17.74,0,0,1-.51-5.32,27.49,27.49,0,0,1,.94-5.79,43.22,43.22,0,0,1,2-5.65,37.57,37.57,0,0,1,2.55-4.91,20.3,20.3,0,0,1,2.71-3.54,17.24,17.24,0,0,1,3.37-2.69,13.76,13.76,0,0,1,3-1.35,6.3,6.3,0,0,1,2.28-.31c.62,0,1,.2,1.18.45a2.36,2.36,0,0,1,.44,1.2,7.64,7.64,0,0,1-.06,2,29,29,0,0,1-.58,2.86c-.28,1.11-.66,2.4-1.14,3.88a1.93,1.93,0,0,0-.54-1.62,1.88,1.88,0,0,0-1.48-.3,7.32,7.32,0,0,0-2.08.69,20.26,20.26,0,0,0-2.32,1.33c-.78.51-1.52,1.06-2.24,1.64a21.2,21.2,0,0,0-1.82,1.61,16,16,0,0,0-2.25,2.79,10.56,10.56,0,0,0-1.4,3.12,6.88,6.88,0,0,0-.08,3.19,5.81,5.81,0,0,0,1.7,3,6.36,6.36,0,0,0,2,1.33,6.76,6.76,0,0,0,2.8.54,12.4,12.4,0,0,0,3.67-.62,22.17,22.17,0,0,0,4.59-2.12,59.69,59.69,0,0,1,6.83-3.5,21,21,0,0,1,5.22-1.54,7.15,7.15,0,0,1,6.92,2.63,9,9,0,0,1,2,4.08,14.32,14.32,0,0,1,.2,4.73,22.5,22.5,0,0,1-1.19,5,36.26,36.26,0,0,1-4.81,9,26.86,26.86,0,0,1-2.72,3.25c-.66.66-1.32,1.26-2,1.79s-1.23,1-1.76,1.39a14,14,0,0,1-1.41.93A9.8,9.8,0,0,1,1591.7,1567.33Z"/><path class="cls-2" d="M1557.68,1592.77a1.29,1.29,0,0,0,.29,1.21,1.66,1.66,0,0,0,.92.33,4.11,4.11,0,0,0,1.4-.25,12.45,12.45,0,0,0,3.26-1.89,35.64,35.64,0,0,0,3.54-3.13,33.67,33.67,0,0,0,4.28-5.18,14.94,14.94,0,0,0,2.29-5.63,13.1,13.1,0,0,0-.49-6.18,20.26,20.26,0,0,0-4-6.85c-.88.83-1.74,1.66-2.58,2.5l-2.47,2.47q-1.48,1.47-3.22,3.36l-3.54,3.87-3.52,3.92-3.12,3.47c-.93,1-1.72,1.87-2.38,2.53a6.86,6.86,0,0,1-1.27,1.1c-.25.09-.42,0-.5-.31a3.42,3.42,0,0,1,0-1.24,15.42,15.42,0,0,1,.32-1.88c.16-.71.35-1.43.58-2.17s.48-1.46.75-2.17.56-1.31.83-1.84c.22.86.55,1.3,1,1.33s1.09-.41,2-1.31c.4-.4.75-.77,1.07-1.12s.68-.75,1.07-1.21l1.47-1.72,2.28-2.65,3.48-4q2.09-2.38,5.11-5.79a21,21,0,0,0-6.87-4.53,15.08,15.08,0,0,0-6.77-.94,18.36,18.36,0,0,0-6.71,2.09,37.61,37.61,0,0,0-6.69,4.6,27.11,27.11,0,0,0-3.35,3.69c-.43.57-.86,1.19-1.28,1.86a18.58,18.58,0,0,0-1.15,2.12,17.1,17.1,0,0,0-.87,2.34,11.67,11.67,0,0,0-.43,2.51,39.71,39.71,0,0,1,.83-5.58,35.8,35.8,0,0,1,1.59-5.28,28.54,28.54,0,0,1,2.39-4.79,22.84,22.84,0,0,1,3.2-4.05,31.79,31.79,0,0,1,3.59-3.07,25.7,25.7,0,0,1,4.33-2.59,22,22,0,0,1,4.87-1.64,14.7,14.7,0,0,1,5.17-.16,16,16,0,0,1,5.3,1.79,19.32,19.32,0,0,1,5.17,4.21,25.11,25.11,0,0,1,4.52,6.87,25.84,25.84,0,0,1,2,7.4,28,28,0,0,1-.12,7.54,33.79,33.79,0,0,1-2,7.33,37,37,0,0,1-3.52,6.78,37.74,37.74,0,0,1-4.76,5.85,28.34,28.34,0,0,1-2.23,2c-.72.58-1.39,1.08-2,1.5a18.45,18.45,0,0,1-1.66,1,11.43,11.43,0,0,1-1.19.54c-.9.35-1.53.34-1.91,0a1.52,1.52,0,0,1-.36-1,7.33,7.33,0,0,1,.13-1.62,16.16,16.16,0,0,1,.44-1.87c.19-.65.39-1.27.59-1.86s.39-1.11.57-1.56S1557.61,1593,1557.68,1592.77Z"/><path class="cls-2" d="M1096.05,1598.06a.72.72,0,0,1,.13-.86,2.24,2.24,0,0,1,1-.49,7.43,7.43,0,0,1,1.68-.17c.64,0,1.33,0,2,.09s1.23.13,1.94.25,1.39.2,2.26.37,1.85.37,2.92.62a5.34,5.34,0,0,0-1.72.15,2.27,2.27,0,0,0-1,.53,1.58,1.58,0,0,0-.46,1.21,4.47,4.47,0,0,0,.37,1.54,10,10,0,0,0,.91,1.68c.38.57.77,1.1,1.17,1.6s.78.94,1.14,1.33l.8.85a17,17,0,0,0,2.44,2,9.13,9.13,0,0,0,2.73,1.28,5.91,5.91,0,0,0,2.8.1,5.14,5.14,0,0,0,2.64-1.52,5.38,5.38,0,0,0,1.63-3.2,10.18,10.18,0,0,0-.32-3.82,23.65,23.65,0,0,0-1.61-4.22c-.71-1.45-1.45-2.91-2.23-4.36s-1.5-2.87-2.2-4.25a21.67,21.67,0,0,1-1.55-3.91,8.3,8.3,0,0,1-.08-4.33,7.33,7.33,0,0,1,1.89-3.23,9,9,0,0,1,4.22-2.38,17.74,17.74,0,0,1,5.32-.51,26.85,26.85,0,0,1,5.79.94,43.22,43.22,0,0,1,5.65,2,35.27,35.27,0,0,1,4.91,2.55,19.82,19.82,0,0,1,3.54,2.71,17.24,17.24,0,0,1,2.69,3.37,13.56,13.56,0,0,1,1.35,3,6.09,6.09,0,0,1,.31,2.28c0,.62-.2,1-.45,1.18a2.45,2.45,0,0,1-1.2.44,7.71,7.71,0,0,1-2-.07,26.37,26.37,0,0,1-2.86-.58c-1.1-.27-2.4-.65-3.87-1.14a1.6,1.6,0,0,0,1.91-2,7.53,7.53,0,0,0-.69-2.08,20.48,20.48,0,0,0-1.33-2.32c-.51-.77-1-1.52-1.63-2.23a23.09,23.09,0,0,0-1.62-1.83,17,17,0,0,0-2.79-2.25,10.59,10.59,0,0,0-3.11-1.39,6.89,6.89,0,0,0-3.19-.09,5.87,5.87,0,0,0-3,1.7,6.53,6.53,0,0,0-1.33,2,7.06,7.06,0,0,0-.54,2.8,12.29,12.29,0,0,0,.62,3.66,21.7,21.7,0,0,0,2.12,4.59,58.15,58.15,0,0,1,3.5,6.84,20.76,20.76,0,0,1,1.54,5.22,7.81,7.81,0,0,1-.39,3.93,7.54,7.54,0,0,1-2.24,3,9.23,9.23,0,0,1-4.07,2,14.66,14.66,0,0,1-4.74.2,23.07,23.07,0,0,1-5-1.19,36,36,0,0,1-4.82-2.15,37.7,37.7,0,0,1-4.23-2.66,28.66,28.66,0,0,1-3.25-2.73c-.66-.66-1.25-1.31-1.79-1.95s-1-1.23-1.39-1.76a15.24,15.24,0,0,1-.93-1.41C1096.29,1598.55,1096.13,1598.25,1096.05,1598.06Z"/><path class="cls-2" d="M1048.15,1544.82a20.58,20.58,0,0,1,2.44-2,24.71,24.71,0,0,1,3.57-2.15,42.54,42.54,0,0,1,4.78-2,48.89,48.89,0,0,1,6-1.66c1.61-.33,3.25-.62,4.94-.88s3.4-.54,5.13-.86,3.46-.69,5.19-1.12a36.49,36.49,0,0,0,5.11-1.71l8.45-.13-.74.59q-.36.3-.69.63a19.58,19.58,0,0,0-2.19,2.63c-.64.93-1.19,1.79-1.66,2.6s-1,1.88-1.43,2.79c-.53,1.24-1,2.63-1.55,4.16s-1,3.11-1.57,4.76-1.12,3.32-1.73,5-1.26,3.3-2,4.85c1-.28,2-.51,2.85-.71l2.39-.51,2.32-.42a62,62,0,0,0,7.23-1.67c1-.29,1.93-.63,2.92-1a27.3,27.3,0,0,0,2.84-1.24,19.19,19.19,0,0,0,2.48-1.5,8.6,8.6,0,0,0,1.83-1.77l8,.14a52.73,52.73,0,0,0-3.76,4.49q-1.86,2.45-3.61,5.15c-1.16,1.81-2.29,3.65-3.36,5.55s-2.11,3.78-3.08,5.66-1.88,3.72-2.71,5.51-1.61,3.48-2.31,5.07a13,13,0,0,0-.81,3,10.54,10.54,0,0,0-.1,1.28,5.32,5.32,0,0,0,.11,1.32,6.07,6.07,0,0,0,.4,1.25,3.72,3.72,0,0,0,.77,1.1,4.88,4.88,0,0,0,1.35.93,5.36,5.36,0,0,0,1.92.48l-2.91-.09q-1.66-.06-3.33-.27a18.19,18.19,0,0,1-3.13-.69,5.61,5.61,0,0,1-2.33-1.33,4.57,4.57,0,0,1-1-1.62,5,5,0,0,1-.22-2.24,14,14,0,0,1,.69-2.58c.39-1.15.92-2.5,1.57-4s1.43-3.22,2.32-5,1.86-3.7,2.91-5.6,2.17-3.81,3.36-5.7,2.4-3.67,3.63-5.35c-2.12.63-4.13,1.2-6,1.73s-3.75,1.06-5.49,1.58-3.44,1-5.07,1.58-3.22,1.12-4.78,1.74a20,20,0,0,1-1.23,1.72,17.35,17.35,0,0,1-1.34,1.52,11.63,11.63,0,0,1-2.82,2.07l-9.34-1a19.11,19.11,0,0,0,2.47-1.6,22.78,22.78,0,0,0,1.9-1.65,15.73,15.73,0,0,0,2.62-3.64,47.23,47.23,0,0,0,2.31-4.92q1.1-2.69,2.15-5.63c.71-2,1.43-3.9,2.16-5.8s1.49-3.71,2.28-5.41a27.64,27.64,0,0,1,2.52-4.43l-2.51.59c-.81.19-1.53.36-2.17.53s-1.43.34-2.11.49c-1.78.46-3.58,1-5.39,1.58s-3.54,1.24-5.2,2a40,40,0,0,0-4.54,2.26,16.84,16.84,0,0,0-3.41,2.56,7,7,0,0,0-1.09,1.42,5.88,5.88,0,0,0-.66,1.64,3.72,3.72,0,0,0,0,1.66,2.9,2.9,0,0,0,.84,1.48,3.47,3.47,0,0,0,.91.64,5.5,5.5,0,0,0,1.3.45l-2.72,0a24.19,24.19,0,0,1-2.84-.18,13.47,13.47,0,0,1-2.63-.6,5.6,5.6,0,0,1-2.12-1.32,3.49,3.49,0,0,1-1-1.53,3.43,3.43,0,0,1,0-1.56,4.44,4.44,0,0,1,.63-1.48A8.56,8.56,0,0,1,1048.15,1544.82Z"/><path class="cls-2" d="M1726.86,1359.16c.62.78,1.21,1.14,1.76,1.08a2.64,2.64,0,0,0,1.47-.69,6.77,6.77,0,0,0,1.36-2,20.07,20.07,0,0,0,1.61-6,59.69,59.69,0,0,0,.49-7.87,56,56,0,0,0-1.07-11.15,24.83,24.83,0,0,0-3.93-9.33,21.84,21.84,0,0,0-7.86-6.71,33.75,33.75,0,0,0-12.82-3.32c-.07,2-.1,4-.1,6V1325q0,3.46.17,7.74t.39,8.74c.15,3,.3,5.9.47,8.77s.3,5.45.41,7.76.17,4.24.17,5.79a11.29,11.29,0,0,1-.19,2.81c-.2.39-.52.46-1,.21a5.68,5.68,0,0,1-1.52-1.41,26.67,26.67,0,0,1-1.83-2.59c-.65-1-1.28-2.11-1.88-3.25s-1.16-2.28-1.66-3.44a32.65,32.65,0,0,1-1.2-3.15c1.27.75,2.18.89,2.71.42s.81-1.77.81-3.88c0-1,0-1.81-.05-2.59s-.09-1.68-.17-2.69-.18-2.26-.29-3.76-.26-3.43-.44-5.81-.39-5.32-.64-8.84-.51-7.79-.8-12.84a34.78,34.78,0,0,0-13.43,2.76,24.81,24.81,0,0,0-9.08,6.86,30.55,30.55,0,0,0-5.45,10.38,61.29,61.29,0,0,0-2.46,13.3,44.13,44.13,0,0,0,.39,8.3c.16,1.18.39,2.4.68,3.69a31.38,31.38,0,0,0,1.15,3.86,27.78,27.78,0,0,0,1.73,3.78,20.28,20.28,0,0,0,2.44,3.47,69.73,69.73,0,0,1-5.59-7.55,59.7,59.7,0,0,1-4.34-8.1,47.87,47.87,0,0,1-2.83-8.47,37.52,37.52,0,0,1-1-8.55,54.55,54.55,0,0,1,.61-7.83,43,43,0,0,1,2.06-8.16,36.45,36.45,0,0,1,3.8-7.66,24.57,24.57,0,0,1,5.91-6.3,26.62,26.62,0,0,1,8.35-4.13,31.82,31.82,0,0,1,11.06-1.12,41.42,41.42,0,0,1,13.43,2.76,43.46,43.46,0,0,1,11.11,6.32,47.06,47.06,0,0,1,8.74,9,56.12,56.12,0,0,1,6.32,11,62.73,62.73,0,0,1,5.13,24.64,45.86,45.86,0,0,1-.25,5c-.16,1.53-.35,2.9-.58,4.12a27.15,27.15,0,0,1-.76,3.15,17,17,0,0,1-.76,2c-.65,1.47-1.41,2.2-2.29,2.2a2.56,2.56,0,0,1-1.66-.8,13,13,0,0,1-1.76-2.06,27.09,27.09,0,0,1-1.68-2.73c-.54-1-1-2-1.49-2.88s-.85-1.77-1.17-2.52S1727,1359.49,1726.86,1359.16Z"/></svg>