<svg id="Livello_1" data-name="Livello 1" xmlns="http://www.w3.org/2000/svg" viewBox="0 0 2000 2000"><defs><style>.cls-1{fill:#fcc201;}.cls-2,.cls-4,.cls-5,.cls-6{fill:none;}.cls-2,.cls-3,.cls-4,.cls-5,.cls-6{stroke:#fcc201;}.cls-2,.cls-3{stroke-miterlimit:10;}.cls-3{fill:#fff;}.cls-4,.cls-5,.cls-6{stroke-linecap:round;stroke-linejoin:round;}.cls-4{stroke-dasharray:11.98 11.98;}.cls-5{stroke-dasharray:11.97 11.97;}.cls-6{stroke-dasharray:12.06 12.06;}</style></defs><path class="cls-1" d="M2604.45-1210V2604.24H-1209.77V-1210H2604.45m1-1H-1210.77V2605.24H2605.45V-1211Z"/><line class="cls-2" x1="-1210.77" y1="1969.2" x2="2605.45" y2="1969.2"/><line class="cls-2" x1="-1210.77" y1="1333.17" x2="2605.45" y2="1333.17"/><line class="cls-2" x1="-1210.77" y1="697.13" x2="2605.45" y2="697.13"/><line class="cls-2" x1="-1210.77" y1="61.09" x2="2605.45" y2="61.09"/><line class="cls-2" x1="1969.41" y1="-1210.98" x2="1969.41" y2="2605.24"/><line class="cls-2" x1="1333.38" y1="-1210.98" x2="1333.38" y2="2605.24"/><line class="cls-2" x1="697.34" y1="-1210.98" x2="697.34" y2="2605.24"/><line class="cls-2" x1="61.3" y1="-1210.98" x2="61.3" y2="2605.24"/><line class="cls-3" x1="-502.66" y1="-502.66" x2="2260.91" y2="2260.91"/><line class="cls-3" x1="361.46" y1="2305.21" x2="2552.89" y2="113.78"/><path class="cls-4" d="M345.47,2042c-21.33-165.6-123.35-1436.3,1738.08-1617.17"/><path class="cls-5" d="M-131.77,187.66c116.16,48.05,845.63,321.07,2193.82,214.47"/><path class="cls-6" d="M551.57-261.77c35.48,100.21,273,604.69,1467.52,638.11"/></svg>