<svg id="Livello_2" data-name="Livello 2" xmlns="http://www.w3.org/2000/svg" viewBox="0 0 5000 2000"><defs><style>.cls-1{fill:#f4d9a4;}.cls-2{fill:#1d1d1b;}.cls-3{fill:#a09787;}</style></defs><path class="cls-1" d="M3725.38,188.21c.35,1.86-.67,3.71-1.94,5.11a40.71,40.71,0,0,0-3.88,4.12,3.55,3.55,0,0,0-.74,2.16,3.32,3.32,0,0,0,.81,1.82c2.49,3.11,7.06,3.38,11,3.12s8.33-.71,11.58,1.59c1.05.74,2,1.77,3.23,2.07,2,.49,4.7-.79,5.81.94.79,1.23-.16,2.94.37,4.31a4,4,0,0,0,1.71,1.76,42.89,42.89,0,0,0,9.21,4.61,5.25,5.25,0,0,0,2.43.44,5.79,5.79,0,0,0,2.18-.94l14.56-8.95c1.29-.79,2.77-2,2.34-3.49-.27-.94-1.28-1.5-1.65-2.4a2.77,2.77,0,0,1,1.31-3.16,8.74,8.74,0,0,1,3.54-1,64.23,64.23,0,0,0,16.91-4.8c1.41-.62,3.07-2.1,2.21-3.39a2.9,2.9,0,0,0-1.69-1,20.21,20.21,0,0,1-9.5-6.38c-1-1.24-1.94-2.92-1.3-4.4,1.06-2.41,4.64-1.67,7.13-2.53s3.86-3.33,5.05-5.62a2.66,2.66,0,0,0,.39-1.18c0-.93-.9-1.56-1.39-2.35-1-1.61-.05-3.81,1.45-4.95s3.39-1.58,5.16-2.22a21.26,21.26,0,0,0,11.85-10.74,1.91,1.91,0,0,0,.27-1.24c-.17-.78-1.11-1.07-1.9-1.16-4.59-.54-9.21.88-13.4,2.83s-8.14,4.43-12.39,6.25c-2.66,1.13-5.56,2.09-7.44,4.28-.63.75-1.12,1.6-1.77,2.32-2.25,2.48-5.91,2.9-9.22,3.36a87.4,87.4,0,0,0-13.17,2.88,3.39,3.39,0,0,0-1.55.77,5,5,0,0,0-.88,1.72,4.77,4.77,0,0,1-3.84,3,3.22,3.22,0,0,1-3.46-3,5.32,5.32,0,0,0,0-1.54A2.25,2.25,0,0,0,3753,170c-3-.69-5.95.49-8.59,1.83-2.94,1.49-5.72,3.13-8.95,3.92-2.18.54-4.39.56-6.58,1a10,10,0,0,0-5.5,3.34c-2.14,2.47.76,5,1.69,7.25A4.82,4.82,0,0,1,3725.38,188.21Z"/><path class="cls-2" d="M3725.58,188.17a7.6,7.6,0,0,1,0,2.65,6.49,6.49,0,0,1-1.09,2.44c-1,1.47-2.26,2.64-3.22,3.82a8.07,8.07,0,0,0-1.12,1.75,1.37,1.37,0,0,0,.07,1.33,5.56,5.56,0,0,0,1.3,1.48,7.24,7.24,0,0,0,1.83,1.08,14.19,14.19,0,0,0,4.48.94,46.83,46.83,0,0,0,4.88,0,27,27,0,0,1,5.07.21,10.51,10.51,0,0,1,4.83,1.88c.7.53,1.29,1.1,1.92,1.52a3.5,3.5,0,0,0,2.08.57c.78,0,1.59-.12,2.48-.15a4.11,4.11,0,0,1,1.4.19,2.52,2.52,0,0,1,1.26.95,3.08,3.08,0,0,1,.46,1.48,10.41,10.41,0,0,0,.22,1.34,7.5,7.5,0,0,0,.34,1c.11.25.12.35.22.53a6,6,0,0,0,1.46,1.28l2,1.4a42.78,42.78,0,0,0,4.15,2.56c.72.4,1.47.72,2.21,1.06a4.65,4.65,0,0,0,2.24.46,6,6,0,0,0,2.14-.95l2.11-1.29c1.39-.89,2.79-1.75,4.17-2.67l4.14-2.73c1.36-.91,2.8-1.79,4.07-2.77A4.86,4.86,0,0,0,3783,208a1.09,1.09,0,0,0-.12-1.27c-.18-.26-.46-.55-.74-.94a3.32,3.32,0,0,1-.66-1.51,3.41,3.41,0,0,1,1.12-2.85,5.17,5.17,0,0,1,2.47-1.28,24.3,24.3,0,0,1,2.51-.38c1.62-.22,3.23-.53,4.83-.87a44.31,44.31,0,0,0,9.36-3c.73-.34,1.48-.73,2.17-1.12a4.17,4.17,0,0,0,1.46-1.39c.15-.24.19-.46.14-.52a.6.6,0,0,0-.21-.22,3.68,3.68,0,0,0-.77-.32c-.37-.14-.81-.28-1.21-.45a21.33,21.33,0,0,1-8.39-6,11.12,11.12,0,0,1-1.52-2.2,4.6,4.6,0,0,1-.51-2.92,3.46,3.46,0,0,1,1.9-2.39,7.88,7.88,0,0,1,2.64-.64c1.67-.17,3.27-.18,4.5-1a9.09,9.09,0,0,0,2.79-3.68l.52-1.1a2.87,2.87,0,0,0,.29-.85,1.19,1.19,0,0,0-.21-.59c-.16-.27-.41-.59-.68-1a3.54,3.54,0,0,1-.58-1.41,3.3,3.3,0,0,1,.07-1.47,5,5,0,0,1,1.38-2.28,12.07,12.07,0,0,1,4.4-2.3,19.73,19.73,0,0,0,4.5-2,20.93,20.93,0,0,0,6.76-6.84,23.47,23.47,0,0,0,1.16-2.08c.16-.34.37-.74.47-1s.06-.39,0-.43a.94.94,0,0,0-.48-.27,4.55,4.55,0,0,0-1-.16,18.33,18.33,0,0,0-2.35-.08,25.94,25.94,0,0,0-9.32,2.15,29.43,29.43,0,0,0-4.36,2.24l-4.25,2.57c-1.42.87-2.89,1.7-4.42,2.44s-3,1.33-4.36,2.06a10.38,10.38,0,0,0-1.81,1.21,8.8,8.8,0,0,0-1.45,1.57,12.35,12.35,0,0,1-1.81,2.07,8.87,8.87,0,0,1-2.43,1.47,19.36,19.36,0,0,1-5.12,1.16c-1.67.18-3.28.32-4.91.55a79.81,79.81,0,0,0-9.65,1.88,4.07,4.07,0,0,0-2,.87,22.83,22.83,0,0,0-1.11,2.13,4.9,4.9,0,0,1-4.29,2.56,4.08,4.08,0,0,1-2.46-1.06,3.41,3.41,0,0,1-.83-1.16,3.2,3.2,0,0,1-.23-1.46c.07-1,0-1.12-.55-1.43a5.38,5.38,0,0,0-2-.45c-3-.2-6.13,1.18-9,2.72-1.46.78-2.94,1.56-4.5,2.21a20.69,20.69,0,0,1-4.9,1.41,43.25,43.25,0,0,0-4.74.86,9.4,9.4,0,0,0-3.71,2.36,6.63,6.63,0,0,0-.7.79,2.58,2.58,0,0,0-.39.7,3,3,0,0,0,.18,1.84A27.09,27.09,0,0,1,3725.58,188.17Zm-.41.08a4.29,4.29,0,0,0-.46-1.08,6.81,6.81,0,0,0-.75-.95,11.76,11.76,0,0,1-1.56-2.05,4.49,4.49,0,0,1-.7-2.94,3.59,3.59,0,0,1,.65-1.52,6.68,6.68,0,0,1,.93-1.07A10.67,10.67,0,0,1,3728,176a43.13,43.13,0,0,1,5.06-.53,18.31,18.31,0,0,0,4.68-1,35.52,35.52,0,0,0,4.47-2c1.47-.73,2.89-1.6,4.45-2.29a11.23,11.23,0,0,1,5.09-1.12,5.76,5.76,0,0,1,2.73.71,2.34,2.34,0,0,1,1.06,1.37,3.33,3.33,0,0,1-.07,1.49c-.39,1.29.84,2.81,2.36,3a4,4,0,0,0,3.75-2.28,17.89,17.89,0,0,1,1.05-2.3,2.75,2.75,0,0,1,1.15-.82c.41-.18.81-.29,1.2-.42a96.2,96.2,0,0,1,9.62-2.62c3.24-.75,6.69-.94,9.31-2.29a7.19,7.19,0,0,0,1.71-1.21,9.62,9.62,0,0,0,1.33-1.75,10.37,10.37,0,0,1,1.84-2.12,12.94,12.94,0,0,1,2.29-1.54,37.65,37.65,0,0,1,4.68-2c1.51-.56,3-1.2,4.5-1.86s3-1.39,4.5-2.08,3-1.38,4.54-2.11a28.35,28.35,0,0,1,9.73-2.79,15.05,15.05,0,0,1,2.6,0,5.75,5.75,0,0,1,1.42.25,2.63,2.63,0,0,1,1.49,1.13,1.9,1.9,0,0,1,.24,1.08,2.64,2.64,0,0,1-.22.88,13.12,13.12,0,0,1-.61,1.19,18,18,0,0,1-1.42,2.14,21.85,21.85,0,0,1-7.83,6.29,31.81,31.81,0,0,1-4.65,1.74,7.1,7.1,0,0,0-4.1,2.52,4.17,4.17,0,0,0-.67,2.16,2.53,2.53,0,0,0,.73,1.77,11.36,11.36,0,0,1,.87,1,2.42,2.42,0,0,1,.51,1.73,3.67,3.67,0,0,1-.59,1.44l-.65,1.08a13.17,13.17,0,0,1-3.45,3.9,7.31,7.31,0,0,1-2.49,1c-.86.18-1.69.27-2.49.4a6.71,6.71,0,0,0-2.14.58,1.92,1.92,0,0,0-1,1.38A3,3,0,0,0,3795,183a9,9,0,0,0,1.37,1.8,19.35,19.35,0,0,0,7.81,5.08c.38.13.73.23,1.14.35a4.4,4.4,0,0,1,1.46.71,2.49,2.49,0,0,1,.94,1.89,2.79,2.79,0,0,1-.67,1.76,5.82,5.82,0,0,1-2.4,1.62l-2.4.8c-3.16,1.06-6.31,2.11-9.54,2.89-1.62.39-3.26.69-4.9.95a22.19,22.19,0,0,0-2.37.45,3.51,3.51,0,0,0-1.83,1,1.84,1.84,0,0,0-.45,1.66c.11.44.67.82,1.32,1.61a2.86,2.86,0,0,1,.66,1.63,2.78,2.78,0,0,1-.46,1.72,6,6,0,0,1-2.16,1.85c-1.52.78-2.9,1.61-4.35,2.43l-4.3,2.46c-1.44.81-2.84,1.68-4.27,2.51l-2.1,1.3a6.65,6.65,0,0,1-2.34,1.1,5.52,5.52,0,0,1-2.6-.32c-.8-.22-1.59-.5-2.4-.74a43.81,43.81,0,0,1-4.73-1.81c-.77-.35-1.53-.73-2.27-1.15a6.83,6.83,0,0,1-2.33-1.85,2.94,2.94,0,0,1-.6-1.78,3.7,3.7,0,0,1,.42-1.45,3.53,3.53,0,0,0,.36-1.12,1.65,1.65,0,0,0-.2-.89,1.86,1.86,0,0,0-1.68-.73c-.77,0-1.6.1-2.47.1a5.76,5.76,0,0,1-1.35-.15,4.71,4.71,0,0,1-1.27-.56c-.76-.47-1.38-1-2-1.48a9.54,9.54,0,0,0-4.36-1.52,25,25,0,0,0-4.81.06c-3.22.31-6.74.83-10.25-.36a8.58,8.58,0,0,1-2.48-1.31,7.45,7.45,0,0,1-2-2.18,3.9,3.9,0,0,1-.51-1.7,4,4,0,0,1,.33-1.73,8,8,0,0,1,1.68-2.32c1.24-1.27,2.64-2.16,3.68-3.27a12.29,12.29,0,0,0,1.37-1.83A3.06,3.06,0,0,0,3725.17,188.25Z"/><path class="cls-3" d="M0,0V2000H5000V0ZM3918.89,167.47c-1,13.27-23.33,17.52-22.94,30.83.1,3.45,1.88,6.82,1.3,10.22-1.58,9.16-16.78,8.61-20.87,17-2.54,5.18.37,11.58-1.36,17.08-2,6.4-9.44,9.3-16.1,10.1s-13.78.47-19.58,3.85c-5.09,3-8.69,8.58-14.42,9.95a3.77,3.77,0,0,1-2.08,0c-2.29-.79-1.82-4.07-1.83-6.5a9.19,9.19,0,1,0-18.33,1c.53,4.92,4.94,9,4.62,14-.34,5.43-6.05,8.72-11.14,10.65-10.65,4-22.15,6.55-33.45,5.07s-22.38-7.37-28.24-17.15c-1.27-2.11-2.35-4.45-4.31-5.93a16.71,16.71,0,0,0-5-2.16c-12.09-3.87-22.82-11-33.37-18.08,7.22-4.48,5-17-2.61-20.83s-17.13-.7-23.43,5c-1.24,1.13-2.86,2.44-4.38,1.75a3.74,3.74,0,0,1-1.7-2.37,19.3,19.3,0,0,1,.88-14.3c1.68-3.5,4.38-6.41,6.25-9.82s2.77-7.78.71-11.07c-1.48-2.34-4.21-3.7-5.62-6.09-2.4-4-.17-9.11.95-13.7s-.48-11.08-5.19-11.09c10.1-2.22,13.82-16.72,7.58-25a19,19,0,0,0-7.32-5.76,23.87,23.87,0,0,0-8.14-2,41.48,41.48,0,0,0-8.47.71,4.38,4.38,0,0,1-3.21-.52c-1.12-.86-.75-2.12-.85-3.33a4.14,4.14,0,0,0-2-3.16c-.5-.3-1.36-1.22-2.42-1.23s-1,.05-1.39.28c-1.43-.78,2.49-8.7,8.3-9.37,8.23-1,16.8-.84,24.17,2.95,8.3,4.27,15.5,12,24.83,12.1,3,0,6.29-1.08,7.47-3.8,2.36-5.4-5.47-11-3.89-16.65.87-3.1,4.2-4.76,7.28-5.71a47.42,47.42,0,0,1,42.15,7.56c7.44,5.71,13.3,13.75,21.93,17.4,10.48,4.44,23.8.68,30.42-8.58,2.05-2.88,3.61-6.3,6.6-8.18,7.74-4.89,17,3.75,26.1,4.7,8.49.87,15.94-5.08,23-9.94s16.47-8.93,23.73-4.45a5.15,5.15,0,0,1,2.75,3.7,7.68,7.68,0,0,1-1.08,3.58,21.22,21.22,0,0,0,5.55,24.39,22.59,22.59,0,0,0-17.19,17.66c-.54,3,.23,7,3.22,7.54a5.8,5.8,0,0,0,3.59-.79c9.27-4.64,15-16.12,25.26-17.33,10-1.18,18.09,8.31,21.67,17.72A18.77,18.77,0,0,1,3918.89,167.47Z"/><path d="M.35.35.91,250.76l.14,250c0,83.27-.63,166.17-.83,249.4s.05,166.69.45,250.16.48,166.76.26,250S.18,1416.7.12,1500s.24,166.71.77,250.06q.37,62.52.51,125T1.2,2000L0,1998.8c52.08.3,104.17.73,156.25.78s104.17-.1,156.25-.37l156.25-.74q78.12-.27,156.25,0c104.17.21,208.33,1.08,312.5,1.39q78.12.29,156.25.16l156.25-.11,625-1.17,312.5-.18,312.5.46,312.5.49c104.17.18,208.33-.29,312.5-.4l156.25.16,156.25.45q156.26.48,312.5,0l312.5-.91,78.12-.06q39.07,0,78.13.41c26,.31,52.08.69,78.13.83s52.08.06,78.12,0c52.08-.15,104.17-.56,156.25-.83l78.13-.22c26,0,52.08.31,78.12.5,104.17.3,208.33-.29,312.5-.52l-1.14,1.14q-.36-125-.08-250c.26-83.33.76-166.67.81-250,.05-41.67-.14-83.33-.23-125,0-20.83-.1-41.67,0-62.5l.17-31.25,0-31.25c-.55-83.33,0-166.67.22-250,.82-166.67-.82-333.33-.12-500l.31-125,.06-62.5q0-31.25-.17-62.5l-.36-62.5c-.1-20.83-.09-41.67-.09-62.5l.08-125,.54.54L4687.5.09,4375,.15,4062.58.58,3906.36.66,3750.06.3c-104.22-.3-208.34,0-312.44.21L3281.46.79h-78.11L3125.14.46Q3046.89,0,2968.88.41l-78,.29L2812.73.64C2760.59.46,2708.38.12,2656.3.14s-104.12.1-156.12.28c-104,.34-208,.75-312.16.67L1875.39.72,1562.65.24l-77.88.39-77.93.29q-78,.1-156.38-.24L1093.9.22,937.69.26,625.66.8,313.17.73Zm-.7-.7L311.83-.73,624.34-.8l313,.54,156.29,0,155.94-.46q77.94-.28,156.12-.24L1484-.63l78.37.39,312.26-.48L2187-1.09c104.15-.08,208.53.33,312.84.67q78.25.27,156.38.28c52.09,0,104-.32,156.07-.5l78.12-.06,78.23.29q78.26.39,156.24-.05l78-.33H3281l156.34.28c104.23.23,208.45.51,312.56.21l156.2-.36,156.28.08L4375-.15l312.51.06L5000-.54a.54.54,0,0,1,.54.54h0l.08,125c0,20.83,0,41.67-.09,62.5l-.36,62.5q-.21,31.25-.17,62.5l.06,62.5.31,125c.7,166.67-.94,333.33-.12,500,.23,83.33.77,166.67.22,250l0,31.25.17,31.25c.12,20.83.05,41.67,0,62.5-.09,41.67-.28,83.33-.23,125,.05,83.33.55,166.67.81,250s.16,166.67-.08,250h0a1.13,1.13,0,0,1-1.14,1.13c-104.17-.23-208.33-.82-312.5-.52-26,.19-52.08.49-78.12.5l-78.13-.22c-52.08-.27-104.17-.68-156.25-.83-26,0-52.08-.13-78.12,0s-52.09.52-78.13.83-52.08.44-78.13.41l-78.12-.06-312.5-.91q-156.26-.43-312.5,0l-156.25.45-156.25.16c-104.17-.11-208.33-.58-312.5-.4L2500,2001l-312.5.46-312.5-.18-625-1.17-156.25-.11q-78.12-.06-156.25.16c-104.17.31-208.33,1.18-312.5,1.39q-78.12.15-156.25,0l-156.25-.74q-78.12-.4-156.25-.37c-52.08,0-104.17.48-156.25.78A1.19,1.19,0,0,1-1.2,2000h0q-.36-62.52-.2-125.06t.51-125q.8-125,.77-249.94c-.06-83.35-.56-166.81-.81-250.26s-.16-166.81.26-250S0,833.34-.22,749.88s-.84-167.2-.83-250.6l.14-250Z"/><path d="M3919.39,167.5a13.32,13.32,0,0,1-1.56,5.31,22,22,0,0,1-3.23,4.46,81.14,81.14,0,0,1-8,7.23,41.44,41.44,0,0,0-7.28,7.28,12.5,12.5,0,0,0-1.95,4.37,12.91,12.91,0,0,0-.07,4.89,37.31,37.31,0,0,1,.6,5.41,9.08,9.08,0,0,1-1.64,5.25,13.82,13.82,0,0,1-4.06,3.56c-1.54.93-3.14,1.74-4.73,2.55-3.15,1.62-6.39,3.34-8.56,5.82a8.43,8.43,0,0,0-1.35,2,8.62,8.62,0,0,0-.81,2.23,19.55,19.55,0,0,0-.32,5c0,1.75.16,3.56,0,5.4a14,14,0,0,1-1.28,5.43,12.28,12.28,0,0,1-3.47,4.24,19.64,19.64,0,0,1-4.65,2.73,42.56,42.56,0,0,1-10.39,2.67,102.72,102.72,0,0,0-10.42,2,27.51,27.51,0,0,0-4.74,1.71,28.41,28.41,0,0,0-4.24,2.62c-2.78,2-5.66,4.4-9,6.05a17.11,17.11,0,0,1-2.58,1,8.55,8.55,0,0,1-1.37.32,3.48,3.48,0,0,1-1.5-.06,2.71,2.71,0,0,1-1.34-.83,3.76,3.76,0,0,1-.72-1.35,10.1,10.1,0,0,1-.39-2.79,23,23,0,0,0-.17-2.6,7.54,7.54,0,0,0-.78-2.27,9.07,9.07,0,0,0-3.24-3.38,8.17,8.17,0,0,0-4.23-1.25,7.51,7.51,0,0,0-4.07,1.27,8.46,8.46,0,0,0-3.94,7.66c.28,3.19,2.32,6.39,3.26,9.94a9.55,9.55,0,0,1-.08,5.43,10.58,10.58,0,0,1-3,4.37,27.75,27.75,0,0,1-9.35,5.09,100.8,100.8,0,0,1-10.2,3.26,61.61,61.61,0,0,1-21.4,2.12,42.32,42.32,0,0,1-20.49-7.27,34.43,34.43,0,0,1-7.95-7.76c-2.3-3-3.43-6.66-5.92-8.09a24.89,24.89,0,0,0-4.65-1.84c-1.72-.59-3.43-1.23-5.09-1.94a94.49,94.49,0,0,1-9.7-4.87,193.5,193.5,0,0,1-17.81-12h0a.5.5,0,0,1-.13-.7.43.43,0,0,1,.11-.12l0,0a8.89,8.89,0,0,0,2.57-2.86,10.55,10.55,0,0,0,1.16-3.64,13.94,13.94,0,0,0-1.35-7.54,12.13,12.13,0,0,0-5.11-5.55,16.57,16.57,0,0,0-7.59-1.83,21.72,21.72,0,0,0-7.91,1.53,24.09,24.09,0,0,0-7,4.2,9.14,9.14,0,0,1-3.47,2.3,2.35,2.35,0,0,1-2.06-.5,4.35,4.35,0,0,1-1.14-1.8,20.51,20.51,0,0,1-1.28-8.27,19.92,19.92,0,0,1,2.24-8.22c1.31-2.55,3-4.8,4.34-7.09a19.06,19.06,0,0,0,1.69-3.5,12.34,12.34,0,0,0,.77-3.64,9.83,9.83,0,0,0-2.29-6.84c-.85-1.09-1.83-2.12-2.64-3.24a8.24,8.24,0,0,1-1.59-3.79,25.35,25.35,0,0,1,.68-8.32,31.86,31.86,0,0,0,.61-4,14.08,14.08,0,0,0-.3-3.79c-.55-2.44-1.65-4.71-4.17-5.24h0a.49.49,0,0,1-.21-1l.11,0a12.3,12.3,0,0,0,3.77-1.91,13.11,13.11,0,0,0,2.85-3.05,16.8,16.8,0,0,0,2.75-7.83,16.56,16.56,0,0,0-1.18-8.12,16.39,16.39,0,0,0-5.15-6.31,21.28,21.28,0,0,0-7.6-3.74,22.25,22.25,0,0,0-4.29-.73,25,25,0,0,0-4.4.17c-.74.08-1.48.18-2.22.28a11.74,11.74,0,0,1-2.32.17,3.32,3.32,0,0,1-2.35-1,2.73,2.73,0,0,1-.61-1.24,7.65,7.65,0,0,1-.11-1.21,4.35,4.35,0,0,0-.37-1.93,3.59,3.59,0,0,0-1.2-1.42,18.31,18.31,0,0,0-1.71-1.19,1.87,1.87,0,0,0-.85-.19l-.47,0a.26.26,0,0,0-.12,0l-.26.11h0a.3.3,0,0,1-.34,0l-.09,0a1.17,1.17,0,0,1-.58-.89,3.08,3.08,0,0,1,0-.8,5.67,5.67,0,0,1,.35-1.39,10.63,10.63,0,0,1,1.28-2.43,12.15,12.15,0,0,1,4-3.69,8.37,8.37,0,0,1,2.62-.93c.94-.15,1.77-.14,2.66-.2,1.74-.08,3.49-.11,5.23-.06a57.25,57.25,0,0,1,10.37,1.05,30.72,30.72,0,0,1,9.8,3.69c3,1.76,5.82,3.85,8.68,5.78a30.36,30.36,0,0,0,9.22,4.62,16,16,0,0,0,2.56.46,12.56,12.56,0,0,0,2.6,0,7.44,7.44,0,0,0,4.57-2.11,4.77,4.77,0,0,0,1.2-2,5.46,5.46,0,0,0,.2-2.31,13.85,13.85,0,0,0-1.69-4.65,36.44,36.44,0,0,1-2.22-4.81,7.15,7.15,0,0,1,.13-5.43,8.29,8.29,0,0,1,3.92-3.67,22,22,0,0,1,5-1.7,51.53,51.53,0,0,1,20.73-.62,48.7,48.7,0,0,1,19.25,7.84c5.8,4,10.39,9.37,15.83,13.55a48.63,48.63,0,0,0,4.17,3,25.83,25.83,0,0,0,4.59,2.28,21.89,21.89,0,0,0,10.19,1.07,25.34,25.34,0,0,0,17.18-10c1-1.35,1.85-2.84,2.83-4.32a13.44,13.44,0,0,1,3.73-3.94,10.25,10.25,0,0,1,5.14-1.68,18.56,18.56,0,0,1,5.26.53,71.86,71.86,0,0,1,9.95,3.24c3.18,1.24,6.38,2.53,9.85,2.41a20.33,20.33,0,0,0,9.7-3.26,85.65,85.65,0,0,0,8.42-6.09,42.31,42.31,0,0,1,9-5.71,22.44,22.44,0,0,1,10.66-2.18,14.33,14.33,0,0,1,5.42,1.52,10.28,10.28,0,0,1,2.38,1.63,5.84,5.84,0,0,1,1.7,2.63,4.87,4.87,0,0,1-.26,3.16c-.36.91-.8,1.65-1.12,2.4a19.14,19.14,0,0,0-1.4,4.79,21,21,0,0,0,3.2,14.59,10.48,10.48,0,0,0,3.54,3.65h0a.46.46,0,0,1,.18.6.45.45,0,0,1-.24.21l-.16.06A28.76,28.76,0,0,0,3870,142a25.92,25.92,0,0,0-3.9,5.16,19.41,19.41,0,0,0-2.25,6.13,8.63,8.63,0,0,0,.16,3.24,4.31,4.31,0,0,0,1.71,2.62,3.55,3.55,0,0,0,3.07.25,12.81,12.81,0,0,0,3-1.48,33.33,33.33,0,0,0,5.2-4.22c1.61-1.55,3.15-3.2,4.74-4.81a42.65,42.65,0,0,1,5.13-4.61,19.07,19.07,0,0,1,6.33-3.19,15.2,15.2,0,0,1,7.19-.24,17.24,17.24,0,0,1,6.48,2.92,30.13,30.13,0,0,1,8.83,10.59,41.7,41.7,0,0,1,2.67,6.32A17.57,17.57,0,0,1,3919.39,167.5Zm-1-.07a16.08,16.08,0,0,0-1.06-6.43,34.58,34.58,0,0,0-2.78-6.06,28.7,28.7,0,0,0-8.76-9.67,17,17,0,0,0-5.86-2.42,14.06,14.06,0,0,0-6.22.26c-4.1,1.09-7.58,4-11,6.86s-6.71,6.13-10.68,8.42a17.09,17.09,0,0,1-3.12,1.46,4.21,4.21,0,0,1-3.46-.33,5.13,5.13,0,0,1-2-2.85,10.72,10.72,0,0,1-.45-3.47,21.48,21.48,0,0,1,5.39-12.71,18.61,18.61,0,0,1,12.25-6.39l-.22.86h0c-1.11-1.43-2.42-2.58-3.44-4.05a21.33,21.33,0,0,1-2.54-4.64,23,23,0,0,1-1.54-10.49,20.49,20.49,0,0,1,1.22-5.27c.32-.87.73-1.65,1-2.38a2.92,2.92,0,0,0,.1-1.94,3.82,3.82,0,0,0-1.2-1.62,8.81,8.81,0,0,0-2-1.21,11.88,11.88,0,0,0-4.59-1.16,22.16,22.16,0,0,0-9.57,2,53.9,53.9,0,0,0-9,4.8c-2.94,1.86-5.92,3.71-9,5.32a30.91,30.91,0,0,1-9.91,3.31,20.71,20.71,0,0,1-10.44-1.5c-3.29-1.24-6.25-3.1-9.54-4.12a11.47,11.47,0,0,0-5.06-.49,8.71,8.71,0,0,0-4.42,2.12c-2.4,2.21-3.87,5.35-6.08,8.2a21.58,21.58,0,0,1-3.8,3.78,25.21,25.21,0,0,1-4.49,2.85,28.81,28.81,0,0,1-10.11,2.85,29.34,29.34,0,0,1-10.42-.91,28.85,28.85,0,0,1-9.39-4.77c-5.58-4.33-10-9.75-15.51-13.93a44.74,44.74,0,0,0-18.78-8.38,43.46,43.46,0,0,0-20.59.89,21.35,21.35,0,0,0-4.79,1.86,7.6,7.6,0,0,0-3.43,3.46,6.33,6.33,0,0,0,.1,4.72,39.08,39.08,0,0,0,2.26,4.6,14.57,14.57,0,0,1,1.85,5.08,5.34,5.34,0,0,1-2.2,5,10.18,10.18,0,0,1-5,1.63,17.73,17.73,0,0,1-5.19-.36,32.17,32.17,0,0,1-9.65-4c-3-1.77-5.84-3.8-8.74-5.66a31,31,0,0,0-9.33-4.36,33.18,33.18,0,0,0-10.32-.95c-1.74.11-3.46.28-5.17.53-.84.14-1.76.23-2.51.44a8.16,8.16,0,0,0-2.2,1,13.09,13.09,0,0,0-3.47,3.45,14.14,14.14,0,0,0-1.27,2.1,7.54,7.54,0,0,0-.44,1.09,3.11,3.11,0,0,0-.1.72h-.42c.07,0,.12-.11.22-.19a1.44,1.44,0,0,1,.4-.18,3.76,3.76,0,0,1,2,0,4.37,4.37,0,0,1,1.13.63l.45.33.45.31a4.66,4.66,0,0,1,1.6,2,5.2,5.2,0,0,1,.32,2.46,2.55,2.55,0,0,0,.32,1.8,2.4,2.4,0,0,0,1.66.78,8.74,8.74,0,0,0,2.14-.15c.74-.1,1.48-.23,2.22-.35a35.82,35.82,0,0,1,4.54-.5,27.39,27.39,0,0,1,4.61.29,21.34,21.34,0,0,1,8.76,3.3,16.62,16.62,0,0,1,6.14,7.33,18.13,18.13,0,0,1,1.18,9.47,17.92,17.92,0,0,1-3.66,8.72,12.81,12.81,0,0,1-8,4.76l-.1-1h0a4.5,4.5,0,0,1,2.37.23,5.34,5.34,0,0,1,2,1.39,8.61,8.61,0,0,1,2,4.17,12.62,12.62,0,0,1,.06,4.46,22.25,22.25,0,0,1-1.28,4.09c-.94,2.58-2.05,5.17-1.82,7.95a6.77,6.77,0,0,0,1.49,3.79,13.82,13.82,0,0,0,3.25,2.56,9.45,9.45,0,0,1,3.29,3.09,7.87,7.87,0,0,1,1,4.58,16.38,16.38,0,0,1-3.07,8.29c-1.59,2.37-3.42,4.43-4.86,6.68a18.22,18.22,0,0,0-2.79,7.44,17.74,17.74,0,0,0,.67,8,3.94,3.94,0,0,0,1,1.7,2,2,0,0,0,1.8.48,8.1,8.1,0,0,0,3.37-2.23c4.16-3.61,9.3-6.42,15.05-6.89a16,16,0,0,1,8.45,1.55,13.34,13.34,0,0,1,6,6.36,14.78,14.78,0,0,1,1.25,8.59,9.8,9.8,0,0,1-4.8,7.11l0-.85h0c6.12,3.67,12.17,7.43,18.44,10.69a103.6,103.6,0,0,0,9.58,4.44c1.62.66,3.27,1.24,4.93,1.78a24.56,24.56,0,0,1,5.29,2.06,12.29,12.29,0,0,1,4,4.45l1.35,2.32c.47.71.89,1.44,1.4,2.12a32.23,32.23,0,0,0,7.17,7.25,39.62,39.62,0,0,0,9,5.07,43.07,43.07,0,0,0,10.07,2.77,59.89,59.89,0,0,0,21.08-.88,89.61,89.61,0,0,0,10.27-2.92c3.35-1.18,6.72-2.59,9.38-5a9.09,9.09,0,0,0,2.79-4.44,8.09,8.09,0,0,0,.2-2.59,11.44,11.44,0,0,0-.65-2.51c-1.28-3.23-3.87-5.87-4.83-9.8a8.94,8.94,0,0,1-.2-3.06,10.18,10.18,0,0,1,.79-3A11,11,0,0,1,3806,251a9.59,9.59,0,0,1,6-1.75,10,10,0,0,1,5.72,2.26,11,11,0,0,1,3.42,4.82,9.54,9.54,0,0,1,.55,2.89c0,1-.12,1.86-.15,2.75a9.43,9.43,0,0,0,.12,2.51,2.05,2.05,0,0,0,1.36,1.62,4,4,0,0,0,2.38-.23,10.3,10.3,0,0,0,2.33-1.09c3-1.83,5-4.78,7.77-7.23a16.91,16.91,0,0,1,4.74-3.13c.44-.19.88-.38,1.33-.53s.9-.31,1.35-.43a24.9,24.9,0,0,1,2.75-.57c3.68-.56,7.28-.34,10.84-.42a25.69,25.69,0,0,0,10.39-2,16,16,0,0,0,4.42-2.88,10.8,10.8,0,0,0,2.83-4.29,13.13,13.13,0,0,0,.58-5c-.11-1.72-.35-3.46-.5-5.28a18.25,18.25,0,0,1,.27-5.63,10.25,10.25,0,0,1,2.91-5.06,17,17,0,0,1,4.7-3c1.66-.77,3.35-1.38,5-2A32.51,32.51,0,0,0,3892,215a11,11,0,0,0,3.86-3.51,7.51,7.51,0,0,0,1-4.93,38,38,0,0,0-1.39-5.09,17.1,17.1,0,0,1-.58-2.78,12.69,12.69,0,0,1,.06-3,13,13,0,0,1,2.25-5.38,22.53,22.53,0,0,1,3.79-4.16,51.71,51.71,0,0,1,4.27-3.37,86,86,0,0,0,8.37-6.5,18.67,18.67,0,0,0,3.25-4A11.72,11.72,0,0,0,3918.39,167.43Z"/></svg>