<svg id="Livello_1" data-name="Livello 1" xmlns="http://www.w3.org/2000/svg" viewBox="0 0 12.38 22.17"><defs><style>.cls-1{fill:#ffc201;}</style></defs><path class="cls-1" d="M1.44,13.4a1,1,0,0,0-1,1V21a1,1,0,0,0,2,0V19.88A8.89,8.89,0,0,0,6.94,18l.88.89a1,1,0,1,0,1.42-1.42l-.88-.88a8.79,8.79,0,0,0,1.87-4.5h1.15a1,1,0,0,0,0-2H10.23A8.79,8.79,0,0,0,8.41,5.65l.83-.83A1,1,0,1,0,7.82,3.41L7,4.22A8.86,8.86,0,0,0,2.44,2.29V1.14a1,1,0,0,0-2,0V7.77a1,1,0,0,0,1,1,2.32,2.32,0,0,1,0,4.63Zm1,4.46V15.27a4,4,0,0,0,1.25-.52l1.82,1.83A6.78,6.78,0,0,1,2.44,17.86Zm4.49-2.7L5.1,13.34a4,4,0,0,0,.52-1.25H8.21A6.78,6.78,0,0,1,6.93,15.16Zm1.28-5.07H5.62a4.19,4.19,0,0,0-.48-1.18L7,7.08A6.87,6.87,0,0,1,8.21,10.09ZM5.58,5.64,3.76,7.46A4.17,4.17,0,0,0,2.44,6.9V4.32A6.84,6.84,0,0,1,5.58,5.64Z"/></svg>