<svg id="griglia_superiore" data-name="griglia superiore" xmlns="http://www.w3.org/2000/svg" viewBox="0 0 12033.7 4813.48"><defs><style>.cls-1{fill:none;stroke:#fcc201;stroke-miterlimit:10;stroke-width:0.25px;}</style></defs><path class="cls-1" d="M1203.37,1203.37H0V0H1203.37Zm0-401.12H0M1203.37,401.12H0M401.12,0V1203.37M802.25,0V1203.37M2406.74,0H1203.37V1203.37H2406.74Zm0,802.25H1203.37M2406.74,401.12H1203.37M1604.49,0V1203.37M2005.62,0V1203.37M3610.11,0H2406.74V1203.37H3610.11Zm0,802.25H2406.74M3610.11,401.12H2406.74M2807.86,0V1203.37M3209,0V1203.37M4813.48,0H3610.11V1203.37H4813.48Zm0,802.25H3610.11M4813.48,401.12H3610.11M4011.23,0V1203.37M4412.36,0V1203.37M6016.85,0H4813.48V1203.37H6016.85Zm0,802.25H4813.48M6016.85,401.12H4813.48M5214.6,0V1203.37M5615.73,0V1203.37M7220.22,0H6016.85V1203.37H7220.22Zm0,802.25H6016.85M7220.22,401.12H6016.85M6418,0V1203.37M6819.1,0V1203.37M8423.59,0H7220.22V1203.37H8423.59Zm0,802.25H7220.22M8423.59,401.12H7220.22M7621.34,0V1203.37M8022.47,0V1203.37M9627,0H8423.59V1203.37H9627Zm0,802.25H8423.59M9627,401.12H8423.59M8824.71,0V1203.37M9225.84,0V1203.37M10830.33,0H9627V1203.37h1203.37Zm0,802.25H9627m1203.37-401.13H9627M10028.09,0V1203.37M10429.21,0V1203.37M12033.7,0H10830.33V1203.37H12033.7Zm0,802.25H10830.33M12033.7,401.12H10830.33M11231.46,0V1203.37M11632.58,0V1203.37m-10429.21,0H0V2406.74H1203.37Zm0,802.25H0m1203.37-401.13H0m401.12-401.12V2406.74M802.25,1203.37V2406.74M2406.74,1203.37H1203.37V2406.74H2406.74Zm0,802.25H1203.37m1203.37-401.13H1203.37m401.12-401.12V2406.74m401.13-1203.37V2406.74M3610.11,1203.37H2406.74V2406.74H3610.11Zm0,802.25H2406.74m1203.37-401.13H2406.74m401.12-401.12V2406.74M3209,1203.37V2406.74M4813.48,1203.37H3610.11V2406.74H4813.48Zm0,802.25H3610.11m1203.37-401.13H3610.11m401.12-401.12V2406.74m401.13-1203.37V2406.74M6016.85,1203.37H4813.48V2406.74H6016.85Zm0,802.25H4813.48m1203.37-401.13H4813.48m401.12-401.12V2406.74m401.13-1203.37V2406.74M7220.22,1203.37H6016.85V2406.74H7220.22Zm0,802.25H6016.85m1203.37-401.13H6016.85M6418,1203.37V2406.74M6819.1,1203.37V2406.74M8423.59,1203.37H7220.22V2406.74H8423.59Zm0,802.25H7220.22m1203.37-401.13H7220.22m401.12-401.12V2406.74m401.13-1203.37V2406.74M9627,1203.37H8423.59V2406.74H9627Zm0,802.25H8423.59M9627,1604.49H8423.59m401.12-401.12V2406.74m401.13-1203.37V2406.74m1604.49-1203.37H9627V2406.74h1203.37Zm0,802.25H9627m1203.37-401.13H9627m401.13-401.12V2406.74m401.12-1203.37V2406.74M12033.7,1203.37H10830.33V2406.74H12033.7Zm0,802.25H10830.33m1203.37-401.13H10830.33m401.13-401.12V2406.74m401.12-1203.37V2406.74m-10429.21,0H0V3610.11H1203.37Zm0,802.25H0m1203.37-401.13H0m401.12-401.12V3610.11M802.25,2406.74V3610.11M2406.74,2406.74H1203.37V3610.11H2406.74Zm0,802.25H1203.37m1203.37-401.13H1203.37m401.12-401.12V3610.11m401.13-1203.37V3610.11M3610.11,2406.74H2406.74V3610.11H3610.11Zm0,802.25H2406.74m1203.37-401.13H2406.74m401.12-401.12V3610.11M3209,2406.74V3610.11M4813.48,2406.74H3610.11V3610.11H4813.48Zm0,802.25H3610.11m1203.37-401.13H3610.11m401.12-401.12V3610.11m401.13-1203.37V3610.11M6016.85,2406.74H4813.48V3610.11H6016.85Zm0,802.25H4813.48m1203.37-401.13H4813.48m401.12-401.12V3610.11m401.13-1203.37V3610.11M7220.22,2406.74H6016.85V3610.11H7220.22Zm0,802.25H6016.85m1203.37-401.13H6016.85M6418,2406.74V3610.11M6819.1,2406.74V3610.11M8423.59,2406.74H7220.22V3610.11H8423.59Zm0,802.25H7220.22m1203.37-401.13H7220.22m401.12-401.12V3610.11m401.13-1203.37V3610.11M9627,2406.74H8423.59V3610.11H9627Zm0,802.25H8423.59M9627,2807.86H8423.59m401.12-401.12V3610.11m401.13-1203.37V3610.11m1604.49-1203.37H9627V3610.11h1203.37Zm0,802.25H9627m1203.37-401.13H9627m401.13-401.12V3610.11m401.12-1203.37V3610.11M12033.7,2406.74H10830.33V3610.11H12033.7Zm0,802.25H10830.33m1203.37-401.13H10830.33m401.13-401.12V3610.11m401.12-1203.37V3610.11m-10429.21,0H0V4813.48H1203.37Zm0,802.25H0m1203.37-401.13H0m401.12-401.12V4813.48M802.25,3610.11V4813.48M2406.74,3610.11H1203.37V4813.48H2406.74Zm0,802.25H1203.37m1203.37-401.13H1203.37m401.12-401.12V4813.48m401.13-1203.37V4813.48M3610.11,3610.11H2406.74V4813.48H3610.11Zm0,802.25H2406.74m1203.37-401.13H2406.74m401.12-401.12V4813.48M3209,3610.11V4813.48M4813.48,3610.11H3610.11V4813.48H4813.48Zm0,802.25H3610.11m1203.37-401.13H3610.11m401.12-401.12V4813.48m401.13-1203.37V4813.48M6016.85,3610.11H4813.48V4813.48H6016.85Zm0,802.25H4813.48m1203.37-401.13H4813.48m401.12-401.12V4813.48m401.13-1203.37V4813.48M7220.22,3610.11H6016.85V4813.48H7220.22Zm0,802.25H6016.85m1203.37-401.13H6016.85M6418,3610.11V4813.48M6819.1,3610.11V4813.48M8423.59,3610.11H7220.22V4813.48H8423.59Zm0,802.25H7220.22m1203.37-401.13H7220.22m401.12-401.12V4813.48m401.13-1203.37V4813.48M9627,3610.11H8423.59V4813.48H9627Zm0,802.25H8423.59M9627,4011.23H8423.59m401.12-401.12V4813.48m401.13-1203.37V4813.48m1604.49-1203.37H9627V4813.48h1203.37Zm0,802.25H9627m1203.37-401.13H9627m401.13-401.12V4813.48m401.12-1203.37V4813.48M12033.7,3610.11H10830.33V4813.48H12033.7Zm0,802.25H10830.33m1203.37-401.13H10830.33m401.13-401.12V4813.48m401.12-1203.37V4813.48"/></svg>