<?xml version="1.0" encoding="utf-8"?>
<!-- Generator: Adobe Illustrator 25.2.1, SVG Export Plug-In . SVG Version: 6.00 Build 0)  -->
<svg version="1.1" xmlns="http://www.w3.org/2000/svg" xmlns:xlink="http://www.w3.org/1999/xlink" x="0px" y="0px"
	 viewBox="0 0 2000 8000" style="enable-background:new 0 0 2000 8000;" xml:space="preserve">
<style type="text/css">
	.st0{fill:none;stroke:#FCC201;stroke-width:5;stroke-miterlimit:10;}
	.st1{fill:none;stroke:#FCC201;stroke-width:5;stroke-miterlimit:10;stroke-dasharray:20.0235,20.0235;}
	.st2{fill:#E6E6E6;}
	.st3{fill:#FCC201;}
</style>
<g id="Livello_2">
	<line class="st0" x1="1509.7" y1="766.3" x2="760" y2="2339"/>
	<line class="st0" x1="208.1" y1="4894.9" x2="1494.6" y2="4362.9"/>
	<g>
		<g>
			<path class="st0" d="M1759.6,763.8c-2.8,1.8-5.6,3.6-8.4,5.5"/>
			<path class="st1" d="M1734.6,780.4c-803.6,544.5-636.4,1507-559.1,2046.8c78.1,545.4-1040.4,1391.1-476.1,1788.7
				c828.9,583.9,760.2,2282.6,479.3,2424.4c-218.7,110.4-488.9-220.4-759.8-98c-195.7,88.4-356.9,341.1-294.1,555.6
				c81.9,279.9,521,415.7,727.1,253.3c98.5-77.6,107.1-153.5,110.5-217"/>
			<path class="st0" d="M962.8,7524.1c0.2-3.4,0.3-6.7,0.5-10"/>
		</g>
	</g>
	<line class="st0" x1="644.8" y1="5805.5" x2="1470.6" y2="7088.5"/>
	<path class="st0" d="M1301.9,7290.2c-723.1-251.9-1446.1-503.8-2169.2-755.7"/>
	<polyline class="st0" points="-536.4,4265.2 2484.3,2535.5 2484.3,3225.9 -605.8,4416.3 	"/>
</g>
<g id="Livello_1">
	<g>
		<path class="st2" d="M2084.3,68.7c0,0-509.6-111.3-506.6,71.5s165.4,185.9-26.6,190c-192,4.1-203.9,25-190,55.1
			s71.5-13.8,27.6,69.4s-171,77.3-211.4,14.3c-52.7-82-5.9-102.8-110.3-83.7c-103,18.8-68.7-52.9-159.3-40.9s-30.1,182.3-47,187.9
			c-16.9,5.6-28.1,20.2,2,47c30.1,26.8,239.4-10,222.6,190c-16.7,199.9,277.5,230.3,165.4-20.4s282.3-89.6,261.4-8.2
			s70.5,68.4,251.2,138.9s221.6,280.3,382,102.1s77.6-210.5,77.6-210.5L2084.3,68.7z"/>
		<path class="st3" d="M2084,69.1c-0.3,0-0.4,0.1-0.8,0l-1-0.1l-2.1-0.3l-4.2-0.5l-8.3-1l-16.7-2l-16.7-1.9l-16.7-1.8
			c-22.2-2.4-44.4-4.5-66.6-6.3c-44.4-3.6-88.7-6.2-132.9-6.3c-22.1,0-44,0.5-65.8,2.1c-21.8,1.6-43.3,4.2-64.2,8.7
			c-10.4,2.3-20.6,4.9-30.4,8.3c-9.8,3.4-19.2,7.4-27.6,12.4c-8.5,4.9-16,10.8-21.8,17.6c-5.8,6.8-10.1,14.4-12.6,22.9
			c-1.2,4.3-2.1,8.7-2.4,13.3c-0.1,1.2-0.2,2.3-0.2,3.5l-0.1,1.8c0,0.6,0,1.3,0,1.9c0,2.7,0,5.3,0,8c0.2,10.6,0.8,21.2,2.1,31.7
			c2.5,21,7.6,41.9,15.7,61.8c4,10,8.8,19.7,14.2,29.2c2.7,4.8,5.6,9.5,8.5,14.1c3,4.7,6,9.4,9,14.3c1.5,2.5,3,5,4.3,7.9
			c0.6,1.4,1.2,3,1.7,4.8c0.2,0.9,0.3,1.9,0.4,2.9c0,1-0.1,2.2-0.5,3.3c-0.7,2.3-2.3,4.1-3.9,5.2c-1.6,1.1-3.1,1.7-4.6,2.3
			c-3,1-5.9,1.5-8.8,1.9c-5.7,0.7-11.4,1-17,1.2c-5.6,0.2-11.2,0.2-16.8,0.3c-22.4,0.1-44.7-0.1-67.1,0.5
			c-11.2,0.3-22.3,0.7-33.5,1.6c-11.1,0.8-22.3,2.1-33.3,3.7c-22.1,3.3-44.1,7.5-65.1,13.1c-5.2,1.5-10.4,3-15.2,4.9
			c-4.8,1.9-9.4,4-12.9,6.7c-1,0.6-1.6,1.4-2.4,2c-0.3,0.3-0.6,0.7-0.9,1.1c-0.1,0.2-0.3,0.3-0.4,0.5l-0.3,0.5
			c-0.9,1.4-1.4,2.8-1.5,4.5c-0.1,1.7,0.1,3.7,0.6,5.9c0.6,2.2,1.4,4.5,2.5,6.8c0.1,0.3,0.2,0.5,0.3,0.7c0.1,0.2,0.2,0.4,0.3,0.6
			c0.2,0.4,0.4,0.8,0.7,1.2c0.5,0.7,1,1.4,1.7,2c1.3,1.2,2.8,2.2,4.8,2.9c2,0.8,4.3,1.3,6.8,1.7c2.5,0.4,5.2,0.7,8.1,1.2
			c2.9,0.4,6,0.9,9.5,2.2c1.7,0.7,3.6,1.6,5.4,3.1c1.8,1.4,3.3,3.5,4.2,5.5c0.9,2.1,1.3,4.1,1.4,6c0.1,1.9,0,3.6-0.2,5.3
			c-0.4,3.3-1.3,6.3-2.2,9.1c-1.9,5.7-4.3,10.9-6.8,16.1c-2.5,5.1-5.3,10.1-8.1,15l-1,1.8l-1.2,1.8l-2.3,3.7l-1.2,1.8
			c-0.4,0.6-0.8,1.2-1.3,1.8l-2.6,3.5c-1.6,2.4-3.6,4.5-5.5,6.7c-1.8,2.2-4,4.2-5.9,6.2c-8.2,8-17.6,14.7-27.6,20
			c-10,5.3-20.7,9.3-31.7,12c-11,2.7-22.3,4.1-33.6,4.3c-11.3,0.2-22.6-0.7-33.8-2.8c-11.2-2.1-22.2-5.4-32.8-10
			c-1.3-0.6-2.6-1.3-3.9-1.9c-1.3-0.6-2.6-1.2-3.9-1.9l-3.8-2.2l-1.9-1.1c-0.6-0.4-1.2-0.8-1.8-1.2c-2.4-1.6-5-3.2-7.3-5l-3.5-2.7
			l-3.3-3c-2.3-1.9-4.3-4.2-6.4-6.4c-1.1-1.1-2-2.3-3-3.4l-2.9-3.6c-3.5-4.6-6.7-9.4-9.9-14.2c-6.2-9.8-11.8-20.1-16.4-30.8
			c-2.3-5.4-4.3-10.8-6.2-16.1l-2.8-7.7c-0.9-2.4-1.8-4.8-2.8-6.7c-0.5-1-1-1.8-1.4-2.5c-0.5-0.7-0.9-1.2-1.3-1.7
			c-0.8-0.8-1.4-1.3-2.7-1.8c-0.6-0.3-1.4-0.4-2.2-0.7c-0.9-0.2-1.8-0.4-2.8-0.5c-2.1-0.3-4.4-0.4-6.9-0.4c-4.9,0-10.2,0.3-15.6,0.6
			c-5.4,0.4-10.9,0.8-16.4,1.2l-16.7,1.3l-8.7,0.5l-8.7,0.2c-11.6,0-23.4-1.2-34.7-4.3c-5.6-1.6-11.1-3.9-16.2-6.8
			c-5.1-2.9-9.7-6.4-14-10.1c-4.3-3.7-8.5-7.5-12.8-10.8c-4.3-3.3-8.9-6.1-13.8-8c-4.9-1.9-10-2.9-15.1-3.2
			c-2.5-0.2-5.2-0.1-7.7-0.1l-3.9,0.3l-1.9,0.2l-2,0.3l-3.9,0.6c-1.3,0.2-2.6,0.5-3.9,0.8c-1.3,0.3-2.6,0.5-3.9,0.8l-3.9,0.9
			l-1.9,0.4c-0.6,0.1-1.3,0.3-1.9,0.5c-1.1,0.3-2.3,0.6-3.4,1c-2.2,0.7-4.3,1.5-6.3,2.5c-4,1.8-7.4,4.1-10.5,6.8
			c-3,2.7-5.8,5.8-8.1,9.6c-4.7,7.4-7.6,16.8-9.4,26.7c-1.8,10-2.5,20.5-2.7,31.2c-0.2,10.7,0.3,21.6,0.9,32.5
			c0.7,11,1.6,22,2.4,33.3c0.4,5.6,0.7,11.3,0.8,17.3c0,3,0,6-0.4,9.5c-0.2,1.8-0.4,3.5-1.2,5.9c-0.4,1.2-0.9,2.5-2,4.1
			c-0.5,0.8-1.3,1.7-2.4,2.5c-0.9,0.7-2.7,1.6-3.3,1.7c-4.4,1.2-8.5,3.3-10.6,5.7c-0.5,0.6-0.9,1.2-1.2,1.9
			c-0.3,0.7-0.5,1.4-0.6,2.1c-0.2,1.6,0,3.5,0.6,5.5c0.6,2,1.7,4.2,3,6.3c1.3,2.1,2.8,4.2,4.4,6.2c0.8,1,1.7,2,2.6,3
			c0.9,1,1.8,1.9,2.7,2.9l1.4,1.4c0.2,0.2,0.5,0.5,0.7,0.7l0.6,0.5c0.3,0.3,0.8,0.6,1.2,1c0.4,0.3,0.9,0.6,1.4,0.9
			c2.1,1.2,4.4,2.2,6.9,3c2.5,0.9,5.1,1.6,7.7,2.3c5.3,1.4,10.7,2.5,16.2,3.5c21.9,4,44.2,7.4,66,13c10.9,2.8,21.7,6,32.2,10.1
			c10.5,4.1,20.9,8.5,31.2,13.8c5.1,2.6,10.2,5.5,15.1,8.7c2.5,1.5,4.9,3.3,7.3,5c2.4,1.8,4.8,3.6,7,5.6c2.3,1.9,4.5,4,6.7,6.1
			c2.1,2.2,4.2,4.4,6.2,6.7c2,2.3,3.8,4.8,5.6,7.2c0.9,1.2,1.7,2.5,2.5,3.8l1.2,1.9c0.4,0.7,0.8,1.3,1.1,2c0.8,1.3,1.5,2.7,2.2,4
			c0.7,1.4,1.3,2.8,2,4.1l1,2.1l0.9,2.1c0.6,1.4,1.1,2.8,1.7,4.3c0.5,1.4,1,2.9,1.4,4.3c0.5,1.5,1,2.9,1.3,4.4
			c0.8,2.9,1.5,5.9,2.1,8.8c2.4,11.8,3.5,23.8,3.6,35.6c0,5.9-0.1,11.8-0.5,17.6c-0.1,2.9-0.5,5.8-0.7,8.7l-0.8,8.2
			c-1,10.5-1.2,21-0.4,31.5c0.8,10.5,2.6,20.9,5.5,31c2.9,10.1,6.9,20,12.2,29.3c1.4,2.3,2.6,4.6,4.2,6.8l2.2,3.4l2.4,3.2l1.2,1.6
			c0.4,0.5,0.8,1,1.3,1.6l2.5,3.1c0.9,1,1.8,2,2.7,3c0.9,1,1.8,2,2.7,3c7.5,7.8,16,14.7,25.4,20.2c2.3,1.4,4.8,2.7,7.2,3.9
			c1.2,0.6,2.5,1.2,3.7,1.7l1.9,0.8c0.6,0.3,1.3,0.5,1.9,0.8l3.8,1.5l3.9,1.3c1.3,0.5,2.6,0.8,4,1.1c1.3,0.3,2.7,0.8,4,1
			c5.4,1.3,10.9,1.9,16.4,2.1c5.5,0.3,11.1-0.2,16.5-1.2c10.9-1.9,21.4-6.8,29.9-14c8.5-7.3,14.8-17,18.5-27.5l1.4-4
			c0.4-1.3,0.7-2.7,1.1-4l0.5-2c0.2-0.7,0.3-1.4,0.4-2.1l0.8-4.1c0.2-1.4,0.3-2.8,0.5-4.1l0.2-2.1c0.1-0.7,0.2-1.4,0.2-2.1l0.2-4.2
			l0.1-2.1l0-2.1c0-11.1-1.4-22.2-3.8-33.1c-2.4-10.9-5.6-21.5-9.5-31.9c-3.9-10.4-8.3-20.5-13.3-30.4l-3.7-7.5l-1.9-3.8l-1.9-3.8
			c-2.5-5.1-4.8-10.3-7-15.6c-4.4-10.6-8.1-21.6-10.6-33.2c-1.3-5.8-2.1-11.8-2.5-17.9c-0.4-6.1-0.2-12.4,0.9-18.8
			c0.2-1.6,0.6-3.2,0.9-4.8c0.4-1.6,0.8-3.2,1.4-4.8c1-3.2,2.3-6.3,3.9-9.4c1.6-3,3.5-6,5.6-8.7c2.1-2.7,4.5-5.3,7.1-7.6
			c5.2-4.6,11-8.2,17.1-10.9c6.1-2.7,12.3-4.5,18.5-5.8c12.4-2.5,24.7-2.8,36.6-2c23.9,1.6,46.7,7.5,68.3,15.6
			c21.7,8.1,42.3,18.6,61.6,31.1c9.7,6.2,19,12.9,27.9,20.2c4.5,3.6,8.8,7.4,13,11.4c4.2,3.9,8.2,8.1,12.1,12.5
			c3.8,4.4,7.4,9,10.6,13.9c3.2,5,6,10.3,7.7,16.1c1.8,5.8,2.4,12.3,0.8,18.4l-1,4c-0.3,1.3-0.6,2.6-0.9,4c-0.5,2.7-0.9,5.3-1.1,8
			c-0.3,2.7-0.3,5.3-0.1,8c0.1,2.6,0.6,5.2,1.2,7.7c0.6,2.5,1.6,4.9,2.8,7.2c1.2,2.3,2.6,4.5,4.3,6.5c3.3,4,7.4,7.5,11.9,10.4
			c4.5,3,9.3,5.5,14.3,7.7c10,4.5,20.5,8,31.1,11.2c10.6,3.2,21.4,6.1,32.2,8.9c21.6,5.6,43.4,11,65.1,16.8
			c21.7,5.7,43.4,11.9,64.9,18.7c5.4,1.7,10.7,3.4,16.1,5.2l8,2.7c1.3,0.5,2.7,0.9,4,1.4l4.1,1.5c10.9,4,21.6,8.5,32,13.6
			c20.8,10.2,40.5,22.6,58.9,36.3c18.5,13.7,35.8,28.6,52.4,43.6c16.7,15,32.9,30.2,49.6,43.4c4.2,3.3,8.4,6.5,12.7,9.4
			c2.1,1.5,4.3,2.9,6.5,4.3c2.2,1.3,4.3,2.7,6.6,3.9c2.2,1.3,4.4,2.4,6.6,3.5c2.2,1,4.5,2.1,6.7,3c2.2,1,4.5,1.7,6.8,2.5l3.4,1
			c1.1,0.3,2.3,0.5,3.4,0.8c4.6,1,9.2,1.6,13.8,1.6c4.6,0,9.3-0.4,13.9-1.2c1.2-0.2,2.3-0.5,3.5-0.8l1.7-0.4l1.7-0.5
			c1.2-0.3,2.3-0.7,3.5-1l3.5-1.2c1.2-0.4,2.3-0.9,3.4-1.4l3.4-1.4l3.4-1.6l1.7-0.8c0.6-0.3,1.1-0.6,1.7-0.9
			c9-4.8,17.7-10.7,26-17.2c8.4-6.5,16.4-13.7,24.2-21.3l5.8-5.7l5.7-5.9c1.9-1.9,3.8-4,5.7-6l5.6-6.1l5.6-6.1l5.5-6.2
			c3.7-4.1,7.4-8.2,10.9-12.4l5.4-6.3c1.8-2.1,3.6-4.2,5.3-6.3l5.2-6.4c1.7-2.1,3.5-4.3,5.1-6.5c6.7-8.7,13.3-17.5,19.3-26.7
			c1.5-2.3,3.1-4.5,4.5-6.8l4.3-7c0.7-1.2,1.5-2.3,2.1-3.5l2-3.6l2-3.6c0.7-1.2,1.3-2.4,1.9-3.6l3.6-7.3l3.3-7.4
			c0.6-1.2,1-2.5,1.5-3.8l1.4-3.8c0.5-1.3,0.9-2.5,1.3-3.8l1.2-3.9c0.4-1.3,0.6-2.6,1-3.9l0.9-3.9l0.6-4l0.3-2
			c0.1-0.7,0.1-1.3,0.2-2c0.1-1.3,0.2-2.7,0.3-4l0-4l0-1l-0.1-1l-0.2-2c-0.1-0.7-0.1-1.3-0.2-2l-0.4-1.9c-0.9-5.2-2.8-10.3-5.7-14.8
			c-1.5-2.2-3.1-4.4-5.1-6.3c-1.9-1.9-4.1-3.6-6.5-4.9l0,0l-0.3-0.1l-0.1-0.3L2084,69.1z M2084.7,68.4l139,702.8l-0.3-0.4l0,0
			c5.4,2.1,10.1,5.7,13.8,10.2c3.7,4.5,6.5,9.8,8.2,15.5l0.6,2.1c0.2,0.7,0.3,1.4,0.5,2.2l0.4,2.2l0.2,1.1l0.1,1.1l0.5,4.4
			c0.1,1.5,0.1,2.9,0.2,4.4c0,0.7,0.1,1.5,0.1,2.2l-0.1,2.2l-0.2,4.4l-0.5,4.3c-0.2,1.4-0.3,2.9-0.6,4.3l-0.8,4.3
			c-0.3,1.4-0.5,2.9-0.9,4.2l-1.1,4.2c-0.4,1.4-0.7,2.8-1.2,4.2l-2.7,8.2l-3.1,8c-0.5,1.4-1.1,2.7-1.7,4l-1.8,3.9l-1.8,3.9
			c-0.6,1.3-1.3,2.6-1.9,3.8l-3.9,7.7c-1.3,2.5-2.7,5-4.1,7.5c-11.2,19.9-24,38.7-37.7,56.8c-3.3,4.6-6.9,9-10.4,13.4l-5.3,6.7
			l-5.4,6.5l-5.4,6.5c-1.8,2.2-3.6,4.3-5.5,6.5l-5.7,6.5l-5.8,6.3c-7.9,8.4-16.2,16.5-25.1,24.1c-8.9,7.6-18.5,14.8-29,20.9
			c-10.5,6.2-22.2,11.1-34.7,14c-6.3,1.4-12.8,2.1-19.4,2.3c-6.6,0.1-13.1-0.5-19.5-1.7c-1.6-0.3-3.2-0.6-4.8-1l-4.7-1.2
			c-3-0.9-6.1-1.9-9-3c-3-1.1-5.8-2.4-8.7-3.6c-2.8-1.3-5.6-2.7-8.3-4.2c-2.7-1.4-5.3-3-7.9-4.5c-2.5-1.6-5.1-3.2-7.6-4.9
			c-5-3.3-9.7-6.8-14.4-10.3c-9.2-7.1-18-14.5-26.5-22c-8.5-7.5-16.9-15-25.1-22.4c-16.5-14.9-32.9-29.5-49.9-43
			c-17-13.5-34.6-26.1-53.3-36.8c-9.3-5.4-18.9-10.4-28.7-14.9l-3.7-1.7c-1.2-0.6-2.5-1.1-3.8-1.7l-7.6-3.3l-15.3-6.5
			c-20.5-8.5-41.3-16.5-62.2-24c-21-7.5-42.2-14.5-63.5-21.4c-10.6-3.5-21.3-6.9-31.9-10.6c-10.6-3.7-21.2-7.7-31.5-12.6
			c-5.1-2.5-10.2-5.2-15-8.5c-2.4-1.6-4.7-3.4-6.9-5.4c-2.2-1.9-4.3-4.1-6.1-6.4c-1.9-2.3-3.5-4.8-4.9-7.5c-1.3-2.7-2.5-5.5-3.2-8.4
			c-1.5-5.8-1.9-11.8-1.5-17.6c0.1-2.9,0.6-5.8,1-8.6c0.2-1.4,0.5-2.8,0.8-4.3l0.5-2.1l0.2-1.1c0.1-0.4,0.1-0.7,0.2-1
			c0.5-2.4,0.6-4.8,0.3-7.3c-0.3-2.5-0.9-4.9-1.8-7.3c-0.9-2.4-2-4.7-3.3-7c-1.3-2.3-2.8-4.4-4.4-6.5c-3.2-4.2-6.9-8.1-10.9-11.8
			c-7.9-7.3-16.7-13.7-25.9-19.5c-9.2-5.8-18.8-11-28.6-15.7c-19.6-9.5-40-17.3-60.6-23.6c-10.3-3.2-20.7-5.9-31.1-8.2
			c-10.4-2.2-20.8-4-31.2-4.9c-10.3-0.9-20.6-0.9-30.2,0.6c-9.6,1.5-18.5,4.5-25.3,9.7c-1.7,1.3-3.3,2.7-4.7,4.3
			c-1.4,1.6-2.8,3.2-3.9,5.1c-1.2,1.8-2.2,3.8-3.1,5.9c-0.5,1-0.8,2.1-1.2,3.2c-0.3,1.1-0.7,2.2-1,3.4c-2.5,9.1-2.7,19.5-1.6,30
			c1,10.5,3.3,21.1,6.3,31.6c1.5,5.3,3.1,10.5,4.9,15.7l1.4,3.9l1.4,3.9l2.9,7.9c0.9,2.7,2,5.3,2.9,8l2.7,8c0.9,2.7,1.7,5.4,2.5,8.1
			l1.2,4.1c0.4,1.4,0.7,2.7,1.1,4.1c0.7,2.7,1.5,5.4,2.1,8.2l1.9,8.2c0.6,2.8,1.1,5.5,1.6,8.3l0.4,2.1l0.3,2.1l0.6,4.2
			c1.6,11.1,2.5,22.4,2,33.6l-0.1,2.1l-0.2,2.1l-0.4,4.2c-0.1,1.4-0.4,2.8-0.6,4.2c-0.2,1.4-0.4,2.8-0.6,4.2l-0.9,4.1
			c-0.2,0.7-0.3,1.4-0.5,2l-0.6,2c-0.4,1.3-0.7,2.7-1.2,4l-1.4,3.9c-3.9,10.5-10.2,20.1-18.6,27.5c-4.2,3.7-8.9,6.8-13.9,9.3
			c-5,2.5-10.4,4.4-15.8,5.6c-5.5,1.3-11.1,2-16.8,2.1c-1.4,0.1-2.8,0-4.2,0c-1.4,0-2.8,0-4.2-0.2l-4.2-0.3l-4.2-0.6
			c-5.6-0.9-11.2-2.1-16.6-3.8c-0.7-0.2-1.4-0.4-2-0.6l-2-0.7c-1.3-0.5-2.7-0.9-4-1.5c-2.6-1.1-5.3-2.1-7.9-3.4
			c-20.8-9.6-39.1-25-53-43.9c-13.9-18.9-23-41.5-27-64.9c-2-11.7-2.8-23.6-2.5-35.4l0.3-8.5c0.1-2.7,0.3-5.4,0.2-8
			c0.1-5.3,0-10.6-0.3-15.9c-0.5-10.5-1.8-20.9-3.9-30.9c-1.1-5-2.5-9.9-3.8-14.8c-0.8-2.4-1.4-4.9-2.3-7.2
			c-0.4-1.2-0.8-2.4-1.2-3.6c-0.5-1.2-0.9-2.4-1.3-3.6c-0.4-1.2-0.9-2.4-1.4-3.5c-0.5-1.2-0.9-2.4-1.4-3.5c-1.1-2.3-2.1-4.7-3.2-7
			c-1.1-2.3-2.4-4.6-3.6-6.9c-1.4-2.2-2.6-4.5-4.1-6.7c-1.4-2.2-3-4.3-4.6-6.5c-1.7-2.1-3.3-4.2-5.2-6.2c-1.8-2-3.7-3.9-5.7-5.8
			l-3-2.7c-1-0.9-2.1-1.7-3.2-2.6c-8.6-6.8-18.4-12.2-28.6-16.3c-5.2-2-10.4-3.8-15.7-5.4c-5.3-1.6-10.7-3-16.1-4.2
			c-10.8-2.5-21.8-4.4-32.8-5.9c-11-1.5-22.1-2.7-33.3-4.1c-5.6-0.7-11.2-1.4-16.8-2.4c-2.8-0.5-5.7-1.1-8.5-1.8
			c-2.9-0.7-5.8-1.7-8.7-3c-0.7-0.3-1.5-0.7-2.2-1.1c-0.7-0.4-1.5-0.8-2.2-1.4l-1.1-0.8c-0.3-0.3-0.6-0.5-0.9-0.7l-1.7-1.4
			c-2.2-1.9-4.4-3.9-6.5-6c-2.1-2.1-4.1-4.4-6-6.9c-1.9-2.5-3.6-5.2-5-8.4c-1.3-3.2-2.3-6.8-2.3-10.8c0.1-2,0.4-4.1,1-6
			c0.7-2,1.6-3.8,2.7-5.5c1.1-1.6,2.4-3.1,3.8-4.4c1.4-1.3,2.8-2.4,4.3-3.4c2.9-2,6-3.4,9-4.6c0.1-0.1-1.1,0.4-1.5,0.7
			c-0.5,0.3-0.8,0.7-1,0.9c-0.3,0.5-0.3,0.5-0.3,0.3c0.1-0.4,0.1-1.4,0.2-2.4c0-2.2-0.2-4.7-0.4-7.3c-0.6-5.2-1.4-10.6-2.3-16.1
			c-3.6-21.9-7.4-44.4-8.3-67.7c-0.4-11.6-0.2-23.5,1.6-35.6c0.9-6,2.2-12.1,4.2-18.2c2-6.1,4.6-12.2,8.1-18
			c1.8-2.9,3.8-5.7,6.1-8.4c2.3-2.7,4.8-5.1,7.6-7.4c5.6-4.4,12-7.7,18.6-9.7c3.3-1,6.6-1.7,9.9-2.1c1.6-0.2,3.3-0.3,4.9-0.4
			c0.8-0.1,1.6,0,2.3-0.1l2.2,0l4.5,0c1.5,0,3,0.1,4.5,0.2c1.5,0.1,3,0.2,4.5,0.3l4.5,0.6l2.2,0.3l2.3,0.4l4.5,0.9
			c3,0.8,5.9,1.4,8.8,2.5c5.8,1.9,11.4,4.5,16.4,7.7c5.1,3.2,9.6,7,13.8,10.9c4.2,3.9,8.1,7.9,12.3,11.4c4.2,3.6,8.6,6.7,13.3,9.1
			c4.8,2.4,9.9,4,15.1,4.9c10.6,1.6,21.4,0.7,32-1.5l7.9-1.8l7.9-2.1c2.6-0.7,5.4-1.6,8.1-2.3c2.7-0.7,5.5-1.5,8.2-2.2
			c5.5-1.4,11.1-2.6,16.8-3.7c5.7-1,11.5-1.9,17.8-2.1c3.1-0.1,6.4-0.1,9.9,0.2c1.7,0.2,3.6,0.5,5.4,0.9c1.9,0.5,3.8,1,5.8,1.9
			c4,1.6,8,4.4,10.9,7.8c1.4,1.7,2.7,3.4,3.7,5c1,1.7,1.8,3.3,2.5,4.9c1.4,3.2,2.4,6.1,3.3,8.9c0.9,2.8,1.7,5.5,2.5,8.2
			c1.6,5.3,3.1,10.5,4.8,15.6c3.3,10.2,7.2,20.1,11.9,29.9c2.3,4.9,4.8,9.7,7.4,14.5l2,3.3c0.7,1.1,1.3,2.2,2.1,3.2
			c1.5,2.1,2.9,4.3,4.7,6.2c6.7,8,15,15,24.3,20.5c9.3,5.5,19.5,9.7,30.2,12.4c21.3,5.6,44.1,5.6,65.5,0.1
			c10.7-2.7,21-6.9,30.5-12.4c9.5-5.6,18.1-12.5,25.4-20.6c1.8-2.1,3.7-4,5.2-6.3c1.6-2.2,3.3-4.3,4.7-6.6l2.2-3.4
			c0.3-0.6,0.7-1.1,1.1-1.7l0.9-1.8l1.9-3.6l0.9-1.8l0.9-1.9c2.4-5,4.6-10,6.7-15.1c2-5.1,3.9-10.2,5.2-15.2c0.6-2.5,1.1-5,1.2-7.2
			c0.2-2.2-0.2-4.3-0.7-5.2c-0.3-0.5-0.5-0.7-0.9-1c-0.4-0.3-1.1-0.6-1.9-0.9c-1.8-0.6-4.2-0.9-6.9-1.1c-2.6-0.2-5.5-0.4-8.5-0.8
			c-3-0.4-6.2-0.9-9.5-2.1c-1.6-0.6-3.3-1.3-4.9-2.2c-1.6-0.9-3.2-2-4.6-3.3c-1.5-1.3-2.7-2.7-3.8-4.3c-0.6-0.8-1-1.6-1.5-2.4
			c-0.2-0.4-0.4-0.8-0.6-1.2c-0.2-0.4-0.4-0.8-0.6-1.2c-1.3-2.8-2.5-5.7-3.4-8.9c-0.9-3.2-1.5-6.8-1.2-10.7c0.1-1,0.2-1.9,0.4-2.9
			c0.2-1,0.5-1.9,0.8-2.9c0.7-1.9,1.5-3.7,2.6-5.3l0.8-1.2c0.3-0.4,0.6-0.7,0.9-1.1c0.6-0.7,1.2-1.5,1.8-2.1c1.3-1.2,2.6-2.5,4-3.4
			c5.5-4,11.2-6.4,16.9-8.4c5.7-1.9,11.4-3.2,17-4.3c11.3-2.1,22.7-3.1,33.9-3.6c11.3-0.6,22.5-0.7,33.8-0.8l16.8-0.1l16.8-0.3
			c11.2-0.2,22.3-0.6,33.5-1c22.3-0.8,44.7-1.5,67-3.2c5.6-0.4,11.1-1,16.6-1.6c5.5-0.7,11-1.5,16.3-2.7c2.6-0.6,5.2-1.4,7.4-2.4
			c1.1-0.5,2.1-1.1,2.7-1.7c0.7-0.6,0.9-1.1,0.9-1.5c0-0.2,0-0.5,0-0.9c-0.1-0.4-0.2-0.8-0.3-1.2c-0.3-0.9-0.9-1.9-1.5-3
			c-1.3-2.1-2.9-4.2-4.5-6.3c-3.4-4.3-7.1-8.5-10.7-12.8c-3.6-4.3-7.2-8.8-10.7-13.3c-7-9.1-13.5-18.7-19.3-28.8
			c-5.8-10.1-10.9-20.7-15.1-31.7c-4.2-11-7.6-22.3-10.2-33.8c-2.5-11.5-4.3-23.2-5.2-34.9c-0.2-2.9-0.5-5.9-0.6-8.8
			c0-0.8-0.1-1.4-0.1-2.3l-0.1-2.4c-0.1-1.6,0-3.2,0-4.9c0.2-6.5,1.1-13.2,2.7-19.7c3.2-13.1,9.9-25.6,18.6-35.8
			c8.7-10.2,19.2-18.1,30-24.4c10.9-6.3,22.2-11,33.6-14.8c11.4-3.8,22.9-6.6,34.4-8.9c11.5-2.2,23-3.9,34.5-5.1
			c11.5-1.2,22.9-2,34.4-2.4c22.9-0.9,45.6-0.5,68.2,0.7c45.2,2.4,90,8.1,134.3,15.8c22.2,3.9,44.2,8.3,66.1,13.3l16.4,3.8l16.3,4.1
			c5.4,1.4,10.9,2.8,16.3,4.3l8.1,2.3l4,1.2l2,0.6l1,0.3C2083.8,68,2084.3,68.2,2084.7,68.4z"/>
	</g>
	<g>
		<path class="st2" d="M-210.2,1936.1c23.5,23.5,159.3,16.3,159.3,16.3s31.7-77.6,124.6,4.1s216.5,117.4,116.4,173.6
			c-100.1,56.2,213.4,119.5,279.8,134.8s57.2,17.9,98,14.3c40.9-3.6,71.5-41.1,81.7-53.1c10.2-12.1,27.6-56.2,96,22.5
			c68.4,78.6,64.3,69.4,65.4,112.3c1,42.9,20.4,67.4,20.4,67.4s75.4,72.9,114.4,49s78.1-7.1,116.4,10.2
			c38.3,17.4,16,65.4-56.8,104.2c-72.9,38.8-135,83.4-108.6,140.9s9.2,92.9-4.1,153.2c-13.3,60.3-5.1,40.9-26.6,102.1
			c-21.4,61.3-34.7,59.1-63.3,79.7c-28.6,20.6-149.9,53.4-171.6,12.3c-21.7-41.1-207.6-14.4-198.1,30.6
			c9.4,45.1-42.6,71.2-136.9,51.1S5.5,3173.9,5.5,3173.9s-114.6-9.2-119.7-42.9S-210.2,1936.1-210.2,1936.1z"/>
		<path class="st3" d="M-210.4,1935.6c0.3,0.1,0.6,0.2,0.9,0.5l0.5,0.5c0.3,0.3,0.6,0.5,1,0.8c0.7,0.5,1.3,1,2,1.4
			c1.4,0.9,2.9,1.6,4.4,2.3c3.1,1.4,6.2,2.4,9.5,3.4c6.5,1.8,13.1,3.1,19.8,4.1c13.3,2,26.8,3,40.3,3.6c13.5,0.6,27,0.8,40.5,0.8
			c13.5-0.1,27-0.4,40.5-1l0,0l-0.4,0.3c1.1-3.3,2.7-6.4,4.4-9.4c1.7-3,3.8-5.8,6-8.5c2.2-2.7,4.7-5.2,7.5-7.5
			c2.7-2.2,5.7-4.3,8.9-6c6.4-3.3,13.6-5.4,20.8-5.9c7.3-0.6,14.6,0.3,21.5,2c3.5,0.8,6.9,1.9,10.3,3.1c3.4,1.2,6.6,2.6,9.8,4.1
			c6.4,3.1,12.5,6.6,18.3,10.4c5.8,3.8,11.5,8,16.9,12.3c2.7,2.2,5.4,4.4,7.9,6.5c2.6,2.1,5.2,4.2,7.8,6.3
			c20.9,16.7,43.1,31.7,65.4,47c11.1,7.7,22.3,15.4,33.3,23.7c5.5,4.1,10.9,8.4,16.2,12.9c5.3,4.6,10.4,9.4,15.2,14.8
			c2.4,2.7,4.6,5.6,6.7,8.7c2,3.1,3.9,6.5,5.2,10.3c1.3,3.7,2.1,7.8,1.9,12c-0.1,4.1-1.2,8.2-2.9,11.7c-1.7,3.6-3.9,6.7-6.3,9.5
			c-2.4,2.8-5.1,5.3-7.8,7.6c-5.5,4.6-11.3,8.4-17.3,11.9c-2.9,1.8-6.1,3.4-8.8,5c-2.8,1.6-5.4,3.4-7.7,5.5c-1.2,1-2.3,2.1-3.2,3.2
			c-1,1.1-1.8,2.3-2.5,3.5c-1.3,2.4-1.9,5-1.5,7.5c0.3,2.6,1.6,5.2,3.3,7.6c1.7,2.4,3.9,4.7,6.3,6.8c4.8,4.2,10.3,7.8,16.1,11.1
			c5.7,3.3,11.7,6.2,17.8,8.9c6.1,2.7,12.3,5.3,18.5,7.7c12.5,4.8,25.3,9.1,38.2,13c25.8,7.9,51.9,14.6,78.2,20.7
			c26.3,6.1,52.7,11.6,79.3,16.9c13.3,2.7,26.5,5.2,39.9,8c13.3,2.8,26.7,5.8,39.9,9c6.6,1.6,13.1,3.2,19.1,4.2
			c1.5,0.2,3,0.5,4.4,0.6l2.2,0.2l2.2,0.1c1.4,0.1,3,0,4.5,0.1c1.5,0,3.1-0.1,4.6-0.1l4.8-0.3l4.9-0.4c1.6-0.1,3.3-0.3,5-0.4
			l2.5-0.2c0.4,0,0.9-0.1,1.2-0.1l1.1-0.1c2.9-0.3,5.7-0.9,8.5-1.6c2.8-0.7,5.6-1.6,8.4-2.7c11.1-4.3,21.5-11.1,31-19.3
			c4.8-4.1,9.4-8.5,13.8-13.1c2.2-2.3,4.4-4.7,6.5-7.2l3.2-3.7l1.5-1.8c0.3-0.4,0.7-0.9,1.2-1.5c1.8-2.4,4-5.5,6.5-8.6
			c2.5-3,5.5-6.1,9.2-8.9c3.6-2.7,8-5,12.8-6.2c4.7-1.3,9.6-1.5,14.1-0.9c2.3,0.3,4.4,0.7,6.5,1.3c2.1,0.6,4,1.3,5.9,2
			c3.8,1.5,7.2,3.4,10.5,5.4c6.5,4,12.1,8.7,17.4,13.5c5.3,4.9,10.1,9.9,14.8,15.2c2.3,2.6,4.6,5.3,6.8,7.9c2.2,2.7,4.4,5.4,6.4,8.1
			l25.1,32c4.2,5.3,8.4,10.7,12.5,16.2c4.1,5.4,8.2,11,12,16.8c1.9,2.9,3.6,6,5.1,9.2c1.5,3.2,2.7,6.7,3.4,10.2
			c1.4,7.1,1.2,14,1.2,20.7l-0.1,10.2c0,3.4,0.1,6.7,0.4,10.1c0.3,3.3,0.6,6.7,1.2,10c0.5,3.3,1.1,6.6,1.9,9.9
			c1.5,6.5,3.6,13,6.3,19.2c2.7,6.1,5.8,12.2,9.8,17.5l-0.1-0.1c7,6.5,14.5,12.5,22.2,18.1c7.7,5.6,15.7,10.8,24,15.3
			c4.1,2.3,8.4,4.4,12.6,6.3c4.3,1.9,8.6,3.6,13,5c4.4,1.4,8.8,2.5,13.2,3.1c2.2,0.3,4.4,0.5,6.5,0.6c2.1,0,4.2-0.1,6.2-0.3
			c4-0.5,7.7-1.8,10.9-3.7l2.7-1.7c1.1-0.7,2.2-1.4,3.3-2.1c1.1-0.6,2.3-1.3,3.4-1.9l3.5-1.8c9.5-4.5,20.1-7.2,30.6-7.8
			c10.6-0.6,21.1,0.7,31,3.1c9.9,2.4,19.3,6,28.2,10.2c4.5,2.1,8.8,4.3,13.1,6.6c2.1,1.1,4.2,2.3,6.4,3.5l1.6,0.9l1.7,1
			c1.2,0.7,2.3,1.4,3.5,2.2c4.5,3.1,8.7,7.2,11.5,12.3c1.4,2.5,2.4,5.3,3,8c0.6,2.8,0.7,5.6,0.6,8.3c-0.3,5.4-2,10.4-4.1,15
			c-2.1,4.6-4.7,8.8-7.6,12.8c-5.8,8-12.6,15-19.8,21.5c-7.2,6.5-14.9,12.4-22.8,17.9c-7.9,5.6-16.2,10.7-24.5,15.4
			c-16.5,9.5-32.9,19.3-48.6,29.7c-7.9,5.2-15.5,10.7-23.1,16.4c-7.5,5.7-14.8,11.7-21.4,18.4c-6.6,6.7-12.6,14.2-16.6,22.8
			c-4.1,8.6-6.1,18.3-5.2,27.8c0.1,1.2,0.3,2.4,0.4,3.6c0.2,1.2,0.4,2.4,0.7,3.5c0.5,2.3,1.2,4.6,1.9,6.9c1.5,4.5,3.7,8.8,5.8,13.1
			c1.9,4.4,3.9,8.8,5.5,13.3c0.9,2.2,1.6,4.5,2.4,6.8c0.7,2.3,1.5,4.6,2,7c1.3,4.7,2.3,9.4,3.1,14.3c0.8,4.8,1.3,9.7,1.6,14.6
			c0.3,4.9,0.3,9.9,0.1,14.8c-0.2,4.9-0.6,9.8-1.2,14.7c-2.2,19.5-6.4,38.3-10.1,56.9l-5.5,27.9l-2.7,14c-0.9,4.7-1.8,9.4-2.8,14.3
			c-1.1,4.9-2.4,9.9-3.8,14.6c-1.5,4.7-3,9.3-4.6,13.9c-3.2,9.1-6.6,18.1-10.1,27.1c-3.5,9.1-7.3,18.1-11.9,26.9
			c-2.3,4.4-4.8,8.8-7.6,13c-2.8,4.2-5.9,8.4-9.5,12.1c-3.6,3.8-7.6,7.2-11.7,10.1c-4.2,2.9-8.4,5.4-12.6,7.8
			c-4.1,2.4-8.2,4.8-12.2,7.3l-3,1.9c-1.1,0.7-2.2,1.4-3.3,2c-2.2,1.3-4.4,2.4-6.7,3.4c-4.5,2.1-9,3.9-13.6,5.6
			c-4.6,1.7-9.1,3.2-13.8,4.6c-9.2,2.8-18.6,5.3-28,7.4c-9.4,2.1-18.9,3.8-28.4,5.1c-9.5,1.2-19.2,2.1-28.8,2.1
			c-9.6,0-19.4-0.7-28.9-3.2c-4.7-1.3-9.4-3.1-13.7-5.8c-4.3-2.7-8.1-6.4-10.6-10.9c-2.1-3.8-5.5-6.6-9.4-8.8
			c-3.9-2.2-8.3-3.7-12.7-4.9c-8.9-2.4-18.3-3.4-27.7-3.9c-9.4-0.4-18.8-0.2-28.2,0.7c-9.4,0.8-18.7,2.2-28,4
			c-9.2,1.8-18.4,4.1-27.3,6.7c-8.9,2.6-17.7,5.7-26,9.3c-4.1,1.8-8.2,3.7-12,5.9c-3.8,2.1-7.4,4.5-10.3,7c-2.9,2.5-5.1,5.3-5.9,7.6
			c-0.4,1.2-0.6,2.2-0.5,3.3c0,0.1,0,0.3,0,0.4c0,0.2,0,0.2,0.1,0.6l0.3,2c0.2,1.4,0.3,2.8,0.4,4.2c0.3,5.6-0.3,11.4-2,16.8
			c-1.8,5.5-4.7,10.5-8.3,14.6c-3.7,4.2-8,7.4-12.5,10c-4.5,2.6-9.3,4.4-14,5.9c-9.5,2.9-19.1,4.2-28.7,5
			c-9.6,0.8-19.1,1.2-28.7,0.9c-9.6-0.3-19.1-1.1-28.6-2.4c-4.7-0.6-9.5-1.3-14.2-2.1l-14.1-2.5c-18.8-3-38-3.7-57-3.5
			c-19.1,0.2-38.1,1.3-57.1,2.7c-19,1.4-38,3.3-56.9,5.3c-19,2-37.9,4.1-56.8,6.4c-18.9,2.3-37.9,4.9-56.6,7.9l-0.8,0.1l-0.7-0.1
			c-7.1-0.6-14-1.4-21-2.4c-7-0.9-13.9-2-20.8-3.2c-13.8-2.5-27.7-5.5-41.3-9.9c-6.8-2.2-13.6-4.8-20.2-8.3
			c-3.3-1.7-6.6-3.7-9.7-6.1c-3.1-2.4-6.2-5.2-8.7-9c-1.2-1.9-2.3-4-3-6.3c-0.2-0.6-0.3-1.2-0.5-1.8c-0.1-0.3-0.1-0.6-0.2-0.9
			c-0.1-0.3-0.1-0.6-0.1-0.8l-0.3-2.7c-0.4-3.7-0.7-7.1-1.1-10.6c-0.7-6.9-1.2-13.8-1.9-20.8c-4.8-55.3-9.2-110.6-13.6-165.9
			c-8.8-110.6-17.3-221.2-25.6-331.8l-12.4-165.9l-12.1-165.9l-11.8-166l-5.8-83l-2.8-41.5l-1.4-20.8l-0.7-10.4l-0.3-5.2l-0.1-1.3
			c0-0.4-0.1-0.9-0.1-1.4C-210.6,1937.5-210.5,1936.5-210.4,1935.6z M-210,1936.5c0.2,0.8,0.4,1.5,0.5,2.2c0.1,0.3,0.1,0.7,0.1,1.2
			l0.1,1.3l0.5,5.2l0.9,10.4l1.8,20.7l3.7,41.4l7.2,82.9l14.3,165.8c9.4,110.5,18.8,221.1,28,331.6l27.6,331.6l7,82.9
			c2.3,27.6,4.7,55.3,7.1,82.9c0.6,6.9,1.2,13.8,1.9,20.7c0.3,3.4,0.6,6.9,1,10.1l0.3,2.5c0,0.2,0,0.3,0.1,0.5c0,0.1,0,0.3,0.1,0.4
			c0.1,0.3,0.1,0.5,0.2,0.8c0.3,1,0.8,2,1.5,3c1.3,2,3.4,4,5.8,5.8c2.4,1.8,5.1,3.4,7.9,4.9c5.7,2.9,11.9,5.3,18.3,7.4
			c12.8,4.1,26.1,7.1,39.6,9.5c6.7,1.2,13.5,2.2,20.3,3.1c6.8,0.9,13.6,1.7,20.3,2.3l-1.6,0.1c19.1-3.1,38-5.6,57.1-8
			c19.1-2.4,38.2-4.4,57.3-5.8c38.3-2.8,76.9-3.6,115.3-1.2c19.2,1.3,38.4,3.2,57.2,7.1c4.7,1,9.3,2.2,14,3.1
			c4.7,1,9.4,1.8,14.1,2.6c9.4,1.5,19,2.5,28.5,2.9c9.5,0.3,19.2,0.2,28.6-1.4c9.4-1.5,18.6-4.4,26.8-9c4.1-2.3,7.8-4.9,11.1-8
			c3.2-3,5.9-6.4,7.9-10c4-7.2,4.8-15,3.6-22.9c-0.2-1-0.3-2-0.5-3l-0.3-1.5l-0.2-1.1c-0.1-0.4-0.2-0.9-0.2-1.3
			c-0.5-3.6-0.1-7.5,1-10.8c1.1-3.4,2.8-6.3,4.7-8.8c1.9-2.5,4-4.6,6.1-6.5c4.3-3.7,8.9-6.5,13.5-9c4.6-2.4,9.3-4.4,14-6.2
			c9.5-3.5,19.1-5.9,28.7-7.8c9.7-1.9,19.4-3.2,29.1-4.1c9.7-0.9,19.4-1.4,29.2-1.5c9.7-0.1,19.4,0.2,29.1,1
			c9.7,0.9,19.4,2.4,28.8,5.4c4.7,1.5,9.4,3.4,13.7,6.1c2.2,1.3,4.2,2.9,6.1,4.7c0.9,0.9,1.8,1.9,2.6,3c0.8,1.1,1.5,2.3,2.1,3.4
			c2,3.9,5.1,7.2,8.8,9.8c3.7,2.6,8,4.4,12.5,5.8c8.9,2.7,18.5,3.5,27.9,3.5c9.5,0,19-0.9,28.4-2.3c9.4-1.4,18.7-3.4,27.9-5.7
			c9.2-2.4,18.3-5.2,27.2-8.5c8.9-3.3,17.6-7,25.8-11.5c2-1.1,4-2.3,5.9-3.6c0.9-0.6,1.8-1.3,2.7-1.9l2.9-2.2
			c3.9-2.9,7.9-5.7,11.8-8.4c3.9-2.7,7.7-5.4,11.2-8.3c3.5-2.9,6.5-6,9.2-9.4c5.4-6.8,9.5-15,13.1-23.5c3.6-8.5,6.6-17.4,9.5-26.3
			l8.6-27.2l2.1-6.8c0.6-2.2,1.3-4.5,1.9-6.7c1.3-4.5,2.3-8.8,3.2-13.3c0.9-4.5,1.7-9.2,2.6-13.9c0.9-4.7,1.8-9.5,2.8-14.2
			c1-4.7,2-9.4,3.1-14.1l1.7-7l1.8-7c2.5-9.4,5.2-18.6,8-27.7l4.2-13.6c1.3-4.5,2.6-9.1,3.8-13.6c2.4-9.1,4.2-18.2,5-27.5
			c0.4-4.7,0.6-9.3,0.4-14c0-2.3-0.2-4.7-0.4-7c-0.3-2.3-0.5-4.7-0.9-7c-0.3-2.3-0.8-4.7-1.3-7c-0.6-2.3-1-4.6-1.7-6.9
			c-1.2-4.6-2.8-9.1-4.5-13.6c-1.8-4.4-3.8-8.8-5.2-13.4c-1.4-4.6-2.4-9.3-2.7-14.1c-0.8-9.5,0.8-19.2,4.2-28.2
			c3.4-9,8.3-17.6,14.2-25.3c5.8-7.8,12.6-14.9,19.9-21.4c7.3-6.5,15.1-12.3,23.1-17.7c16.1-10.8,33-20,50.2-28.5
			c8.5-4.2,16.8-8.7,24.9-13.7c8-5,15.7-10.6,22.8-16.8c7.1-6.2,13.6-13.2,18.7-20.9c2.6-3.9,4.7-8,6.2-12.3
			c1.5-4.3,2.2-8.7,1.9-12.9c-0.2-2.1-0.6-4.1-1.4-5.9c-0.7-1.8-1.8-3.5-3-5c-2.5-3-5.8-5.2-9.5-6.8c-0.9-0.4-1.9-0.8-2.9-1.1
			l-3.3-1.1l-6.7-2.4l-13.3-4.6c-8.8-3-17.5-5.8-26.2-8c-8.7-2.2-17.3-3.5-25.9-3.4c-8.6,0.1-17,1.6-25.1,4.5l-3,1.2
			c-1,0.4-2,0.9-3,1.3c-1,0.4-2,1-2.9,1.5l-3.6,1.8c-5.4,2.5-11.2,3.6-16.7,3.6c-2.8,0-5.5-0.2-8.1-0.6c-2.6-0.4-5.2-1-7.7-1.7
			c-5-1.4-9.7-3.2-14.2-5.3c-9-4.2-17.3-9.4-25.3-15c-7.9-5.6-15.5-11.5-22.9-17.7c-7.4-6.2-14.5-12.5-21.5-19.2l0,0l0,0
			c-4-5.6-7.1-11.7-9.9-17.9c-2.7-6.2-4.9-12.7-6.7-19.3c-1.8-6.6-3-13.3-3.8-20.1c-0.4-3.4-0.7-6.8-0.9-10.2l-0.5-10.2
			c-0.4-6.7-0.7-13.5-2.4-19.6c-1.7-6.2-5.2-11.6-9.2-16.9c-8.2-10.4-17.7-20-27.1-29.8l-28.3-29.2c-2.4-2.5-4.7-4.8-7-7.1
			c-2.3-2.3-4.7-4.6-7.1-6.9c-2.4-2.2-4.8-4.4-7.3-6.6c-2.4-2.1-4.9-4.2-7.5-6.2c-5-3.9-10.2-7.5-15.5-10.3c-5.2-2.8-10.5-4.7-15-5
			c-2.2-0.2-4.2,0.1-6,0.7c-1.8,0.6-3.5,1.5-5.2,2.9c-1.7,1.4-3.5,3.2-5.2,5.4c-1.8,2.2-3.4,4.7-5.6,7.8c-0.5,0.8-1.2,1.6-1.9,2.5
			l-1.7,2.1l-3.4,4c-2.3,2.7-4.7,5.3-7.1,7.9c-4.9,5.2-10,10.2-15.6,14.9c-11,9.4-23.6,17.7-37.9,23c-3.6,1.3-7.3,2.4-11,3.4
			c-3.8,0.8-7.6,1.6-11.5,1.9l-1.5,0.2c-0.5,0.1-0.9,0.1-1.3,0.1l-2.6,0.2c-1.7,0.1-3.4,0.3-5.2,0.4c-1.7,0.1-3.5,0.2-5.2,0.3
			l-5.3,0.2c-1.8,0-3.6,0.1-5.5,0c-1.9-0.1-3.8-0.1-5.7-0.2l-2.9-0.2l-2.9-0.4c-1.9-0.2-3.7-0.6-5.6-0.9c-1.8-0.4-3.6-0.8-5.4-1.2
			l-5.1-1.3l-9.9-2.7c-13.1-3.6-26-7.1-39-10.4l-39.4-9.8c-26.3-6.6-52.6-13.5-78.8-20.9c-26.2-7.4-52.2-15.3-78-24.2
			c-12.9-4.5-25.7-9.1-38.3-14.4c-12.6-5.2-25.1-10.9-37.1-17.9c-6-3.6-11.8-7.4-17.2-12.2c-2.7-2.4-5.2-5.1-7.4-8.2
			c-2.2-3.1-4-6.8-4.6-10.9c-0.3-2.1-0.2-4.2,0.2-6.3c0.4-2.1,1.2-4,2.1-5.8c0.9-1.8,2.1-3.4,3.3-4.8c1.2-1.5,2.6-2.8,3.9-4
			c2.8-2.4,5.7-4.5,8.7-6.4c3.1-1.9,5.9-3.4,8.7-5.2c5.6-3.5,11-7.4,15.7-11.7c4.7-4.3,8.8-9.2,10.9-14.5c2.2-5.3,1.9-10.6-0.3-15.8
			c-2.2-5.2-6.1-10.1-10.5-14.6c-4.4-4.5-9.5-8.7-14.7-12.7c-5.2-4-10.6-7.9-16.1-11.7c-11-7.6-22.3-14.9-33.6-22.5
			c-22.5-15.1-44.9-30.9-65.8-48.8c-5.2-4.4-10.4-9.2-15.2-13.5c-5-4.3-10-8.5-15.3-12.4c-5.3-3.9-10.7-7.5-16.4-10.6
			c-2.8-1.6-5.7-3.1-8.6-4.4c-1.5-0.7-2.9-1.3-4.4-1.9c-1.5-0.5-3-1.1-4.5-1.6c-6-2-12.3-3.2-18.6-3.3c-6.3-0.1-12.6,1-18.5,3.3
			c-5.9,2.4-11.4,6-16.2,10.4c-4.8,4.5-9,9.8-12.3,15.6l-0.2,0.3l-0.3,0l0,0c-13.5,0.6-27,0.9-40.6,1c-13.5,0.1-27.1-0.1-40.6-0.8
			c-13.5-0.6-27-1.7-40.4-3.6c-6.7-1-13.4-2.3-19.9-4.1c-3.3-0.9-6.5-2-9.6-3.4c-1.6-0.7-3.1-1.5-4.5-2.4c-0.7-0.5-1.4-0.9-2.1-1.5
			c-0.3-0.3-0.7-0.5-1-0.8l-0.2-0.2l-0.1-0.1c0,0,0,0,0,0C-210,1936.9-209.9,1936.7-210,1936.5z"/>
	</g>
	<g>
		<path class="st2" d="M1244.1,2367.1c-27.6,27.6-89.9,6.1-61.3,69.4s65.4,35.4,69.4,73.5c4.1,38.2,190,37.3,124.6-28.6
			s5.9-68.2,10.2-114.4C1391.4,2320.8,1271.7,2339.5,1244.1,2367.1z"/>
		<path class="st3" d="M1246.8,2369.8c-1.5,1.4-3.1,2.6-4.8,3.6c-1.7,1-3.5,1.8-5.4,2.5c-3.7,1.4-7.4,2.3-10.9,3.5l-5.3,1.8
			c-1.8,0.6-3.5,1.1-5.3,1.6l-10.6,3c-3.5,1-7,2-10.4,3.4c-3.4,1.3-6.6,2.9-9.4,5c-2.8,2.1-4.9,4.8-6,7.9c-1.1,3.1-1.3,6.6-0.9,10
			c0.8,6.9,3.4,13.7,6.4,20.2c3.1,6.5,6.5,12.9,10.6,18.7c1,1.4,2,2.9,3.1,4.3l1.6,2.1c0.6,0.7,1.2,1.3,1.7,2
			c2.3,2.7,4.8,5.1,7.4,7.3c2.6,2.3,5.5,4.2,8.4,5.9c2.9,1.8,6,3.3,9.3,4.7c3.3,1.4,6.7,2.6,10.2,4.2c0.9,0.4,1.8,0.8,2.7,1.2
			c0.9,0.4,1.8,0.9,2.7,1.4c0.9,0.5,1.8,1.1,2.7,1.7c0.9,0.6,1.8,1.3,2.6,2c0.8,0.8,1.7,1.5,2.4,2.4c0.4,0.4,0.8,0.8,1.1,1.3l1,1.4
			c0.7,0.9,1.2,1.9,1.7,2.9c0.5,1,0.9,2,1.4,3c0.4,1,0.7,2,1,3.1c0.3,1,0.5,2,0.7,3.1c0.3,1,0.3,2,0.5,3l0.2,1.5
			c0.1,0.3,0.1,0.5,0.1,0.8c0.4,2,2,4.2,4.3,6.1c2.3,1.9,5.2,3.6,8.2,5c6.1,2.9,13,4.8,19.9,6.5c13.9,3.1,28.5,4.5,42.9,4.3
			c7.2-0.1,14.5-0.7,21.6-1.9c7.1-1.2,14.1-3.1,20.5-6.2c3.2-1.6,6.1-3.5,8.6-5.9c2.5-2.4,4.2-5.3,4.9-8.5c0.7-3.2,0.1-6.7-1.1-9.9
			c-1.2-3.2-3.1-6.3-5.2-9.1l-1.6-2.1l-1.8-2c-1.2-1.4-2.5-2.6-3.7-3.9l-3.9-4l-2-2l-1.9-2.1c-5-5.5-9.8-11.3-13.8-17.8
			c-0.5-0.8-1-1.6-1.4-2.5l-1.4-2.5c-0.4-0.9-0.8-1.8-1.2-2.7l-0.6-1.3c-0.2-0.4-0.4-0.9-0.5-1.4l-0.9-2.8l-0.2-0.7l-0.2-0.7
			l-0.3-1.5c-0.2-1-0.4-2-0.5-3c-0.1-1-0.2-2-0.2-3.1c-0.1-4.1,0.8-8.2,2.3-12c1.5-3.8,3.6-7.2,5.9-10.3c4.6-6.3,9.7-11.6,14.2-17.2
			c2.2-2.8,4.3-5.6,6.2-8.5c1.8-2.9,3.4-5.9,4.6-9c1.1-3.1,2-6.3,2.3-9.5c0.1-0.8,0.2-1.7,0.2-2.4c0-0.4,0-0.7,0-1.1l-0.1-1.1
			c-0.1-1.4-0.3-2.8-0.8-4c-0.9-2.5-2.5-4.7-4.8-6.5c-2.2-1.9-5.1-3.3-8.1-4.5c-6.1-2.3-13-3.4-20-3.9c-3.5-0.2-7-0.3-10.6-0.3
			c-3.5,0-7.1,0.2-10.7,0.4c-7.1,0.5-14.3,1.4-21.3,2.6c-7.1,1.2-14.1,2.8-21,4.7c-6.9,1.9-13.7,4.2-20.3,7c-3.3,1.4-6.4,3-9.4,4.7
			C1252,2365.6,1249.2,2367.6,1246.8,2369.8z M1241.4,2364.3c2.9-2.9,6-5.4,9.3-7.5c3.3-2.1,6.6-4,10.1-5.7
			c6.9-3.4,13.9-6.1,21.1-8.4c14.4-4.6,29.2-7.5,44.4-8.8c7.6-0.6,15.2-0.8,22.9-0.2c7.7,0.6,15.5,1.8,23.1,4.8
			c1.9,0.8,3.8,1.6,5.7,2.7c1.9,1,3.7,2.3,5.4,3.7c3.4,2.9,6.3,6.8,7.8,11.3c0.8,2.2,1.1,4.5,1.2,6.8c0.1,2.3-0.1,4.5-0.5,6.5
			c-0.5,4.1-1.8,8-3.3,11.8c-1.6,3.8-3.6,7.2-5.8,10.5c-2.3,3.2-4.8,6.2-7.3,9c-5.1,5.6-10.5,10.6-14.9,16
			c-4.4,5.4-7.6,11.4-7.9,17.9c0,0.8,0,1.6,0,2.5c0,0.8,0.1,1.7,0.3,2.5l0.2,1.2l0.1,0.6l0.2,0.6l0.7,2.5c0.1,0.4,0.2,0.8,0.4,1.2
			l0.5,1.2c0.3,0.8,0.6,1.6,1,2.4l1.2,2.4c0.4,0.8,0.7,1.6,1.2,2.4c0.9,1.5,1.7,3.1,2.8,4.6c1,1.5,2,3,3,4.5l3.3,4.3
			c1.1,1.4,2.3,2.8,3.5,4.2l1.8,2.1l1.9,2l3.7,4c2.5,2.8,5.1,5.5,7.3,8.6c2.2,3.1,4.2,6.4,5.6,10.1c1.3,3.7,2,7.8,1.1,11.8
			c-0.8,4-3,7.6-5.8,10.4c-2.8,2.8-6,5-9.4,6.8c-6.8,3.6-14,5.7-21.4,7.5c-3.7,0.8-7.4,1.5-11.1,2.1c-3.7,0.5-7.4,1-11.2,1.3
			c-7.5,0.6-15,0.9-22.5,0.6c-7.5-0.2-15-0.9-22.5-2.1c-7.5-1.3-15-3.1-22.3-6.3c-3.7-1.6-7.3-3.6-10.7-6.3c-1.7-1.3-3.3-3-4.7-4.9
			c-1.4-1.9-2.5-4.3-3.2-6.9c-0.1-0.6-0.2-1.3-0.4-1.9l-0.2-1.2c-0.1-0.8-0.2-1.7-0.4-2.4c-0.2-0.8-0.3-1.6-0.5-2.3
			c-0.2-0.7-0.4-1.5-0.7-2.2c-1-2.8-2.6-5.1-4.7-7c-2.1-1.9-5-3.4-8.1-4.9c-3.2-1.5-6.6-2.9-10.1-4.5c-3.5-1.6-6.9-3.5-10.2-5.6
			c-3.3-2.2-6.4-4.6-9.2-7.3c-5.7-5.4-10.4-11.6-14.3-18.1c-3.9-6.5-7-13.4-9.8-20.4c-1.4-3.5-2.6-7.1-3.5-10.8
			c-1-3.7-1.7-7.5-1.9-11.4c-0.2-3.9,0.2-8,1.8-11.7c1.6-3.8,4.4-6.9,7.6-9.1c3.2-2.2,6.8-3.7,10.3-4.9c3.6-1.2,7.1-2.2,10.7-3.1
			c3.6-0.9,7.2-1.8,10.7-2.7c1.8-0.5,3.5-1,5.3-1.5c1.7-0.5,3.5-1.1,5.2-1.8c1.7-0.7,3.3-1.6,4.8-2.6c1.5-1,2.9-2.1,4.3-3.3
			C1236.7,2369.2,1239.1,2366.7,1241.4,2364.3z"/>
	</g>
	<g>
		<path class="st2" d="M2033.9,3784.8c-10.2-3.1-20.4-70.5-112.3,77.6c-91.9,148.1-23.5,137.9-157.3,163.4
			c-133.8,25.5-265.5-38.8-288,61.3c-22.5,100.1-28.6,165.4-28.6,165.4s4.1,71.5,47,110.3c42.9,38.8,42.9,117.7,118.5,110.3
			s275.7,57.7,316.6,175.7s55.1,88.6,134.8-20.1c79.7-108.6,123.6-130.1,155.2-206.7c31.7-76.6,51.1-500.4,51.1-500.4L2033.9,3784.8
			z"/>
		<path class="st3" d="M2029.6,3794.7l-0.8-0.3c-0.1,0-0.4-0.2-0.6-0.3l-0.7-0.4c-0.2-0.1-0.5-0.3-0.6-0.4l-0.5-0.3
			c-0.3-0.2-0.7-0.5-0.9-0.7c-0.5-0.4-1-0.9-1.4-1.2l-0.6-0.6l-0.5-0.5c-1.2-1.3-2.1-2.4-2.9-3.4c-1.5-1.9-2.8-3.4-4-4.7
			c-1.2-1.2-2.3-2.1-3.1-2.5c-0.9-0.5-1.5-0.6-2.2-0.7c-0.7,0-1.5,0-2.5,0.3c-1.1,0.3-2.4,0.8-3.8,1.6c-2.8,1.5-5.9,3.7-8.9,6.3
			c-6.1,5.2-12.1,11.6-17.9,18.3c-5.8,6.7-11.5,13.7-17,20.9c-11.1,14.4-21.7,29.5-32,44.8c-10.4,15.3-20.4,30.7-29.6,46.7l-3.4,6
			l-3.3,6.1c-2.3,4-4.3,8.1-6.5,12.2c-4.2,8.2-8.1,16.6-11.9,25.1c-3.9,8.5-7.5,17.2-12.7,25.6c-0.7,1-1.4,2.1-2.1,3.1l-2.4,2.9
			c-0.9,0.9-1.8,1.8-2.7,2.7c-0.9,0.9-1.9,1.6-2.9,2.5c-4,3.1-8.4,5.3-12.9,7.2c-9,3.5-18.2,5.6-27.3,7.7c-9.2,2-18.3,3.8-27.5,5.6
			l-13.7,2.7c-4.6,0.9-9.2,1.9-13.8,2.7c-9.2,1.7-18.5,3-27.9,4.2c-37.3,4.5-75.3,5.2-112.6,5.9c-18.6,0.4-37.1,0.7-54.8,2.4
			c-4.4,0.4-8.8,1-13,1.6c-4.2,0.7-8.4,1.5-12.4,2.5c-4,1-7.8,2.2-11.4,3.6c-3.6,1.4-7,3.1-10,5c-6.1,3.8-11.1,8.6-14.9,14.7
			c-1.9,3-3.6,6.3-5,9.9c-1.4,3.6-2.5,7.4-3.4,11.3c-4.1,18-8.2,36.1-12.1,54.2c-3.9,18.1-7.6,36.2-11,54.4
			c-1.7,9.1-3.4,18.2-5,27.3l-2.3,13.7c-0.7,4.5-1.5,9.2-2.1,13.5l0-1.6c0,0.3,0,0.9,0,1.3l0.1,1.5l0.2,3c0.2,2,0.3,4.1,0.6,6.2
			c0.5,4.1,1,8.2,1.7,12.3c0.7,4.1,1.5,8.2,2.4,12.2c0.9,4.1,2,8.1,3.1,12.1c1.1,4,2.5,7.9,3.9,11.8c1.5,3.9,3,7.7,4.8,11.5
			c1.7,3.8,3.6,7.4,5.7,11c1.1,1.7,2.1,3.6,3.2,5.2l1.7,2.6c0.6,0.8,1.2,1.7,1.8,2.5c2.4,3.3,5,6.5,7.7,9.5l4.4,4.5
			c1.6,1.7,3.3,3.3,4.8,5c6.1,6.9,11.2,14.4,15.6,22.1c9,15.3,15.9,31.3,24.6,45.9c4.3,7.3,9.2,14.2,15,20.1c2.9,2.9,6,5.6,9.4,7.9
			c1.6,1.2,3.5,2.1,5.2,3.2c0.4,0.3,0.9,0.5,1.4,0.7l1.4,0.6c0.9,0.4,1.8,0.9,2.8,1.2c7.6,2.9,15.9,4.2,24.2,4.1
			c2.1,0.1,4.2-0.1,6.2-0.3l3.2-0.2l3.3-0.3c4.5-0.3,8.9-0.4,13.3-0.4c17.7,0.1,35.2,2.2,52.6,5c17.4,2.8,34.6,6.6,51.7,11
			c34.1,9.1,67.8,21.4,99.3,38.9c15.7,8.8,30.9,18.8,45,30.5c14.1,11.6,27.2,24.9,38.5,39.8c11.3,14.9,20.9,31.6,27.2,49.9
			c2.8,8.1,5.6,16.1,8.6,23.9c3,7.8,6.2,15.5,9.7,22.6c1.7,3.6,3.6,7,5.5,10c1.9,3,3.9,5.7,5.7,7.3c0.9,0.9,1.6,1.4,2.1,1.6
			c0.5,0.3,0.6,0.3,0.7,0.3c0.1,0,0.2,0.1,0.8-0.1c0.2-0.1,0.3-0.1,0.5-0.1c0.2-0.1,0.4-0.1,0.6-0.2c0.5-0.2,0.9-0.4,1.5-0.7
			c1.1-0.6,2.3-1.4,3.6-2.3c1.3-0.9,2.6-2.1,4-3.3c2.7-2.4,5.4-5.2,8.1-8.2c5.4-5.9,10.7-12.5,15.9-19.1
			c10.4-13.4,20.7-27.3,31.1-41.3c5.2-7,10.3-13.9,15.7-20.9l8-10.5c2.6-3.5,5.4-6.9,8.2-10.3c2.7-3.4,5.4-6.9,8.2-10.3l8.4-10.1
			l4.2-5.1l4.3-5l8.6-10c11.5-13.2,23.3-26.1,34.9-38.9c11.6-12.8,22.9-25.5,33-38.8c10.1-13.3,19-27.2,26.3-42.2l0.7-1.4l0.6-1.4
			l1.3-2.8l2.6-5.7l1.3-2.8c0.4-0.9,0.7-1.8,1.1-2.6c0.4-0.8,0.7-1.8,1-2.7c0.3-0.9,0.7-1.8,1-2.8c2.5-7.7,4.5-15.8,6.4-24.1
			c3.7-16.6,6.6-33.5,9.3-50.5c5.3-34,9.5-68.4,13.5-102.8c3.9-34.4,7.5-68.9,10.8-103.4c1.7-17.3,3.3-34.5,4.9-51.8l4.6-51.8
			c3-34.6,6-69.1,8.8-103.7l0,0l0.2,0.5c-20.3-10.5-40.4-21.1-60.6-31.7l-60.3-31.8l-60.1-31.9L2029.6,3794.7z M2038.1,3775
			l58.5,36.4l58.4,36.5l58.1,36.6c19.3,12.3,38.7,24.4,57.9,36.8l0.3,0.2l0,0.3l0,0c-1,69.4-3.4,138.9-7,208.2
			c-1.8,34.7-3.9,69.4-6.5,104.1c-2.6,34.7-5.7,69.4-10,104c-2.1,17.4-4.6,34.7-7.9,52.1c-1.7,8.7-3.6,17.5-6.2,26.4
			c-0.3,1.1-0.7,2.3-1.1,3.4c-0.4,1.1-0.7,2.2-1.2,3.4c-0.4,1.1-0.8,2.3-1.3,3.4l-1.3,3.1l-2.6,6.2l-1.3,3.1l-0.7,1.6l-0.7,1.5
			c-7.5,16.4-17,32.2-27.5,46.7c-10.6,14.6-22,28.1-33.4,41.3c-11.4,13.2-22.8,26.1-33.8,39.3l-8.2,9.9l-4.1,5l-4,5l-8,10.1
			c-2.6,3.4-5.2,6.8-7.9,10.2c-2.6,3.4-5.3,6.8-7.8,10.2l-7.6,10.3c-5.1,6.8-10.1,13.9-15.2,21c-10.1,14.1-20.2,28.3-30.9,42.4
			c-5.4,7-10.9,14.1-17.2,21.1c-3.1,3.5-6.4,6.9-10.1,10.4c-1.9,1.7-3.8,3.4-6,5.1c-2.1,1.7-4.5,3.3-7.2,4.8
			c-1.3,0.8-2.8,1.5-4.4,2.1c-0.8,0.3-1.6,0.6-2.5,0.9c-0.8,0.3-1.8,0.5-2.6,0.8c-3.6,1-7.9,1.4-12.1,0.9c-4.2-0.5-8.3-2-11.6-3.8
			c-3.3-1.8-6.1-4-8.3-6.1c-2.3-2.2-4.2-4.3-5.9-6.5c-1.7-2.2-3.2-4.3-4.6-6.5c-2.8-4.3-5.1-8.5-7.2-12.7c-4.2-8.4-7.7-16.8-11-25.1
			c-3.3-8.3-6.3-16.7-9.2-25c-5.1-14.6-13-28.3-22.8-40.9c-9.7-12.7-21.4-24.1-33.8-34.7c-12.5-10.6-25.9-20.5-39.8-29.7
			c-14-9.2-28.5-17.8-43.5-25.7c-15-7.9-30.4-15.2-46.2-21.7c-7.9-3.2-15.9-6.3-24-9c-8.1-2.8-16.3-5.2-24.6-7.4
			c-16.6-4.3-33.5-7.5-50.5-8.3c-4.2-0.2-8.5-0.2-12.7,0l-3.1,0.2l-3.3,0.2c-2.2,0.1-4.5,0.3-6.7,0.2c-9,0-18.2-1.3-26.8-4.6
			c-8.6-3.3-16.4-8.6-22.9-15c-6.4-6.4-11.9-13.7-16.6-21.2c-9.5-15-17-30.7-26.3-44.8c-4.6-7.1-9.7-13.7-15.5-19.5
			c-1.4-1.5-2.9-2.8-4.4-4.2l-5-4.5c-3.3-3.2-6.5-6.5-9.4-10c-5.9-7-11-14.7-15.4-22.6c-2.3-4-4.2-8-6.2-12.2
			c-1.9-4.1-3.7-8.3-5.2-12.5c-1.6-4.2-3.1-8.5-4.4-12.8c-1.3-4.3-2.6-8.7-3.6-13.1c-1.1-4.4-2-8.8-2.9-13.3
			c-0.4-2.2-0.8-4.5-1.2-6.7c-0.2-1.1-0.3-2.3-0.5-3.4l-0.2-1.7c-0.1-0.6-0.1-1.1-0.2-1.9l0-0.5l0.1-1.1c0.3-4.9,0.7-9.5,1.1-14.3
			c0.4-4.7,0.8-9.4,1.3-14.1c1-9.4,2-18.7,3.2-28.1c2.4-18.7,5.1-37.3,8.4-55.8c3.2-18.5,6.8-37,10.8-55.4
			c1.1-5.1,2.6-10.3,4.6-15.5c2-5.1,4.4-10.2,7.5-15.1c3.1-4.9,6.7-9.5,10.9-13.5c4.2-4.1,8.9-7.6,13.8-10.5
			c4.9-2.9,10.1-5.2,15.2-7c5.2-1.8,10.3-3.1,15.5-4c5.1-0.9,10.2-1.6,15.2-2c5-0.4,10-0.6,14.9-0.6c9.8,0,19.4,0.5,28.9,1.3
			c4.7,0.4,9.5,0.9,14.1,1.4l14,1.6c18.6,2.3,37,4.7,55.5,6.3c18.5,1.6,37,2.3,55.5,1.4c9.2-0.5,18.5-1.3,27.7-2.7
			c4.6-0.7,9.1-1.5,13.7-2.3c4.6-0.8,9.2-1.7,13.7-2.6c9.1-1.8,18.3-3.7,27.3-5.9c9-2.2,18-4.7,26.2-8.3c4.1-1.9,7.9-4.1,11.1-7
			c3.3-2.8,5.8-6.3,7.9-10.1c2.1-3.9,3.8-8,5.4-12.3c1.6-4.3,3.1-8.7,4.6-13.1c3-8.9,6.1-17.8,9.5-26.6c1.7-4.4,3.4-8.8,5.2-13.2
			l2.7-6.6l2.8-6.5c7.6-17.3,16.1-34.3,25.4-50.8c9.2-16.5,18.9-32.7,29.8-48.5c5.4-7.9,11.2-15.6,17.5-23.1
			c6.4-7.4,13.3-14.7,21.7-21.2c2.1-1.6,4.3-3.2,6.7-4.7c2.4-1.5,5-2.9,7.8-4.1c2.8-1.2,6-2.3,9.5-2.9c3.5-0.6,7.4-0.7,11.4,0.1
			c3.9,0.8,7.7,2.5,10.6,4.6c3,2.1,5.3,4.5,7.2,6.8c1.9,2.3,3.4,4.5,4.7,6.3c0.6,0.9,1.2,1.7,1.5,2.1l0.1,0.1c0,0,0,0,0,0.1
			c0,0.1,0,0-0.1,0c0,0-0.2-0.1-0.2-0.2l-0.1-0.1l-0.3-0.2c-0.1-0.1-0.2-0.1-0.3-0.2C2038.2,3775,2038.1,3774.9,2038.1,3775
			C2038.1,3775,2038.1,3775,2038.1,3775z"/>
	</g>
	<g>
		<path class="st2" d="M-209.6,4612.7c18.4,5.2,365.6-129.6,396.3,44c30.6,173.6,4.1,116.4,24.5,261.4
			c20.4,145,65.4,343.1,65.4,343.1s10.2,94,98,110.3c87.8,16.3,63.3-26.6,134.8,20.4s164.4,185.9,196.1,122.6
			c31.7-63.3,155.2,8.2,155.2,8.2s102.1,30.6,171.6-4.1c69.4-34.7,179.7-51.1,151.1,12.3c-28.6,63.3-73.5,94-73.5,94l-109.9,61.3
			c0,0-133.1,18.4-237.3,65.4c-104.2,47-161.4,91.9-322.7,77.6s-326.8-53.1-384-53.1s-265.5-192-265.5-192s14.3-104.2,61.3-310.5
			S-209.6,4612.7-209.6,4612.7z"/>
		<path class="st3" d="M-209.9,4612.3c0.2-0.1,0.6-0.1,0.9-0.1l0.5,0c0.3,0,0.6-0.1,1-0.1c0.7-0.1,1.3-0.3,2-0.4
			c1.3-0.3,2.6-0.7,3.9-1.2c2.6-0.8,5.2-1.8,7.8-2.7c2.6-0.9,5.2-1.9,7.8-2.8l7.8-2.8c10.3-3.8,20.7-7.6,31.2-11.2
			c20.9-7.2,42.1-13.9,63.6-19.7c21.5-5.8,43.4-10.7,65.6-14.3c22.2-3.6,44.9-5.9,68-6c11.5,0,23.2,0.6,34.9,2
			c11.7,1.5,23.5,3.7,35.3,7.4c5.9,1.8,11.7,4,17.4,6.6c5.7,2.6,11.4,5.6,16.8,9.1c10.9,6.9,20.9,15.9,28.8,26.6
			c4,5.3,7.4,11,10.4,16.9c2.9,5.9,5.2,12,7.1,18.1c0.5,1.5,0.9,3.1,1.3,4.6l0.6,2.3l0.5,2.3l0.5,2.3l0.4,2.3l0.4,2.3l0.3,2
			l2.7,16.4c3.4,21.9,6.6,43.9,8.7,66.3c1.1,11.2,1.9,22.5,2.2,34c0.3,11.4,0,23.1-0.5,34c-0.5,11-0.8,21.4-0.7,32.1
			c0.1,10.7,0.6,21.4,1.3,32.2c0.7,10.8,1.6,21.7,2.6,32.5c0.5,5.4,1,10.9,1.6,16.3l1.8,16.3l0.9,8.2l1,8.2l1.9,16.3
			c1.3,10.9,2.8,21.8,4.2,32.7c11.7,87.1,26.4,173.9,44.6,260l0,0l0,0c0.4,3.7,1.1,7.4,1.9,11.1c0.8,3.7,1.8,7.3,2.8,10.9
			c2.1,7.2,4.8,14.3,8,21.1c3.2,6.8,6.9,13.4,11.2,19.6c4.3,6.2,9.1,12.1,14.5,17.3c5.4,5.3,11.5,9.8,17.9,13.7
			c6.5,3.8,13.4,6.8,20.5,9c3.6,1.1,7.2,2,10.8,2.7c3.6,0.7,7.3,1.2,11,1.5c7.5,0.7,14.9,1.1,22.3,1.1c7.4,0,14.6-0.5,21.6-1.5
			c3.5-0.5,6.9-1.2,10.3-2.1c3.4-0.8,6.8-1.8,10.4-2.9c3.6-1,7.6-2.2,12.2-2.8c4.6-0.6,9.5-0.6,14.1,0.2c4.6,0.8,8.8,2.1,12.8,3.7
			c3.9,1.5,7.6,3.3,11.2,5.2c7.1,3.7,13.7,7.9,20.2,12.1l4.8,3.3c1.6,1.1,3.2,2.3,4.8,3.5c3.2,2.3,6.3,4.8,9.3,7.3
			c12,10,22.9,20.8,33.4,31.8c10.5,11.1,20.6,22.4,30.7,33.6c10.1,11.2,20.3,22.3,31,32.9c5.4,5.3,10.9,10.4,16.6,15.2
			c5.7,4.8,11.7,9.4,18.1,13.3c3.2,1.9,6.5,3.7,9.9,5.1c3.4,1.4,7,2.5,10.7,2.9c3.6,0.4,7.4,0,10.7-1.5c3.3-1.4,6.1-3.9,8.2-6.7
			c1.1-1.4,2-3,2.8-4.6c0.4-0.8,0.8-1.6,1.1-2.5l1.1-2.7c1.6-3.6,3.5-7.2,6-10.5c2.5-3.3,5.4-6.3,8.7-8.9c3.3-2.6,7-4.7,10.9-6.3
			c7.8-3.3,16.1-4.6,24.1-4.7c8.1-0.1,16,0.8,23.7,2.3c7.7,1.5,15.3,3.5,22.6,6c7.4,2.4,14.5,5.3,21.6,8.4c7,3.1,13.9,6.5,20.7,10.1
			c6.8,3.6,13.4,7.3,19.9,11.4l-0.7-0.3c4.7,1.6,9.6,3,14.4,4.3c4.9,1.3,9.8,2.5,14.7,3.5c9.9,2.1,19.9,3.7,30,4.8
			c20.1,2,40.5,2.1,60.4-0.8c10-1.5,19.8-3.7,29.2-6.9c4.7-1.6,9.4-3.5,13.9-5.6l3.3-1.6l3.3-1.7c2.3-1.2,4.5-2.4,6.8-3.6
			c9.2-4.7,18.6-8.9,28.2-12.7c9.6-3.8,19.4-7.1,29.4-9.9c5-1.4,10-2.7,15.1-3.7c5.1-1.1,10.2-2,15.4-2.8c10.4-1.4,21-2.2,32-1.1
			c5.5,0.6,11,1.6,16.6,3.7c2.8,1.1,5.6,2.4,8.2,4.2c2.6,1.8,5.2,4.1,7.2,6.9c2,2.8,3.5,6.1,4.2,9.4c0.8,3.3,0.9,6.6,0.6,9.7
			c-0.5,6.2-2.4,11.7-4.6,16.8c-0.6,1.3-1.1,2.5-1.7,3.6l-1.7,3.5c-1.2,2.3-2.3,4.7-3.6,7c-1.2,2.3-2.5,4.6-3.8,6.8l-2,3.4l-2,3.3
			c-5.4,8.9-11.4,17.4-17.9,25.6c-6.5,8.2-13.4,15.9-20.9,23.2c-3.7,3.6-7.6,7.2-11.5,10.5c-2,1.7-4,3.3-6.1,4.9
			c-1,0.8-2.1,1.6-3.1,2.4c-1.1,0.8-2.1,1.5-3.3,2.4l-0.2,0.2l-0.1,0.1l-27.9,14.6l-27.9,14.5c-18.7,9.6-37.4,19.1-56.2,28.4l0,0
			l-0.1,0l-0.1,0c-13.3,2.6-26.6,5.5-39.8,8.5c-13.2,3-26.4,6.3-39.5,9.7c-26.2,6.8-52.2,14.4-77.8,23c-25.6,8.6-50.8,18.2-75,29.4
			c-12.2,5.7-24.3,11.6-36.5,17.6c-12.1,6-24.3,12.1-36.6,18c-12.3,5.9-24.8,11.7-37.5,17c-12.7,5.3-25.8,10.1-39,14.2
			c-13.3,4.1-26.8,7.4-40.5,9.8c-3.4,0.6-6.9,1.1-10.3,1.7c-3.4,0.5-6.9,0.9-10.3,1.4c-3.4,0.4-6.9,0.7-10.3,1.1
			c-1.7,0.2-3.4,0.3-5.2,0.4l-5.2,0.4c-13.8,0.9-27.6,1.1-41.4,0.8c-13.8-0.3-27.5-1.3-41.1-2.5c-13.7-1.4-27.2-2.9-40.7-4.7
			c-13.5-1.8-27-3.6-40.4-5.6c-26.9-3.9-53.8-8.1-80.6-12.4c-26.8-4.3-53.6-8.7-80.5-12.9c-26.8-4.1-53.7-8-80.6-11.4
			c-13.4-1.7-26.9-3.2-40.3-4.5c-3.3-0.3-6.7-0.6-10-0.8c-3.3-0.2-6.7-0.5-10-0.6c-3.3-0.2-6.6-0.3-9.9-0.3l-4.8,0l-1.5,0
			c-0.6,0-1.1,0-1.6-0.1c-1.1,0-2.1-0.2-3.1-0.3c-8-1.1-14.9-3.6-21.6-6.4c-6.6-2.8-12.9-5.9-19-9.3c-12.2-6.7-23.9-14.2-35.2-22
			c-22.6-15.6-44.1-32.5-65.1-49.9c-21-17.5-41.4-35.5-61.2-54.1c-9.9-9.3-19.8-18.7-29.4-28.3c-9.7-9.6-19.2-19.3-28.5-29.3l0,0
			l-0.2-0.2l0-0.2c2.9-20.3,6.4-40.5,9.9-60.7c3.6-20.2,7.4-40.3,11.2-60.5c7.8-40.3,16.1-80.4,24.8-120.5l6.6-30l6.7-30
			c2.3-10,4.4-20,6.1-30.1c1.7-10.1,3-20.3,4-30.5c4.1-40.8,4.2-81.9,2.7-122.8c-1.6-41-5-81.8-9.4-122.6
			c-4.4-40.8-10-81.4-16.3-121.9c-6.3-40.5-13.4-80.9-21.1-121.2c-3.9-20.1-7.9-40.2-12.1-60.3c-2.1-10-4.2-20.1-6.4-30.1l-3.3-15
			l-1.7-7.5l-0.9-3.7l-0.4-1.9c-0.1-0.3-0.2-0.6-0.2-1.1C-209.9,4613.2-209.9,4612.7-209.9,4612.3z M-209.2,4613.1
			c0.1,0.2,0.3,0.4,0.4,0.6c0.1,0.1,0.1,0.5,0.2,0.8l0.4,1.9l0.9,3.7l1.7,7.5l3.3,15c2.2,10,4.3,20,6.4,30.1
			c4.2,20.1,8.2,40.2,12.1,60.3c7.7,40.3,14.8,80.7,21.1,121.2c6.3,40.5,11.9,81.2,16.3,121.9c4.4,40.8,7.8,81.7,9.4,122.7
			c1.5,41,1.4,82.1-2.7,123c-1.1,10.2-2.4,20.4-4.1,30.5c-1.7,10.1-3.8,20.2-6.1,30.2l-6.7,30l-6.6,30c-8.7,40.1-17,80.2-24.8,120.5
			c-3.9,20.1-7.7,40.3-11.2,60.5c-3.6,20.2-7,40.4-9.9,60.7l-0.2-0.4l0,0c43,33.4,85.2,67.4,128.2,100.2
			c21.5,16.4,43.2,32.5,65.3,47.5c11.1,7.5,22.3,14.8,33.7,21.4c5.7,3.3,11.5,6.4,17.3,9c2.9,1.3,5.8,2.5,8.7,3.6
			c2.9,1,5.8,1.9,8.4,2.3c0.7,0.1,1.3,0.2,2,0.3c0.3,0,0.6,0.1,0.9,0.1l1,0.1l5.3,0.2c3.5,0.3,7,0.5,10.5,0.9
			c6.9,0.7,13.7,1.7,20.5,2.7c13.6,2.1,27,4.5,40.3,7c26.7,5,53.4,10.3,80.1,15.1c26.7,4.8,53.5,9.2,80.3,13.1
			c26.8,3.9,53.7,7.3,80.7,10c6.7,0.7,13.5,1.3,20.2,2c6.7,0.6,13.5,1.2,20.2,1.7c13.5,1.1,27,2,40.4,2.6
			c13.4,0.5,26.9,0.8,40.2,0.6c13.4-0.3,26.7-0.9,40-2.2c26.5-2.4,52.6-7.3,78-14.9c25.4-7.5,50.1-17.9,74.6-29.2
			c24.5-11.3,49-23.2,74.2-33.9c25.3-10.8,51.3-19.6,77.6-27.1c26.3-7.5,52.9-13.7,79.6-18.9c26.8-5.1,53.6-9.4,80.7-12.1l-0.2,0.1
			l0,0c17.8-11.2,35.7-22.1,53.7-32.9l27-16.2l27.1-16l-0.4,0.2c0.8-0.6,1.9-1.4,2.8-2.2c1-0.8,1.9-1.6,2.8-2.3
			c1.9-1.6,3.7-3.2,5.5-4.9c3.6-3.4,7.2-6.9,10.6-10.5c6.8-7.2,13.2-14.8,19.2-22.8c3-4,5.8-8,8.5-12.2c1.4-2.1,2.7-4.2,4-6.3
			c1.3-2.1,2.6-4.2,3.8-6.4l1.9-3.2l1.8-3.3c1.2-2.2,2.3-4.4,3.4-6.6c1.1-2.2,2.2-4.4,3.3-6.7l1.5-3.4c0.5-1.1,1-2.3,1.5-3.3
			c1.8-4.2,3.1-8.6,3.3-12.6c0.1-2,0-3.8-0.4-5.5c-0.4-1.7-1.1-3.1-2-4.4c-1.9-2.6-5.2-4.8-9.1-6.2c-4-1.5-8.5-2.3-13.1-2.8
			c-9.3-0.9-19.1-0.5-28.9,0.5c-4.9,0.5-9.8,1.2-14.7,2c-4.9,0.8-9.8,1.8-14.6,2.8c-19.5,4.3-38.8,10.1-57.3,17.8
			c-2.3,1-4.6,2-6.9,3l-3.6,1.6l-3.6,1.5c-4.8,1.9-9.8,3.5-14.8,4.9c-10,2.8-20.1,4.6-30.4,5.7c-20.4,2.2-41,1.8-61.3,0
			c-10.2-0.9-20.3-2.1-30.4-3.7c-10.1-1.6-20.2-3.3-30.3-5.7l-0.2,0l-0.5-0.3c-6.6-3.3-13.5-6.4-20.3-9.2
			c-6.9-2.9-13.9-5.5-20.9-7.9c-14-4.8-28.3-8.9-42.5-11.3c-7.1-1.2-14.3-2-21.3-2c-7,0-13.9,0.5-20.5,2.1c-6.5,1.6-12.8,4.4-18.1,9
			c-2.6,2.3-5,5-7,8l-1.5,2.4c-0.5,0.8-1.1,1.6-1.7,2.4c-1.2,1.6-2.4,3.1-3.8,4.6c-2.8,2.8-6.1,5.2-9.8,6.5
			c-3.7,1.4-7.7,1.7-11.6,1.3c-3.9-0.4-7.6-1.4-11.2-2.7c-3.6-1.3-7-3-10.4-4.9c-6.7-3.7-13-8-19.1-12.5
			c-6.1-4.5-12.1-9.3-17.9-14.1c-23.4-19.4-45.8-39.9-68.6-59.4c-11.4-9.7-22.9-19.3-34.6-27.9c-2.9-2.2-5.9-4.3-8.9-6.3
			c-1.5-1-3-2-4.5-2.9l-4.7-2.9c-6.3-3.9-12.5-7.6-18.8-10.9c-6.3-3.2-12.5-6-18.2-7.3c-2.9-0.6-5.5-0.8-8.4-0.7
			c-2.9,0.2-6.3,0.8-10,1.4c-3.7,0.7-7.7,1.4-11.7,1.8c-4,0.4-8.1,0.6-12.2,0.6c-8.1-0.1-16-1-23.6-2.4c-7.7-1.4-15.2-3.2-22.6-5.2
			c-7.5-2.1-14.8-4.6-21.8-7.9c-7-3.2-13.6-7-19.9-11.3c-6.2-4.4-12-9.2-17.4-14.6c-5.3-5.3-10.2-11.1-14.5-17.3
			c-4.3-6.2-8.1-12.8-11.4-19.6c-3.3-6.8-6-13.9-8.3-21.1c-2.3-7.2-4.1-14.6-5.2-22.1l0,0.1c-10.1-42.8-20.1-85.7-30.1-128.5
			c-9.9-42.9-19.9-85.8-29.2-128.9c-2.3-10.8-4.6-21.6-6.8-32.4l-3.3-16.2l-1.6-8.1l-1.5-8.1c-4.2-21.7-8.1-43.5-11.1-65.7
			c-1.5-11.1-2.8-22.2-3.7-33.6c-0.4-5.7-0.8-11.3-1-17c-0.2-5.7-0.3-11.3-0.4-16.8c-0.1-5.5-0.1-10.9-0.3-16.2
			c-0.2-5.3-0.5-10.5-0.9-15.8c-0.8-10.5-2.1-21.1-3.5-31.7c-1.5-10.6-3.1-21.3-4.9-32c-1.7-10.7-3.7-21.4-5.6-32.2l-2.9-16.1
			l-0.4-2l-0.4-1.7l-0.4-1.7l-0.4-1.7l-0.4-1.7l-0.5-1.7c-0.3-1.1-0.6-2.2-1-3.3c-2.7-8.7-6.7-16.7-12-23.7
			c-5.3-6.9-11.8-12.9-19.4-17.9c-7.6-5-16.3-8.9-25.5-12c-9.2-3.1-19-5.3-29.1-6.9c-10.1-1.6-20.4-2.5-30.8-3
			c-20.9-1-42.3-0.2-63.7,1.6c-21.4,1.7-42.9,4.4-64.5,7.6c-21.6,3.2-43.1,6.9-64.8,10.6l-16.3,2.8c-5.4,0.9-10.9,1.9-16.3,2.7
			c-5.5,0.9-10.9,1.7-16.5,2.5c-2.8,0.4-5.5,0.7-8.3,0.9c-1.4,0.1-2.8,0.2-4.2,0.2c-0.7,0-1.4,0-2.1-0.1c-0.4,0-0.7-0.1-1.1-0.1
			l-0.6-0.1C-209.2,4613.3-209.1,4613.2-209.2,4613.1z"/>
	</g>
	<g>
		<path class="st2" d="M1400,5502.4c-51.2,19.9-100.1,108.3-20.4,147.1s18.4,79.7,114.4,44.9c96-34.7,140.9-16.3,106.2-85.8
			s-92.9-21.4-98-106.2C1497,5417.6,1451.2,5482.5,1400,5502.4z"/>
		<path class="st3" d="M1404.2,5513.2l-2.5,0.9c-0.8,0.3-1.7,0.6-2.5,0.9c-1.6,0.7-3.3,1.4-4.9,2.3l-2.5,1.2
			c-0.8,0.4-1.6,0.9-2.4,1.4c-0.8,0.5-1.6,0.9-2.4,1.4l-2.4,1.6c-6.3,4.2-12.3,9.1-17.7,14.7c-5.4,5.6-10.3,11.8-14.4,18.5
			c-4.1,6.7-7.4,14-9.4,21.6c-0.2,1-0.5,1.9-0.7,2.9l-0.5,2.9c-0.4,1.9-0.6,3.9-0.8,5.9l-0.2,1.5l0,1.5l0,3c-0.1,1,0.1,2,0.2,3
			l0.3,3c0.2,1,0.4,2,0.6,2.9c0.2,1,0.3,2,0.6,2.9l0.9,2.9c0.3,1,0.5,1.9,1,2.9l1.2,2.8l0.6,1.4l0.7,1.3c1,1.8,1.8,3.6,3.1,5.2
			c4.5,6.8,10.6,12.6,17.3,17.4c6.7,4.9,14.4,8.1,21.8,12.2c3.7,2,7.3,4.2,10.8,6.5c3.5,2.3,6.9,4.9,10.2,7.6
			c3.3,2.7,6.3,5.7,9.2,8.9c2.9,3.2,5.5,6.7,7.8,10.3c2.3,3.6,4.4,7.4,6.7,10.5c1.1,1.5,2.3,2.8,3.5,3.6c1.2,0.8,2.4,1.2,3.8,1.4
			c2.9,0.4,6.7-0.2,10.4-1.2c3.7-1,7.5-2.2,11.3-3.6c7.6-2.8,15.2-5.9,22.9-9.1c1.9-0.8,3.8-1.6,5.7-2.4l5.9-2.4c4-1.6,8-3,12-4.4
			c16.1-5.6,32.6-9.8,48.9-13.6l12.1-2.8c4-0.9,8-1.9,11.8-2.9c3.8-1,7.5-2.1,10.8-3.5c3.3-1.3,6.2-2.9,8-4.6
			c1.8-1.7,2.8-3.5,3.3-6.4c0.4-2.8,0.1-6.4-0.7-10c-0.7-3.6-1.9-7.4-3.2-11.2c-1.3-3.8-2.9-7.5-4.5-11.3c-0.8-1.9-1.7-3.6-2.6-5.4
			c-0.4-0.9-0.8-1.8-1.3-2.7l-1.5-2.6l-1.5-2.6l-1.6-2.5c-0.6-0.8-1.1-1.7-1.7-2.5l-1.8-2.3c-2.4-3.1-5.2-5.9-8-8.6
			c-3-2.6-6.1-4.9-9.5-7c-1.7-1.1-3.4-2-5.2-2.9c-1.8-0.8-3.6-1.7-5.5-2.5c-3.7-1.6-7.6-3-11.5-4.4c-3.9-1.4-7.9-2.8-12-4.5
			c-4-1.7-8-3.7-11.8-6.3c-3.8-2.6-7.2-5.9-10.1-9.5c-0.7-0.9-1.4-1.8-2.1-2.8l-1.8-2.9c-0.6-1-1.1-2-1.6-3c-0.5-1-1-2-1.5-3.1
			c-3.6-8.3-5.6-17-7-25.6l-0.9-6.5c-0.3-2-0.5-4-0.9-6c-0.7-4-1.5-7.8-2.5-11.5c-1-3.7-2.3-7.2-3.8-10c-0.8-1.4-1.6-2.6-2.4-3.5
			c-0.8-0.9-1.6-1.3-2.2-1.5c-0.6-0.2-1.1-0.2-1.8-0.2c-0.8,0-1.8,0.2-3,0.6c-2.5,0.8-5.6,2.3-8.7,4.1c-3.1,1.9-6.4,4-9.7,6.2
			c-3.3,2.3-6.6,4.7-10,7c-6.9,4.7-14.1,9.2-21.7,13.7C1421.1,5506.2,1413,5510.2,1404.2,5513.2z M1395.8,5491.5
			c6.8-3.1,13.5-6.9,20.3-11c6.8-4.1,13.5-8.8,20.6-13.3c3.6-2.2,7.2-4.4,11.1-6.5c3.8-2.1,7.8-4.2,12.1-6.1c4.4-1.9,9-3.7,14.7-4.6
			c2.8-0.4,6-0.6,9.4-0.1c3.4,0.5,7,1.8,10,3.8c3,2,5.2,4.6,6.9,7.1c1.7,2.5,2.8,5,3.7,7.4c1.8,4.9,2.6,9.5,3.2,14
			c0.6,4.5,0.8,8.9,1,13.3c0.1,2.2,0.1,4.3,0.1,6.5l0.1,6c0.3,8,1.3,15.9,3.7,23.2c1.4,3.5,2.8,7.1,5,10.1c2.1,3,4.7,5.7,7.7,8
			c3,2.3,6.5,4.1,10.1,5.7c3.6,1.6,7.5,3,11.5,4.4c7.8,2.8,16.1,5.7,23.7,10.1c3.9,2.1,7.5,4.7,11,7.4c3.4,2.8,6.7,5.9,9.6,9.2
			c5.9,6.6,10.8,14.1,14.9,21.7c2.1,3.8,4,7.6,5.9,11.5c1.8,4,3.6,8.1,4.9,12.5c0.7,2.2,1.2,4.5,1.7,7c0.4,2.4,0.6,5,0.5,7.8
			c-0.1,2.7-0.7,5.7-1.7,8.5c-1.1,2.8-2.8,5.5-4.7,7.7c-1.9,2.2-4.1,4-6.2,5.5c-2.2,1.5-4.3,2.7-6.5,3.8c-4.3,2.1-8.5,3.7-12.7,5.1
			c-8.4,2.8-16.5,4.9-24.6,7l-24.1,6.3c-8,2.1-15.9,4.3-23.7,6.6c-3.9,1.1-7.9,2.3-11.8,3.5l-5.9,1.8c-2,0.6-4,1.2-6.1,1.8
			c-4.1,1.2-8.1,2.4-12.3,3.4c-4.1,1.1-8.3,2.1-12.6,2.9c-4.3,0.9-8.6,1.6-13.1,2c-2.3,0.2-4.6,0.3-7,0.2c-2.4-0.1-4.9-0.4-7.6-1.2
			c-2.6-0.8-5.3-2.3-7.2-4.2c-2-1.9-3.3-4.1-4.3-6.1c-1-2-1.9-4-2.7-6c-0.8-1.9-1.6-3.8-2.5-5.6c-1.7-3.7-3.8-7.2-6.1-10.5
			c-2.3-3.3-5-6.4-7.9-9.3c-2.9-2.9-6.1-5.5-9.4-8c-3.3-2.5-6.8-4.7-10.4-6.8c-1.8-1.1-3.6-2-5.5-3c-1.9-0.9-3.7-1.8-5.6-2.9
			c-1.8-1-3.8-1.9-5.6-3l-5.4-3.3c-7-4.7-13.5-10.3-18.8-17.1c-5.3-6.8-9.3-14.7-11.4-23.2l-0.7-3.2c-0.2-1.1-0.5-2.1-0.6-3.2
			l-0.4-3.3l-0.2-1.6l-0.1-1.6c-0.1-2.2-0.2-4.4-0.1-6.6l0.1-3.3c0.1-1.1,0.2-2.2,0.4-3.3c1-8.8,3.3-17.5,6.7-25.7
			c3.4-8.2,7.7-16.1,12.9-23.4c5.2-7.3,11.3-14.1,18.2-20.2C1379.1,5500.8,1386.9,5495.5,1395.8,5491.5z"/>
	</g>
	<g>
		<path class="st2" d="M1804.4,5567.7c-53-32.2-155.2,40.9-114.4,102.1c40.9,61.3,32.7,83.7,77.6,61.3c44.9-22.5,63.3-2,44.9-57.2
			S1857.4,5599.9,1804.4,5567.7z"/>
		<path class="st3" d="M1800.5,5574.2c-4.1-2.2-8.5-3.8-13.2-4.6c-2.3-0.4-4.7-0.7-7-0.8c-2.4-0.1-4.8-0.1-7.2,0.1
			c-2.4,0.2-4.8,0.5-7.2,0.9c-2.4,0.5-4.8,1-7.1,1.7c-4.7,1.2-9.4,3-13.9,4.9c-9.1,3.9-17.8,9-25.7,15c-7.9,6-14.9,13.1-20.3,21.1
			c-5.4,8-9,16.9-9.8,26.1l-0.1,1.7c0,0.6,0,1.1,0,1.7c0,0.6,0,1.2,0,1.7l0.1,1.7c0.2,2.3,0.5,4.6,1.1,6.9c1.1,4.6,3,9,5.4,13.3
			c5.6,9.5,11,19.4,15.9,29.3c2.5,4.9,4.9,9.9,7.2,14.9c2.4,4.9,4.7,9.9,7.4,14.4c1.3,2.3,2.7,4.5,4.3,6.5c1.6,2,3.3,3.7,5.3,4.8
			c2,1.1,4.3,1.7,6.8,1.8c2.5,0.1,5.1-0.4,7.6-1c5.1-1.3,10.2-3.4,15.1-5.6l3.8-1.7c1.3-0.6,2.5-1.1,3.8-1.6c2.6-1.1,5.1-2.1,7.7-3
			c5.2-1.9,10.5-3.4,15.8-4.7l8-2c2.6-0.7,5.3-1.4,7.7-2.5c2.4-1.1,4.7-2.7,5.9-5c1.2-2.3,1.4-5.1,1.2-7.8
			c-0.3-5.4-1.8-10.7-3.4-15.9c-0.8-2.6-1.7-5.2-2.6-7.8l-1.4-3.9c-0.5-1.3-0.9-2.6-1.3-3.9c-0.2-0.7-0.5-1.3-0.6-2l-0.5-2
			c-0.4-1.4-0.7-2.7-1-4.1l-0.4-2.1c-0.1-0.7-0.3-1.4-0.3-2.1c-0.1-1.4-0.3-2.8-0.4-4.2c-0.4-5.7,0-11.4,1.2-17
			c1.1-5.6,2.9-11.1,4.8-16.3c1.9-5.3,4.1-10.3,5.6-15.2c0.4-1.2,0.7-2.4,1-3.6c0.2-1.2,0.5-2.3,0.6-3.4c0.2-1.1,0.1-2.2,0.1-3.2
			c-0.2-1-0.2-2-0.5-2.9c-0.2-1-0.7-1.8-1-2.7c-0.2-0.4-0.5-0.9-0.8-1.3l-0.4-0.6l-0.5-0.6c-0.3-0.4-0.6-0.8-0.9-1.3
			c-0.3-0.4-0.8-0.8-1.1-1.2c-0.4-0.4-0.7-0.8-1.1-1.2l-1.3-1.2C1809.2,5579.4,1804.9,5576.7,1800.5,5574.2z M1808.3,5561.3
			c4.8,3.3,9.7,6.8,14,11.4l1.6,1.7c0.5,0.6,1,1.3,1.5,1.9c0.5,0.7,1,1.3,1.5,2l1.3,2.2l0.6,1.1l0.5,1.2c0.3,0.8,0.7,1.6,1,2.4
			c0.5,1.7,1,3.4,1.2,5.2c0.3,1.8,0.2,3.5,0.2,5.2c-0.2,1.7-0.3,3.4-0.7,4.9c-0.3,1.6-0.8,3.1-1.3,4.6c-0.6,1.4-1.1,2.9-1.7,4.2
			c-2.4,5.4-5.2,10.1-7.7,14.9c-2.5,4.8-4.7,9.6-6.4,14.6c-1.6,5-2.6,10.2-2.8,15.5c-0.2,5.3,0.4,10.7,1.7,15.9
			c0.3,1.3,0.6,2.6,1,3.9l1.2,4c0.8,2.6,1.5,5.3,2.2,8c0.7,2.7,1.3,5.3,1.9,8.1c0.5,2.7,1,5.4,1.1,8.2c0.1,2.8-0.1,5.7-1.4,8.3
			c-1.4,2.6-3.8,4.4-6.3,5.5c-2.5,1.2-5.2,2-7.8,2.7l-7.9,2.2c-5.3,1.5-10.4,3.2-15.5,5.2c-2.5,1-5,2.1-7.5,3.3
			c-1.2,0.6-2.4,1.2-3.6,1.8l-3.7,1.9c-4.9,2.5-9.9,5-15.3,6.8c-2.7,0.8-5.5,1.6-8.6,1.8c-3,0.2-6.2-0.3-9.1-1.6
			c-2.9-1.3-5.3-3.4-7.4-5.5c-2.1-2.1-3.8-4.4-5.5-6.7c-3.3-4.6-6.2-9.4-9.1-14c-2.9-4.7-5.8-9.3-8.7-13.9c-5.9-9.2-12-18-18.5-26.8
			c-3.5-4.9-6.6-10.4-8.6-16.3c-1.1-3-1.8-6-2.4-9.2c-0.5-3.1-0.9-6.3-0.9-9.5c0-3.2,0.2-6.4,0.7-9.5c0.2-1.6,0.5-3.1,0.8-4.7
			c0.4-1.5,0.7-3.1,1.2-4.6c1.8-6,4.3-11.7,7.4-17c3.1-5.3,6.7-10.3,10.7-14.8c4-4.5,8.3-8.8,12.9-12.6c9.2-7.7,19.7-13.8,31-18
			c11.3-4.2,23.4-6.6,35.7-6.2c3.1,0.1,6.2,0.3,9.2,0.8c3.1,0.4,6.1,1.1,9.2,1.9c3,0.8,6,1.9,8.9,3.2
			C1802.9,5558,1805.7,5559.6,1808.3,5561.3z"/>
	</g>
	<g>
		<path class="st2" d="M2029.1,5481.9c-44.9,2-47,32.7-81.7,57.2s20.4,114.6,20.4,114.6s67.4,73.7,110.3,0
			c42.9-73.7,32.7-114.6,32.7-114.6L2029.1,5481.9z"/>
		<path class="st3" d="M2028.9,5482.4l-6.6,2.5c-2.2,0.9-4.4,1.7-6.4,2.7c-4.1,1.9-7.9,4.1-11.3,6.6c-1.7,1.3-3.3,2.5-4.8,4
			c-0.8,0.7-1.5,1.4-2.3,2.2c-0.7,0.8-1.5,1.5-2.2,2.3c-2.9,3.1-5.6,6.5-8.4,10.1c-2.8,3.6-5.8,7.4-9,11.1
			c-3.2,3.7-6.6,7.4-10.3,10.9c-3.7,3.5-7.6,6.8-11.8,9.9l-3.1,2.2c-0.3,0.2-0.6,0.4-0.9,0.7c-0.3,0.2-0.5,0.5-0.8,0.7
			c-1.1,1-2,2.1-2.8,3.4c-1.6,2.6-2.7,6-3.2,9.8c-0.5,3.8-0.6,8-0.2,12.3c0.3,4.3,1,8.7,1.9,13.1c0.9,4.4,2,8.8,3.3,13.2
			c5.1,17.6,12.4,35.1,21.1,51.6l-0.4-0.6c1.6,1.8,3.4,3.8,5.2,5.6c1.8,1.8,3.7,3.6,5.7,5.3c3.9,3.4,8,6.6,12.3,9.5
			c8.6,5.8,18.1,10.3,28.2,12.2c5,0.9,10.2,1.2,15.2,0.5c2.5-0.3,5-0.9,7.5-1.7c2.4-0.8,4.8-1.8,7.1-3c4.5-2.4,8.7-5.6,12.4-9.2
			c3.7-3.6,7-7.8,9.9-12.1c3-4.3,5.5-9,8.1-13.6c2.7-4.6,5-9.3,7.4-14c0.6-1.2,1.2-2.4,1.8-3.5l1.6-3.6l3.3-7.2c1-2.4,2-4.9,2.9-7.4
			l1.5-3.7c0.5-1.2,0.9-2.5,1.3-3.7c3.6-9.9,6.2-20.2,7.9-30.7l0.3-2l0.2-2l0.5-3.9c0.2-1.3,0.2-2.6,0.3-3.9c0.1-1.3,0.2-2.6,0.2-4
			l0.1-4l-0.1-4c-0.2-2.6-0.4-5.3-0.9-7.8l0,0l0.2,0.3L2028.9,5482.4z M2029.2,5481.5l81.8,57.3l0.2,0.1l0,0.2l0,0
			c0.6,2.7,0.7,5.3,0.9,8l0.1,4l-0.1,4c0,1.3-0.1,2.7-0.2,4c-0.1,1.3-0.1,2.7-0.3,4l-0.5,4l-0.2,2l-0.3,2c-0.8,5.3-2,10.5-3.2,15.6
			l-2.1,7.7c-0.8,2.5-1.6,5.1-2.4,7.6c-0.4,1.3-0.8,2.5-1.3,3.8l-1.4,3.7c-1,2.5-1.8,5-2.8,7.4l-3.2,7.3l-1.6,3.7
			c-0.6,1.2-1.2,2.4-1.7,3.6c-2.3,4.8-4.6,9.6-7.2,14.2c-2.6,4.6-4.9,9.4-7.9,13.9c-2.9,4.5-6.2,8.8-9.9,12.7
			c-1.9,1.9-3.9,3.8-6,5.5c-2.2,1.7-4.4,3.2-6.8,4.6c-2.4,1.3-4.9,2.5-7.5,3.4c-2.6,0.9-5.3,1.6-8,2.1c-5.4,0.9-11,0.8-16.4,0
			c-10.9-1.7-21-6.2-30.3-11.7c-4.7-2.8-9.2-5.8-13.5-9.1c-2.2-1.6-4.3-3.3-6.4-5.1c-2.1-1.8-4.1-3.5-6.2-5.5l-0.1-0.1l-0.3-0.4
			c-5.4-8.1-10.3-16.3-15-24.8c-4.7-8.5-9-17.1-12.8-26.2c-3.7-9.1-7-18.5-8.7-28.8c-0.8-5.1-1.3-10.5-0.9-16.1
			c0.4-5.6,1.7-11.6,4.8-17.3c1.5-2.8,3.5-5.5,5.9-7.8l1.8-1.7l1.9-1.5l2.7-2c3.4-2.6,6.7-5.5,9.9-8.5c6.4-6.1,12.1-13,19-20.1
			c3.4-3.5,7.2-7,11.4-10.2c4.2-3.2,9-5.9,14-7.7c5-1.9,10.3-2.8,15.4-3c2.6-0.1,5.1,0,7.6,0.2l1.9,0.2c0.6,0.1,1.2,0.2,1.9,0.3
			C2026.8,5480.9,2028.1,5481.2,2029.2,5481.5z"/>
	</g>
	<g>
		<path class="st2" d="M2131.2,6877c-18.4,2-27.5,124.6-131.2,175.7c-103.7,51.1-250.7,63.3-350.8,65.4
			c-100.1,2-155.2-44.9-351.3-36.8c-196.1,8.2-61.3-8.2-277.8,102.1S886.2,7318,775,7305.9s-110-42.8-163.4,16.3
			c-53.4,59.2-169.8,188.4-32.7,192c137.1,3.6,42.9-107.7,337-17.9c294.1,89.9,126.4,365.6,421.6,303.8s189.1,106.2,540.4,114.4
			c351.3,8.2,416.7-65.4,441.2-228.8c24.5-163.4,51.1-91.9,94-245.1c42.9-153.2,0-453.4,0-453.4s-179.7-132.8-212.4-138.9
			C2168,6842.3,2131.2,6877,2131.2,6877z"/>
		<path class="st3" d="M2131.4,6877.4c-0.3,0.2-0.8,0.3-1.1,0.5c-0.3,0.2-0.6,0.4-0.8,0.6c-0.5,0.4-0.9,1-1.3,1.6
			c-0.8,1.2-1.4,2.5-2,3.9c-1.2,2.7-2,5.6-2.9,8.6c-1.7,5.9-3.2,11.9-4.8,17.9c-3.2,12-6.7,24.1-11,36.1
			c-4.3,11.9-9.4,23.8-15.4,35.2c-6.1,11.4-13.1,22.5-21.3,32.9c-16.2,20.8-37.1,38.7-60.9,51.2c-3,1.6-5.8,3-8.7,4.4l-4.3,2.1
			l-4.4,2c-5.8,2.7-11.8,5.1-17.7,7.6c-11.9,4.8-24,8.9-36.1,12.7c-48.7,14.9-98.6,22.8-148.5,27.1c-24.9,2.1-49.9,3.3-74.8,3.9
			c-12.5,0.3-24.9,0.5-37.4,0.5c-6.2,0-12.4,0-18.7,0l-9.3-0.1l-9.5-0.2c-12.7-0.4-25.3-1.7-37.7-3.5c-12.5-1.8-24.8-4.2-36.9-6.8
			c-24.3-5.3-48.3-11.2-72.4-15.8c-12.1-2.3-24.2-4.3-36.4-6c-12.2-1.6-24.4-3-36.6-4c-24.5-1.9-49-2.6-73.6-2.1
			c-12.3,0.2-24.5,0.6-36.8,1.3l-37,2.1c-12.4,0.7-24.7,1.2-37.1,1.8c-12.3,0.6-24.7,1-36.6,2.1c-5.9,0.5-11.7,1.2-16.7,2.5
			c-5,1.3-9.3,3.4-14,6.5c-4.7,3.1-9.6,6.9-14.7,10.5c-2.5,1.8-5.1,3.7-7.6,5.5c-2.6,1.8-5.1,3.6-7.8,5.4c-10.4,7.1-21,13.7-31.8,20
			l-4,2.4l-4.1,2.3l-8.2,4.6c-5.5,3-10.9,6-16.5,8.9c-5.5,2.8-11,5.8-16.6,8.5l-16.7,8.3l-33.5,16c-22.2,10.7-44.1,21.9-65.5,34.3
			c-10.6,6.2-21.2,12.6-31.4,19.5c-10.2,6.9-20.2,14.1-29.8,21.9c-4.8,3.8-9.5,7.9-14.1,12c-4.6,4.1-9.2,8.3-14,12.2
			c-4.8,3.9-9.9,7.6-15.8,9.7c-5.8,2.1-12.1,2.9-18.2,3.1c-1.5,0-3.1,0.1-4.6,0.1l-4.6-0.1c-1.5,0-3.1-0.1-4.6-0.2
			c-1.5-0.1-3.1-0.1-4.6-0.3c-6.2-0.4-12.3-0.8-18.5-1.3c-12.3-0.9-24.7-1.8-37.1-2.9c-12.4-1.1-24.9-2.4-37.3-3.8
			c-6.2-0.7-12.4-1.5-18.5-2.1c-6.1-0.6-12.1-1.1-17.5-0.9c-5.5,0.2-10.1,1.2-14,3c-1,0.5-2,0.9-2.9,1.6c-0.5,0.3-1,0.5-1.4,0.9
			l-1.4,1l-0.7,0.5l-0.7,0.6l-1.4,1.1c-1,0.8-1.9,1.7-2.9,2.5c-3.8,3.5-7.6,7.7-11.4,12c-3.8,4.3-7.6,8.9-11.4,13.6
			c-15.8,19-32,37.1-47.7,55.4c-7.8,9.2-15.6,18.3-22.9,27.7c-7.3,9.4-14.3,18.9-20.1,29c-2.9,5-5.4,10.1-7.3,15.4
			c-0.5,1.3-0.9,2.6-1.3,3.9l-0.5,2c-0.2,0.7-0.4,1.3-0.5,2c-0.6,2.7-0.9,5.3-1,7.9c-0.1,2.6,0.2,5.2,0.8,7.7
			c0.3,1.3,0.8,2.5,1.2,3.7l0.9,1.7c0.3,0.6,0.7,1.1,1,1.7c1.4,2.2,3.2,4.3,5.3,6.2c1,1,2.2,1.8,3.3,2.6c0.6,0.4,1.2,0.8,1.8,1.2
			c0.6,0.4,1.2,0.8,1.9,1.1c5.1,2.8,10.8,4.9,16.7,6.4c1.5,0.4,2.9,0.8,4.4,1c1.5,0.3,3,0.6,4.5,0.8c1.5,0.2,3,0.5,4.5,0.7l4.6,0.5
			c1.5,0.2,3.1,0.2,4.6,0.4l2.3,0.2l2.3,0.1l9.2,0.2c3.1,0,6.1-0.2,9.2-0.4l2.3-0.1l2.3-0.3l4.6-0.6c3.1-0.3,6-1.1,9-1.7l2.2-0.5
			c0.7-0.2,1.5-0.4,2.2-0.6l4.4-1.3c1.5-0.4,2.9-1,4.3-1.6c1.4-0.6,2.8-1.1,4.2-1.7l4.1-2.1l2-1l1.9-1.2c1.3-0.8,2.6-1.6,3.8-2.4
			l3.7-2.7c1.2-0.8,2.4-1.9,3.6-2.8c1.2-0.9,2.4-1.9,3.5-2.9c4.6-3.9,9.1-8.3,13.9-12.4c1.2-1,2.4-2.1,3.7-3.1l3.8-3
			c1.3-1,2.7-1.9,4-2.9c0.7-0.5,1.4-1,2.1-1.4l2.2-1.3c5.7-3.6,11.9-6.2,18.3-8.5c1.6-0.5,3.2-0.9,4.8-1.4l2.4-0.7
			c0.8-0.2,1.6-0.5,2.4-0.6l4.9-1l2.5-0.5l1.2-0.2l1.2-0.1c3.3-0.4,6.5-0.8,9.8-1.1c3.3-0.2,6.5-0.3,9.8-0.4
			c3.3-0.1,6.5,0.1,9.7,0.2c1.6,0.1,3.2,0.1,4.8,0.2l4.8,0.4c3.2,0.3,6.4,0.5,9.6,0.9l9.4,1.2c12.6,1.7,25,4,37.3,6.6
			c24.5,5.3,48.6,11.8,72.5,18.9l17.8,5.5c3,0.9,5.9,1.8,8.9,2.8l9,3.1c1.5,0.5,3,1,4.5,1.6l4.4,1.7c3,1.1,5.9,2.2,8.9,3.4
			c5.8,2.4,11.7,4.8,17.4,7.6c5.8,2.6,11.4,5.6,17,8.4l8.3,4.6l2.1,1.2l2,1.2l4.1,2.5c10.8,6.7,21.2,14,31,22.1
			c19.6,16.1,36.8,35.2,50.9,56.2c14.1,20.9,25.2,43.5,35.1,66.3c4.9,11.4,9.6,22.9,14.4,34.2c4.8,11.4,9.8,22.6,15.4,33.5
			c2.9,5.4,5.8,10.8,9.1,15.9c1.6,2.6,3.4,5,5.1,7.6c1.8,2.4,3.6,4.9,5.6,7.2c7.6,9.4,16.8,17.4,27,23.6
			c10.3,6.1,21.7,10.4,33.5,12.8c11.8,2.5,24,3.3,36.2,3.1c24.3-0.4,48.5-4.9,72.2-11l18.1-4.6c6.1-1.5,12.1-3,18.3-4.3
			c12.2-2.7,24.6-5.2,37.1-7.1c25-3.9,50.7-6,76.8-3.6c13,1.2,26.1,3.6,38.9,7.4c6.4,1.9,12.7,4.2,18.8,6.7
			c6.1,2.6,12.1,5.4,17.9,8.4c11.6,6.1,22.5,13,32.9,19.9c10.4,6.9,20.5,13.9,30.6,20.5c20.2,13.3,40.9,24.9,63,34.3
			c22,9.4,45.2,16.9,68.9,22.7c11.9,2.9,23.8,5.4,35.9,7.5c3,0.6,6,1,9.1,1.5c3,0.5,6.1,1,9.1,1.4l9.1,1.3l9.2,1.1
			c6.1,0.8,12.2,1.3,18.4,1.9c6.1,0.6,12.3,1,18.4,1.5c12.3,0.8,24.6,1.4,37,1.8c24.7,0.8,49.4,1.1,74.1,0.4
			c24.7-0.6,49.4-1.9,74-4.1c24.6-2.2,49.1-5.4,73.3-10.2c24.2-4.9,48.1-11.4,70.8-21c22.7-9.5,44.1-22.4,61.8-39.5
			c2.2-2.1,4.3-4.3,6.5-6.6c2-2.3,4.1-4.5,6.1-6.9c2-2.3,3.8-4.8,5.7-7.2c1.8-2.5,3.6-5,5.3-7.6c1.7-2.5,3.3-5.2,4.9-7.8
			c1.5-2.7,3.1-5.3,4.5-8.1c1.5-2.7,2.8-5.5,4.1-8.2c1.3-2.8,2.6-5.6,3.8-8.4c9.6-22.7,15.6-46.8,20.1-71.1c2.3-12.1,4-24.4,6-36.6
			c2.1-12.2,4.4-24.4,7.1-36.4c2.8-12.1,6-24.1,10.3-35.7l1.6-4.4l1.8-4.3c0.6-1.4,1.2-2.8,1.9-4.3c0.7-1.4,1.3-2.8,2-4.2
			c2.8-5.6,6-10.9,9.4-16.1c3.4-5.2,7.1-10.2,10.6-15.3c3.5-5.1,7-10.2,10.1-15.5c6.4-10.5,11.8-21.7,16.5-33.1
			c9.4-22.8,16.8-46.5,22.9-70.4l1.1-4.5l1-4.5l1.9-9.1c0.3-1.5,0.6-3,0.9-4.5l0.8-4.6l1.6-9.1c0.9-6.1,1.8-12.2,2.6-18.3l1.1-9.2
			c0.3-3.1,0.8-6.1,1-9.2c2.4-24.6,3.7-49.3,4.2-74c1-49.4-0.7-98.9-4-148.2c-3.4-49.3-8.1-98.6-14.8-147.6l0.2,0.3l0,0
			c-22.3-16.4-44.7-32.5-67.3-48.5c-22.6-15.9-45.3-31.7-68.4-47c-11.5-7.6-23.1-15.1-34.9-22.3c-5.9-3.6-11.8-7.1-17.9-10.5
			c-3-1.7-6.1-3.3-9.2-4.8c-3.1-1.5-6.2-3-9.4-4.2c-1.6-0.6-3.2-1.1-4.9-1.5c-1.7-0.3-3.4-0.6-5.1-0.6c-3.4-0.2-6.8-0.1-10.2,0.4
			c-6.8,1-13.4,3.1-19.7,5.9c-6.3,2.8-12.3,6.2-18,10.1c-2.9,1.9-5.7,3.9-8.4,6c-1.4,1.1-2.7,2.1-4,3.2l-2,1.7L2131.4,6877.4z
			 M2131,6876.5C2131,6876.5,2131,6876.5,2131,6876.5l0.1-0.1l0.2-0.2l0.5-0.4l1-0.9l2-1.7c1.3-1.1,2.7-2.2,4.1-3.3
			c2.7-2.1,5.6-4.2,8.4-6.1c5.8-3.9,11.8-7.3,18.2-10.2c6.3-2.8,13-5,19.9-6c3.5-0.5,7-0.6,10.4-0.4c1.7,0.1,3.5,0.4,5.2,0.7
			c1.7,0.3,3.4,0.9,5,1.5c3.3,1.2,6.4,2.7,9.5,4.2c3.1,1.6,6.2,3.2,9.2,4.8c6.1,3.3,12,6.9,17.9,10.5c11.8,7.2,23.4,14.7,35,22.3
			c23.1,15.3,45.8,31,68.4,47c22.6,16,45,32.1,67.3,48.5l0,0l0.2,0.1l0,0.2c3.3,24.5,6.1,49.1,8.5,73.7c2.4,24.6,4.5,49.3,6.2,73.9
			c3.3,49.4,5.1,98.8,4,148.3c-0.5,24.7-1.8,49.5-4.1,74.1c-0.2,3.1-0.7,6.2-1,9.2l-1.1,9.2c-0.8,6.1-1.7,12.3-2.6,18.4l-1.6,9.1
			l-0.8,4.6c-0.3,1.5-0.5,3.1-0.9,4.6l-1.9,9.1l-1,4.5l-1.1,4.5l-2.3,9c-0.8,3-1.7,6-2.5,8.9c-1.7,6-3.6,11.9-5.4,17.8
			c-3.8,11.8-7.9,23.5-12.7,34.9c-4.8,11.4-10.1,22.6-16.5,33.3c-3.2,5.3-6.6,10.5-10.2,15.6c-3.5,5.1-7.2,10.1-10.5,15.2
			c-3.4,5.1-6.6,10.4-9.3,16c-0.7,1.4-1.3,2.8-2,4.2c-0.7,1.4-1.3,2.8-1.9,4.2l-1.8,4.3l-1.6,4.3c-4.3,11.6-7.5,23.5-10.2,35.5
			c-2.7,12-5,24.2-7,36.4c-2,12.2-3.7,24.4-5.9,36.6c-4.4,24.3-10.4,48.6-20,71.5c-1.2,2.9-2.5,5.7-3.8,8.5
			c-1.4,2.8-2.7,5.6-4.2,8.3c-1.4,2.8-3,5.4-4.5,8.2c-1.6,2.6-3.2,5.3-4.9,7.9c-1.7,2.6-3.5,5.1-5.3,7.7c-1.9,2.5-3.7,5-5.8,7.3
			c-1.9,2.4-4.1,4.7-6.1,7c-2.2,2.2-4.3,4.5-6.5,6.7c-17.9,17.4-39.5,30.5-62.3,40.2c-22.9,9.7-46.9,16.4-71.2,21.4
			c-24.3,4.9-48.9,8.2-73.6,10.5c-24.7,2.3-49.4,3.6-74.1,4.3c-24.7,0.7-49.5,1-74.3,1.2c-12.4,0.1-24.8,0.1-37.2,0.1l-18.6-0.3
			c-6.2-0.2-12.4-0.3-18.6-0.6c-12.4-0.4-24.9-1.3-37.3-2.2c-12.4-1.1-24.9-2.5-37.3-4.2c-12.4-1.8-24.8-4.1-37.2-6.9
			c-3.1-0.7-6.2-1.5-9.2-2.2c-3.1-0.7-6.1-1.6-9.2-2.4c-3.1-0.8-6.1-1.8-9.2-2.7c-3.1-0.9-6.1-1.9-9.1-2.9
			c-24.2-8-47.6-19.2-69.4-32.1c-21.9-12.8-42-27-62.6-37.7c-5.2-2.6-10.4-5.1-15.6-7.3c-5.3-2.2-10.6-4.2-16.1-6
			c-5.5-1.7-10.9-3.3-16.6-4.5c-2.8-0.7-5.6-1.2-8.5-1.8c-2.9-0.5-5.7-1-8.6-1.4c-23-3.4-47.1-3.7-71.3-2.5
			c-6.1,0.3-12.1,0.7-18.2,1.2c-6.1,0.6-12.2,1.1-18.2,1.8c-6.1,0.6-12.2,1.5-18.2,2.2c-3,0.4-6.1,0.9-9.1,1.3l-9.2,1.3l-9.3,1.3
			l-9.3,1.2l-4.7,0.6l-4.7,0.5l-4.7,0.4c-1.6,0.1-3.1,0.3-4.7,0.4c-12.5,1-25.1,1.4-37.6,1c-12.6-0.4-25.2-1.7-37.5-4.6
			c-12.3-2.7-24.4-7.4-35.3-13.9c-1.4-0.8-2.7-1.7-4-2.6c-1.3-0.9-2.7-1.7-3.9-2.7l-3.8-2.9l-3.6-3.1c-0.6-0.5-1.2-1-1.8-1.6
			l-1.7-1.6c-1.1-1.1-2.3-2.2-3.4-3.3l-3.2-3.5c-1.1-1.1-2.1-2.4-3.1-3.6c-2.1-2.4-3.9-5-5.9-7.5c-1.8-2.6-3.7-5.1-5.3-7.8
			c-3.5-5.3-6.5-10.7-9.5-16.2c-5.9-11-11.1-22.3-16.2-33.6c-5.1-11.3-10-22.6-15.3-33.7c-10.4-22.3-22.1-43.9-36.5-63.4
			c-14.4-19.5-31.4-36.9-50.7-51.3c-9.6-7.2-19.8-13.7-30.3-19.6l-3.9-2.2l-2-1.1l-2-1l-8.1-4.1c-5.5-2.5-10.9-5.1-16.5-7.4
			c-5.5-2.4-11.2-4.4-16.9-6.6c-2.8-1-5.7-2-8.6-3l-4.3-1.5c-1.4-0.5-2.9-0.9-4.3-1.3l-8.7-2.6c-2.9-0.9-5.9-1.7-8.9-2.5l-17.7-5
			c-23.7-6.4-47.5-12.4-71.3-17.3c-23.8-4.9-47.9-8.6-71.4-9.2c-2.9,0-5.8,0-8.8-0.1l-8.7,0.3l-1.1,0l-1.1,0.1l-2.1,0.2l-4.3,0.4
			c-0.7,0-1.4,0.2-2.1,0.3l-2.1,0.3l-4.2,0.6c-11.1,2.1-21.7,6.1-32.1,12.3c-5.2,3-10.5,6.4-15.9,9.6c-5.5,3.2-11,6.3-16.9,8.8
			l-2.2,1l-2.2,0.8l-4.4,1.6l-4.5,1.3c-1.5,0.4-3,0.9-4.5,1.2l-4.6,1c-0.8,0.2-1.5,0.4-2.3,0.5l-2.3,0.4c-3.1,0.5-6.1,1.1-9.2,1.4
			l-4.6,0.5l-2.3,0.3l-2.3,0.1c-3.1,0.2-6.2,0.4-9.3,0.6l-9.3,0.2l-2.3,0.1l-2.3,0c-1.6,0-3.1,0-4.7-0.1c-6.2-0.2-12.5-0.7-18.7-1.5
			c-6.2-0.9-12.5-2.3-18.6-4.7c-0.8-0.3-1.5-0.6-2.3-1c-0.8-0.3-1.5-0.7-2.3-1c-1.5-0.8-3-1.5-4.4-2.5c-0.7-0.5-1.5-0.9-2.1-1.4
			l-2.1-1.6c-0.7-0.5-1.3-1.2-1.9-1.8l-1-0.9l-0.9-1c-0.6-0.7-1.2-1.3-1.7-2l-1.6-2.2c-0.9-1.5-1.9-3.1-2.6-4.8
			c-1.5-3.3-2.7-6.8-3.2-10.3c-0.6-3.5-0.9-7.1-0.8-10.6c0-0.9,0-1.8,0.1-2.6c0.1-0.9,0.1-1.7,0.2-2.6c0.2-1.7,0.3-3.4,0.6-5.1
			c1-6.8,2.7-13.3,4.8-19.6c4.2-12.6,9.8-24.4,16-35.7c6.3-11.3,13.2-22,20.6-32.3c14.8-20.6,31.5-39.6,48.8-57.3
			c1.1-1.1,2.2-2.2,3.4-3.4c1.1-1.1,2.3-2.3,3.4-3.4c2.4-2.2,4.7-4.5,7.2-6.7c5-4.4,10.2-8.7,16.3-12.5c1.6-1,3.1-1.9,4.7-2.8
			l2.5-1.3l1.3-0.6l1.3-0.6l2.7-1.1c0.9-0.4,1.9-0.7,2.8-1c1.8-0.7,3.8-1.1,5.8-1.6c1-0.3,2-0.4,3-0.5c1-0.1,2-0.4,3-0.4l3-0.2
			c1-0.1,1.9,0,2.9,0c3.9,0,7.5,0.6,10.9,1.2c6.9,1.4,13,3.4,19,5.4l17.7,6.1c11.7,4,23.5,7.6,35.5,10.5c12,2.9,24.2,5.1,36.5,6.7
			c6.1,0.8,12.3,1.5,18.4,1.9c6.2,0.4,12.4,0.7,18.5,0.4c6.2-0.3,12.4-1.1,18.1-3.3c5.8-2.1,10.8-5.9,15.5-9.9
			c4.7-4,9.1-8.3,13.6-12.5c4.5-4.2,9.1-8.4,13.8-12.5c18.7-16.3,38.7-31,59.4-44.8c20.7-13.8,41.9-26.7,63.5-39l32.4-18.2l16-9.2
			l15.9-9.3c5.3-3.1,10.5-6.3,15.8-9.5l7.8-4.8l3.9-2.4l3.9-2.5c10.3-6.5,20.5-13.3,30.4-20.4c2.5-1.8,4.9-3.6,7.4-5.3
			c2.4-1.8,4.9-3.6,7.3-5.5c4.9-3.7,9.7-7.5,15.3-11.3c2.9-1.9,5.8-3.7,9.2-5.3c0.8-0.4,1.7-0.8,2.5-1.1l2.6-1l1.3-0.5l1.3-0.4
			l2.6-0.8c6.9-1.8,13.5-2.5,19.9-3.1c6.4-0.6,12.6-0.8,18.9-1.1c6.2-0.2,12.4-0.4,18.6-0.6l37.1-0.9c12.4-0.2,24.6-0.6,37.1-0.7
			c12.5-0.2,24.9-0.1,37.4,0.2c6.2,0.1,12.5,0.4,18.7,0.6l9.3,0.5c3.1,0.2,6.2,0.3,9.3,0.6l9.3,0.6c3.1,0.2,6.2,0.5,9.3,0.8
			c6.2,0.5,12.4,1.2,18.6,1.8c12.4,1.4,24.8,2.9,37.1,4.8c12.3,1.9,24.6,4,36.8,6.3c24.4,4.6,48.6,10.2,72.8,14.7
			c24.1,4.5,48.3,7.3,72.5,6.7l9.1-0.4l9.2-0.5c6.1-0.4,12.3-0.8,18.4-1.2c12.3-0.9,24.5-2,36.7-3.3c24.4-2.5,48.8-5.8,72.9-9.6
			c12.1-1.9,24.1-4.1,36.1-6.3c12-2.3,23.9-4.8,35.7-7.4c11.9-2.6,23.6-5.5,35.3-8.6c11.7-3.1,23.3-6.4,34.7-10.1
			c11.4-3.7,22.8-7.6,33.9-11.9c5.5-2.2,11.1-4.4,16.5-6.8l4.1-1.8l4-1.9c2.7-1.2,5.5-2.4,7.9-3.7c20.4-9.9,38.7-23.6,54.6-40.4
			c8-8.4,15.3-17.5,22.2-27.1c6.9-9.6,13.2-19.8,19.2-30.4c3-5.3,5.9-10.6,8.8-16l8.6-16.4c2.9-5.5,5.8-11.1,9.1-16.5
			c1.6-2.7,3.4-5.4,5.4-8c1-1.3,2.2-2.5,3.5-3.6c0.3-0.3,0.7-0.5,1-0.8c0.4-0.2,0.7-0.5,1.1-0.6c0.4-0.2,0.8-0.3,1.2-0.4
			C2130.3,6876.5,2130.6,6876.6,2131,6876.5z"/>
	</g>
	<g>
		<path class="st2" d="M951.1,6859.1c59.8,38.4,88.9,19.1,88.9,79.7c0,60.5,72.8,59,102.6-48.3c29.9-107.2-24.5-48.3-87.3-78.9
			c-62.8-30.6-67.3-145.9-125.6-133.3c-41.9,9.1-72.5,96.5-46,139.4C895.9,6837.5,911.5,6833.7,951.1,6859.1z"/>
		<path class="st3" d="M955,6853.1c7.5,5.2,15.3,10,23.4,14.3c8.1,4.3,16.5,8.1,25.1,11.9c4.3,1.9,8.7,3.8,13,6.1
			c4.3,2.2,8.7,4.9,12.5,8.4c1,0.8,1.8,1.8,2.7,2.8c0.4,0.5,0.8,1,1.2,1.5c0.4,0.5,0.8,1,1.2,1.6c0.7,1.1,1.4,2.2,2,3.3l0.9,1.7
			c0.3,0.6,0.5,1.2,0.7,1.8c1.9,4.7,2.8,9.6,3.3,14.4c0.3,2.4,0.4,4.8,0.5,7.2c0,2.4,0.1,4.8,0,7.1l-0.1,3.6c0,1.2-0.1,2.3,0,3.5
			c0,2.3,0.2,4.6,0.5,6.9c0.6,4.5,1.8,9.1,3.8,13.2c2,4.1,4.8,7.9,8.4,10.7c3.6,2.8,8,4.7,12.6,5.2c4.6,0.6,9.3,0.1,13.7-1.3
			c8.9-2.7,16.8-8.3,23.4-14.8c3.3-3.3,6.4-6.8,9.2-10.5c2.8-3.7,5.4-7.6,7.7-11.7c4.7-8.1,8.7-16.5,11.9-25.3
			c1.6-4.4,3.1-8.8,4.5-13.3c0.7-2.2,1.3-4.5,1.9-6.7c0.6-2.3,1.2-4.5,1.7-6.8c2.1-9.1,4.1-18.2,5.3-27.4c0.6-4.6,0.9-9.1,0.9-13.6
			c0-2.2-0.1-4.4-0.5-6.5c-0.3-2.1-0.8-4-1.6-5.7c-1.5-3.4-3.7-5.1-7.2-6.1c-3.5-1-7.8-1.1-12.3-0.9c-9,0.3-18.6,1.4-28.4,1.3
			c-9.8,0-20-0.9-29.9-3.4c-5-1.3-9.9-2.9-14.7-4.9c-4.8-2-9.6-4.5-14-7.4c-8.9-5.8-16.5-13.1-23.2-20.7
			c-13.3-15.5-23-32.7-32.2-49.1c-4.6-8.2-9-16.3-13.7-23.8c-4.7-7.4-9.6-14.4-14.8-19.3c-2.6-2.4-5.2-4.3-7.6-5.5
			c-2.5-1.2-4.8-1.8-7.3-1.9c-1.3,0-2.6,0-4.1,0.3c-0.7,0.1-1.5,0.3-2.2,0.4c-0.7,0.2-1.3,0.4-1.9,0.6c-2.6,0.8-5.3,2.3-8,4.2
			c-5.5,3.9-10.6,9.7-15.2,16.3c-4.4,6.7-8.4,14-11.6,21.8c-3.1,7.8-5.7,15.9-7.4,24.1c-1.7,8.2-2.6,16.7-2.4,24.8
			c0,4.1,0.6,8.1,1.3,12c0.7,3.9,1.9,7.6,3.3,11.1c1.6,3.5,3.4,6.7,5.5,9.2c2.2,2.6,5,4.7,8.5,6.9c3.6,2.1,7.7,4.1,12,6.3
			c4.2,2.1,8.6,4.4,12.8,6.7C938.8,6842.5,947.1,6847.6,955,6853.1z M947.2,6865.2c-7.9-4.6-16-8.9-24.3-12.5
			c-2.1-0.9-4.2-1.8-6.3-2.7l-6.5-2.5c-4.3-1.7-8.8-3.3-13.6-5.6c-1.2-0.5-2.4-1.2-3.6-1.8c-1.2-0.6-2.4-1.4-3.7-2.1
			c-1.2-0.7-2.4-1.6-3.6-2.5c-0.6-0.5-1.2-0.9-1.8-1.4l-1.7-1.5c-4.4-4.1-7.8-8.9-10.6-13.7c-2.7-4.9-4.9-10-6.5-15.2
			c-1.6-5.2-2.8-10.5-3.4-15.8c-1.5-10.6-1.3-21.1-0.1-31.4c0.2-2.6,0.7-5.1,1.1-7.7l0.7-3.8c0.2-1.3,0.5-2.5,0.8-3.8
			c0.6-2.5,1.2-5.1,1.9-7.5c0.7-2.5,1.5-5,2.3-7.4c0.8-2.5,1.8-4.9,2.7-7.3l1.5-3.6l0.8-1.8l0.9-1.8l1.7-3.6l1.9-3.5
			c1.2-2.4,2.7-4.6,4.1-6.9l2.3-3.4l1.2-1.7l1.2-1.6c0.8-1.1,1.7-2.2,2.5-3.3l2.8-3.2c0.9-1.1,1.9-2.1,2.9-3.1c1-1,2-2,3.1-3
			c1.1-1,2.2-2,3.3-2.9l3.6-2.7c5-3.5,10.6-6.5,17-8.5c1.6-0.4,3.3-0.9,4.9-1.3c1.6-0.3,3.1-0.6,4.7-0.7c3.2-0.4,6.6-0.5,10-0.3
			c3.4,0.2,6.8,0.9,10.2,1.8c3.3,0.9,6.5,2.3,9.5,3.8c3,1.5,5.6,3.4,8.1,5.3c2.5,1.9,4.7,4,6.7,6.1c4,4.2,7.5,8.6,10.4,13
			c3,4.4,5.6,8.8,8,13.1c4.8,8.8,8.9,17.4,13,25.9c4,8.5,8,16.8,12.2,24.8c4.2,8,8.7,15.6,13.7,22.6c5,7,10.6,13.3,17,18.5
			c3.2,2.6,6.6,4.8,10.2,6.8c3.7,2,7.6,3.8,11.6,5.2c8.1,2.9,16.7,4.7,25.6,5.5c4.5,0.4,9,0.7,13.7,0.9c4.7,0.2,9.4,0.3,14.3,0.6
			c4.9,0.4,10.1,0.8,15.5,2.9c2.7,1,5.5,2.7,7.7,5c2.3,2.3,3.8,5.1,4.7,7.8c0.9,2.7,1.3,5.4,1.5,8c0.2,2.6,0.1,5.1-0.1,7.6
			c-0.4,5-1.1,9.7-2.1,14.5c-2,9.4-4.6,18.5-7.4,27.5c-2.8,9-5.9,18-9.7,26.7c-3.8,8.7-8.1,17.2-13.2,25.2c-2.5,4-5.3,7.9-8.2,11.6
			c-2.9,3.7-6.1,7.2-9.6,10.5c-3.4,3.3-7.2,6.2-11.2,8.8c-4,2.5-8.3,4.7-12.9,6c-4.6,1.3-9.4,2-14.1,1.4c-4.7-0.6-9.4-2.3-13.2-5.2
			c-3.9-2.9-7-6.7-9.2-11c-1.1-2.1-2-4.4-2.8-6.6c-0.8-2.3-1.3-4.6-1.8-7c-0.4-2.4-0.8-4.7-0.9-7.1c-0.1-1.2-0.1-2.4-0.2-3.6
			l-0.2-3.5c-0.1-2.3-0.4-4.6-0.6-6.9c-0.3-2.3-0.6-4.6-1-6.8c-0.9-4.5-2.1-8.9-4.1-12.7c-2-3.9-4.6-7.2-8-9.7
			c-3.4-2.6-7.3-4.5-11.5-6.2c-4.2-1.7-8.6-3.1-13-4.6c-8.9-3-18-6.1-26.9-9.9C964.2,6874.5,955.6,6870.1,947.2,6865.2z"/>
	</g>
	<circle class="st0" cx="963.3" cy="7514.2" r="65.9"/>
	<circle class="st0" cx="963.3" cy="7514.2" r="146.3"/>
	<circle class="st0" cx="1472.5" cy="7090.4" r="55.7"/>
	<circle class="st0" cx="1470.6" cy="7088.5" r="95.7"/>
	<circle class="st0" cx="208.1" cy="4894.9" r="255.9"/>
	<circle class="st0" cx="644.8" cy="5805.5" r="54.5"/>
	<circle class="st0" cx="1494.6" cy="4362.9" r="111.8"/>
	<circle class="st0" cx="1494.6" cy="4362.9" r="46.8"/>
	<circle class="st0" cx="1518.4" cy="763.8" r="113"/>
	<circle class="st0" cx="760" cy="2318.7" r="441.2"/>
</g>
</svg>
