<svg id="Livello_1" data-name="Livello 1" xmlns="http://www.w3.org/2000/svg" viewBox="0 0 60 60"><defs><style>.cls-1,.cls-3{fill:#fff;}.cls-2,.cls-5,.cls-6{fill:#fcc201;}.cls-3,.cls-4,.cls-5,.cls-6,.cls-7{stroke:#fcc201;stroke-linecap:round;stroke-linejoin:round;}.cls-3,.cls-4,.cls-6{fill-rule:evenodd;}.cls-4,.cls-7{fill:none;}</style></defs><path class="cls-1" d="M30,0A30,30,0,1,0,60,30,30,30,0,0,0,30,0ZM30,53.5A23.49,23.49,0,1,1,53.47,30,23.49,23.49,0,0,1,30,53.5Z"/><path class="cls-2" d="M58.28,20h0l-.2-.55-.21-.55h0A30.07,30.07,0,0,0,35.51.52h0l-.58-.1-.58-.1v0A30.09,30.09,0,0,0,7.23,10.49l0,0-.37.46-.37.45v0A29.88,29.88,0,0,0,1.72,40h0l.2.55.21.55h0a30,30,0,0,0,22.36,18.4v0l.58.1.58.1v0A29.67,29.67,0,0,0,52.77,49.51h0l.37-.45.37-.45v0A29.88,29.88,0,0,0,58.28,20ZM48.13,44.93a23.49,23.49,0,1,1,5-11.07A23.59,23.59,0,0,1,48.13,44.93Zm-14-43.45-.68,4.1a24.8,24.8,0,0,0-22.14,8.29l-.81-.67-2.4-2A28.92,28.92,0,0,1,34.16,1.48ZM3.22,40.66l3.26-1.22.64-.24a24.72,24.72,0,0,0,18.24,15l-.68,4.11A28.94,28.94,0,0,1,3.22,40.66Zm55.21-5.92a28.83,28.83,0,0,1-5.81,13.13L50,45.74l-.63-.52A24.67,24.67,0,0,0,53.3,21.9l3.9-1.46A28.93,28.93,0,0,1,58.43,34.74Z"/><path id="path3901" class="cls-3" d="M35.71,41l0,0a4.6,4.6,0,0,1-.87,6c-3.27,2.85-6.48,2.65-9.54.25a4.78,4.78,0,0,1-.89-6.59l0,0Z"/><path id="path3903" class="cls-4" d="M36.38,43.32a12.52,12.52,0,0,1-12.74-.22"/><path id="path3905" class="cls-4" d="M28.7,42.2l-.63,2.6"/><path id="path3907" class="cls-4" d="M31.85,44.81l-.54-2.44"/><path id="path3485" class="cls-5" d="M30.1,12.65a13.41,13.41,0,0,0-13.33,11H43.43A13.4,13.4,0,0,0,30.1,12.65Z"/><path id="path3510" class="cls-3" d="M17.74,20.58a66.61,66.61,0,0,1,24.8.33,8.36,8.36,0,0,1,.81,2.33L17,23.11A5.05,5.05,0,0,1,17.74,20.58Z"/><path id="path3502" class="cls-6" d="M8.38,25.58c18.6,3.87,34.8,3.08,43-.38C38.77,19.52,16.79,20.46,8.38,25.58Z"/><path id="path3514" class="cls-3" d="M25.53,38.9a20.2,20.2,0,0,0-1.48,2.28A19.15,19.15,0,0,0,36,41.25l-1.38-2.6Z"/><path id="path3516" class="cls-4" d="M29,42.2l.13-2.86"/><path id="path3518" class="cls-4" d="M31.11,42.2l.07-2.73"/><path id="path3520" class="cls-4" d="M33.33,39.6l.57,2.34"/><path id="path3522" class="cls-4" d="M26.17,41.82,27,39.09"/><path id="path3483" class="cls-3" d="M16.66,26.16c.65-2,3.59-2.69,13.44-2.78s13.19.47,13.57,2.46c.54,2.84-2,14.27-13.57,14.27S15.84,28.7,16.66,26.16Z"/><g id="path3504"><path class="cls-2" d="M24.08,34.47a3.75,3.75,0,1,1,3.74-3.75A3.75,3.75,0,0,1,24.08,34.47Z"/><path class="cls-2" d="M24.08,27.47a3.25,3.25,0,1,1-3.25,3.25,3.25,3.25,0,0,1,3.25-3.25m0-1a4.25,4.25,0,1,0,4.24,4.25,4.25,4.25,0,0,0-4.24-4.25Z"/></g><g id="path3506"><path class="cls-2" d="M36.12,34.47a3.75,3.75,0,1,1,3.75-3.75A3.75,3.75,0,0,1,36.12,34.47Z"/><path class="cls-2" d="M36.12,27.47a3.25,3.25,0,1,1-3.24,3.25,3.26,3.26,0,0,1,3.24-3.25m0-1a4.25,4.25,0,1,0,4.25,4.25,4.24,4.24,0,0,0-4.25-4.25Z"/></g><g id="path3508"><circle class="cls-2" cx="30.1" cy="36.05" r="1.21"/><path class="cls-2" d="M30.1,35.34a.71.71,0,1,1-.71.71.71.71,0,0,1,.71-.71m0-1a1.71,1.71,0,1,0,1.71,1.71,1.7,1.7,0,0,0-1.71-1.71Z"/></g><line class="cls-7" x1="25.79" y1="41.65" x2="25.28" y2="43.75"/><line class="cls-7" x1="34.24" y1="41.73" x2="34.93" y2="44.03"/></svg>