<svg id="Livello_1" data-name="Livello 1" xmlns="http://www.w3.org/2000/svg" viewBox="0 0 60 60"><defs><style>.cls-1{fill:#fcc201;}</style></defs><path class="cls-1" d="M58.28,20h0l-.2-.55-.21-.55h0A30.07,30.07,0,0,0,35.51.52h0l-.58-.1-.58-.1v0A30.09,30.09,0,0,0,7.23,10.49l0,0-.37.46-.37.45v0A29.88,29.88,0,0,0,1.72,40h0l.2.55.21.55h0a30,30,0,0,0,22.36,18.4v0l.58.1.58.1v0A29.67,29.67,0,0,0,52.77,49.51h0l.37-.45.37-.45v0A29.88,29.88,0,0,0,58.28,20ZM48.13,44.93a23.49,23.49,0,1,1,5-11.07A23.59,23.59,0,0,1,48.13,44.93Zm-14-43.45-.68,4.1a24.8,24.8,0,0,0-22.14,8.29l-.81-.67-2.4-2A28.92,28.92,0,0,1,34.16,1.48ZM3.22,40.66l3.26-1.22.64-.24a24.72,24.72,0,0,0,18.24,15l-.68,4.11A28.94,28.94,0,0,1,3.22,40.66Zm55.21-5.92a28.83,28.83,0,0,1-5.81,13.13L50,45.74l-.63-.52A24.67,24.67,0,0,0,53.3,21.9l3.9-1.46A28.93,28.93,0,0,1,58.43,34.74Z"/></svg>