<?xml version="1.0" encoding="utf-8"?>
<!-- Generator: Adobe Illustrator 25.2.1, SVG Export Plug-In . SVG Version: 6.00 Build 0)  -->
<svg version="1.1" id="Livello_1" xmlns="http://www.w3.org/2000/svg" xmlns:xlink="http://www.w3.org/1999/xlink" x="0px" y="0px"
	 viewBox="0 0 60 60" enable-background="new 0 0 60 60" xml:space="preserve">
<circle fill="#FFFFFF" cx="30" cy="30" r="30"/>
<path d="M21.2,22h17.6c1.2,0.1,2.2-0.8,2.3-2c0.1-1.2-0.8-2.2-2-2.3c-0.1,0-0.2,0-0.3,0H21.2c-1.2-0.1-2.2,0.8-2.3,2
	c-0.1,1.2,0.8,2.2,2,2.3C21,22,21.1,22,21.2,22z"/>
<path d="M43.5,27.8H15.8c-1.2-0.1-2.2,0.8-2.3,2s0.8,2.2,2,2.3c0.1,0,0.2,0,0.3,0h27.7c1.2-0.1,2.1-1.1,2-2.3
	C45.5,28.8,44.6,27.9,43.5,27.8z"/>
<path d="M38.8,38H21.2c-1.2-0.1-2.2,0.8-2.3,2s0.8,2.2,2,2.3c0.1,0,0.2,0,0.3,0h17.6c1.2,0.1,2.2-0.8,2.3-2s-0.8-2.2-2-2.3
	C39,38,38.9,38,38.8,38z"/>
<path id="girello" fill="#FCC201" d="M58.3,20L58.3,20l-0.2-0.5l-0.2-0.5l0,0C54,9.4,45.6,2.4,35.5,0.5l0,0l-0.6-0.1l-0.6-0.1l0,0
	C24.2-1.2,13.9,2.7,7.2,10.5l0,0l-0.4,0.5l-0.4,0.4l0,0C0.1,19.5-1.7,30.3,1.7,40l0,0l0.2,0.5l0.2,0.5l0,0
	c3.8,9.6,12.2,16.5,22.4,18.4l0,0l0.6,0.1l0.6,0.1l0,0c10.2,1.5,20.5-2.3,27.1-10.2l0,0l0.4-0.5l0.4-0.5l0,0
	C59.9,40.5,61.7,29.7,58.3,20z M48.1,44.9c-8.2,10-23,11.5-33.1,3.3s-11.5-23-3.3-33.1s23-11.5,33.1-3.3c6.5,5.3,9.7,13.7,8.3,22
	C52.5,37.9,50.7,41.7,48.1,44.9z M34.1,1.5l-0.7,4.1c-8.3-1.2-16.6,2-22.1,8.3l-0.8-0.7l-2.4-2C14.6,3.7,24.4,0.1,34.1,1.5L34.1,1.5
	z M3.2,40.7l3.3-1.2l0.6-0.2c3.1,7.8,10,13.4,18.2,15l-0.7,4.1C15,56.5,6.9,49.8,3.2,40.7z M58.4,34.7c-0.8,4.8-2.8,9.3-5.8,13.1
	L50,45.7l-0.6-0.5c5.2-6.6,6.7-15.4,3.9-23.3l3.9-1.5C58.8,25,59.2,29.9,58.4,34.7z"/>
</svg>
