<?xml version="1.0" encoding="utf-8"?>
<!-- Generator: Adobe Illustrator 25.2.1, SVG Export Plug-In . SVG Version: 6.00 Build 0)  -->
<svg version="1.1" id="Livello_1" xmlns="http://www.w3.org/2000/svg" xmlns:xlink="http://www.w3.org/1999/xlink" x="0px" y="0px"
	 viewBox="0 0 4000 2000" style="enable-background:new 0 0 4000 2000;" xml:space="preserve">
<style type="text/css">
	.st0{opacity:9.000000e-02;fill:#FCC201;}
	
		.st1{opacity:9.000000e-02;fill:none;stroke:#FCC201;stroke-width:3;stroke-linecap:round;stroke-linejoin:round;stroke-miterlimit:9.9999;enable-background:new    ;}
	
		.st2{opacity:9.000000e-02;fill:none;stroke:#FCC201;stroke-width:3;stroke-linecap:round;stroke-linejoin:round;stroke-miterlimit:10;enable-background:new    ;}
	.st3{opacity:9.000000e-02;}
	.st4{fill:none;stroke:#FCC201;stroke-width:3;stroke-miterlimit:10;}
	.st5{opacity:9.000000e-02;fill:none;stroke:#FCC201;stroke-width:3;stroke-miterlimit:10;enable-background:new    ;}
</style>
<path class="st0" d="M6267.2-76.1c-43.7-223.9-109.3-444.2-195.1-655c-61.4-150.8-133.5-297.8-215.3-439l2.8-1.6l-1.5-2.6l-2.8,1.6
	c-27.3-47.1-55.7-93.5-85.2-139.1v-1065.4H4704.7c-183.5-118.2-378.6-219.7-580.6-301.9c-210.8-85.8-431.2-151.4-655-195.1
	c-221.7-43.3-448.8-65.4-674.9-65.8c-1.9,0-3.8,0-5.6,0c-224.2,0-449.3,21.4-669.1,63.6c-223.7,43-443.9,107.9-654.4,193
	c-205.2,82.9-403.2,185.9-589.1,306.1H-170.5v1046.4c-120.3,185.9-223.3,384-306.2,589.2c-85.1,210.5-150,430.7-193,654.4
	c-42.6,221.6-64,448.6-63.6,674.7c0.4,226.1,22.5,453.2,65.8,674.9c43.7,223.9,109.3,444.2,195.1,655
	c61.4,150.8,133.5,297.8,215.3,438.9l-2.8,1.6l1.5,2.6l2.8-1.6c27.3,47.1,55.7,93.5,85.2,139.2v1065.2H894.6
	c183.6,118.3,378.8,219.8,580.9,302.1c210.8,85.8,431.2,151.4,655,195.1c221.7,43.3,448.8,65.4,674.9,65.8c1.9,0,3.8,0,5.6,0
	c224.2,0,449.3-21.4,669.1-63.6c223.7-43,443.9-107.9,654.4-193c205.3-83,403.4-186,589.4-306.3h1046.2V2517.2
	c120.3-185.9,223.3-384,306.2-589.2c85.1-210.5,150-430.7,193-654.4c42.6-221.6,64-448.6,63.6-674.7
	C6332.6,372.7,6310.4,145.7,6267.2-76.1z M5852.3-1171l-82.2,47.4v-182.1C5798.6-1261.3,5826-1216.3,5852.3-1171z M4777.5-1387.5
	h-986.6v-986.7h912.3c24.9,16,49.7,32.4,74.3,49.2V-1387.5z M4780.5-2323c180.3,122.9,351.7,264.2,511.5,424
	c159.8,159.8,301.1,331.2,424,511.5h-935.5V-2323z M5767.1,1581.3h-986.6V594.7h986.6V1581.3z M-167.5-394.9h986.6v986.6h-34
	L165.1-194.1l-2.4,1.9l618.6,784H181.5L-30.7-254.9l-2.9,0.7l212.1,845.8h-345.9V-394.9z M3787.9,20.9l-154.1,89
	c-43-74.8-95.8-143.6-157.9-205.7c-93.6-93.6-202.7-166.2-324.1-215.8c-111.9-45.7-229.7-70-350.5-72.6v-10.7h986.6V20.9z
	 M3790.9-394.9h717.2L3790.9,19.2V-394.9z M3787.9,1581.3h-986.6v-10.5c123.1-1,242.9-24.6,356.5-70.3
	c121.1-48.8,229.7-120.7,322.7-213.7c62.5-62.5,115.4-131.9,158.2-207.5l149.2,86.2V1581.3z M3790.9,1167.1l717.4,414.2h-717.4
	V1167.1z M1566,1581.3L1417.4,1393l391.3-225.9v414.2H1566z M1808.7,1584.3v304.6l-240.3-304.6H1808.7z M822.1,594.7h986.6v568.9
	l-393.1,227L822.1,638.5V594.7z M819.1,634.7l-31.6-40h31.6V634.7z M1811.7-394.9h986.6v10.6c-4.9-0.1-9.8-0.2-14.6-0.2
	c-127-0.4-250.7,23.3-367.6,70.4c-121.1,48.8-229.7,120.7-322.7,213.7C2033.9-41,1983.2,24.7,1941.5,96l-129.8-75V-394.9z
	 M1808.7,19.3l-717.3-414.2h717.3V19.3z M3637.4,1075L3043,731.9l-15-8.7c21.8-38.7,33.2-82.6,32.9-128.4c0,0,0-0.1,0-0.1h700.1
	C3761.9,760.7,3720.7,926.7,3637.4,1075z M1942.8,100.1l628.8,363c-21.8,38.6-33.2,82.6-32.9,128.4c0,0.1,0,0.1,0,0.2h-725.9
	C1811.9,421.5,1855.2,251.3,1942.8,100.1z M3058,594.8c0.3,45.3-11,88.7-32.5,126.9l-54.4-31.4L2923,638l70.6-9.2
	c0.6-0.1,1.2-0.6,1.3-1.2c0.1-0.6-0.2-1.3-0.8-1.6l-60.3-31.3h124.2C3057.9,594.7,3057.9,594.8,3058,594.8z M2710.8,504.2
	c48.4-48.4,127.7-47.8,176.7,1.2c29.7,29.7,41.6,70.5,35.6,108.8l-11.1-1.8c5.4-34.8-5.5-71.9-32.5-98.9
	c-44.6-44.6-116.7-45.2-160.7-1.2c-44,44-43.4,116.1,1.2,160.7c21.6,21.6,50.2,33.7,80.6,33.9c0.3,0,0.6,0,0.9,0
	c30,0,58.1-11.6,79.2-32.7c16.6-16.6,26.9-37.2,30.8-58.8l11.1,1.8c-4.3,23.9-15.6,46.6-33.9,65c-48.4,48.4-127.7,47.8-176.7-1.2
	C2663,631.9,2662.5,552.6,2710.8,504.2z M2821.2,614.5c-2,2-4.2,3.7-6.6,5l-2.7,1.3c-3.8,1.6-7.8,2.5-12.1,2.5
	c-8.1,0-15.7-3.1-21.4-8.8c-5.7-5.7-8.8-13.3-8.8-21.4s3.1-15.7,8.8-21.4c5.7-5.7,13.3-8.8,21.4-8.8c8.1,0,15.7,3.1,21.4,8.8
	C2832.9,583.6,2832.9,602.8,2821.2,614.5z M2829.2,577.8l66.4-38.4c6,10.4,10.1,21.6,12.4,33.1l-76,13.4
	C2831.6,583.1,2830.6,580.4,2829.2,577.8z M2827.7,575.3c-1.2-1.9-2.7-3.8-4.4-5.4l48.7-59.3c1.8,1.6,3.6,3.3,5.3,5
	c6.6,6.6,12.1,13.7,16.7,21.3L2827.7,575.3z M2821.2,567.8c-2-1.7-4.1-3.1-6.4-4.2l25.2-72.8c10.6,4.3,20.6,10.2,29.8,17.9
	L2821.2,567.8z M2812.1,562.3c-3.4-1.3-7-2.1-10.8-2.3v-77.4c12.2,0.3,24.3,2.7,35.9,7L2812.1,562.3z M2798.3,560
	c-2.9,0.1-5.8,0.6-8.5,1.5l-26.7-73.3c11.3-3.8,23.1-5.7,35-5.7c0.1,0,0.1,0,0.2,0V560z M2760.3,489.2l26.7,73.3
	c-2.6,1.1-5.1,2.5-7.4,4.3l-50.4-60C2738.8,499.1,2749.3,493.3,2760.3,489.2z M2727,508.8l50.4,60c-0.3,0.3-0.7,0.6-1,1
	c-1.7,1.7-3.2,3.6-4.5,5.6l-67.7-39.1c4.6-7.8,10.2-15.2,16.9-21.8C2722.9,512.4,2724.9,510.5,2727,508.8z M2702.6,538.8l67.7,39.1
	c-1.3,2.5-2.3,5.2-2.9,8l-76.6-13.5C2692.9,560.7,2696.8,549.4,2702.6,538.8z M2766.9,588.9c-0.2,1.4-0.3,2.9-0.3,4.3
	c0,2,0.2,4,0.5,6l-76.1,12.6c-2.2-12-2.4-24.3-0.7-36.4L2766.9,588.9z M2767.8,602.1c0.6,2.2,1.4,4.3,2.5,6.3l-56.7,32.7l-9.8,5.7
	c-5.8-10.2-9.8-21-12.2-32.1L2767.8,602.1z M2715.2,643.7l56.6-32.7c1.3,2,2.8,3.9,4.5,5.6c0.3,0.3,0.6,0.6,1,0.9l-49.3,58.7
	c-2-1.8-4-3.6-5.9-5.5c-6.6-6.6-12.2-13.8-16.8-21.4L2715.2,643.7z M2779.6,619.5c2.3,1.8,4.8,3.2,7.4,4.3l-26.3,72.3
	c-10.9-4.3-21.1-10.3-30.3-17.9L2779.6,619.5z M2789.8,624.9c2.7,0.9,5.6,1.4,8.5,1.5v77.4c-12-0.3-23.8-2.6-34.8-6.6L2789.8,624.9z
	 M2801.3,626.4c4-0.2,7.9-1.1,11.5-2.6l25.2,73.9c-11.5,4.1-23.9,6.2-36.5,6.2c-0.1,0-0.2,0-0.2,0V626.4z M2840.8,696.6l-25.3-74.2
	c2.3-1.3,4.5-2.8,6.5-4.6l49.3,60.8C2862.2,686.3,2851.9,692.4,2840.8,696.6z M2873.7,676.7l-49.5-61c1.3-1.4,2.5-3,3.5-4.6
	l58.4,33.6l9.4,5.5c-4.6,7.8-10.2,15.1-16.9,21.8C2877,673.6,2875.4,675.2,2873.7,676.7z M2897,647.6l-9.3-5.5l-58.4-33.6
	c1-2,1.9-4.1,2.5-6.3l76.9,12.6C2906.5,626.2,2902.7,637.3,2897,647.6z M2832.4,599.3c0.6-3.4,0.7-6.9,0.3-10.4l76-13.4
	c2.1,12.1,2.3,24.4,0.4,36.4L2832.4,599.3z M2674,614.6l-58.6,9.7l56.6-29.3C2672.1,601.5,2672.8,608.1,2674,614.6z M2674.6,617.5
	c1.2,6,2.9,12,5,17.9l-63.2-8.3L2674.6,617.5z M2688.8,655.4l-51.7,29.9l43.5-47.2C2682.9,644,2685.6,649.8,2688.8,655.4z
	 M2690.4,658c3.3,5.5,7,10.8,11.2,15.8l-62.7,13.9L2690.4,658z M2709.9,683.1c2.3,2.3,4.6,4.4,7,6.5l-38.3,45.7l24.7-59.3
	C2705.4,678.3,2707.6,680.7,2709.9,683.1z M2719.2,691.5c5,4.2,10.3,7.9,15.8,11.2l-54.1,34.6L2719.2,691.5z M2754.8,712.3
	l-20.3,56.1l3-64.4C2743,707.3,2748.8,710,2754.8,712.3z M2757.6,713.4c6.1,2.2,12.2,3.9,18.5,5.2l-38.6,50.5L2757.6,713.4z
	 M2798.3,721v58.9l-19.1-60.8C2785.5,720.2,2791.9,720.9,2798.3,721z M2801.3,721.1c0.1,0,0.1,0,0.2,0c6.3,0,12.5-0.5,18.7-1.4
	l-18.9,60.2V721.1z M2843.6,714l18.9,55.6l-38.6-50.5C2830.6,717.9,2837.2,716.2,2843.6,714z M2846.4,713c5.4-2,10.7-4.5,15.9-7.3
	l2.8,62L2846.4,713z M2882.3,692.1l36.7,45.3l-52.9-33.9C2871.7,700.2,2877.1,696.4,2882.3,692.1z M2884.6,690.2
	c2.2-1.9,4.3-3.8,6.3-5.9c2.2-2.2,4.2-4.4,6.2-6.6l23.7,57.2L2884.6,690.2z M2910.5,658.8l5.6,3.3l44.5,25.7l-60.7-13.5
	C2903.8,669.3,2907.4,664.2,2910.5,658.8z M2917.7,659.5l-5.7-3.3c3.1-5.5,5.7-11.3,7.8-17.1l42.5,46.3L2917.7,659.5z M2925.7,617.6
	l57.5,9.5l-62,8.1C2923.1,629.5,2924.6,623.6,2925.7,617.6z M2926.2,614.7c1-6.5,1.5-13.1,1.5-19.8l56.6,29.3L2926.2,614.7z
	 M2925.7,572.5l58.3-10.3l-56.4,29.3C2927.5,585.1,2926.8,578.8,2925.7,572.5z M2925.2,569.6c-1.3-6.3-3-12.5-5.2-18.5l63.5,8.2
	L2925.2,569.6z M2910.7,530.8l51.6-29.8l-43.3,47.2C2916.7,542.3,2913.9,536.5,2910.7,530.8z M2909.2,528.2
	c-3.3-5.5-7-10.7-11.2-15.8c0,0,0,0,0,0l62.7-14L2909.2,528.2z M2896.3,510.4C2896.3,510.4,2896.3,510.4,2896.3,510.4
	c-2.1-2.4-4.3-4.8-6.6-7.1c-2.1-2.1-4.3-4.2-6.6-6.1l37.8-45.9L2896.3,510.4z M2880.8,495.2c-5.2-4.3-10.6-8.1-16.2-11.5l54.3-34.7
	L2880.8,495.2z M2845.7,474.4l19.4-55.9l-2.8,63.8C2856.9,479.3,2851.3,476.6,2845.7,474.4z M2842.9,473.3
	c-6.3-2.3-12.8-4.2-19.4-5.5l39-51L2842.9,473.3z M2801.3,465.3v-59l19.1,60.9C2814.1,466.1,2807.7,465.5,2801.3,465.3z
	 M2798.3,465.3c-6.3,0-12.7,0.4-18.9,1.4l18.9-60.3V465.3z M2757.2,472l-19.8-54.7l38.3,50C2769.4,468.4,2763.3,469.9,2757.2,472z
	 M2754.4,473c-5.8,2.1-11.6,4.7-17.1,7.7l-2.9-62.8L2754.4,473z M2718.1,493.6l-37.3-44.5l52.8,33.7
	C2728.2,486,2723.1,489.6,2718.1,493.6z M2715.8,495.5c-2.4,2.1-4.8,4.3-7.1,6.6c-2.1,2.1-4.2,4.4-6.1,6.6l-24-57.6L2715.8,495.5z
	 M2689.1,527.5l-50.3-29l61,13.6C2695.8,517,2692.2,522.2,2689.1,527.5z M2687.6,530.1c-3.1,5.6-5.7,11.3-7.9,17.2l-42.6-46.3
	L2687.6,530.1z M2673.8,569.4l-57.7-10.1l62.3-8C2676.4,557.1,2674.9,563.2,2673.8,569.4z M2673.4,572.3c-1,6.3-1.4,12.7-1.4,19.1
	l-56.4-29.3L2673.4,572.3z M2605.5,626c-0.6,0.3-0.9,0.9-0.8,1.6s0.6,1.1,1.3,1.2l70.6,9.2l-48.2,52.3l-20.7,11.9l-31,17.9
	c-22.4-38.8-34.1-82.2-34.9-125.5h124L2605.5,626z M2609.3,704.9l21-12.1l69.2-15.4l-27.4,65.7c-0.3,0.6-0.1,1.3,0.4,1.7
	c0.5,0.4,1.2,0.5,1.8,0.1l60.1-38.3l-3.3,71.2c0,0.7,0.4,1.3,1,1.5c0.6,0.2,1.3,0,1.7-0.5l43.3-56.6l21.3,67.7v61.3
	c-67.8-1.2-131.5-28.4-179.9-76.7c-15.9-15.9-29.3-33.3-40.2-51.7L2609.3,704.9z M2801.3,789.9l21.3-67.7l43.2,56.6
	c0.4,0.5,1.1,0.7,1.7,0.5c0.6-0.2,1-0.8,1-1.5l-3.2-71.2l60,38.3c0.6,0.4,1.3,0.3,1.8-0.1c0.5-0.4,0.7-1.1,0.4-1.7l-27.3-65.7
	l69.1,15.4l54.6,31.5c-11,19-24.5,36.7-40.4,52.6c-48,48.1-112,74.5-180.4,74.4c-0.6,0-1.1,0-1.7,0c-0.1,0-0.1,0-0.2,0V789.9z
	 M2933.7,591.7l60.4-31.4c0.6-0.3,0.9-0.9,0.8-1.6c-0.1-0.6-0.6-1.1-1.3-1.2l-70.6-9.1l48-52.3l20.9-12l31.1-18
	c22,37.9,34.1,80.9,34.9,125.7H2933.7z M2990.3,481.4l-21,12.1l-69.2,15.4l27.3-65.7c0.3-0.6,0.1-1.3-0.4-1.7
	c-0.5-0.4-1.2-0.5-1.8-0.1l-60,38.3l3.2-71.2c0-0.7-0.4-1.3-1-1.5c-0.6-0.2-1.3,0-1.7,0.5l-43.2,56.6l-21.3-67.7v-61.3
	c67.8,1.2,131.6,28.4,179.9,76.7c15.7,15.7,29.2,33.1,40.2,51.6L2990.3,481.4z M2798.3,396.4l-21.3,67.7l-43.3-56.6
	c-0.4-0.5-1.1-0.7-1.7-0.5c-0.6,0.2-1,0.8-1,1.5l3.3,71.2l-60.1-38.3c-0.6-0.4-1.3-0.3-1.8,0.1c-0.5,0.4-0.7,1.1-0.4,1.7l27.4,65.7
	l-69.3-15.4l-37.4-21.6l-16.9-9.8c10.9-18.8,24.3-36.6,40.4-52.6c48-48.1,112-74.4,180.4-74.4c0.6,0,1.1,0,1.7,0c0.1,0,0.1,0,0.2,0
	V396.4z M2591.2,474.5l37.4,21.6l48.1,52.3l-70.6,9.1c-0.7,0.1-1.2,0.6-1.3,1.2c-0.1,0.6,0.2,1.3,0.8,1.6l60.4,31.4h-124.1
	c-0.3-43.9,10.5-87.8,32.5-127L2591.2,474.5z M1812.8,594.7h726c0.8,45.2,13.1,88.7,35.3,127.1l-626.3,361.6
	C1859.1,932.9,1814.1,763.8,1812.8,594.7z M1944.9,1085l-133.2,76.9V656.2c7.3,103.8,30.9,205,70.4,301.8
	C1900,1002,1921,1044.4,1944.9,1085z M2575.5,724.4c11.2,18.8,24.8,36.4,40.8,52.3c48.9,48.9,113.4,76.4,182,77.6v713.1
	c-1.6,0-3.2,0-4.9,0c-250.6,0-502-95.9-693.4-287.3c-59.5-59.5-109.8-124.8-150.8-194.1L2575.5,724.4z M2801.3,854.3
	c0,0,0.1,0,0.1,0c0.6,0,1.1,0,1.7,0c69.1,0,133.9-26.7,182.5-75.3c16.1-16.1,29.8-34,40.9-53.2l15,8.7l594.4,343.2
	c-42,74.2-94.5,143.9-157.5,207c-186.6,186.6-431.2,280.7-677.1,282.7V854.3z M3060.9,591.7c-0.8-45.3-13.1-88.8-35.4-127.2
	l607-350.5c84.3,147.7,127.1,312.7,128.5,477.6H3060.9z M3024,462c-11.2-18.8-24.8-36.4-40.7-52.3c-48.9-48.9-113.4-76.4-182-77.6
	v-712.9c243.7,5.2,486.3,101,672.5,287.1c62.7,62.7,115.1,131.8,157.3,205.2L3024,462z M2798.3,332c0,0-0.1,0-0.1,0
	c-0.6,0-1.1,0-1.7,0c-69.1,0-133.9,26.7-182.5,75.3c-16.1,16.1-29.8,34-40.9,53.2l-628.8-363c40.9-70,91.2-135.9,151.1-195.8
	C2284-286.9,2531.9-381,2780.4-381c6,0,12,0.1,17.9,0.2V332z M1940,98.5c-23,39.6-43.1,80.9-60.4,123.7
	c-38,94.4-60.8,193.3-67.9,294.7V24.5L1940,98.5z M1412.9,1392.1l-327.6,189.2H822.1V643.4L1412.9,1392.1z M1414.8,1394.5
	l147.4,186.8h-470.9L1414.8,1394.5z M1811.7,1165.4l134.8-77.8c41.8,70.5,92.4,135.6,151.4,194.6c93.6,93.6,202.7,166.2,324.1,215.8
	c117.3,47.9,241.1,72.4,368.1,72.8c1.1,0,2.2,0,3.3,0c1.6,0,3.2,0,4.8,0v10.5h-986.6V1165.4z M3640.2,1076.6
	c20.3-36.2,38.4-73.7,54-112.6c47.1-117,70.8-240.7,70.4-367.7c0-0.6,0-1.1,0-1.7h23.4v567.2L3640.2,1076.6z M3764.5,591.7
	c-1-125.3-25.5-247.6-72.8-363.4c-16.3-40-35.2-78.6-56.4-115.8l152.6-88.1v567.3H3764.5z M2801.3-397.9v-986.6h986.6v986.6H2801.3z
	 M2798.3-397.9h-986.6v-986.6h986.6V-397.9z M1808.7-397.9h-722.5L822.1-550.4v-834.1h986.6V-397.9z M1080.2-397.9H822.1v-149
	L1080.2-397.9z M1085.4-394.9l723.3,417.6v569H822.1v-986.6H1085.4z M-167.5,594.7h346.7l247.4,986.6h-594.1V594.7z M182.3,594.7
	h601.4l35.4,44.9v941.7H429.7L182.3,594.7z M819.1,1584.3V1735l-306.5,177l-82.2-327.7H819.1z M822.1,1584.3h258l-258,149V1584.3z
	 M1086.1,1584.3h478.4l244.2,309.4v677.2H822.1v-834.2L1086.1,1584.3z M1811.7,1897.5l414,524.7l2.4-1.9l-416.4-527.7v-308.4h986.6
	v986.6h-986.6V1897.5z M2801.3,1584.3h986.6v986.6h-986.6V1584.3z M3790.9,1584.3h722.6l264,152.4v834.2h-986.6V1584.3z
	 M4519.5,1584.3h258v149L4519.5,1584.3z M4514.3,1581.3l-723.4-417.6v-569h986.6v986.6H4514.3z M5767.1,591.7h-986.6v-986.6h986.6
	V591.7z M4777.5,591.7h-986.6v-569l723.2-417.6h263.4V591.7z M4519.3-397.9L4777.5-547v149.1H4519.3z M4513.3-397.9h-722.4v-986.6
	h986.6v834.1L4513.3-397.9z M3787.9-1387.5h-986.6v-986.7h986.6V-1387.5z M2798.3-1387.5h-986.6v-986.7h986.6V-1387.5z
	 M1808.7-1387.5H822.1v-950.2c18.4-12.4,36.8-24.5,55.3-36.5h931.3V-1387.5z M819.1-1387.5h-949c125-184.5,268.5-358.4,429.5-519.5
	c162.1-162.1,336.2-305,519.5-428.7V-1387.5z M819.1-1384.5v832.4l-986.6-569.7v-209c11.7-18,23.6-35.9,35.6-53.7H819.1z
	 M819.1-548.7v150.8h-986.6v-720.4L819.1-548.7z M-167.5,1584.3h594.8l82.6,329.2l-677.4,391.1V1584.3z M510.6,1916.6l142,566.3
	l2.9-0.7L513.3,1915l305.8-176.5v832.4h-938.3c-16.4-24.1-32.5-48.3-48.3-72.7v-190.1L510.6,1916.6z M819.1,2573.9v936.2
	c-181.4-124.1-352.7-265.9-511.5-424.8c-158.8-158.8-300.7-330-424.8-511.5H819.1z M822.1,2573.9h986.6v986.5h-914
	c-24.4-15.8-48.6-31.8-72.6-48.2V2573.9z M1811.7,2573.9h986.6v986.5h-986.6V2573.9z M2801.3,2573.9h986.6v986.5h-986.6V2573.9z
	 M3790.9,2573.9h986.6v951c-17.8,12-35.6,23.8-53.6,35.5h-933V2573.9z M4780.5,2573.9h948.2c-123.7,183.3-266.6,357.4-428.7,519.5
	c-161,161-335,304.5-519.5,429.5V2573.9z M4780.5,2570.9v-832.4l986.6,569.6v207.6c-12,18.5-24.1,36.9-36.4,55.2H4780.5z
	 M4780.5,1735v-150.7h986.6v720.3L4780.5,1735z M5767.1-397.9h-986.6v-150.8l986.6-569.6V-397.9z M4780.5-552.2v-832.3H5718
	c16.7,24.6,33.1,49.3,49.1,74.2v188.5L4780.5-552.2z M5747.7-1346.1c-8.5-12.8-17.1-25.6-25.7-38.4h45.1v68
	C5760.7-1326.4,5754.2-1336.3,5747.7-1346.1z M5767.1-1387.5h-47.2c-124.8-183.1-267.9-355.7-425.8-513.6
	c-157.9-157.9-330.5-301-513.6-425.8v-47.3h986.6V-1387.5z M4777.5-2374.2v45.2c-12.7-8.7-25.5-17.3-38.4-25.7
	c-9.9-6.5-19.8-13-29.8-19.5H4777.5z M2788.5-2935.3c664.7,0,1330,186.1,1910.1,558.1H882.1
	C1459.8-2749.3,2123.9-2935.3,2788.5-2935.3z M851-2360.9c-9.7,6.4-19.3,12.8-28.9,19.3v-32.6h49.2
	C864.5-2369.8,857.8-2365.4,851-2360.9z M819.1-2374.2v34.6c-186.2,125.7-361.5,270.4-521.6,430.5C137.4-1749-7.3-1573.7-133-1387.5
	h-34.5v-986.7H819.1z M-167.5-1384.5h32.5c-6.5,9.6-12.9,19.3-19.3,28.9c-4.4,6.7-8.8,13.4-13.2,20.1V-1384.5z M-730.3,587.5
	C-731.4-102.1-536-761.3-170.5-1326.1v202.6l-88-50.8l-1.5,2.6l89.5,51.6v3426.4l-84.7,48.9C-564.1,1823.5-729.3,1218-730.3,587.5z
	 M-253.7,2357.8l83.2-48v183.7C-199.3,2448.9-227,2403.6-253.7,2357.8z M-148.1,2532.5c8.5,12.8,17.1,25.6,25.8,38.4h-45.1v-68.1
	C-161.1,2512.8-154.6,2522.7-148.1,2532.5z M-167.5,2573.9h47.2C4.5,2757,147.6,2929.6,305.5,3087.5
	c157.9,157.9,330.5,301,513.6,425.8v47.1h-986.6V2573.9z M822.1,3560.4v-45c12.7,8.7,25.5,17.3,38.4,25.7
	c9.8,6.5,19.7,12.9,29.5,19.3H822.1z M2811.3,4123.3c-1.9,0-3.9,0-5.8,0c-685.9-1.1-1342.2-196.4-1906.1-559.9h3820
	C4156,3928,3498.9,4123.3,2811.3,4123.3z M4748.6,3547.3c9.7-6.4,19.3-12.8,28.9-19.3v32.4h-48.9
	C4735.2,3556.1,4741.9,3551.7,4748.6,3547.3z M4780.5,3560.4V3526c186.2-125.7,361.5-270.4,521.6-430.5
	c160.1-160.1,304.8-335.4,430.5-521.6h34.5v986.5H4780.5z M5767.1,2570.9h-32.5c6.5-9.6,12.9-19.3,19.3-29
	c4.4-6.7,8.8-13.4,13.2-20.1V2570.9z M5770.1,2511v-201.2l88,50.8l1.5-2.6l-89.5-51.6v-3426.4l83.7-48.3
	C6513-29.1,6485.4,1400.4,5770.1,2511z"/>
<ellipse transform="matrix(0.7071 -0.7071 0.7071 0.7071 -6598.9082 -332.3372)" class="st1" cx="-3700.6" cy="7799.4" rx="3526" ry="3537.3"/>
<ellipse transform="matrix(0.7071 -0.7071 0.7071 0.7071 -6602.6787 -341.4667)" class="st1" cx="-3713.5" cy="7799.4" rx="972.9" ry="979.4"/>
<ellipse transform="matrix(0.7071 -0.7071 0.7071 0.7071 -6598.9082 -332.3371)" class="st1" cx="-3700.6" cy="7799.4" rx="258" ry="261.3"/>
<ellipse transform="matrix(0.7071 -0.7071 0.7071 0.7071 -6598.9082 -332.3371)" class="st1" cx="-3700.6" cy="7799.4" rx="111.3" ry="113"/>
<ellipse transform="matrix(0.7071 -0.7071 0.7071 0.7071 -6598.9082 -332.3371)" class="st1" cx="-3700.6" cy="7799.4" rx="31.7" ry="31.7"/>
<ellipse transform="matrix(0.7071 -0.7071 0.7071 0.7071 -6598.9082 -332.3371)" class="st1" cx="-3700.6" cy="7799.4" rx="125.6" ry="127.3"/>
<polygon class="st2" points="-3700.6,7602.8 -3678.4,7673.5 -3633.4,7614.6 -3636.7,7688.7 -3574.3,7648.8 -3602.7,7717.2 
	-3530.4,7701.1 -3580.5,7755.7 -3507,7765.2 -3572.8,7799.4 -3507,7833.5 -3580.5,7843.1 -3530.4,7897.6 -3602.7,7881.5 
	-3574.3,7949.9 -3636.7,7910 -3633.4,7984.1 -3678.4,7925.2 -3700.6,7995.9 -3722.8,7925.2 -3767.9,7984.1 -3764.5,7910 
	-3827,7949.9 -3798.5,7881.5 -3870.9,7897.6 -3820.7,7843.1 -3894.2,7833.5 -3828.4,7799.4 -3894.2,7765.2 -3820.7,7755.7 
	-3870.9,7701.1 -3798.5,7717.2 -3827,7648.8 -3764.5,7688.7 -3767.9,7614.6 -3722.8,7673.5 "/>
<g class="st3">
	<path class="st4" d="M-3700.6,11331.6"/>
	<path class="st4" d="M-3700.6,7799.4"/>
	<polyline class="st4" points="-3591.2,7862.5 -3583.5,7867 -3458.1,7939.4 -641.6,9565.5 	"/>
	<polyline class="st4" points="-3673.2,7815.2 -3613.5,7849.6 -3603.3,7855.6 	"/>
	<polyline class="st4" points="-3590.9,7736 -3509.3,7688.9 -641.6,6033.2 	"/>
	<line class="st4" x1="-3673.2" y1="7783.5" x2="-3603.3" y2="7743.1"/>
	<path class="st4" d="M-3700.6,4267.1"/>
	<polyline class="st4" points="-3811.4,7735.4 -3908.5,7679.4 -6759.6,6033.2 	"/>
	<line class="st4" x1="-3728.1" y1="7783.5" x2="-3797.9" y2="7743.2"/>
	<polyline class="st4" points="-3810.4,7862.7 -3838.6,7879 -3891.9,7909.8 -6759.6,9565.5 	"/>
	<polyline class="st4" points="-3728.1,7815.2 -3786,7848.6 -3798,7855.6 	"/>
</g>
<g class="st3">
	<rect x="-6669.4" y="4830.5" class="st4" width="5937.6" height="5937.6"/>
	<line class="st4" x1="-6669.4" y1="9778.6" x2="-731.8" y2="9778.6"/>
	<line class="st4" x1="-6669.4" y1="8789" x2="-731.8" y2="8789"/>
	<polyline class="st4" points="-3572.8,7799.4 -3440.5,7799.4 -731.8,7799.4 	"/>
	<polyline class="st4" points="-6669.4,7799.4 -3960.7,7799.4 -3828.4,7799.4 	"/>
	<line class="st4" x1="-6669.4" y1="6809.8" x2="-731.8" y2="6809.8"/>
	<line class="st4" x1="-6669.4" y1="5820.2" x2="-731.8" y2="5820.2"/>
	<line class="st4" x1="-1721.4" y1="4830.5" x2="-1721.4" y2="10768.2"/>
	<line class="st4" x1="-2711" y1="4830.5" x2="-2711" y2="10768.2"/>
	<polyline class="st4" points="-3700.6,7926 -3700.6,8059.4 -3700.6,10768.2 	"/>
	<line class="st4" x1="-3700.6" y1="7831.1" x2="-3700.6" y2="7911.7"/>
	<polyline class="st4" points="-3700.6,7687.7 -3700.6,7702.3 -3700.6,7767.7 	"/>
	<polyline class="st4" points="-3700.6,4830.5 -3700.6,7573.2 -3700.6,7671.7 	"/>
	<line class="st4" x1="-4690.2" y1="4830.5" x2="-4690.2" y2="10768.2"/>
	<line class="st4" x1="-5679.8" y1="4830.5" x2="-5679.8" y2="10768.2"/>
</g>
<line class="st5" x1="-6532.6" y1="6951.7" x2="-5846.3" y2="9688.7"/>
<line class="st5" x1="-6336.5" y1="7013" x2="-4273.5" y2="9627.5"/>
<line class="st5" x1="-3744.1" y1="7680" x2="-3767" y2="7616.8"/>
<line class="st5" x1="-3711.2" y1="7770.4" x2="-3739.2" y2="7693.5"/>
<line class="st5" x1="-3773.2" y1="7712.9" x2="-3720.4" y2="7775.8"/>
<line class="st5" x1="-3825.5" y1="7650.6" x2="-3782.7" y2="7701.6"/>
<line class="st5" x1="-3661" y1="7694.2" x2="-3687.4" y2="7770.4"/>
<line class="st5" x1="-3634.2" y1="7616.8" x2="-3656.3" y2="7680.6"/>
<line class="st5" x1="-3627.8" y1="7713.8" x2="-3678.8" y2="7775.8"/>
<line class="st5" x1="-3575.8" y1="7650.6" x2="-3618.7" y2="7702.7"/>
<line class="st5" x1="-3811.4" y1="7779.8" x2="-3730.9" y2="7794"/>
<line class="st5" x1="-3891.9" y1="7765.6" x2="-3825.4" y2="7777.3"/>
<line class="st5" x1="-3589.9" y1="7779.8" x2="-3670.3" y2="7794"/>
<line class="st5" x1="-3509.3" y1="7765.6" x2="-3575.8" y2="7777.4"/>
<line class="st5" x1="-3811.4" y1="7819.8" x2="-3731.4" y2="7806.6"/>
<line class="st5" x1="-3891.9" y1="7833.1" x2="-3825.3" y2="7822.1"/>
<line class="st5" x1="-3772.9" y1="7885.5" x2="-3720.4" y2="7822.9"/>
<line class="st5" x1="-3825.5" y1="7948.1" x2="-3782.1" y2="7896.4"/>
<line class="st5" x1="-3739.1" y1="7905" x2="-3711.2" y2="7828.3"/>
<line class="st5" x1="-3767" y1="7981.9" x2="-3744" y2="7918.4"/>
<line class="st5" x1="-3660.5" y1="7904.7" x2="-3687.4" y2="7825.8"/>
<line class="st5" x1="-3634.2" y1="7981.9" x2="-3655.9" y2="7918.2"/>
<line class="st5" x1="-3627" y1="7884.9" x2="-3678.8" y2="7821"/>
<line class="st5" x1="-3575.8" y1="7948.1" x2="-3618.3" y2="7895.7"/>
<line class="st5" x1="-3509.3" y1="7833.1" x2="-3670.3" y2="7806.6"/>
</svg>
