<svg xmlns="http://www.w3.org/2000/svg" viewBox="0 0 908.94 908.94"><defs><style>.cls-1{fill:#e6e6e6;}.cls-2{fill:#fcc201;}</style></defs><g id="Livello_2" data-name="Livello 2"><path class="cls-1" d="M459,660.45V649.26h.27a191.8,191.8,0,0,0,73-14.31l4.29,10.34a203,203,0,0,1-77.32,15.16Z"/><path class="cls-2" d="M532,635.6l3.9,9.42A202.56,202.56,0,0,1,459.51,660V649.76A192.36,192.36,0,0,0,532,635.6m.54-1.3a191.92,191.92,0,0,1-73.3,14.46h-.77v12.19h.77a204.23,204.23,0,0,0,78-15.38l-4.67-11.27Z"/><path class="cls-2" d="M532.58,634.3l4.67,11.27A205,205,0,0,0,604,601l-8.63-8.62A192.61,192.61,0,0,1,532.58,634.3Z"/><path class="cls-1" d="M596.12,592.37a192.19,192.19,0,0,0,41.49-62.18L648,534.48A203.7,203.7,0,0,1,604,600.29Z"/><path class="cls-2" d="M637.88,530.85l9.42,3.9A202.89,202.89,0,0,1,604,599.58l-7.21-7.21a192.62,192.62,0,0,0,41-61.52m-.54-1.31a192.82,192.82,0,0,1-41.93,62.83L604,601a205,205,0,0,0,44.57-66.78l-11.27-4.67Z"/><path class="cls-2" d="M459.28,263.71A192,192,0,0,1,532,278l4.66-11.27a204.18,204.18,0,0,0-77.42-15.16h-.77v12.19Z"/><path class="cls-2" d="M384.66,633.76,380,645a204,204,0,0,0,78.52,15.91V648.75A191.88,191.88,0,0,1,384.66,633.76Z"/><path class="cls-1" d="M652.29,455a191.79,191.79,0,0,0-14.83-73.08l10.34-4.28A202.75,202.75,0,0,1,663.48,455Z"/><path class="cls-2" d="M647.53,378.25A202.33,202.33,0,0,1,663,454.46H652.79a192.37,192.37,0,0,0-14.68-72.31l9.42-3.9m.54-1.31-11.27,4.67a191.74,191.74,0,0,1,15,73.85H664a204.23,204.23,0,0,0-15.92-78.52Z"/><path class="cls-2" d="M651.8,456.24a192,192,0,0,1-14.46,73.3l11.27,4.67a204.08,204.08,0,0,0,15.39-78c0-.26,0-.52,0-.78h-12.2C651.79,455.72,651.8,456,651.8,456.24Z"/><path class="cls-2" d="M281,529l-11.27,4.67a204.92,204.92,0,0,0,44,66.55l8.62-8.62A192.67,192.67,0,0,1,281,529Z"/><path class="cls-1" d="M381.19,267.49A203.3,203.3,0,0,1,458,252v11.2a191.73,191.73,0,0,0-72.54,14.61Z"/><path class="cls-2" d="M457.51,252.54v10.19a192.37,192.37,0,0,0-71.77,14.45l-3.9-9.41a202.34,202.34,0,0,1,75.67-15.23m1-1a204.08,204.08,0,0,0-78,15.69l4.66,11.27a192.09,192.09,0,0,1,73.31-14.77V251.53Z"/><path class="cls-2" d="M636.8,381.61l11.27-4.67a205.15,205.15,0,0,0-44.82-66.22l-8.62,8.62A192.68,192.68,0,0,1,636.8,381.61Z"/><path class="cls-2" d="M385.2,278.49l-4.66-11.27a205.15,205.15,0,0,0-66,44.26l8.63,8.62A192.81,192.81,0,0,1,385.2,278.49Z"/><path class="cls-1" d="M594.63,318.63a192.16,192.16,0,0,0-61.94-40.95L537,267.34a203.44,203.44,0,0,1,65.58,43.38Z"/><path class="cls-2" d="M537.24,268a202.65,202.65,0,0,1,64.59,42.73l-7.2,7.21a192.58,192.58,0,0,0-61.29-40.52l3.9-9.42m-.54-1.31L532,278a192.81,192.81,0,0,1,62.59,41.39l8.62-8.62a205,205,0,0,0-66.55-44Z"/><path class="cls-1" d="M379.72,644.37a203.31,203.31,0,0,1-65.25-44.16l7.91-7.91A192.45,192.45,0,0,0,384,634Z"/><path class="cls-2" d="M322.38,593a192.81,192.81,0,0,0,61,41.28l-3.9,9.42a203,203,0,0,1-64.28-43.5l7.21-7.2m0-1.42-8.62,8.62A205.08,205.08,0,0,0,380,645l4.67-11.27a193,193,0,0,1-62.28-42.17Z"/><path class="cls-1" d="M270.92,377.22a203.33,203.33,0,0,1,43.61-65l7.91,7.91a192.11,192.11,0,0,0-41.17,61.41Z"/><path class="cls-2" d="M314.53,312.9l7.2,7.2A193,193,0,0,0,281,380.85l-9.42-3.9a202.85,202.85,0,0,1,42.95-64.05m0-1.42a205.19,205.19,0,0,0-44.25,66l11.27,4.67a192.69,192.69,0,0,1,41.61-62.06l-8.63-8.62Z"/><path class="cls-1" d="M270,533a203.07,203.07,0,0,1-14.93-76.76V456h11.19v.28a192.11,192.11,0,0,0,14.08,72.48Z"/><path class="cls-2" d="M265.76,456.46a192.33,192.33,0,0,0,13.94,72l-9.42,3.9a202.5,202.5,0,0,1-14.72-75.89h10.2m1-1h-12.2c0,.26,0,.52,0,.78a204,204,0,0,0,15.17,77.42L281,529a191.77,191.77,0,0,1-14.24-72.75c0-.26,0-.52,0-.78Z"/><path class="cls-2" d="M281.54,382.16l-11.27-4.67a204.16,204.16,0,0,0-15.7,78h12.2A191.66,191.66,0,0,1,281.54,382.16Z"/><polygon class="cls-2" points="635.16 278.81 458.51 455.46 458.51 357.64 635.16 278.81"/><polygon class="cls-1" points="459.71 454.96 633.6 281.08 556.01 454.96 459.71 454.96"/><path class="cls-2" d="M632,283.35,555.68,454.46H460.92L632,283.35m3.12-4.53L458.51,455.46h97.82l78.83-176.64Z"/><polygon class="cls-2" points="281.86 278.81 458.51 455.46 360.69 455.46 281.86 278.81"/><polygon class="cls-1" points="284.13 280.37 458.01 357.97 458.01 454.26 284.13 280.37"/><path class="cls-2" d="M286.39,281.93l171.12,76.36v94.76L286.39,281.93m-4.53-3.11L458.51,455.46V357.64L281.86,278.82Z"/><polygon class="cls-2" points="281.86 632.11 458.51 455.46 458.51 553.29 281.86 632.11"/><polygon class="cls-1" points="361.01 455.96 457.3 455.96 283.42 629.85 361.01 455.96"/><path class="cls-2" d="M456.09,456.46,285,627.58l76.35-171.12h94.76m2.42-1H360.69L281.86,632.11,458.51,455.46Z"/><polygon class="cls-2" points="635.16 632.11 458.51 455.46 556.33 455.46 635.16 632.11"/><polygon class="cls-1" points="459.01 552.96 459.01 456.67 632.89 630.55 459.01 552.96"/><path class="cls-2" d="M459.51,457.88,630.62,629,459.51,552.64V457.88m-1-2.42v97.83l176.65,78.82L458.51,455.46Z"/><polygon class="cls-2" points="458.51 157.5 458.51 455.46 376.01 372.96 458.51 157.5"/><polygon class="cls-1" points="459.01 160.2 540.42 372.84 459.01 454.26 459.01 160.2"/><path class="cls-2" d="M459.51,162.91l80.33,209.8-80.33,80.34V162.91m-1-5.41v298L541,373,458.51,157.5Z"/><polygon class="cls-2" points="160.54 455.46 458.51 455.46 376.01 537.97 160.54 455.46"/><polygon class="cls-1" points="163.25 454.96 375.88 373.55 457.3 454.96 163.25 454.96"/><path class="cls-2" d="M375.76,374.13l80.33,80.33H166l209.81-80.33M376,373l-215.47,82.5h298L376,373Z"/><polygon class="cls-2" points="458.51 753.43 458.51 455.46 541.01 537.97 458.51 753.43"/><polygon class="cls-1" points="376.59 538.09 458.01 456.67 458.01 750.72 376.59 538.09"/><path class="cls-2" d="M457.51,457.88V748L377.17,538.21l80.34-80.33m1-2.42L376,538l82.5,215.47v-298Z"/><polygon class="cls-2" points="756.47 455.46 458.51 455.46 541.01 372.96 756.47 455.46"/><polygon class="cls-1" points="459.71 455.96 753.77 455.96 541.13 537.38 459.71 455.96"/><path class="cls-2" d="M751.06,456.46,541.26,536.8l-80.34-80.34H751.06m5.41-1h-298L541,538l215.46-82.5Z"/><path class="cls-2" d="M432.37,862a1.21,1.21,0,0,1-.85-1.17,3.84,3.84,0,0,1,.66-1.8,12.38,12.38,0,0,1,1.78-2.18c.77-.76,1.6-1.54,2.51-2.32.75-.62,1.62-1.28,2.59-2s1.88-1.39,3.1-2.22,2.62-1.73,4.18-2.71a9.34,9.34,0,0,0-1.86,2.2,3.85,3.85,0,0,0-.53,1.8,2.64,2.64,0,0,0,.87,2,7.49,7.49,0,0,0,2.25,1.39,17.41,17.41,0,0,0,3.05.9q1.69.34,3.27.51c1.06.12,2,.19,2.91.22s1.53.05,1.95.05a27.5,27.5,0,0,0,5.23-.51,15.38,15.38,0,0,0,4.73-1.71,10,10,0,0,0,3.42-3.17,8.67,8.67,0,0,0,1.32-4.91,8.94,8.94,0,0,0-1.86-5.69,16.65,16.65,0,0,0-4.88-4.12,38.13,38.13,0,0,0-6.86-3.08q-3.83-1.32-7.76-2.52c-2.62-.79-5.16-1.6-7.62-2.41a35,35,0,0,1-6.42-2.79,13.79,13.79,0,0,1-5.2-5,12.22,12.22,0,0,1-1.59-6,15.21,15.21,0,0,1,2.17-7.79A29.65,29.65,0,0,1,438.6,800a44.5,44.5,0,0,1,7.93-5.71,71.24,71.24,0,0,1,9-4.35,60.69,60.69,0,0,1,8.79-2.78,33.65,33.65,0,0,1,7.37-1,28.15,28.15,0,0,1,7.13.81,22.91,22.91,0,0,1,5.13,1.93,10.68,10.68,0,0,1,3.05,2.32,2.55,2.55,0,0,1,.85,1.93,3.93,3.93,0,0,1-.9,1.92,12.6,12.6,0,0,1-2.42,2.27,44.34,44.34,0,0,1-4,2.69q-2.45,1.47-5.91,3.22a2.68,2.68,0,0,0-.12-4.64,12.14,12.14,0,0,0-3.27-1.63,32.15,32.15,0,0,0-4.3-1.17c-1.51-.31-3-.55-4.57-.71a39.58,39.58,0,0,0-4.05-.25,28.4,28.4,0,0,0-5.93.64,17.66,17.66,0,0,0-5.32,2,11.37,11.37,0,0,0-3.86,3.66,9.79,9.79,0,0,0-1.49,5.49,10.9,10.9,0,0,0,.78,3.93,11.65,11.65,0,0,0,2.66,3.93,20.7,20.7,0,0,0,5.06,3.59,36.66,36.66,0,0,0,7.91,2.91A100,100,0,0,1,470.24,825a34.61,34.61,0,0,1,8,4.34,12.94,12.94,0,0,1,4.17,5.08,12.76,12.76,0,0,1,.88,6.18,15.08,15.08,0,0,1-2.39,7.2,24,24,0,0,1-5.35,5.81,37.62,37.62,0,0,1-7.27,4.47,57.79,57.79,0,0,1-8.21,3.15,59.74,59.74,0,0,1-8.13,1.85,46.19,46.19,0,0,1-7,.61c-1.56,0-3-.06-4.42-.19s-2.62-.28-3.71-.44a22.53,22.53,0,0,1-2.76-.56C433.24,862.28,432.7,862.11,432.37,862Z"/><path class="cls-2" d="M54,401.43a35.26,35.26,0,0,1,5.27.47A42.65,42.65,0,0,1,66,403.58a68.86,68.86,0,0,1,8,3.27A78.79,78.79,0,0,1,83.07,412q3.42,2.25,6.86,4.78t7.06,5q3.62,2.49,7.44,4.79a59,59,0,0,0,8,4l10.1,9.82-1.56-.18c-.52,0-1-.07-1.56-.07a31.47,31.47,0,0,0-5.67.51c-1.85.35-3.53.71-5,1.1q-2.62.74-5,1.61-3.12,1.27-6.71,3.08l-7.47,3.76c-2.59,1.3-5.23,2.59-7.94,3.86s-5.37,2.41-8,3.42q2.23,1.26,4.2,2.51c1.3.83,2.44,1.57,3.41,2.22,1.14.78,2.22,1.53,3.23,2.25A102.17,102.17,0,0,0,95,471.06q2.2,1.17,4.62,2.27a46.34,46.34,0,0,0,4.81,1.88,31.38,31.38,0,0,0,4.69,1.15,13.8,13.8,0,0,0,4.24.07l9.23,9.57a92.36,92.36,0,0,0-9.71.86q-5.08.7-10.33,1.83T92,491.25q-5.25,1.44-10.3,3.05T72,497.6c-3.1,1.12-6,2.21-8.7,3.25a21.17,21.17,0,0,0-4.44,2.54,18.79,18.79,0,0,0-1.63,1.39,9.16,9.16,0,0,0-1.42,1.68,10,10,0,0,0-1,2,6.17,6.17,0,0,0-.39,2.2A8.17,8.17,0,0,0,55,513.3a8.7,8.7,0,0,0,1.7,2.83l-3.32-3.54q-1.9-2-3.61-4.25a29.76,29.76,0,0,1-2.88-4.49,9.43,9.43,0,0,1-1.17-4.32,7.22,7.22,0,0,1,.71-3.1,8.36,8.36,0,0,1,2.36-2.91,25,25,0,0,1,3.86-2.22c1.83-.89,4-1.86,6.62-2.9s5.48-2.12,8.69-3.23,6.55-2.16,10-3.17,7-1.93,10.67-2.76,7.16-1.51,10.57-2c-3.22-1.75-6.27-3.45-9.15-5.07s-5.66-3.17-8.33-4.62-5.28-2.81-7.83-4.1-5.12-2.48-7.69-3.59c-1.21.26-2.36.46-3.47.59a28.91,28.91,0,0,1-3.37.19,18.56,18.56,0,0,1-5.76-.88l-9.82-12.2a31.17,31.17,0,0,0,4.81,1,32.79,32.79,0,0,0,4.18.29,26.14,26.14,0,0,0,7.37-1.19,81.05,81.05,0,0,0,8.52-3.08q4.47-1.87,9.18-4.1t9.38-4.3q4.67-2.07,9-3.68a45.28,45.28,0,0,1,8.21-2.25L100.8,428c-1.18-.73-2.23-1.37-3.18-1.93s-2.1-1.28-3.07-1.9q-4-2.36-8.21-4.49c-2.83-1.44-5.64-2.71-8.42-3.84a64.6,64.6,0,0,0-8-2.68,28.1,28.1,0,0,0-7-1,11.63,11.63,0,0,0-3,.39,10.09,10.09,0,0,0-2.71,1.14,6.4,6.4,0,0,0-2,1.93,5,5,0,0,0-.75,2.74,6.15,6.15,0,0,0,.31,1.83,8.94,8.94,0,0,0,1,2.07q-1.47-1.56-3.15-3.27a40.07,40.07,0,0,1-3.13-3.56,21.7,21.7,0,0,1-2.39-3.81,9.05,9.05,0,0,1-1-4,5.77,5.77,0,0,1,.68-2.93,5.45,5.45,0,0,1,1.78-1.88,7,7,0,0,1,2.49-1A13.54,13.54,0,0,1,54,401.43Z"/><path class="cls-2" d="M501.34,51.54a2.52,2.52,0,0,0-1,.93,5.67,5.67,0,0,0-.56,1.17,10.61,10.61,0,0,0-.3,1.47c0,.35-.07,1.2-.12,2.54s-.11,3-.19,5.05-.17,4.31-.25,6.84-.17,5.13-.27,7.83-.18,5.41-.26,8.11-.17,5.24-.25,7.61-.14,4.51-.19,6.38-.09,3.33-.13,4.37c-.06,2.08-.16,3.78-.29,5.1a21.8,21.8,0,0,1-.54,3.3,10,10,0,0,1-.83,2.24c-.32.62-.68,1.27-1.07,2s-.73,1.49-1.32,2.59-1.23,2.21-2.12,3.79-2,3.55-3.44,5.93a19.47,19.47,0,0,0-2.32-4.49c-1.06-1.57-2.14-3-3.25-4.4-1.3-1.56-2.69-3.11-4.15-4.64q-2.6-2.58-8.06-8l-5.52-5.39-7.37-7.2q-4.2-4.11-9.47-9.28T436.25,73.81q-.09,6-.17,10.74T436,93.12c0,2.52-.07,4.72-.1,6.59s-.05,3.49-.05,4.86q0,4.79-.05,6.84a9.9,9.9,0,0,0,.3,2.85,6.18,6.18,0,0,0,1.07,2.25A5,5,0,0,0,439,118a6.79,6.79,0,0,0,2.84.53,15.11,15.11,0,0,0,3.81-.56,29.18,29.18,0,0,0,4.88-1.83c-1.6,1.56-3.1,2.92-4.52,4a47.65,47.65,0,0,1-4,2.93,33.55,33.55,0,0,1-3.47,2,26.76,26.76,0,0,1-2.86,1.22,12.82,12.82,0,0,1-5.27.88,3.29,3.29,0,0,1-2.42-1.47,7,7,0,0,1-.56-3.12q0-15.39.54-30.52t.54-30.18V58.13a18.2,18.2,0,0,0-.1-2.19,9.7,9.7,0,0,1,1.61-2.88A29.94,29.94,0,0,1,433,49.69a47.72,47.72,0,0,1,5.25-4.45,9.21,9.21,0,0,0-.53,2,12.12,12.12,0,0,0-.15,1.85,10.7,10.7,0,0,0,.27,2.52,9.33,9.33,0,0,0,.66,1.88,12.05,12.05,0,0,0,1,1.61c1.11,1.36,2.54,3,4.3,4.78s3.8,3.88,6.13,6.18l7.69,7.59q4.2,4.16,9,9.08,3.42,3.23,7.23,7,3.27,3.21,7.42,7.54t8.55,9.25q.09-9,.14-15.52c0-4.37,0-8.16,0-11.38q0-4.44,0-7.35c0-1.94,0-3.49-.08-4.66q0-2-.09-3.18a7.1,7.1,0,0,0-.49-2.78A4.73,4.73,0,0,0,488,59.89a4.55,4.55,0,0,0-1.73-.9,7.28,7.28,0,0,0-1.95-.27,9.38,9.38,0,0,0-2.15.24,4.52,4.52,0,0,0-1.56.64q2-1.76,4.05-3.3a30.58,30.58,0,0,1,4.08-2.66,21.88,21.88,0,0,1,4.34-1.78A17.35,17.35,0,0,1,498,51.2,16.54,16.54,0,0,1,501.34,51.54Z"/><path class="cls-2" d="M185.26,203.93a1.52,1.52,0,0,0,0,.84,3.14,3.14,0,0,0,.26.73,5.43,5.43,0,0,0,.5.75c.13.17.48.54,1,1.13l2.06,2.23,2.8,3c1,1.1,2.11,2.25,3.21,3.44s2.21,2.37,3.33,3.55,2.15,2.29,3.12,3.34l2.62,2.78,1.81,1.91c.85.91,1.53,1.67,2,2.29a13.72,13.72,0,0,1,1.17,1.62,7,7,0,0,1,.6,1.31c.12.4.25.83.37,1.28s.32.94.54,1.66.41,1.46.7,2.51.65,2.37,1.06,4a11.69,11.69,0,0,0-2.89-.92q-1.67-.32-3.24-.48c-1.22-.11-2.46-.18-3.73-.21q-2.19,0-6.8,0l-4.63.05-6.18.07-7.95.09-9.91.08,4.49,4.63,3.58,3.69c1.06,1.08,2,2,2.76,2.84s1.46,1.5,2,2.08c1.34,1.37,2.3,2.34,2.88,2.92a6.25,6.25,0,0,0,1.33,1.09,3.78,3.78,0,0,0,1.41.49,2.87,2.87,0,0,0,1.44-.17,4,4,0,0,0,1.43-1,9.07,9.07,0,0,0,1.38-1.85,17.58,17.58,0,0,0,1.29-2.85c0,1.34-.08,2.55-.19,3.64a29.45,29.45,0,0,1-.46,2.94,18.7,18.7,0,0,1-.62,2.32,17.27,17.27,0,0,1-.69,1.73,7.77,7.77,0,0,1-1.87,2.61,2,2,0,0,1-1.65.4,4.11,4.11,0,0,1-1.56-1.09q-6.53-6.53-12.72-13.17t-12.57-13l-1.62-1.62c-.43-.42-.75-.72-1-.89a5.76,5.76,0,0,1-.54-1.9,18.84,18.84,0,0,1-.18-2.69,30.67,30.67,0,0,1,.34-4.11,5.67,5.67,0,0,0,.63,1.08,6.84,6.84,0,0,0,.72.85,6.07,6.07,0,0,0,1.18,1,5.25,5.25,0,0,0,1.08.52,7.66,7.66,0,0,0,1.1.27c1.05.11,2.33.18,3.85.21s3.26,0,5.22,0l6.48,0c2.37,0,4.92,0,7.67,0,1.88-.06,3.89-.09,6-.11q2.75,0,6.35.05t7.55.31q-3.78-3.85-6.53-6.65c-1.83-1.87-3.44-3.49-4.8-4.85l-3.13-3.11-2-1.95-1.39-1.3a4.19,4.19,0,0,0-1.39-1,2.7,2.7,0,0,0-1.27-.21,2.67,2.67,0,0,0-1.12.35,4.46,4.46,0,0,0-.94.71,5.5,5.5,0,0,0-.81,1,2.65,2.65,0,0,0-.39.93c.08-1.08.19-2.12.32-3.12a18.33,18.33,0,0,1,.6-2.86,13.13,13.13,0,0,1,1.09-2.6,10.66,10.66,0,0,1,1.78-2.34A10.1,10.1,0,0,1,185.26,203.93Z"/><path class="cls-2" d="M240.24,156.57a20.58,20.58,0,0,1,2,2.44,25.27,25.27,0,0,1,2.15,3.57,42,42,0,0,1,2,4.79,48.3,48.3,0,0,1,1.65,6c.33,1.61.63,3.25.88,5s.55,3.4.86,5.12.7,3.46,1.13,5.19a36.06,36.06,0,0,0,1.71,5.11l.13,8.45-.59-.74c-.2-.24-.42-.47-.64-.69a18.15,18.15,0,0,0-2.62-2.18c-.93-.65-1.8-1.2-2.6-1.67s-1.88-1-2.79-1.43c-1.25-.53-2.63-1-4.16-1.54l-4.76-1.58q-2.47-.81-5-1.73t-4.85-1.95c.27,1,.51,1.95.71,2.85s.37,1.7.51,2.39.29,1.59.41,2.32a64.06,64.06,0,0,0,1.68,7.23c.29,1,.62,1.93,1,2.93a26,26,0,0,0,1.24,2.83,19.19,19.19,0,0,0,1.5,2.48,8.6,8.6,0,0,0,1.77,1.83l-.14,8A54.34,54.34,0,0,0,229,217.8q-2.44-1.86-5.16-3.61c-1.8-1.16-3.65-2.29-5.54-3.36s-3.78-2.11-5.66-3.08-3.72-1.88-5.51-2.71-3.48-1.61-5.07-2.31a13.1,13.1,0,0,0-3-.81,10.7,10.7,0,0,0-1.29-.1,5.24,5.24,0,0,0-1.31.11,5.88,5.88,0,0,0-1.25.4,3.72,3.72,0,0,0-1.1.77,4.88,4.88,0,0,0-.93,1.35,5,5,0,0,0-.48,1.92q0-1.25.09-2.91t.27-3.33a17.48,17.48,0,0,1,.69-3.13,5.67,5.67,0,0,1,1.33-2.33,4.48,4.48,0,0,1,1.62-1,5,5,0,0,1,2.23-.22,14.47,14.47,0,0,1,2.58.69c1.16.39,2.5.92,4,1.57s3.23,1.43,5.06,2.32,3.7,1.87,5.6,2.92,3.81,2.16,5.7,3.35,3.67,2.4,5.34,3.63c-.62-2.12-1.19-4.13-1.73-6s-1-3.74-1.57-5.49-1.05-3.44-1.59-5.07-1.11-3.22-1.74-4.78c-.62-.4-1.19-.81-1.71-1.22a19.3,19.3,0,0,1-1.52-1.35,11.63,11.63,0,0,1-2.07-2.82l1-9.34a17.51,17.51,0,0,0,1.6,2.47,19.6,19.6,0,0,0,1.65,1.9,15.87,15.87,0,0,0,3.63,2.62,49.24,49.24,0,0,0,4.92,2.31q2.7,1.1,5.64,2.15t5.8,2.16q2.86,1.09,5.41,2.28a26.91,26.91,0,0,1,4.43,2.53c-.21-.88-.4-1.71-.59-2.52s-.36-1.53-.53-2.17-.34-1.43-.5-2.11c-.45-1.78-1-3.58-1.57-5.39s-1.24-3.54-1.95-5.2a38.42,38.42,0,0,0-2.27-4.54,16.82,16.82,0,0,0-2.55-3.41,7.33,7.33,0,0,0-1.42-1.09,6,6,0,0,0-1.64-.66,3.72,3.72,0,0,0-1.66,0,3,3,0,0,0-1.48.84,3.65,3.65,0,0,0-.64.91,5.5,5.5,0,0,0-.46,1.3c0-.85,0-1.76.06-2.72a22.21,22.21,0,0,1,.18-2.84A13.47,13.47,0,0,1,233,158a5.48,5.48,0,0,1,1.32-2.12,3.43,3.43,0,0,1,1.53-1,3.39,3.39,0,0,1,1.55,0,4.4,4.4,0,0,1,1.49.63A9.18,9.18,0,0,1,240.24,156.57Z"/><path class="cls-2" d="M726.59,188.31a1.62,1.62,0,0,0-.84-.05,3.14,3.14,0,0,0-.73.26,6.51,6.51,0,0,0-.75.5c-.17.14-.54.48-1.13,1l-2.23,2.07-3,2.79q-1.65,1.56-3.44,3.21l-3.55,3.33-3.34,3.13c-1,1-2,1.84-2.78,2.62l-1.91,1.8c-.91.86-1.67,1.54-2.29,2A13.72,13.72,0,0,1,699,212.2a5.94,5.94,0,0,1-1.31.6c-.4.13-.83.25-1.28.37s-.94.32-1.66.54l-2.51.71c-1.05.29-2.37.64-4,1.05a11.15,11.15,0,0,0,.93-2.89q.32-1.67.48-3.24c.11-1.21.18-2.46.21-3.73,0-1.46,0-3.73,0-6.79,0-1.31,0-2.86-.05-4.63s0-3.84-.08-6.19-.05-5-.08-7.95-.05-6.26-.08-9.9l-4.63,4.48c-1.38,1.33-2.6,2.53-3.69,3.59L678.37,181c-.8.78-1.5,1.46-2.08,2-1.37,1.34-2.34,2.3-2.92,2.88a5.78,5.78,0,0,0-1.09,1.34,3.66,3.66,0,0,0-.49,1.41,2.89,2.89,0,0,0,.17,1.44,4,4,0,0,0,1,1.42,9.07,9.07,0,0,0,1.85,1.38,18.44,18.44,0,0,0,2.85,1.3c-1.34,0-2.55-.08-3.64-.2a29.45,29.45,0,0,1-2.94-.46,18.7,18.7,0,0,1-2.32-.62,16.36,16.36,0,0,1-1.73-.69,7.63,7.63,0,0,1-2.61-1.87,2,2,0,0,1-.4-1.64,4.09,4.09,0,0,1,1.08-1.57q6.52-6.52,13.18-12.72t13-12.57l1.62-1.62a11.42,11.42,0,0,0,.89-1,5.76,5.76,0,0,1,1.9-.54,17.66,17.66,0,0,1,2.69-.17,27.66,27.66,0,0,1,4.11.34,5.64,5.64,0,0,0-1.08.62,6.84,6.84,0,0,0-.85.72,6.38,6.38,0,0,0-1,1.18,5.25,5.25,0,0,0-.52,1.08,7.66,7.66,0,0,0-.27,1.1c-.11,1-.18,2.33-.21,3.85s0,3.26,0,5.22,0,4.13,0,6.49,0,4.91,0,7.66c.06,1.88.09,3.89.11,6,0,1.84,0,3.95-.06,6.35s-.14,4.91-.3,7.55l6.65-6.52c1.87-1.84,3.48-3.44,4.85-4.81l3.11-3.13,1.95-2,1.3-1.39a4.07,4.07,0,0,0,1-1.38,2.75,2.75,0,0,0,.22-1.28,2.71,2.71,0,0,0-.35-1.12,4.74,4.74,0,0,0-.71-.94,5.5,5.5,0,0,0-1-.81,2.65,2.65,0,0,0-.93-.39c1.08.08,2.11.19,3.12.32a18,18,0,0,1,2.85.6A12.65,12.65,0,0,1,723,185a10.48,10.48,0,0,1,2.35,1.78A10.1,10.1,0,0,1,726.59,188.31Z"/><path class="cls-2" d="M751.37,224a1.28,1.28,0,0,0,1.2-.29,1.52,1.52,0,0,0,.33-.92,4.11,4.11,0,0,0-.25-1.4,12.11,12.11,0,0,0-1.88-3.26,38.39,38.39,0,0,0-3.13-3.54,33.26,33.26,0,0,0-5.19-4.28,14.94,14.94,0,0,0-5.63-2.29,13.1,13.1,0,0,0-6.18.49,20.36,20.36,0,0,0-6.85,4c.83.88,1.66,1.74,2.5,2.58l2.48,2.47c1,1,2.09,2.06,3.35,3.22s2.55,2.34,3.88,3.54,2.63,2.37,3.91,3.52l3.47,3.12c1,.93,1.87,1.72,2.53,2.38a7.6,7.6,0,0,1,1.11,1.27c.08.25,0,.42-.31.5a3.48,3.48,0,0,1-1.25,0,15,15,0,0,1-1.87-.32c-.71-.16-1.44-.35-2.18-.58s-1.46-.48-2.16-.75-1.32-.56-1.85-.83c.86-.22,1.3-.55,1.33-1s-.41-1.09-1.31-2c-.4-.4-.77-.75-1.11-1.07s-.75-.68-1.22-1.07l-1.72-1.47-2.65-2.28-4-3.48q-2.38-2.09-5.79-5.11a21.12,21.12,0,0,0-4.52,6.87,15,15,0,0,0-.95,6.77,18.39,18.39,0,0,0,2.1,6.71,36.59,36.59,0,0,0,4.6,6.69,26.45,26.45,0,0,0,3.68,3.35c.57.43,1.19.86,1.86,1.28A20.45,20.45,0,0,0,729.8,248a18.14,18.14,0,0,0,2.34.87,11.77,11.77,0,0,0,2.51.43,39.57,39.57,0,0,1-5.57-.83,35.56,35.56,0,0,1-5.29-1.59,28.93,28.93,0,0,1-4.79-2.39,22.84,22.84,0,0,1-4-3.2,32.85,32.85,0,0,1-3.07-3.59,25.7,25.7,0,0,1-2.59-4.33,21.46,21.46,0,0,1-1.63-4.87,14.7,14.7,0,0,1-.17-5.17,16.22,16.22,0,0,1,1.79-5.3,19.37,19.37,0,0,1,4.22-5.17,24.92,24.92,0,0,1,6.86-4.52,25.84,25.84,0,0,1,7.4-2,28,28,0,0,1,7.54.12,33.64,33.64,0,0,1,7.33,2,37.25,37.25,0,0,1,12.63,8.28,28.34,28.34,0,0,1,2,2.23c.58.72,1.08,1.39,1.5,2a18.45,18.45,0,0,1,1,1.66,11.89,11.89,0,0,1,.55,1.19c.34.9.33,1.53,0,1.91a1.55,1.55,0,0,1-1.05.36,7.33,7.33,0,0,1-1.62-.13,16.16,16.16,0,0,1-1.87-.44c-.65-.19-1.27-.39-1.86-.59s-1.1-.39-1.56-.57S751.57,224,751.37,224Z"/><path class="cls-2" d="M716.87,689.46a.72.72,0,0,1-.86-.13,2.34,2.34,0,0,1-.48-1.05,7.4,7.4,0,0,1-.17-1.67c0-.65,0-1.34.08-2.05s.14-1.23.25-1.95.21-1.39.38-2.26.37-1.84.62-2.92a5.69,5.69,0,0,0,.14,1.72,2.33,2.33,0,0,0,.54,1,1.57,1.57,0,0,0,1.2.46,4.68,4.68,0,0,0,1.55-.36,10.37,10.37,0,0,0,1.67-.92c.58-.38,1.11-.77,1.61-1.17s.94-.78,1.33-1.14.67-.62.84-.8a16.35,16.35,0,0,0,2-2.44,9.42,9.42,0,0,0,1.29-2.73,6,6,0,0,0,.1-2.8,5.14,5.14,0,0,0-1.52-2.64,5.41,5.41,0,0,0-3.2-1.63,10.18,10.18,0,0,0-3.82.33,22.57,22.57,0,0,0-4.22,1.6q-2.19,1.07-4.36,2.23c-1.45.77-2.87,1.51-4.26,2.2a21.16,21.16,0,0,1-3.9,1.55,8.3,8.3,0,0,1-4.33.08,7.27,7.27,0,0,1-3.23-1.89,9.06,9.06,0,0,1-2.39-4.22,18,18,0,0,1-.5-5.31,26.84,26.84,0,0,1,.94-5.8,41.79,41.79,0,0,1,2-5.65,35.27,35.27,0,0,1,2.55-4.91,19.82,19.82,0,0,1,2.71-3.54,17.24,17.24,0,0,1,3.37-2.69,13.35,13.35,0,0,1,3-1.35,6.3,6.3,0,0,1,2.28-.31,1.54,1.54,0,0,1,1.18.45,2.45,2.45,0,0,1,.43,1.2,7.64,7.64,0,0,1-.06,2,26.37,26.37,0,0,1-.58,2.86c-.27,1.11-.65,2.4-1.14,3.88a1.61,1.61,0,0,0-2-1.92,7.42,7.42,0,0,0-2.08.69,21.15,21.15,0,0,0-2.32,1.33c-.77.51-1.52,1.06-2.24,1.64a22.84,22.84,0,0,0-1.82,1.61,17,17,0,0,0-2.25,2.79,10.83,10.83,0,0,0-1.4,3.12,7,7,0,0,0-.08,3.19,5.88,5.88,0,0,0,1.7,3,6.41,6.41,0,0,0,2,1.33,6.69,6.69,0,0,0,2.8.54,12.29,12.29,0,0,0,3.66-.62,21.7,21.7,0,0,0,4.59-2.12,58.93,58.93,0,0,1,6.84-3.5,20.76,20.76,0,0,1,5.22-1.54,7.15,7.15,0,0,1,6.92,2.64,9.13,9.13,0,0,1,2,4.07,14.33,14.33,0,0,1,.19,4.73,22.5,22.5,0,0,1-1.19,5,34.25,34.25,0,0,1-2.14,4.82,37.7,37.7,0,0,1-2.66,4.23,27.8,27.8,0,0,1-2.73,3.25,26.31,26.31,0,0,1-2,1.79c-.64.53-1.22,1-1.76,1.39a15.24,15.24,0,0,1-1.4.93A8.55,8.55,0,0,1,716.87,689.46Z"/><path class="cls-2" d="M682.86,714.9a1.29,1.29,0,0,0,.29,1.21,1.6,1.6,0,0,0,.91.33,4.2,4.2,0,0,0,1.41-.25,12.41,12.41,0,0,0,3.25-1.89,35.65,35.65,0,0,0,3.54-3.12,34.21,34.21,0,0,0,4.28-5.19,14.94,14.94,0,0,0,2.29-5.63,13,13,0,0,0-.49-6.18,20.26,20.26,0,0,0-4-6.85c-.88.83-1.74,1.66-2.58,2.5l-2.47,2.47q-1.47,1.47-3.21,3.36l-3.54,3.87c-1.21,1.33-2.38,2.63-3.53,3.92l-3.11,3.47c-.94,1-1.73,1.87-2.39,2.53a6.53,6.53,0,0,1-1.27,1.1c-.25.09-.41,0-.5-.31a3.66,3.66,0,0,1,0-1.24,17.09,17.09,0,0,1,.32-1.87c.16-.72.35-1.44.58-2.18s.48-1.46.76-2.16a16.51,16.51,0,0,1,.83-1.85c.22.86.54,1.3,1,1.33s1.09-.41,2-1.31c.4-.4.76-.77,1.08-1.12s.67-.75,1.06-1.21.89-1,1.47-1.72l2.28-2.65,3.48-4q2.09-2.38,5.11-5.79a20.8,20.8,0,0,0-6.87-4.52A14.91,14.91,0,0,0,678,679a18.25,18.25,0,0,0-6.71,2.09,36.91,36.91,0,0,0-6.69,4.6,26.54,26.54,0,0,0-3.36,3.69c-.43.57-.85,1.19-1.27,1.86a16.56,16.56,0,0,0-1.15,2.12,14.83,14.83,0,0,0-.87,2.34,11.68,11.68,0,0,0-.44,2.51,41.23,41.23,0,0,1,.83-5.58,35.8,35.8,0,0,1,1.59-5.28,29.36,29.36,0,0,1,2.4-4.79,22.4,22.4,0,0,1,3.2-4,31.66,31.66,0,0,1,3.58-3.07,26.11,26.11,0,0,1,4.33-2.59,22.16,22.16,0,0,1,4.87-1.64,14.75,14.75,0,0,1,5.18-.16,15.94,15.94,0,0,1,5.29,1.79,19.07,19.07,0,0,1,5.17,4.22,25.19,25.19,0,0,1,4.53,6.86,26.5,26.5,0,0,1,2,7.4,28.44,28.44,0,0,1-.13,7.54,33.23,33.23,0,0,1-2,7.33,36.38,36.38,0,0,1-3.52,6.78,37.69,37.69,0,0,1-4.75,5.85,28.39,28.39,0,0,1-2.24,2c-.72.58-1.38,1.08-2,1.5a18.42,18.42,0,0,1-1.65,1,11.42,11.42,0,0,1-1.2.54c-.89.35-1.53.34-1.9,0a1.52,1.52,0,0,1-.36-1,7.28,7.28,0,0,1,.12-1.62,14.42,14.42,0,0,1,.45-1.87c.19-.65.39-1.27.59-1.86s.39-1.11.57-1.56S682.79,715.11,682.86,714.9Z"/><path class="cls-2" d="M221.22,720.19a.72.72,0,0,1,.14-.86,2.15,2.15,0,0,1,1-.49,7.43,7.43,0,0,1,1.68-.17c.65,0,1.33,0,2,.09s1.23.14,2,.25,1.39.2,2.26.37,1.84.37,2.92.62a5.34,5.34,0,0,0-1.72.15,2.32,2.32,0,0,0-1,.53,1.58,1.58,0,0,0-.45,1.21,4.23,4.23,0,0,0,.36,1.54,10.79,10.79,0,0,0,.91,1.68c.38.57.77,1.1,1.17,1.6s.78.94,1.14,1.33l.81.85a16.38,16.38,0,0,0,2.43,2,9.18,9.18,0,0,0,2.74,1.28,5.86,5.86,0,0,0,2.79.1,5.13,5.13,0,0,0,2.65-1.52,5.31,5.31,0,0,0,1.62-3.2,10,10,0,0,0-.32-3.82,23.57,23.57,0,0,0-1.6-4.22c-.72-1.45-1.46-2.91-2.23-4.36s-1.51-2.87-2.21-4.25a20.87,20.87,0,0,1-1.54-3.91,8.2,8.2,0,0,1-.08-4.33,7.31,7.31,0,0,1,1.88-3.23,9.07,9.07,0,0,1,4.23-2.38,17.67,17.67,0,0,1,5.31-.51,26.66,26.66,0,0,1,5.79.94,43.36,43.36,0,0,1,5.66,2,35.84,35.84,0,0,1,4.91,2.55,20.58,20.58,0,0,1,3.54,2.71,17.16,17.16,0,0,1,2.68,3.37,13.64,13.64,0,0,1,1.36,3,6.53,6.53,0,0,1,.31,2.28c-.06.62-.21,1-.46,1.18a2.38,2.38,0,0,1-1.2.44,7.71,7.71,0,0,1-2-.07,26.85,26.85,0,0,1-2.86-.58q-1.65-.41-3.87-1.14a1.6,1.6,0,0,0,1.92-2,7.22,7.22,0,0,0-.7-2.09,20.36,20.36,0,0,0-1.32-2.32c-.51-.77-1.06-1.52-1.64-2.23a23.09,23.09,0,0,0-1.62-1.83,17.32,17.32,0,0,0-2.78-2.25,10.76,10.76,0,0,0-3.12-1.39,6.89,6.89,0,0,0-3.19-.09,5.88,5.88,0,0,0-3,1.7,6.55,6.55,0,0,0-1.34,2,7.09,7.09,0,0,0-.54,2.8,12.62,12.62,0,0,0,.62,3.66,21.79,21.79,0,0,0,2.13,4.59,61.41,61.41,0,0,1,3.5,6.84,20.29,20.29,0,0,1,1.53,5.22,7.1,7.1,0,0,1-2.63,6.92,9,9,0,0,1-4.07,2,14.6,14.6,0,0,1-4.73.2,23,23,0,0,1-5-1.19,36.74,36.74,0,0,1-9.05-4.81,28.49,28.49,0,0,1-3.24-2.72c-.66-.67-1.26-1.32-1.79-2s-1-1.23-1.39-1.76a13.43,13.43,0,0,1-.93-1.41C221.46,720.68,221.3,720.38,221.22,720.19Z"/><path class="cls-2" d="M173.33,667a19.63,19.63,0,0,1,2.43-2,25.85,25.85,0,0,1,3.57-2.15,42.74,42.74,0,0,1,4.79-2,46.37,46.37,0,0,1,6-1.65c1.6-.34,3.25-.63,4.94-.89s3.4-.54,5.13-.85,3.45-.7,5.18-1.13a36.06,36.06,0,0,0,5.11-1.71l8.45-.13-.73.59a8.42,8.42,0,0,0-.7.64,18.15,18.15,0,0,0-2.18,2.62c-.64.93-1.2,1.79-1.67,2.6s-1,1.88-1.43,2.79c-.52,1.24-1,2.63-1.54,4.16s-1,3.11-1.58,4.76-1.12,3.32-1.73,5-1.25,3.3-1.94,4.85c1-.28,1.94-.51,2.85-.71l2.39-.51,2.32-.42a62,62,0,0,0,7.23-1.67c.95-.29,1.92-.63,2.92-1a29.3,29.3,0,0,0,2.84-1.24,19.75,19.75,0,0,0,2.47-1.5,8.43,8.43,0,0,0,1.84-1.77l8,.14a54.65,54.65,0,0,0-3.76,4.49c-1.23,1.63-2.44,3.35-3.6,5.15s-2.29,3.65-3.37,5.55-2.1,3.78-3.08,5.66-1.87,3.72-2.71,5.51-1.6,3.48-2.31,5.07a13.1,13.1,0,0,0-.81,3c0,.41-.09.84-.1,1.28a5.84,5.84,0,0,0,.11,1.32,6.1,6.1,0,0,0,.41,1.25,3.68,3.68,0,0,0,.76,1.1,4.88,4.88,0,0,0,1.35.93,5.21,5.21,0,0,0,1.93.48l-2.91-.09c-1.12,0-2.23-.13-3.34-.27a18.61,18.61,0,0,1-3.13-.69,5.67,5.67,0,0,1-2.33-1.33,4.33,4.33,0,0,1-1-1.62,5,5,0,0,1-.23-2.24,14.92,14.92,0,0,1,.69-2.58c.4-1.15.92-2.5,1.58-4s1.43-3.23,2.32-5.06,1.86-3.7,2.91-5.6,2.17-3.81,3.35-5.7,2.4-3.67,3.63-5.35c-2.11.63-4.13,1.2-6,1.73s-3.74,1.06-5.49,1.58-3.43,1-5.06,1.58-3.23,1.12-4.79,1.74a20.64,20.64,0,0,1-1.22,1.72,17.47,17.47,0,0,1-1.35,1.52,11.26,11.26,0,0,1-2.82,2.07l-9.34-1a18.23,18.23,0,0,0,2.48-1.6,21,21,0,0,0,1.89-1.65,15.44,15.44,0,0,0,2.62-3.64,47.23,47.23,0,0,0,2.31-4.92c.74-1.79,1.45-3.67,2.16-5.63s1.42-3.9,2.15-5.8,1.49-3.71,2.28-5.41a27.65,27.65,0,0,1,2.53-4.43l-2.52.59c-.81.19-1.53.36-2.16.53l-2.12.49q-2.67.69-5.38,1.58c-1.81.59-3.55,1.24-5.2,1.95a39.36,39.36,0,0,0-4.55,2.26,17.52,17.52,0,0,0-3.41,2.56,7.28,7.28,0,0,0-1.08,1.42,5.62,5.62,0,0,0-.67,1.64,3.72,3.72,0,0,0,0,1.66,3,3,0,0,0,.84,1.48,3.85,3.85,0,0,0,.91.64,6.08,6.08,0,0,0,1.31.46q-1.29,0-2.73-.06a24.33,24.33,0,0,1-2.84-.18,13.64,13.64,0,0,1-2.63-.6,5.6,5.6,0,0,1-2.12-1.32,3.46,3.46,0,0,1-.95-1.53,3.3,3.3,0,0,1,0-1.56,4.44,4.44,0,0,1,.63-1.48A8,8,0,0,1,173.33,667Z"/><path class="cls-2" d="M852,481.29c.62.79,1.2,1.14,1.76,1.08a2.52,2.52,0,0,0,1.46-.69,6.78,6.78,0,0,0,1.37-1.95,20.36,20.36,0,0,0,1.61-6.05,61.41,61.41,0,0,0,.49-7.86,55.32,55.32,0,0,0-1.08-11.16,24.51,24.51,0,0,0-3.93-9.33,21.67,21.67,0,0,0-7.86-6.71A33.75,33.75,0,0,0,833,435.3q-.09,3-.09,6v5.83c0,2.31,0,4.89.17,7.74s.24,5.77.39,8.74.3,5.9.46,8.77.3,5.45.42,7.76.17,4.24.17,5.79a11.07,11.07,0,0,1-.2,2.81c-.19.39-.51.46-1,.22a5.92,5.92,0,0,1-1.51-1.42,28.43,28.43,0,0,1-1.84-2.59c-.65-1-1.27-2.11-1.88-3.25s-1.15-2.28-1.66-3.44a30,30,0,0,1-1.19-3.15c1.27.75,2.17.89,2.71.42s.8-1.77.8-3.88c0-.95,0-1.81,0-2.59s-.09-1.68-.18-2.69-.18-2.26-.29-3.76-.26-3.43-.44-5.81-.39-5.32-.63-8.84-.52-7.79-.81-12.84A34.82,34.82,0,0,0,813,437.86a24.89,24.89,0,0,0-9.08,6.86,30.36,30.36,0,0,0-5.44,10.38A60.69,60.69,0,0,0,796,468.4a44.13,44.13,0,0,0,.39,8.3c.16,1.18.39,2.4.69,3.69a31.31,31.31,0,0,0,1.14,3.86A26.69,26.69,0,0,0,800,488a19.23,19.23,0,0,0,2.44,3.47,67.5,67.5,0,0,1-5.59-7.55,58.67,58.67,0,0,1-4.35-8.1,48.7,48.7,0,0,1-2.83-8.47,37.5,37.5,0,0,1-1-8.55,53.15,53.15,0,0,1,.61-7.83,43,43,0,0,1,2.05-8.16,36.49,36.49,0,0,1,3.81-7.66,24.57,24.57,0,0,1,5.91-6.3,26.62,26.62,0,0,1,8.35-4.13,31.79,31.79,0,0,1,11.06-1.12,41.89,41.89,0,0,1,13.42,2.76A43.59,43.59,0,0,1,845,432.71a46.76,46.76,0,0,1,8.74,9,56.67,56.67,0,0,1,6.33,11,62.48,62.48,0,0,1,5.12,24.64,48.63,48.63,0,0,1-.24,5c-.17,1.53-.36,2.9-.59,4.12a29.56,29.56,0,0,1-.75,3.15,17,17,0,0,1-.76,2.05c-.65,1.47-1.42,2.2-2.3,2.2a2.58,2.58,0,0,1-1.66-.8,12.52,12.52,0,0,1-1.75-2.06,27.12,27.12,0,0,1-1.69-2.73c-.54-1-1-1.95-1.49-2.88s-.85-1.77-1.17-2.51S852.2,481.62,852,481.29Z"/></g></svg>